<svg width="22" height="22" viewBox="0 0 22 22" fill="#000000" xmlns="http://www.w3.org/2000/svg">
<path d="M19.7703 20.3649H2.22973C2.15088 20.3649 2.07526 20.3336 2.01951 20.2778C1.96376 20.2221 1.93243 20.1465 1.93243 20.0676V9.76031C1.93243 9.68146 1.96376 9.60584 2.01951 9.55009C2.07526 9.49434 2.15088 9.46301 2.22973 9.46301C2.30858 9.46301 2.3842 9.49434 2.43995 9.55009C2.49571 9.60584 2.52703 9.68146 2.52703 9.76031V19.7703H19.473V9.76031C19.473 9.68146 19.5043 9.60584 19.5601 9.55009C19.6158 9.49434 19.6914 9.46301 19.7703 9.46301C19.8491 9.46301 19.9247 9.49434 19.9805 9.55009C20.0362 9.60584 20.0676 9.68146 20.0676 9.76031V20.0676C20.0676 20.1465 20.0362 20.2221 19.9805 20.2778C19.9247 20.3336 19.8491 20.3649 19.7703 20.3649Z" fill="#79B0B0"/>
<path d="M21.108 7.28382H0.891781C0.841817 7.28358 0.792719 7.27076 0.749022 7.24653C0.705325 7.2223 0.668439 7.18745 0.641772 7.1452C0.615105 7.10295 0.599516 7.05465 0.596448 7.00478C0.593379 6.95491 0.602928 6.90508 0.624213 6.85987L3.00259 1.80582C3.02652 1.755 3.06435 1.71201 3.1117 1.68181C3.15906 1.65161 3.214 1.63544 3.27016 1.63517H18.7296C18.786 1.63515 18.8413 1.65119 18.8889 1.68141C18.9366 1.71163 18.9746 1.75478 18.9987 1.80582L21.3771 6.85987C21.3984 6.90519 21.4079 6.95516 21.4048 7.00515C21.4017 7.05515 21.3859 7.10353 21.3591 7.14582C21.3323 7.18812 21.2952 7.22294 21.2513 7.24707C21.2074 7.27119 21.1581 7.28383 21.108 7.28382ZM1.36032 6.68922H20.6395L18.5408 2.22976H3.45894L1.36032 6.68922Z" fill="#79B0B0"/>
<path d="M19.4233 10.0944C18.8979 10.0937 18.3941 9.8847 18.0226 9.51312C17.651 9.14153 17.4421 8.63775 17.4415 8.11229V6.98643C17.4415 6.90758 17.4729 6.83196 17.5286 6.7762C17.5844 6.72045 17.66 6.68913 17.7388 6.68913H21.1081C21.1869 6.68913 21.2626 6.72045 21.3183 6.7762C21.3741 6.83196 21.4054 6.90758 21.4054 6.98643V8.11229C21.4048 8.63778 21.1957 9.14156 20.8242 9.51314C20.4526 9.88471 19.9488 10.0937 19.4233 10.0944ZM18.0361 7.28372V8.11229C18.0334 8.29619 18.0673 8.47878 18.1358 8.64946C18.2044 8.82014 18.3061 8.9755 18.4352 9.10649C18.5643 9.23749 18.7181 9.34151 18.8878 9.41252C19.0575 9.48352 19.2395 9.52008 19.4235 9.52008C19.6074 9.52008 19.7895 9.48352 19.9591 9.41252C20.1288 9.34151 20.2826 9.23749 20.4117 9.10649C20.5408 8.9755 20.6426 8.82014 20.7111 8.64946C20.7796 8.47878 20.8135 8.29619 20.8108 8.11229V7.28372H18.0361Z" fill="#79B0B0"/>
<path d="M16.054 10.0944C15.5285 10.0937 15.0247 9.88471 14.6531 9.51314C14.2816 9.14156 14.0725 8.63778 14.0719 8.11229V6.98643C14.0719 6.90758 14.1032 6.83196 14.159 6.7762C14.2147 6.72045 14.2903 6.68913 14.3692 6.68913H17.7388C17.8176 6.68913 17.8932 6.72045 17.949 6.7762C18.0047 6.83196 18.0361 6.90758 18.0361 6.98643V8.11229C18.0354 8.63778 17.8264 9.14156 17.4548 9.51314C17.0833 9.88471 16.5795 10.0937 16.054 10.0944ZM14.6665 7.28372V8.11229C14.6665 8.48027 14.8127 8.83319 15.0729 9.09339C15.3331 9.35359 15.686 9.49978 16.054 9.49978C16.422 9.49978 16.7749 9.35359 17.0351 9.09339C17.2953 8.83319 17.4415 8.48027 17.4415 8.11229V7.28372H14.6665Z" fill="#79B0B0"/>
<path d="M12.6849 10.0944C12.1594 10.0937 11.6556 9.88471 11.2841 9.51314C10.9125 9.14156 10.7034 8.63778 10.7028 8.11229V6.98643C10.7028 6.90758 10.7341 6.83196 10.7899 6.7762C10.8457 6.72045 10.9213 6.68913 11.0001 6.68913H14.3694C14.4482 6.68913 14.5239 6.72045 14.5796 6.7762C14.6354 6.83196 14.6667 6.90758 14.6667 6.98643V8.11229C14.6661 8.63775 14.4572 9.14153 14.0856 9.51312C13.7141 9.8847 13.2104 10.0937 12.6849 10.0944ZM11.2974 7.28372V8.11229C11.2947 8.29619 11.3286 8.47878 11.3971 8.64946C11.4656 8.82014 11.5674 8.9755 11.6965 9.10649C11.8256 9.23749 11.9794 9.34151 12.1491 9.41252C12.3188 9.48352 12.5008 9.52008 12.6848 9.52008C12.8687 9.52008 13.0508 9.48352 13.2204 9.41252C13.3901 9.34151 13.5439 9.23749 13.673 9.10649C13.8021 8.9755 13.9039 8.82014 13.9724 8.64946C14.0409 8.47878 14.0748 8.29619 14.0721 8.11229V7.28372H11.2974Z" fill="#79B0B0"/>
<path d="M9.31516 10.0944C8.7897 10.0937 8.28594 9.8847 7.91442 9.51312C7.54289 9.14153 7.33392 8.63775 7.33337 8.11229V6.98643C7.33337 6.90758 7.3647 6.83196 7.42045 6.7762C7.4762 6.72045 7.55182 6.68913 7.63067 6.68913H10.9999C11.0788 6.68913 11.1544 6.72045 11.2102 6.7762C11.2659 6.83196 11.2972 6.90758 11.2972 6.98643V8.11229C11.2966 8.63778 11.0876 9.14156 10.716 9.51314C10.3444 9.88471 9.84065 10.0937 9.31516 10.0944V10.0944ZM7.92797 7.28372V8.11229C7.92528 8.29619 7.95917 8.47878 8.02768 8.64946C8.0962 8.82014 8.19796 8.9755 8.32705 9.10649C8.45614 9.23749 8.60999 9.34151 8.77965 9.41252C8.94931 9.48352 9.13139 9.52008 9.31531 9.52008C9.49922 9.52008 9.68131 9.48352 9.85096 9.41252C10.0206 9.34151 10.1745 9.23749 10.3036 9.10649C10.4327 8.9755 10.5344 8.82014 10.6029 8.64946C10.6714 8.47878 10.7053 8.29619 10.7026 8.11229V7.28372H7.92797Z" fill="#79B0B0"/>
<path d="M5.94589 10.0944C5.4204 10.0937 4.91662 9.88471 4.54504 9.51314C4.17346 9.14156 3.96444 8.63778 3.96381 8.11229V6.98643C3.96381 6.90758 3.99513 6.83196 4.05088 6.7762C4.10664 6.72045 4.18226 6.68913 4.2611 6.68913H7.63067C7.70952 6.68913 7.78514 6.72045 7.84089 6.7762C7.89665 6.83196 7.92797 6.90758 7.92797 6.98643V8.11229C7.92734 8.63778 7.71831 9.14156 7.34674 9.51314C6.97516 9.88471 6.47138 10.0937 5.94589 10.0944ZM4.5584 7.28372V8.11229C4.5584 8.48027 4.70458 8.83319 4.96479 9.09339C5.22499 9.35359 5.5779 9.49978 5.94589 9.49978C6.31387 9.49978 6.66678 9.35359 6.92699 9.09339C7.18719 8.83319 7.33337 8.48027 7.33337 8.11229V7.28372H4.5584Z" fill="#79B0B0"/>
<path d="M2.57675 10.0944C2.05126 10.0937 1.54747 9.88471 1.1759 9.51314C0.804323 9.14156 0.595295 8.63778 0.594666 8.11229V6.98643C0.594666 6.90758 0.625988 6.83196 0.681742 6.7762C0.737496 6.72045 0.813115 6.68913 0.891963 6.68913H4.26123C4.34008 6.68913 4.4157 6.72045 4.47145 6.7762C4.52721 6.83196 4.55853 6.90758 4.55853 6.98643V8.11229C4.55798 8.63775 4.34902 9.14153 3.97749 9.51312C3.60596 9.8847 3.10221 10.0937 2.57675 10.0944ZM1.18926 7.28372V8.11229C1.18657 8.29619 1.22046 8.47878 1.28898 8.64946C1.35749 8.82014 1.45925 8.9755 1.58834 9.10649C1.71744 9.23749 1.87128 9.34151 2.04094 9.41252C2.2106 9.48352 2.39268 9.52008 2.5766 9.52008C2.76051 9.52008 2.9426 9.48352 3.11225 9.41252C3.28191 9.34151 3.43576 9.23749 3.56485 9.10649C3.69395 8.9755 3.79571 8.82014 3.86422 8.64946C3.93273 8.47878 3.96663 8.29619 3.96394 8.11229V7.28372H1.18926Z" fill="#79B0B0"/>
<path d="M8.62145 20.3648H4.65759C4.57874 20.3648 4.50312 20.3335 4.44737 20.2777C4.39161 20.222 4.36029 20.1464 4.36029 20.0675V14.7162C4.36029 14.6373 4.39161 14.5617 4.44737 14.5059C4.50312 14.4502 4.57874 14.4189 4.65759 14.4189H8.62145C8.7003 14.4189 8.77592 14.4502 8.83167 14.5059C8.88743 14.5617 8.91875 14.6373 8.91875 14.7162V20.0675C8.91875 20.1464 8.88743 20.222 8.83167 20.2777C8.77592 20.3335 8.7003 20.3648 8.62145 20.3648ZM4.95489 19.7702H8.32416V15.0135H4.95489V19.7702Z" fill="#79B0B0"/>
<path d="M17.082 16.7881H11.2353C11.1565 16.7881 11.0809 16.7568 11.0251 16.701C10.9694 16.6453 10.938 16.5696 10.938 16.4908V12.6946C10.9381 12.5727 10.9866 12.4558 11.0727 12.3696C11.1589 12.2834 11.2758 12.2348 11.3977 12.2347H16.9197C17.0416 12.2348 17.1584 12.2834 17.2446 12.3696C17.3308 12.4558 17.3792 12.5727 17.3793 12.6946V16.4908C17.3793 16.5696 17.348 16.6453 17.2922 16.701C17.2365 16.7568 17.1608 16.7881 17.082 16.7881ZM11.5326 16.1935H16.7847V12.8302H11.5326V16.1935Z" fill="#79B0B0"/>
<path d="M17.6768 16.7881H10.6409C10.5621 16.7881 10.4865 16.7568 10.4307 16.701C10.3749 16.6453 10.3436 16.5696 10.3436 16.4908C10.3436 16.4119 10.3749 16.3363 10.4307 16.2806C10.4865 16.2248 10.5621 16.1935 10.6409 16.1935H17.6768C17.7556 16.1935 17.8312 16.2248 17.887 16.2806C17.9427 16.3363 17.9741 16.4119 17.9741 16.4908C17.9741 16.5696 17.9427 16.6453 17.887 16.701C17.8312 16.7568 17.7556 16.7881 17.6768 16.7881Z" fill="#79B0B0"/>
<path d="M17.7396 7.28378C17.6722 7.28369 17.6069 7.26073 17.5542 7.21865C17.5016 7.17658 17.4649 7.11788 17.45 7.05218L16.3024 1.99813C16.287 1.92202 16.302 1.84289 16.3442 1.77768C16.3863 1.71247 16.4523 1.66635 16.5281 1.64918C16.6038 1.63202 16.6833 1.64517 16.7494 1.68582C16.8156 1.72647 16.8632 1.7914 16.8822 1.86672L18.0297 6.92078C18.0396 6.96432 18.0395 7.00952 18.0295 7.05303C18.0195 7.09654 17.9999 7.13724 17.972 7.17211C17.9441 7.20698 17.9088 7.23513 17.8685 7.25446C17.8283 7.27379 17.7842 7.28381 17.7396 7.28378V7.28378Z" fill="#79B0B0"/>
<path d="M14.3055 7.28386C14.2358 7.28375 14.1683 7.25912 14.1149 7.21428C14.0614 7.16945 14.0255 7.10725 14.0133 7.03858L13.1122 1.98453C13.0994 1.90733 13.1175 1.8282 13.1627 1.7643C13.2078 1.7004 13.2764 1.65689 13.3534 1.64319C13.4305 1.6295 13.5098 1.64673 13.5742 1.69115C13.6386 1.73557 13.6829 1.8036 13.6975 1.88047L14.5983 6.93453C14.6121 7.01211 14.5945 7.09198 14.5494 7.15659C14.5043 7.22119 14.4354 7.26526 14.3578 7.2791C14.3406 7.28229 14.3231 7.28388 14.3055 7.28386Z" fill="#79B0B0"/>
<path d="M4.26071 7.28375C4.21607 7.28378 4.17199 7.27376 4.13175 7.25443C4.09151 7.2351 4.05614 7.20695 4.02827 7.17208C4.00039 7.13721 3.98073 7.09651 3.97074 7.053C3.96075 7.00949 3.96068 6.96429 3.97055 6.92075L5.11811 1.86669C5.12598 1.82786 5.14152 1.79099 5.16384 1.75826C5.18615 1.72552 5.21478 1.69757 5.24805 1.67605C5.28132 1.65454 5.31856 1.63989 5.35757 1.63297C5.39658 1.62605 5.43658 1.627 5.47522 1.63575C5.51386 1.64451 5.55035 1.66091 5.58257 1.68397C5.61478 1.70704 5.64206 1.73631 5.6628 1.77006C5.68354 1.80382 5.69733 1.84138 5.70334 1.88054C5.70936 1.9197 5.70749 1.95967 5.69784 1.9981L4.55028 7.05215C4.53539 7.11785 4.49863 7.17655 4.44602 7.21863C4.39341 7.2607 4.32807 7.28366 4.26071 7.28375Z" fill="#79B0B0"/>
<path d="M7.69438 7.28386C7.67682 7.28388 7.65931 7.28229 7.64205 7.2791C7.56449 7.26526 7.49559 7.22119 7.45049 7.15659C7.40539 7.09198 7.38779 7.01211 7.40154 6.93453L8.30235 1.88047C8.31694 1.8036 8.36125 1.73557 8.42567 1.69115C8.49009 1.64673 8.56942 1.6295 8.64646 1.64319C8.72351 1.65689 8.79204 1.7004 8.83721 1.7643C8.88237 1.8282 8.90053 1.90733 8.88773 1.98453L7.98662 7.03858C7.97441 7.10725 7.93845 7.16945 7.88503 7.21428C7.83161 7.25912 7.76412 7.28375 7.69438 7.28386V7.28386Z" fill="#79B0B0"/>
<path d="M11.0001 7.28382C10.9213 7.28382 10.8457 7.2525 10.7899 7.19674C10.7341 7.14099 10.7028 7.06537 10.7028 6.98652V1.93247C10.7028 1.85362 10.7341 1.778 10.7899 1.72225C10.8457 1.66649 10.9213 1.63517 11.0001 1.63517C11.079 1.63517 11.1546 1.66649 11.2103 1.72225C11.2661 1.778 11.2974 1.85362 11.2974 1.93247V6.98652C11.2974 7.06537 11.2661 7.14099 11.2103 7.19674C11.1546 7.2525 11.079 7.28382 11.0001 7.28382Z" fill="#79B0B0"/>
</svg>
