<svg width="22" height="22" viewBox="0 0 22 22" fill="none" xmlns="http://www.w3.org/2000/svg">
<g clip-path="url(#clip0_269_2161)">
<path d="M16.8572 3.64735C16.8667 3.64804 16.8763 3.64874 16.8861 3.64874C16.9026 3.64874 16.9191 3.64735 16.9353 3.64508C17.3685 3.65396 17.7152 4.00726 17.7157 4.44045C17.7157 4.63729 17.8753 4.79688 18.0721 4.79688C18.269 4.79688 18.4286 4.63729 18.4286 4.44045C18.4277 3.73193 17.9345 3.11896 17.2425 2.9665V2.62399C17.2425 2.42715 17.0829 2.26756 16.8861 2.26756C16.6892 2.26756 16.5296 2.42715 16.5296 2.62399V2.98269C15.798 3.17831 15.3246 3.88613 15.4233 4.63711C15.5219 5.3881 16.1621 5.94955 16.9195 5.94955C17.3593 5.94955 17.7157 6.30616 17.7157 6.74596C17.7157 7.18558 17.3593 7.54219 16.9195 7.54219C16.4797 7.54219 16.1232 7.18558 16.1232 6.74596C16.1232 6.54912 15.9636 6.38952 15.7668 6.38952C15.57 6.38952 15.4104 6.54912 15.4104 6.74596C15.4112 7.42889 15.87 8.02637 16.5296 8.20372V8.59426C16.5296 8.7911 16.6892 8.9507 16.8861 8.9507C17.0829 8.9507 17.2425 8.7911 17.2425 8.59426V8.22008C17.9952 8.05526 18.5029 7.3497 18.4199 6.58358C18.337 5.81745 17.6901 5.23685 16.9195 5.23703C16.4919 5.2372 16.1405 4.89957 16.1236 4.4723C16.1069 4.04503 16.4308 3.68076 16.8572 3.64752V3.64735Z" fill="#79B0B0"/>
<path d="M16.9399 0.524853C14.7471 0.524853 12.8758 1.95564 12.1748 3.87147H3.32817C3.1322 3.87147 2.97313 4.04812 2.97174 4.24391L2.8875 16.7476H0.365832C0.168993 16.7476 0 16.8902 0 17.0874V18.6741C0.00452502 20.1679 1.18104 21.395 2.67326 21.4626V21.4704H13.6782V21.46C13.7673 21.4633 13.804 21.4704 13.8604 21.4704H13.868C15.4125 21.468 16.6633 20.2152 16.6633 18.6708V10.6482C16.7524 10.6531 16.8467 10.6557 16.939 10.6557C19.7294 10.6557 22.0001 8.38067 22.0001 5.59011C22.0001 2.79973 19.7304 0.524853 16.9399 0.524853V0.524853ZM2.80883 20.7575H2.80657C1.65356 20.756 0.71809 19.8236 0.712869 18.6704V17.4605H11.0495V18.6654C11.05 19.4092 11.3471 20.1223 11.8748 20.6467C11.9122 20.6841 11.9586 20.713 11.9978 20.7575H2.80883ZM15.9504 18.6704C15.9506 19.8215 15.0186 20.7553 13.8677 20.7575H13.8609C12.7053 20.7554 11.7681 19.8212 11.7623 18.6657V17.0874C11.7653 16.9962 11.7305 16.9079 11.6659 16.8435C11.6013 16.7791 11.5131 16.7445 11.4221 16.7476H3.60037L3.68217 4.58434H11.9769C11.9137 4.91066 11.881 5.24203 11.8793 5.57428C11.8786 6.27688 12.0251 6.97164 12.3095 7.61403H8.94288C8.74587 7.61403 8.58645 7.77362 8.58645 7.97046C8.58645 8.1673 8.74587 8.32689 8.94288 8.32689H12.6962C13.4315 9.48322 14.607 10.2894 15.9504 10.5591V18.6704ZM16.9399 9.94303C14.5388 9.94303 12.5922 7.99657 12.5923 5.59534C12.5923 3.1941 14.5388 1.24764 16.94 1.24764C19.3411 1.24764 21.2875 3.19428 21.2875 5.59534C21.2849 7.99535 19.34 9.94042 16.9399 9.94303Z" fill="#79B0B0"/>
<path d="M6.65493 9.98619C6.02578 9.98619 5.5141 10.4817 5.5141 11.0908C5.5141 11.7 6.02578 12.1955 6.65493 12.1955C7.28409 12.1955 7.79594 11.7 7.79594 11.0908C7.79594 10.4817 7.28409 9.98619 6.65493 9.98619V9.98619ZM6.65493 11.4826C6.41876 11.4826 6.22697 11.3068 6.22697 11.0908C6.22697 10.8747 6.41894 10.6991 6.65493 10.6991C6.89093 10.6991 7.08307 10.8748 7.08307 11.0908C7.08307 11.3068 6.89093 11.4826 6.65493 11.4826Z" fill="#79B0B0"/>
<path d="M8.58649 11.0893C8.58649 11.2861 8.74591 11.4457 8.94292 11.4457H13.6949C13.8918 11.4457 14.0513 11.2861 14.0513 11.0893C14.0513 10.8924 13.8918 10.7328 13.6949 10.7328H8.94292C8.74591 10.7328 8.58649 10.8924 8.58649 11.0893Z" fill="#79B0B0"/>
<path d="M6.65493 6.8878C6.02578 6.8878 5.5141 7.38347 5.5141 7.99261C5.5141 8.60175 6.02578 9.09725 6.65493 9.09725C7.28409 9.09725 7.79594 8.60175 7.79594 7.99261C7.79594 7.38347 7.28409 6.8878 6.65493 6.8878ZM6.65493 8.38438C6.41876 8.38438 6.22697 8.2086 6.22697 7.99261C6.22697 7.77663 6.41894 7.60067 6.65493 7.60067C6.89093 7.60067 7.08307 7.77645 7.08307 7.99261C7.08307 8.2086 6.89093 8.38455 6.65493 8.38455V8.38438Z" fill="#79B0B0"/>
<path d="M6.65493 13.0843C6.02578 13.0843 5.5141 13.5798 5.5141 14.1889C5.5141 14.7981 6.02578 15.2935 6.65493 15.2935C7.28409 15.2935 7.79594 14.7981 7.79594 14.1889C7.79594 13.5798 7.28409 13.0843 6.65493 13.0843ZM6.65493 14.5807C6.41876 14.5807 6.22697 14.4051 6.22697 14.1889C6.22697 13.9729 6.41894 13.7972 6.65493 13.7972C6.89093 13.7972 7.08307 13.9729 7.08307 14.1889C7.08307 14.4049 6.89093 14.5807 6.65493 14.5807V14.5807Z" fill="#79B0B0"/>
<path d="M13.6949 13.8516H8.94292C8.74591 13.8516 8.58649 14.0112 8.58649 14.2081C8.58649 14.4049 8.74591 14.5645 8.94292 14.5645H13.6949C13.8918 14.5645 14.0513 14.4049 14.0513 14.2081C14.0513 14.0112 13.8918 13.8516 13.6949 13.8516Z" fill="#79B0B0"/>
</g>
<defs>
<clipPath id="clip0_269_2161">
<rect width="22" height="22" fill="white"/>
</clipPath>
</defs>
</svg>
