<svg width="20" height="20" viewBox="0 0 20 20" fill="none" xmlns="http://www.w3.org/2000/svg">
<g clip-path="url(#clip0_269_2152)">
<path d="M6.25152 13.1202C6.25152 12.887 6.04686 12.6979 5.79419 12.6979C5.54152 12.6979 5.33685 12.887 5.33685 13.1202C5.33685 13.3535 5.54152 13.5425 5.79419 13.5425C6.04686 13.5425 6.25152 13.3535 6.25152 13.1202V13.1202Z" fill="#008080"/>
<path d="M5.79419 9.69925C5.54202 9.69925 5.33685 9.88858 5.33685 10.1216C5.33685 10.3544 5.54202 10.5439 5.79419 10.5439C6.04635 10.5439 6.25169 10.3544 6.25169 10.1216C6.25169 9.88858 6.04635 9.69925 5.79419 9.69925Z" fill="#008080"/>
<path d="M6.25152 7.12318C6.25152 6.88988 6.04686 6.70088 5.79419 6.70088C5.54152 6.70088 5.33685 6.88988 5.33685 7.12318C5.33685 7.35631 5.54152 7.54548 5.79419 7.54548C6.04686 7.54548 6.25152 7.35631 6.25152 7.12318Z" fill="#008080"/>
<path d="M15.7487 0.551456C13.4008 0.551456 11.4975 2.45476 11.4977 4.8026C11.4977 7.15043 13.401 9.05374 15.7488 9.05374C18.0967 9.05374 19.9998 7.15043 19.9998 4.8026C19.9973 2.45594 18.0955 0.554152 15.7487 0.551456V0.551456ZM15.729 4.49855C16.4593 4.49872 17.0701 5.05359 17.1399 5.78061C17.2096 6.5078 16.7156 7.1688 15.9985 7.3076V7.70514C15.9985 7.8719 15.8634 8.007 15.6966 8.007C15.5298 8.007 15.3947 7.8719 15.3947 7.70514V7.29345C14.7595 7.13864 14.3123 6.56996 14.3115 5.91621C14.3115 5.74945 14.4465 5.61435 14.6133 5.61435C14.7799 5.61435 14.9152 5.74945 14.9152 5.91621C14.9152 6.36563 15.2795 6.72999 15.729 6.72999C16.1784 6.72999 16.5427 6.36563 16.5427 5.91621C16.5427 5.46662 16.1784 5.10227 15.729 5.10227C15.0112 5.10227 14.4068 4.56576 14.3216 3.85322C14.2363 3.14051 14.6972 2.47666 15.3947 2.30737V1.92667C15.3947 1.76008 15.5298 1.62481 15.6966 1.62481C15.8634 1.62481 15.9985 1.76008 15.9985 1.92667V2.29322C16.6645 2.42309 17.1456 3.00626 17.1464 3.68477C17.1464 3.85154 17.0114 3.98663 16.8446 3.98663C16.678 3.98663 16.5427 3.85154 16.5427 3.68477C16.5422 3.24091 16.1861 2.87908 15.7421 2.87167C15.7271 2.87403 15.7119 2.87537 15.6966 2.87537C15.6872 2.87537 15.6779 2.87487 15.6686 2.87403C15.2324 2.90654 14.8998 3.27814 14.9162 3.71543C14.9324 4.15255 15.2915 4.49855 15.7291 4.49855H15.729Z" fill="#008080"/>
<path d="M10.8769 19.3399C10.3743 18.8407 10.0914 18.1615 10.0908 17.453V16.2437H0V17.458C0.00505348 18.5977 0.929837 19.5195 2.06956 19.521H11.0812C11.0073 19.4676 10.9387 19.407 10.8769 19.3399V19.3399Z" fill="#008080"/>
<path d="M11.6646 7.40347H8.00858C7.84182 7.40347 7.70672 7.26838 7.70672 7.10161C7.70672 6.93502 7.84182 6.79975 8.00858 6.79975H11.3338C11.042 6.1674 10.8919 5.47895 10.8939 4.78241C10.8949 4.44602 10.9298 4.11064 10.998 3.78115H2.8741L2.79425 15.6399H10.408C10.4848 15.6369 10.5592 15.6659 10.6136 15.7201C10.668 15.7744 10.6972 15.8488 10.6943 15.9256V17.4533C10.6999 18.5955 11.6264 19.519 12.7686 19.521H12.7753C13.9132 19.5186 14.8341 18.5957 14.8341 17.458V9.57124C13.5214 9.32261 12.3722 8.5368 11.6646 7.40347V7.40347ZM5.79415 14.1465C5.20913 14.1465 4.7331 13.6861 4.7331 13.1203C4.7331 12.5546 5.20913 12.0943 5.79415 12.0943C6.37918 12.0943 6.85538 12.5546 6.85538 13.1203C6.85538 13.6861 6.37934 14.1465 5.79415 14.1465ZM5.79415 11.1478C5.20913 11.1478 4.7331 10.6875 4.7331 10.1217C4.7331 9.55591 5.20913 9.09571 5.79415 9.09571C6.37918 9.09571 6.85538 9.55591 6.85538 10.1217C6.85538 10.6874 6.37934 11.1478 5.79415 11.1478ZM5.79415 8.14919C5.20913 8.14919 4.7331 7.68882 4.7331 7.12317C4.7331 6.55735 5.20913 6.09698 5.79415 6.09698C6.37918 6.09698 6.85538 6.55719 6.85538 7.12301C6.85538 7.68882 6.37934 8.14919 5.79415 8.14919ZM12.6079 13.4407H8.00858C7.84182 13.4407 7.70672 13.3056 7.70672 13.1388C7.70672 12.9722 7.84182 12.837 8.00858 12.837H12.6079C12.7747 12.837 12.9098 12.9722 12.9098 13.1388C12.9098 13.3056 12.7747 13.4407 12.6079 13.4407ZM12.9098 10.1202C12.9098 10.287 12.7747 10.4221 12.6079 10.4221H8.00858C7.84182 10.4221 7.70672 10.287 7.70672 10.1202C7.70672 9.95362 7.84182 9.81835 8.00858 9.81835H12.6079C12.7747 9.81835 12.9098 9.95362 12.9098 10.1202Z" fill="#008080"/>
</g>
<defs>
<clipPath id="clip0_269_2152">
<rect width="20" height="20" fill="white"/>
</clipPath>
</defs>
</svg>
