<svg width="200" height="173" viewBox="0 0 200 173" fill="none" xmlns="http://www.w3.org/2000/svg">
<g opacity="0.3">
<path opacity="0.3" d="M186.573 45.4008C181.578 42.6699 175.798 41.3986 171.22 38.0153C166.642 34.6319 163.684 27.7942 167.076 23.2148L112.229 0C105.452 0.0710956 98.5743 0.154737 92.0726 2.07432C85.5709 3.9939 79.3863 8.02962 76.4108 14.1313C74.583 17.8826 74.0614 22.1777 72.1459 25.8872C68.5111 32.9215 60.5654 36.5808 52.8952 38.492C45.225 40.4032 37.1375 41.1393 30.0473 44.6481C22.9572 48.1568 16.9103 55.5675 18.2165 63.3797C19.0052 68.1054 22.2477 71.9697 24.8852 75.9678C27.5226 79.9617 29.6968 84.9342 28.0609 89.4383C25.7699 95.7616 17.8367 97.3257 11.7899 100.249C3.43943 104.285 -2.83696 114.656 1.3153 122.962C4.08626 128.499 10.492 131.28 16.6223 132.054C22.7527 132.828 28.9873 132.041 35.1385 132.644C43.0174 133.413 50.6584 136.512 56.8555 141.451C63.4491 146.708 68.2649 153.822 73.9195 160.078C79.5741 166.339 86.6767 172.026 95.0564 172.884C102.401 173.632 109.52 170.584 116.732 168.999C125.967 166.97 135.632 167.338 144.771 164.913C153.91 162.487 163.045 156.122 164.497 146.758C165.457 140.56 162.891 134.438 161.643 128.29C159.748 118.964 161.175 108.555 167.314 101.29C175.652 91.429 191.034 88.811 197.465 77.6072C203.766 66.6584 197.64 51.4523 186.573 45.4008Z" fill="#D5DCEF"/>
</g>
<path d="M110.476 119.708V131.874H99.6385V120.035C88.9094 119.382 78.6143 116.016 72.6509 111.344L78.6101 98.0953C84.031 102.114 91.8306 105.046 99.6344 105.807V87.6693C87.6032 84.7377 74.1657 80.7187 74.1657 65.1864C74.1657 53.6731 82.512 43.7908 99.6344 41.8336V29.7808H110.472V41.6203C118.601 42.2727 126.509 44.4432 132.473 48.2447L127.056 61.6023C121.531 58.4532 115.893 56.6047 110.476 55.9565V74.4205C122.507 77.2434 135.728 81.2624 135.728 96.5772C135.728 107.869 127.49 117.642 110.476 119.708ZM99.6385 71.7021V56.2785C93.8963 57.5833 91.6178 60.7325 91.6178 64.3165C91.6178 68.118 94.8686 70.1798 99.6385 71.7021ZM118.28 97.8778C118.28 94.0763 115.138 92.0145 110.476 90.3835V105.372C115.893 104.176 118.28 101.353 118.28 97.8778Z" fill="url(#paint0_linear_269_1708)"/>
<path d="M135.728 37.1287C135.728 39.8972 133.487 42.143 130.724 42.143C133.487 42.143 135.728 44.3888 135.728 47.1574C135.728 44.3888 137.969 42.143 140.731 42.143C137.969 42.1472 135.728 39.9014 135.728 37.1287Z" fill="url(#paint1_linear_269_1708)"/>
<path d="M138.119 47.4794C138.119 48.9264 136.946 50.1016 135.502 50.1016C136.946 50.1016 138.119 51.2767 138.119 52.7238C138.119 51.2767 139.292 50.1016 140.736 50.1016C139.287 50.1016 138.119 48.9264 138.119 47.4794Z" fill="url(#paint2_linear_269_1708)"/>
<path d="M78.7312 81.597C78.7312 83.044 77.5585 84.2192 76.1146 84.2192C77.5585 84.2192 78.7312 85.3943 78.7312 86.8413C78.7312 85.3943 79.9038 84.2192 81.3477 84.2192C79.9038 84.215 78.7312 83.044 78.7312 81.597Z" fill="url(#paint3_linear_269_1708)"/>
<path d="M111.77 133.609L118.806 132.103L120.191 125.324L127.507 124.91L129.572 118.524L135.999 118.328L142.225 110.854" stroke="url(#paint4_linear_269_1708)" stroke-width="3" stroke-miterlimit="10"/>
<path d="M138.069 111.695L142.459 110.562L141.85 114.899" stroke="url(#paint5_linear_269_1708)" stroke-width="3" stroke-miterlimit="10"/>
<path d="M64.868 108.626L64.7678 108.617V108.007L61.3458 108.312L57.9239 108.007V108.617L57.8237 108.626C57.8237 108.626 43.0341 120.26 45.0247 137.645C45.0247 137.645 44.6116 144.316 61.3458 144.052C78.0801 144.316 77.6669 137.645 77.6669 137.645C79.6575 120.26 64.868 108.626 64.868 108.626Z" fill="url(#paint6_linear_269_1708)"/>
<path d="M65.3103 100.496C63.6661 100.65 62.5268 99.9939 61.905 99.4837C61.5753 99.2119 61.1205 99.2119 60.7866 99.4837C60.1648 99.9939 59.0256 100.65 57.3814 100.496C54.7565 100.249 53.3 99.8015 52.8326 100.759L58.2535 110.073L61.3416 112.774L64.4298 110.073L69.8507 100.759C69.3916 99.8015 67.931 100.249 65.3103 100.496Z" fill="url(#paint7_linear_269_1708)"/>
<path d="M62.4559 133.48V135.63H60.5404V133.534C58.6416 133.417 56.8222 132.823 55.7664 132L56.8222 129.658C57.782 130.369 59.1591 130.887 60.5404 131.021V127.813C58.4121 127.295 56.0376 126.584 56.0376 123.836C56.0376 121.799 57.5149 120.051 60.5404 119.704V117.571H62.4559V119.667C63.8956 119.779 65.2936 120.164 66.3453 120.838L65.3854 123.2C64.4089 122.644 63.4115 122.318 62.4517 122.201V125.467C64.58 125.965 66.917 126.676 66.917 129.386C66.9211 131.385 65.4647 133.116 62.4559 133.48ZM60.5404 124.99V122.264C59.5264 122.494 59.1215 123.05 59.1215 123.686C59.1215 124.355 59.6975 124.719 60.5404 124.99ZM63.8372 129.62C63.8372 128.947 63.2822 128.583 62.4559 128.294V130.946C63.4157 130.732 63.8372 130.235 63.8372 129.62Z" fill="url(#paint8_linear_269_1708)"/>
<path d="M59.1549 100.341C58.65 100.487 58.0574 100.563 57.3814 100.496C57.0433 100.462 56.722 100.429 56.4215 100.391L59.831 107.998L59.1549 100.341Z" fill="url(#paint9_linear_269_1708)"/>
<path d="M59.1549 100.341C58.65 100.487 58.0574 100.563 57.3814 100.496C57.0433 100.462 56.722 100.429 56.4215 100.391L59.831 107.998L59.1549 100.341Z" fill="url(#paint10_linear_269_1708)"/>
<path d="M62.94 108.626L68.2482 100.186C67.5137 100.224 66.5414 100.383 65.3061 100.5C64.4465 100.584 63.7245 100.441 63.1403 100.211L61.7506 108.007L62.94 108.626Z" fill="url(#paint11_linear_269_1708)"/>
<path d="M62.94 108.626L68.2482 100.186C67.5137 100.224 66.5414 100.383 65.3061 100.5C64.4465 100.584 63.7245 100.441 63.1403 100.211L61.7506 108.007L62.94 108.626Z" fill="url(#paint12_linear_269_1708)"/>
<path d="M57.2061 109.337C56.8389 109.337 56.5259 109.052 56.4967 108.676C56.4675 108.283 56.7638 107.94 57.1519 107.915L65.5399 107.296C65.9238 107.267 66.2743 107.564 66.2994 107.953C66.3286 108.346 66.0323 108.689 65.6442 108.714L57.252 109.333C57.2395 109.337 57.2228 109.337 57.2061 109.337Z" fill="url(#paint13_linear_269_1708)"/>
<path d="M65.5524 110.211C65.5482 110.211 65.544 110.211 65.5399 110.211L57.1268 110.052C56.7345 110.044 56.4216 109.717 56.4299 109.324C56.4383 108.935 56.7554 108.626 57.1393 108.626C57.1435 108.626 57.1477 108.626 57.1519 108.626L65.5649 108.785C65.9572 108.793 66.2702 109.119 66.2618 109.512C66.2535 109.901 65.9363 110.211 65.5524 110.211Z" fill="url(#paint14_linear_269_1708)"/>
<path d="M144.537 138.691H125.045V143.262H144.537V138.691Z" fill="url(#paint15_linear_269_1708)"/>
<path d="M144.537 138.691H125.045V139.348H144.537V138.691Z" fill="#FCCC54"/>
<path opacity="0.3" d="M127.536 138.691H126.689V143.262H127.536V138.691Z" fill="#FFBE00"/>
<path opacity="0.3" d="M130.094 138.691H129.247V143.262H130.094V138.691Z" fill="#FFBE00"/>
<path opacity="0.3" d="M132.652 138.691H131.805V143.262H132.652V138.691Z" fill="#FFBE00"/>
<path d="M135.215 138.691H134.367V143.262H135.215V138.691Z" fill="#FFBE00"/>
<path d="M137.773 138.691H136.926V143.262H137.773V138.691Z" fill="#FFBE00"/>
<path d="M140.331 138.691H139.484V143.262H140.331V138.691Z" fill="#FFBE00"/>
<path d="M142.889 138.691H142.042V143.262H142.889V138.691Z" fill="#FFBE00"/>
<path opacity="0.5" d="M143.219 138.691H132.552V143.262H143.219V138.691Z" fill="#FFE6B3"/>
<path opacity="0.5" d="M143.219 138.691H140.514V143.262H143.219V138.691Z" fill="#FCE8C5"/>
<path d="M120.225 138.691H100.732V143.262H120.225V138.691Z" fill="url(#paint16_linear_269_1708)"/>
<path d="M120.225 138.691H100.732V139.348H120.225V138.691Z" fill="#FCCC54"/>
<path opacity="0.3" d="M103.227 138.691H102.38V143.262H103.227V138.691Z" fill="#FFBE00"/>
<path opacity="0.3" d="M105.786 138.691H104.938V143.262H105.786V138.691Z" fill="#FFBE00"/>
<path opacity="0.3" d="M108.344 138.691H107.497V143.262H108.344V138.691Z" fill="#FFBE00"/>
<path d="M110.902 138.691H110.055V143.262H110.902V138.691Z" fill="#FFBE00"/>
<path d="M113.46 138.691H112.613V143.262H113.46V138.691Z" fill="#FFBE00"/>
<path d="M116.018 138.691H115.171V143.262H116.018V138.691Z" fill="#FFBE00"/>
<path d="M118.576 138.691H117.729V143.262H118.576V138.691Z" fill="#FFBE00"/>
<path opacity="0.5" d="M118.91 138.691H108.244V143.262H118.91V138.691Z" fill="#FFE6B3"/>
<path opacity="0.5" d="M118.91 138.691H116.206V143.262H118.91V138.691Z" fill="#FCE8C5"/>
<path d="M90.3074 138.691H70.8147V143.262H90.3074V138.691Z" fill="url(#paint17_linear_269_1708)"/>
<path d="M90.3074 138.691H70.8147V139.348H90.3074V138.691Z" fill="#FCCC54"/>
<path opacity="0.3" d="M73.3102 138.691H72.4631V143.262H73.3102V138.691Z" fill="#FFBE00"/>
<path opacity="0.3" d="M75.8684 138.691H75.0212V143.262H75.8684V138.691Z" fill="#FFBE00"/>
<path opacity="0.3" d="M78.4265 138.691H77.5793V143.262H78.4265V138.691Z" fill="#FFBE00"/>
<path d="M80.9846 138.691H80.1375V143.262H80.9846V138.691Z" fill="#FFBE00"/>
<path d="M83.5428 138.691H82.6956V143.262H83.5428V138.691Z" fill="#FFBE00"/>
<path d="M86.105 138.691H85.2579V143.262H86.105V138.691Z" fill="#FFBE00"/>
<path d="M88.6632 138.691H87.816V143.262H88.6632V138.691Z" fill="#FFBE00"/>
<path opacity="0.5" d="M88.9929 138.691H78.3264V143.262H88.9929V138.691Z" fill="#FFE6B3"/>
<path opacity="0.5" d="M88.9929 138.691H86.2887V143.262H88.9929V138.691Z" fill="#FCE8C5"/>
<path d="M98.7705 134.124H79.2778V138.695H98.7705V134.124Z" fill="url(#paint18_linear_269_1708)"/>
<path d="M98.7705 134.124H79.2778V134.781H98.7705V134.124Z" fill="#FCCC54"/>
<path opacity="0.3" d="M81.7733 134.124H80.9261V138.695H81.7733V134.124Z" fill="#FFBE00"/>
<path opacity="0.3" d="M84.3315 134.124H83.4843V138.695H84.3315V134.124Z" fill="#FFBE00"/>
<path opacity="0.3" d="M86.8895 134.124H86.0424V138.695H86.8895V134.124Z" fill="#FFBE00"/>
<path d="M89.4477 134.124H88.6005V138.695H89.4477V134.124Z" fill="#FFBE00"/>
<path d="M92.0058 134.124H91.1587V138.695H92.0058V134.124Z" fill="#FFBE00"/>
<path d="M94.5639 134.124H93.7168V138.695H94.5639V134.124Z" fill="#FFBE00"/>
<path d="M97.1263 134.124H96.2791V138.695H97.1263V134.124Z" fill="#FFBE00"/>
<path opacity="0.5" d="M97.4559 134.124H86.7894V138.695H97.4559V134.124Z" fill="#FFE6B3"/>
<path opacity="0.5" d="M97.456 134.124H94.7518V138.695H97.456V134.124Z" fill="#FCE8C5"/>
<path d="M95.7909 129.545H76.2982V134.116H95.7909V129.545Z" fill="url(#paint19_linear_269_1708)"/>
<path d="M95.7909 129.545H76.2982V130.201H95.7909V129.545Z" fill="#FCCC54"/>
<path opacity="0.3" d="M78.7895 129.545H77.9424V134.116H78.7895V129.545Z" fill="#FFBE00"/>
<path opacity="0.3" d="M81.3477 129.545H80.5005V134.116H81.3477V129.545Z" fill="#FFBE00"/>
<path opacity="0.3" d="M83.9058 129.545H83.0587V134.116H83.9058V129.545Z" fill="#FFBE00"/>
<path d="M86.4681 129.545H85.621V134.116H86.4681V129.545Z" fill="#FFBE00"/>
<path d="M89.0262 129.545H88.1791V134.116H89.0262V129.545Z" fill="#FFBE00"/>
<path d="M91.5843 129.545H90.7372V134.116H91.5843V129.545Z" fill="#FFBE00"/>
<path d="M94.1425 129.545H93.2953V134.116H94.1425V129.545Z" fill="#FFBE00"/>
<path opacity="0.5" d="M94.4722 129.545H83.8057V134.116H94.4722V129.545Z" fill="#FFE6B3"/>
<path opacity="0.5" d="M94.4722 129.545H91.768V134.116H94.4722V129.545Z" fill="#FCE8C5"/>
<path d="M148.114 134.124H128.621V138.695H148.114V134.124Z" fill="url(#paint20_linear_269_1708)"/>
<path d="M148.114 134.124H128.621V134.781H148.114V134.124Z" fill="#FCCC54"/>
<path opacity="0.3" d="M131.116 134.124H130.269V138.695H131.116V134.124Z" fill="#FFBE00"/>
<path opacity="0.3" d="M133.675 134.124H132.827V138.695H133.675V134.124Z" fill="#FFBE00"/>
<path opacity="0.3" d="M136.233 134.124H135.385V138.695H136.233V134.124Z" fill="#FFBE00"/>
<path d="M138.791 134.124H137.944V138.695H138.791V134.124Z" fill="#FFBE00"/>
<path d="M141.349 134.124H140.502V138.695H141.349V134.124Z" fill="#FFBE00"/>
<path d="M143.911 134.124H143.064V138.695H143.911V134.124Z" fill="#FFBE00"/>
<path d="M146.469 134.124H145.622V138.695H146.469V134.124Z" fill="#FFBE00"/>
<path opacity="0.5" d="M146.799 134.124H136.133V138.695H146.799V134.124Z" fill="#FFE6B3"/>
<path opacity="0.5" d="M146.799 134.124H144.095V138.695H146.799V134.124Z" fill="#FCE8C5"/>
<path d="M147.254 129.545H127.761V134.116H147.254V129.545Z" fill="url(#paint21_linear_269_1708)"/>
<path d="M147.254 129.545H127.761V130.201H147.254V129.545Z" fill="#FCCC54"/>
<path opacity="0.3" d="M130.257 129.545H129.41V134.116H130.257V129.545Z" fill="#FFBE00"/>
<path opacity="0.3" d="M132.815 129.545H131.968V134.116H132.815V129.545Z" fill="#FFBE00"/>
<path opacity="0.3" d="M135.373 129.545H134.526V134.116H135.373V129.545Z" fill="#FFBE00"/>
<path d="M137.931 129.545H137.084V134.116H137.931V129.545Z" fill="#FFBE00"/>
<path d="M140.489 129.545H139.642V134.116H140.489V129.545Z" fill="#FFBE00"/>
<path d="M143.052 129.545H142.205V134.116H143.052V129.545Z" fill="#FFBE00"/>
<path d="M145.61 129.545H144.763V134.116H145.61V129.545Z" fill="#FFBE00"/>
<path opacity="0.5" d="M145.939 129.545H135.273V134.116H145.939V129.545Z" fill="#FFE6B3"/>
<path opacity="0.5" d="M145.939 129.545H143.235V134.116H145.939V129.545Z" fill="#FCE8C5"/>
<path d="M150.834 124.974H131.342V129.545H150.834V124.974Z" fill="url(#paint22_linear_269_1708)"/>
<path d="M150.834 124.974H131.342V125.63H150.834V124.974Z" fill="#FCCC54"/>
<path opacity="0.3" d="M133.837 124.974H132.99V129.545H133.837V124.974Z" fill="#FFBE00"/>
<path opacity="0.3" d="M136.395 124.974H135.548V129.545H136.395V124.974Z" fill="#FFBE00"/>
<path opacity="0.3" d="M138.954 124.974H138.106V129.545H138.954V124.974Z" fill="#FFBE00"/>
<path d="M141.512 124.974H140.665V129.545H141.512V124.974Z" fill="#FFBE00"/>
<path d="M144.07 124.974H143.223V129.545H144.07V124.974Z" fill="#FFBE00"/>
<path d="M146.628 124.974H145.781V129.545H146.628V124.974Z" fill="#FFBE00"/>
<path d="M149.186 124.974H148.339V129.545H149.186V124.974Z" fill="#FFBE00"/>
<path opacity="0.5" d="M149.52 124.974H138.853V129.545H149.52V124.974Z" fill="#FFE6B3"/>
<path opacity="0.5" d="M149.52 124.974H146.816V129.545H149.52V124.974Z" fill="#FCE8C5"/>
<defs>
<linearGradient id="paint0_linear_269_1708" x1="72.6527" y1="80.8248" x2="135.728" y2="80.8248" gradientUnits="userSpaceOnUse">
<stop stop-color="#FEC008"/>
<stop offset="1" stop-color="#FE9C03"/>
</linearGradient>
<linearGradient id="paint1_linear_269_1708" x1="130.722" y1="42.1452" x2="140.733" y2="42.1452" gradientUnits="userSpaceOnUse">
<stop stop-color="#FEC008"/>
<stop offset="1" stop-color="#FE9C03"/>
</linearGradient>
<linearGradient id="paint2_linear_269_1708" x1="135.502" y1="50.102" x2="140.733" y2="50.102" gradientUnits="userSpaceOnUse">
<stop stop-color="#FEC008"/>
<stop offset="1" stop-color="#FE9C03"/>
</linearGradient>
<linearGradient id="paint3_linear_269_1708" x1="76.1157" y1="84.2167" x2="81.3466" y2="84.2167" gradientUnits="userSpaceOnUse">
<stop stop-color="#FEC008"/>
<stop offset="1" stop-color="#FE9C03"/>
</linearGradient>
<linearGradient id="paint4_linear_269_1708" x1="111.638" y1="122.336" x2="142.705" y2="122.336" gradientUnits="userSpaceOnUse">
<stop stop-color="#474777"/>
<stop offset="1" stop-color="#393963"/>
</linearGradient>
<linearGradient id="paint5_linear_269_1708" x1="139.787" y1="109.405" x2="143.747" y2="113.446" gradientUnits="userSpaceOnUse">
<stop stop-color="#474777"/>
<stop offset="1" stop-color="#393963"/>
</linearGradient>
<linearGradient id="paint6_linear_269_1708" x1="44.8391" y1="126.032" x2="77.8519" y2="126.032" gradientUnits="userSpaceOnUse">
<stop stop-color="#C5CCE9"/>
<stop offset="1" stop-color="#A2AFDB"/>
</linearGradient>
<linearGradient id="paint7_linear_269_1708" x1="52.8342" y1="106.029" x2="69.8568" y2="106.029" gradientUnits="userSpaceOnUse">
<stop stop-color="#C5CCE9"/>
<stop offset="1" stop-color="#A2AFDB"/>
</linearGradient>
<linearGradient id="paint8_linear_269_1708" x1="55.7679" y1="126.603" x2="66.9231" y2="126.603" gradientUnits="userSpaceOnUse">
<stop stop-color="#474777"/>
<stop offset="1" stop-color="#393963"/>
</linearGradient>
<linearGradient id="paint9_linear_269_1708" x1="56.0908" y1="104.172" x2="59.8314" y2="104.172" gradientUnits="userSpaceOnUse">
<stop stop-color="#C5CCE9"/>
<stop offset="1" stop-color="#A2AFDB"/>
</linearGradient>
<linearGradient id="paint10_linear_269_1708" x1="52.8343" y1="104.172" x2="69.8566" y2="104.172" gradientUnits="userSpaceOnUse">
<stop stop-color="#A2AFDB"/>
<stop offset="1" stop-color="#C5CCE9"/>
</linearGradient>
<linearGradient id="paint11_linear_269_1708" x1="61.7563" y1="104.404" x2="68.8191" y2="104.404" gradientUnits="userSpaceOnUse">
<stop stop-color="#C5CCE9"/>
<stop offset="1" stop-color="#A2AFDB"/>
</linearGradient>
<linearGradient id="paint12_linear_269_1708" x1="52.8343" y1="104.404" x2="69.8567" y2="104.404" gradientUnits="userSpaceOnUse">
<stop stop-color="#A2AFDB"/>
<stop offset="1" stop-color="#C5CCE9"/>
</linearGradient>
<linearGradient id="paint13_linear_269_1708" x1="56.4946" y1="108.314" x2="66.3068" y2="108.314" gradientUnits="userSpaceOnUse">
<stop stop-color="#474777"/>
<stop offset="1" stop-color="#393963"/>
</linearGradient>
<linearGradient id="paint14_linear_269_1708" x1="56.4603" y1="108.963" x2="66.2311" y2="109.87" gradientUnits="userSpaceOnUse">
<stop stop-color="#474777"/>
<stop offset="1" stop-color="#393963"/>
</linearGradient>
<linearGradient id="paint15_linear_269_1708" x1="125.043" y1="140.978" x2="144.536" y2="140.978" gradientUnits="userSpaceOnUse">
<stop stop-color="#FEC008"/>
<stop offset="1" stop-color="#FE9C03"/>
</linearGradient>
<linearGradient id="paint16_linear_269_1708" x1="100.732" y1="140.978" x2="120.225" y2="140.978" gradientUnits="userSpaceOnUse">
<stop stop-color="#FEC008"/>
<stop offset="1" stop-color="#FE9C03"/>
</linearGradient>
<linearGradient id="paint17_linear_269_1708" x1="70.8159" y1="140.978" x2="90.309" y2="140.978" gradientUnits="userSpaceOnUse">
<stop stop-color="#FEC008"/>
<stop offset="1" stop-color="#FE9C03"/>
</linearGradient>
<linearGradient id="paint18_linear_269_1708" x1="79.2785" y1="136.407" x2="98.7716" y2="136.407" gradientUnits="userSpaceOnUse">
<stop stop-color="#FEC008"/>
<stop offset="1" stop-color="#FE9C03"/>
</linearGradient>
<linearGradient id="paint19_linear_269_1708" x1="76.2962" y1="131.83" x2="95.7893" y2="131.83" gradientUnits="userSpaceOnUse">
<stop stop-color="#FEC008"/>
<stop offset="1" stop-color="#FE9C03"/>
</linearGradient>
<linearGradient id="paint20_linear_269_1708" x1="128.622" y1="136.407" x2="148.115" y2="136.407" gradientUnits="userSpaceOnUse">
<stop stop-color="#FEC008"/>
<stop offset="1" stop-color="#FE9C03"/>
</linearGradient>
<linearGradient id="paint21_linear_269_1708" x1="127.763" y1="131.83" x2="147.256" y2="131.83" gradientUnits="userSpaceOnUse">
<stop stop-color="#FEC008"/>
<stop offset="1" stop-color="#FE9C03"/>
</linearGradient>
<linearGradient id="paint22_linear_269_1708" x1="131.342" y1="127.259" x2="150.835" y2="127.259" gradientUnits="userSpaceOnUse">
<stop stop-color="#FEC008"/>
<stop offset="1" stop-color="#FE9C03"/>
</linearGradient>
</defs>
</svg>
