<svg width="99" height="141" viewBox="0 0 99 141" fill="none" xmlns="http://www.w3.org/2000/svg">
<path d="M0.935547 25.8324C0.935547 20.9751 4.88535 17.0376 9.75784 17.0376H84.7846C88.9236 17.0376 92.3371 20.2712 92.5472 24.3924L98.0855 132.828C98.2499 136.053 95.7038 138.773 92.465 138.832L6.47547 140.389C3.43225 140.444 0.936085 138 0.936085 134.966V25.8324H0.935547Z" fill="url(#paint0_linear_269_1198)"/>
<path d="M19.0433 138.545C19.0422 138.545 19.0417 138.545 19.0406 138.545L9.41869 138.422C6.20135 138.38 3.58374 135.737 3.58374 132.529V118.047C3.58374 117.934 3.67563 117.843 3.78902 117.843C3.90241 117.843 3.9943 117.934 3.9943 118.047V132.529C3.9943 135.514 6.42974 137.973 9.42352 138.012L19.0454 138.136C19.1588 138.137 19.2496 138.23 19.248 138.343C19.247 138.455 19.1551 138.545 19.0433 138.545Z" fill="white"/>
<path d="M3.78902 113.767C3.67563 113.767 3.58374 113.675 3.58374 113.562V111.217C3.58374 111.104 3.67563 111.012 3.78902 111.012C3.90241 111.012 3.99431 111.104 3.99431 111.217V113.562C3.99431 113.675 3.90241 113.767 3.78902 113.767Z" fill="white"/>
<path d="M7.08214 18.7063C7.073 17.1522 8.44388 15.9495 9.98887 16.1584C20.2347 17.5432 55.4663 21.8273 84.596 19.5982C85.9244 19.4964 87.0771 20.4998 87.148 21.8262L92.955 130.746C93.0346 132.239 91.8905 133.516 90.3933 133.605C78.142 134.327 27.6877 137.122 9.69115 135.242C8.59596 135.128 7.76462 134.209 7.75817 133.111L7.08214 18.7063Z" fill="url(#paint1_linear_269_1198)"/>
<path opacity="0.6" d="M8.28907 21.4358C8.28048 19.9401 9.59976 18.7829 11.0862 18.9838C20.9462 20.3167 54.851 24.439 82.8838 22.294C84.1622 22.1959 85.2714 23.1618 85.3397 24.4379L90.9279 129.256C91.0048 130.693 89.9037 131.922 88.4624 132.007C76.6727 132.703 28.1176 135.391 10.7992 133.583C9.74539 133.473 8.94522 132.588 8.93877 131.532L8.28907 21.4358Z" fill="white"/>
<g opacity="0.6">
<path opacity="0.6" d="M80.0937 51.5064C80.5446 51.5064 80.8939 51.1394 80.8702 50.6905L80.8568 50.4387C80.8331 49.9898 80.4446 49.6191 79.9943 49.6148L16.4821 48.9912C16.0312 48.9869 15.8609 49.2934 16.1032 49.6721L16.8357 50.8175C17.0781 51.1962 17.645 51.5064 18.0959 51.5064H80.0937Z" fill="white"/>
</g>
<g opacity="0.6">
<path opacity="0.6" d="M17.0642 54.2295C16.6133 54.2226 16.3844 54.5574 16.5553 54.9731L16.9712 55.9845C17.1421 56.4003 17.651 56.7404 18.1013 56.7404H57.3838C57.8346 56.7404 58.1909 56.3729 58.1753 55.924L58.1667 55.6733C58.1517 55.2244 57.7702 54.851 57.3193 54.844L17.0642 54.2295Z" fill="white"/>
</g>
<g opacity="0.6">
<path opacity="0.6" d="M80.0938 64.6637C80.5446 64.6637 80.8939 64.2967 80.8703 63.8478L80.8569 63.596C80.8332 63.1471 80.4447 62.7764 79.9944 62.7721L16.4827 62.1485C16.0318 62.1442 15.8615 62.4507 16.1039 62.8294L16.8363 63.9747C17.0787 64.3535 17.6456 64.6637 18.0965 64.6637H80.0938V64.6637Z" fill="white"/>
</g>
<g opacity="0.6">
<path opacity="0.6" d="M17.0642 67.3868C16.6133 67.3799 16.3844 67.7147 16.5553 68.1304L16.9712 69.1418C17.1421 69.5575 17.651 69.8977 18.1013 69.8977H57.3838C57.8346 69.8977 58.1909 69.5302 58.1753 69.0813L58.1667 68.8306C58.1517 68.3816 57.7702 68.0083 57.3193 68.0013L17.0642 67.3868Z" fill="white"/>
</g>
<g opacity="0.6">
<path opacity="0.6" d="M80.4817 79.1009C80.9326 79.1009 81.2819 78.7339 81.2583 78.285L81.2448 78.0332C81.2212 77.5843 80.8326 77.2135 80.3823 77.2093L16.8707 76.5857C16.4198 76.5814 16.2495 76.8878 16.4918 77.2666L17.2243 78.4119C17.4666 78.7907 18.0336 79.1009 18.4844 79.1009H80.4817V79.1009Z" fill="white"/>
</g>
<g opacity="0.6">
<path opacity="0.6" d="M80.6764 87.2276C81.1272 87.2276 81.4765 86.8606 81.4529 86.4117L81.4395 86.1599C81.4158 85.711 81.0273 85.3403 80.577 85.336L17.0653 84.7124C16.6144 84.7081 16.4441 85.0146 16.6864 85.3933L17.4189 86.5387C17.6613 86.9174 18.2282 87.2276 18.6791 87.2276H80.6764Z" fill="white"/>
</g>
<g opacity="0.6">
<path opacity="0.6" d="M80.8703 95.5484C81.3211 95.5484 81.6704 95.1814 81.6468 94.7325L81.6334 94.4807C81.6097 94.0318 81.2212 93.6611 80.7709 93.6568L17.2592 93.0333C16.8084 93.029 16.638 93.3354 16.8804 93.7141L17.6128 94.8594C17.8552 95.2382 18.4221 95.5484 18.873 95.5484H80.8703V95.5484Z" fill="white"/>
</g>
<g opacity="0.6">
<path opacity="0.6" d="M80.6764 104.062C81.1272 104.062 81.4765 103.695 81.4529 103.246L81.4395 102.994C81.4158 102.545 81.0273 102.175 80.577 102.17L17.0653 101.547C16.6144 101.542 16.4441 101.849 16.6864 102.228L17.4189 103.373C17.6613 103.752 18.2282 104.062 18.6791 104.062H80.6764V104.062Z" fill="white"/>
</g>
<g opacity="0.6">
<path opacity="0.6" d="M80.8703 112.382C81.3211 112.382 81.6704 112.015 81.6468 111.566L81.6334 111.314C81.6097 110.865 81.2212 110.495 80.7709 110.49L17.2592 109.867C16.8084 109.862 16.638 110.169 16.8804 110.548L17.6128 111.693C17.8552 112.072 18.4221 112.382 18.873 112.382H80.8703V112.382Z" fill="white"/>
</g>
<g opacity="0.6">
<path opacity="0.6" d="M80.8702 121.283C81.3211 121.283 81.6704 120.916 81.6468 120.467L81.6333 120.215C81.6097 119.766 81.2212 119.396 80.7708 119.391L17.2581 118.768C16.8073 118.763 16.6369 119.07 16.8793 119.449L17.6117 120.594C17.8541 120.973 18.421 121.283 18.8719 121.283H80.8702V121.283Z" fill="white"/>
</g>
<path d="M51.9249 2.25243C49.2149 0.373148 46.8584 0.410113 45.1995 0.898146C43.6862 1.34332 42.7055 2.79939 42.8495 4.36581L43.5648 12.1497L52.0775 12.9029C52.0775 12.9029 57.2397 5.93866 51.9249 2.25243ZM48.1815 8.53204C47.0094 8.53204 46.0588 7.5849 46.0588 6.41598C46.0588 5.24705 47.0089 4.29992 48.1815 4.29992C49.3541 4.29992 50.3042 5.24705 50.3042 6.41598C50.3042 7.5849 49.3535 8.53204 48.1815 8.53204Z" fill="url(#paint2_linear_269_1198)"/>
<path d="M44.4155 8.87542C44.3107 8.87542 44.221 8.7956 44.2113 8.689L44.0974 7.44936C44.0872 7.33686 44.1704 7.23722 44.2833 7.22651C44.3983 7.21579 44.4961 7.29936 44.5063 7.41186L44.6202 8.6515C44.6304 8.76399 44.5477 8.86364 44.4343 8.87382C44.4279 8.87542 44.4214 8.87542 44.4155 8.87542ZM44.1919 6.44651C44.0872 6.44651 43.9974 6.36669 43.9877 6.26008L43.9012 5.31885C43.7642 3.82689 44.7057 2.43779 46.1405 2.01565C47.1567 1.71673 48.2035 1.67387 49.252 1.88816C49.3632 1.91066 49.4347 2.01887 49.4121 2.12976C49.3896 2.24012 49.2815 2.31137 49.1698 2.2894C48.188 2.08905 47.2078 2.12869 46.2571 2.40833C45.0098 2.77529 44.1914 3.98386 44.3107 5.28188L44.3972 6.22312C44.4074 6.33562 44.3247 6.43526 44.2113 6.44598C44.2043 6.44598 44.1984 6.44651 44.1919 6.44651Z" fill="white"/>
<path d="M31.9465 17.1804V13.2671C31.9465 11.916 33.0696 10.8339 34.4239 10.8805L61.4904 11.8051C62.6915 11.8464 63.6642 12.7914 63.7362 13.9871L63.9624 17.7472L31.9465 17.1804Z" fill="url(#paint3_linear_269_1198)"/>
<path d="M42.0392 12.3549H40.8752C40.7618 12.3549 40.67 12.2633 40.67 12.1503C40.67 12.0373 40.7618 11.9456 40.8752 11.9456H42.0392C42.1526 11.9456 42.2445 12.0373 42.2445 12.1503C42.2445 12.2633 42.1526 12.3549 42.0392 12.3549Z" fill="white"/>
<path d="M33.4114 15.9517C33.298 15.9517 33.2061 15.8601 33.2061 15.7471V14.164C33.2061 12.941 34.2046 11.9456 35.4315 11.9456H39.7107C39.8241 11.9456 39.916 12.0373 39.916 12.1503C39.916 12.2633 39.8241 12.3549 39.7107 12.3549H35.4315C34.4308 12.3549 33.6167 13.1665 33.6167 14.1635V15.7465C33.6172 15.8601 33.5248 15.9517 33.4114 15.9517Z" fill="white"/>
<path d="M20.9182 18.1683C20.9837 16.813 22.1047 15.748 23.4659 15.748L70.7969 15.7469C72.4988 15.7469 73.9535 16.9678 74.2442 18.6398L74.2845 18.8707C74.6027 20.7017 73.1883 22.3763 71.3241 22.3763H22.7647C21.649 22.3763 20.7602 21.4464 20.8134 20.3358L20.9182 18.1683Z" fill="url(#paint4_linear_269_1198)"/>
<defs>
<linearGradient id="paint0_linear_269_1198" x1="49.4829" y1="133.105" x2="42.6255" y2="-70.5137" gradientUnits="userSpaceOnUse">
<stop stop-color="#8E9BFF"/>
<stop offset="1" stop-color="#5B42FF"/>
</linearGradient>
<linearGradient id="paint1_linear_269_1198" x1="55.6388" y1="24.7523" x2="40.7851" y2="157.886" gradientUnits="userSpaceOnUse">
<stop stop-color="#53D8FF"/>
<stop offset="1" stop-color="#3840F7"/>
</linearGradient>
<linearGradient id="paint2_linear_269_1198" x1="60.2956" y1="-8.91165" x2="25.9223" y2="36.4469" gradientUnits="userSpaceOnUse">
<stop stop-color="#2B3582"/>
<stop offset="1" stop-color="#150E42"/>
</linearGradient>
<linearGradient id="paint3_linear_269_1198" x1="64.0811" y1="-6.04319" x2="29.7078" y2="39.3154" gradientUnits="userSpaceOnUse">
<stop stop-color="#2B3582"/>
<stop offset="1" stop-color="#150E42"/>
</linearGradient>
<linearGradient id="paint4_linear_269_1198" x1="46.5296" y1="-4.07158" x2="48.2657" y2="36.1755" gradientUnits="userSpaceOnUse">
<stop stop-color="#53D8FF"/>
<stop offset="1" stop-color="#3840F7"/>
</linearGradient>
</defs>
</svg>
