<svg width="16" height="27" viewBox="0 0 16 27" fill="none" xmlns="http://www.w3.org/2000/svg">
<path d="M9.73085 20.3628C9.73085 20.3628 14.8446 -2.58276 7.96932 0.574716C1.09406 3.73219 7.27395 19.7499 7.96932 20.7512C8.66416 21.7529 9.32943 22.3283 9.73085 20.3628Z" fill="url(#paint0_linear_269_1309)"/>
<path d="M9.21729 20.9902C9.21729 20.9902 6.98821 5.11165 13.3659 6.32665C19.7431 7.54164 10.0841 20.8579 10.0223 21.4305C9.95995 22.0032 9.21729 20.9902 9.21729 20.9902Z" fill="url(#paint1_linear_269_1309)"/>
<path d="M8.39989 21.076C8.39989 21.076 6.88337 6.94279 1.98078 9.23243C-2.92181 11.5221 7.67118 21.1301 7.841 21.6122C8.01081 22.0944 8.39989 21.076 8.39989 21.076Z" fill="url(#paint2_linear_269_1309)"/>
<g opacity="0.7">
<path opacity="0.7" d="M10.1706 3.1677C10.1313 3.1677 10.0953 3.14253 10.084 3.10342C9.87982 2.42037 9.54126 1.9618 9.07803 1.74001C8.42402 1.42661 7.73937 1.69554 7.73239 1.69822C7.68617 1.71697 7.63351 1.69448 7.6147 1.6484C7.59589 1.60233 7.61846 1.54982 7.66467 1.53107C7.69584 1.51875 8.43154 1.22947 9.15648 1.57715C9.66755 1.82197 10.0378 2.31859 10.2571 3.05199C10.2716 3.09967 10.2442 3.15002 10.1963 3.16395C10.1883 3.16663 10.1792 3.1677 10.1706 3.1677Z" fill="white"/>
<path opacity="0.7" d="M10.1705 18.8977C10.1539 18.8977 10.1367 18.8928 10.1216 18.8832C10.0797 18.8564 10.0679 18.8002 10.0948 18.7584C10.1189 18.7209 12.5436 14.9688 14.1445 11.5054C14.6416 10.4297 14.7147 9.48955 14.3616 8.71117C13.8302 7.54011 12.5006 7.13404 12.4872 7.12976C12.4394 7.11529 12.412 7.06548 12.4265 7.0178C12.4405 6.97013 12.491 6.94333 12.5388 6.95726C12.5968 6.9744 13.9613 7.39173 14.5266 8.63725C14.9022 9.46545 14.8292 10.4554 14.309 11.581C12.7027 15.0561 10.2716 18.8189 10.2468 18.8569C10.2296 18.8832 10.2006 18.8977 10.1705 18.8977Z" fill="white"/>
<path opacity="0.7" d="M7.11179 18.8512C7.0688 18.8512 7.03065 18.8206 7.02259 18.7772C7.0199 18.7617 6.73024 17.2044 5.3255 12.9546C4.78435 11.3185 4.06156 10.313 3.23451 10.0478C2.51656 9.81746 1.95068 10.2198 1.94531 10.2235C1.905 10.2535 1.84857 10.2439 1.81902 10.2043C1.78946 10.1641 1.79806 10.1078 1.83837 10.0784C1.86416 10.0596 2.48001 9.61871 3.28664 9.87532C4.18462 10.1619 4.92838 11.1787 5.49748 12.8989C6.90813 17.1648 7.19832 18.7306 7.20101 18.7462C7.2096 18.7955 7.17736 18.8421 7.12792 18.8512C7.12254 18.8506 7.11716 18.8512 7.11179 18.8512Z" fill="white"/>
</g>
<path d="M4.32227 20.3077L5.71141 25.2475C5.92529 26.0071 6.61743 26.5348 7.409 26.5407L10.5463 26.5643C11.4469 26.5712 12.21 25.9048 12.3229 25.0139L12.9769 19.8325L4.32227 20.3077Z" fill="url(#paint3_linear_269_1309)"/>
<path d="M12.8526 19.4773L4.23411 19.6284C3.81387 19.6359 3.47639 20.0034 3.47908 20.4491C3.48177 20.8943 3.82354 21.2521 4.24324 21.2484L12.8532 21.167C13.3121 21.1627 13.6856 20.7797 13.6856 20.3114C13.6856 19.8427 13.3121 19.4693 12.8526 19.4773Z" fill="url(#paint4_linear_269_1309)"/>
<defs>
<linearGradient id="paint0_linear_269_1309" x1="7.96575" y1="4.61294" x2="14.4943" y2="77.9599" gradientUnits="userSpaceOnUse">
<stop stop-color="#C32B78"/>
<stop offset="1" stop-color="#593092"/>
</linearGradient>
<linearGradient id="paint1_linear_269_1309" x1="1.38308" y1="27.5649" x2="18.3058" y2="2.35882" gradientUnits="userSpaceOnUse">
<stop stop-color="#A737D5"/>
<stop offset="1" stop-color="#EF497A"/>
</linearGradient>
<linearGradient id="paint2_linear_269_1309" x1="3.84667" y1="11.5152" x2="10.6335" y2="57.2253" gradientUnits="userSpaceOnUse">
<stop stop-color="#A737D5"/>
<stop offset="1" stop-color="#EF497A"/>
</linearGradient>
<linearGradient id="paint3_linear_269_1309" x1="4.32219" y1="23.1986" x2="12.9765" y2="23.1986" gradientUnits="userSpaceOnUse">
<stop stop-color="#18459F"/>
<stop offset="1" stop-color="#2874B5"/>
</linearGradient>
<linearGradient id="paint4_linear_269_1309" x1="8.52226" y1="19.7028" x2="9.22726" y2="27.6234" gradientUnits="userSpaceOnUse">
<stop stop-color="#18459F"/>
<stop offset="1" stop-color="#2874B5"/>
</linearGradient>
</defs>
</svg>
