<svg width="83" height="54" viewBox="0 0 83 54" fill="none" xmlns="http://www.w3.org/2000/svg">
<path d="M14.402 40.2855C10.3893 40.2855 6.98603 39.4375 4.19162 37.7409C1.39721 36.0448 0 33.8216 0 31.0713C0 29.0356 0.716336 27.3213 2.14955 25.9284C3.58222 24.5356 5.32013 23.8392 7.3622 23.8392C9.51174 23.8392 11.24 24.3931 12.548 25.4999C13.8554 26.6072 14.5094 28.0713 14.5094 29.8927C14.5094 31.2143 14.2407 32.2413 13.7034 32.9731C13.166 33.7054 12.548 34.3573 11.8494 34.9284C11.1508 35.5 10.6403 35.9109 10.3178 36.1605C10.0669 36.4466 9.94165 36.8034 9.94165 37.232C9.94165 37.7677 10.2818 38.2589 10.9627 38.7052C11.643 39.152 12.4674 39.3748 13.4347 39.3748C16.372 39.3748 18.7634 37.7859 20.6088 34.607C22.4536 31.4286 23.3763 28.1608 23.3763 24.8035C23.3763 22.9108 22.991 21.4017 22.2209 20.2767C21.4503 19.1517 20.1697 18.5892 18.3786 18.5892C17.4828 18.5892 16.6407 18.6963 15.8529 18.9106C15.1006 19.1967 14.366 19.4645 13.6496 19.7142C13.2197 19.7142 13.0048 19.4287 13.0048 18.8571C13.0048 18.5003 13.4717 18.241 14.4068 18.0803C15.3413 17.9196 16.2404 17.8392 17.1039 17.8392C20.1241 17.8392 22.6417 16.786 24.6553 14.6785C26.6689 12.5715 27.6754 9.94656 27.6754 6.80354C27.6754 5.26819 27.2251 3.94659 26.3255 2.83927C25.4254 1.73249 23.9863 1.17857 22.006 1.17857C20.3503 1.17857 18.973 1.43732 17.8756 1.95267C16.7772 2.4691 16.2291 3.08355 16.2291 3.79498C16.2291 4.54337 17.0798 5.15676 18.7817 5.63729C20.483 6.11783 21.3342 7.40836 21.3342 9.50888C21.3342 11.0399 20.7249 12.2501 19.5071 13.1399C18.2889 14.0303 16.7665 14.4749 14.9393 14.4749C13.1837 14.4749 11.7688 13.9944 10.694 13.0328C9.61922 12.0717 9.08183 10.7721 9.08183 9.13388C9.08183 7.42443 9.79817 5.90301 11.2314 4.56694C12.6641 3.23195 14.2585 2.25267 16.0141 1.62964C17.7692 1.00714 19.3819 0.579103 20.8533 0.34714C22.3236 0.116248 23.903 0 25.5914 0C29.7949 0 33.3239 0.721604 36.1806 2.1632C39.0374 3.60534 40.4652 5.62605 40.4652 8.22532C40.4652 11.2521 39.1572 13.5406 36.5423 15.0889C33.9268 16.6381 30.9352 17.4128 27.5679 17.4128V17.8397C30.6128 17.8397 33.1116 18.654 35.0645 20.2831C37.0168 21.9122 37.9932 23.8724 37.9932 26.1636C37.9932 30.9968 35.668 34.5582 31.018 36.8495C26.3685 39.1407 20.8291 40.2855 14.402 40.2855Z" fill="url(#paint0_linear_269_1278)"/>
<path d="M82.811 16.3392C82.811 22.5181 80.2852 28.0536 75.2338 32.9463C70.1824 37.8395 64.2528 40.2855 57.4463 40.2855C52.8602 40.2855 49.278 38.7678 46.6985 35.732C44.1191 32.6966 42.8293 28.7677 42.8293 23.9463C42.8293 17.4824 45.4357 11.8751 50.6483 7.12497C55.861 2.37535 61.7094 0 68.194 0C72.6721 0 76.228 1.47321 78.8612 4.41962C81.4944 7.36604 82.811 11.3399 82.811 16.3392ZM73.0305 3.80355C73.0305 2.87516 72.7887 2.17874 72.305 1.71428C71.8214 1.25035 71.0959 1.01785 70.1286 1.01785C69.0178 1.01785 67.9877 1.43785 67.0386 2.27677C66.0891 3.11624 64.7547 5.08926 63.0351 8.19639C61.3155 11.3035 59.1476 16.2947 56.5327 23.1695C53.9173 30.0449 52.6098 34.4822 52.6098 36.482C52.6098 37.4109 52.8516 38.1073 53.3353 38.5712C53.8189 39.0357 54.5444 39.2677 55.5117 39.2677C56.6579 39.2677 57.6881 38.8482 58.6017 38.0087C59.5152 37.1698 60.8673 35.1609 62.6589 31.982C64.45 28.8036 66.6265 23.7947 69.1882 16.9553C71.7494 10.1169 73.0305 5.73212 73.0305 3.80355Z" fill="url(#paint1_linear_269_1278)"/>
<path d="M30.6447 49.0981C30.5727 49.277 30.5216 49.4131 30.4899 49.5063C30.4582 49.6 30.4426 49.6873 30.4426 49.7677C30.4426 49.8304 30.4582 49.877 30.4899 49.9081C30.5211 49.9397 30.5684 49.9552 30.6307 49.9552C30.908 49.9552 31.1837 49.7768 31.4572 49.4195C31.7302 49.0627 31.9226 48.7922 32.0349 48.6095C32.1467 48.4268 32.2923 48.1831 32.4713 47.8799L32.6459 47.9602C32.3504 48.505 32.0881 48.9379 31.8603 49.2593C31.6324 49.5807 31.3315 49.8668 30.9601 50.1164C30.5883 50.3661 30.1653 50.4914 29.6908 50.4914C29.2786 50.4914 28.9363 50.364 28.6633 50.11C28.3898 49.8556 28.2538 49.5143 28.2538 49.0857L28.2673 48.9116C27.918 49.4388 27.5751 49.8336 27.2398 50.0966C26.9045 50.3597 26.4853 50.492 25.9834 50.492C25.4277 50.492 24.9801 50.3045 24.6399 49.9295C24.2992 49.5545 24.1294 49.0413 24.1294 48.3893C24.1294 47.3629 24.5572 46.3536 25.4127 45.3626C26.2677 44.3715 27.2376 43.876 28.321 43.876C28.7595 43.876 29.1024 43.9563 29.3485 44.117C29.5946 44.2777 29.7182 44.5322 29.7182 44.8804L29.7048 45.0813C29.7585 44.9388 29.931 44.5011 30.2218 43.7688C30.5125 43.037 30.7167 42.5211 30.8333 42.2217C30.9494 41.9228 31.0348 41.6951 31.0886 41.5387C31.1423 41.3828 31.1692 41.2644 31.1692 41.184C31.1692 41.0147 31.0972 40.9097 30.9542 40.869C30.8107 40.8288 30.4926 40.809 30.0004 40.809V40.5947H34.0979L30.6447 49.0981ZM29.5296 44.8526C29.5296 44.7101 29.4979 44.6029 29.4356 44.5311C29.3727 44.4599 29.2786 44.424 29.1534 44.424C28.9831 44.424 28.802 44.5402 28.6096 44.7722C28.4167 45.0047 28.155 45.4483 27.8239 46.1051C27.4924 46.7613 27.1458 47.5027 26.7825 48.3283C26.4197 49.1543 26.2386 49.6831 26.2386 49.915C26.2386 49.9954 26.2591 50.0581 26.2988 50.1025C26.3391 50.1475 26.395 50.1695 26.4665 50.1695C26.7889 50.1695 27.0711 50.0404 27.3129 49.7811C27.5547 49.5223 27.7428 49.2968 27.8771 49.105C28.0115 48.9132 28.1614 48.6411 28.3275 48.2881C28.493 47.9356 28.7348 47.3484 29.0529 46.5266C29.3705 45.7054 29.5296 45.1472 29.5296 44.8526Z" fill="url(#paint2_linear_269_1278)"/>
<path d="M41.809 44.0089L39.4848 49.0981C39.4579 49.1517 39.4128 49.268 39.3504 49.4463C39.2876 49.6253 39.2564 49.7367 39.2564 49.7812C39.2564 49.853 39.272 49.9087 39.3037 49.9483C39.3348 49.9885 39.3821 50.0083 39.4445 50.0083C39.5697 50.0083 39.7443 49.9194 39.9684 49.7405C40.192 49.5621 40.4316 49.3097 40.6874 48.984C40.9427 48.6583 41.1732 48.294 41.3796 47.8922L41.5542 47.9726C41.3033 48.4371 41.0459 48.8501 40.7815 49.2112C40.5171 49.5728 40.1882 49.8765 39.7938 50.1219C39.3993 50.3672 38.9248 50.4904 38.3697 50.4904C37.9215 50.4904 37.5857 50.3678 37.3621 50.1219C37.138 49.8765 37.0262 49.508 37.0262 49.0172C36.6769 49.5353 36.3432 49.9103 36.0256 50.1422C35.7075 50.3742 35.298 50.4904 34.7961 50.4904C34.2587 50.4904 33.8175 50.3185 33.473 49.9751C33.128 49.6317 32.9561 49.1828 32.9561 48.6294C32.9561 47.5762 33.4419 46.5198 34.4135 45.4623C35.385 44.4042 36.462 43.8755 37.6442 43.8755C37.9215 43.8755 38.1725 43.9425 38.3966 44.0764C38.6201 44.2103 38.7324 44.4203 38.7324 44.7058L38.6921 45.0273L39.1623 44.0094H41.809V44.0089ZM38.5578 44.7321C38.5578 44.5896 38.5288 44.4846 38.4707 44.4171C38.4121 44.3501 38.3208 44.3164 38.1956 44.3164C38.0252 44.3164 37.8307 44.4503 37.6109 44.7182C37.3911 44.986 37.1068 45.4548 36.7575 46.1244C36.4082 46.794 36.0589 47.5355 35.7096 48.3476C35.3603 49.1603 35.1857 49.6869 35.1857 49.928C35.1857 50.0083 35.2034 50.071 35.2394 50.1155C35.2749 50.1605 35.3286 50.1824 35.4006 50.1824C35.6779 50.1824 35.9423 50.0464 36.1933 49.7742C36.4437 49.5021 36.6366 49.2701 36.771 49.0778C36.9053 48.886 37.0821 48.5603 37.3019 48.1001C37.5212 47.6405 37.7856 47.049 38.0946 46.3258C38.4035 45.6026 38.5578 45.0717 38.5578 44.7321Z" fill="url(#paint3_linear_269_1278)"/>
<path d="M42.991 53.4642C42.4268 53.4642 41.9565 53.3121 41.5804 53.0089C41.2042 52.7051 41.0161 52.3478 41.0161 51.9374C41.0161 51.616 41.137 51.33 41.3788 51.0803C41.6207 50.8301 41.9474 50.7053 42.3596 50.7053C42.6997 50.7053 42.9932 50.8146 43.2398 51.0332C43.4859 51.2517 43.6095 51.5217 43.6095 51.8432C43.6095 52.3253 43.3763 52.6333 42.9109 52.7673C42.6777 52.8026 42.5122 52.8273 42.4138 52.8412C42.315 52.8546 42.2661 52.9103 42.2661 53.0083C42.2661 53.0887 42.3134 53.1487 42.4074 53.1894C42.5014 53.2296 42.6428 53.2494 42.8309 53.2494C43.2973 53.2494 43.7229 53.0442 44.1088 52.6344C44.4941 52.2241 44.8235 51.7521 45.097 51.2175C45.3706 50.6823 45.7311 49.8985 46.1799 48.8646L46.1395 48.8512C45.7988 49.381 45.442 49.7876 45.0696 50.0705C44.6972 50.3533 44.2506 50.4948 43.7304 50.4948C43.3183 50.4948 42.9598 50.3673 42.6557 50.1123C42.351 49.8573 42.1989 49.4657 42.1989 48.9375C42.1989 48.6959 42.2569 48.4184 42.3735 48.105C42.4896 47.7921 42.6218 47.4787 42.7701 47.1653C42.9179 46.8525 43.171 46.3644 43.5289 45.7023C43.8868 45.0402 44.0663 44.6464 44.0663 44.5211C44.0663 44.4498 44.048 44.3962 44.0126 44.3603C43.9766 44.325 43.9228 44.3068 43.8514 44.3068C43.6273 44.3068 43.3924 44.4589 43.1463 44.7627C42.8996 45.0664 42.6831 45.3632 42.495 45.6541C42.3069 45.945 42.1591 46.1791 42.0516 46.3575L41.877 46.2766C42.3784 45.4521 42.804 44.8446 43.1533 44.4546C43.5026 44.0646 43.9997 43.8696 44.6445 43.8696C45.1099 43.8696 45.464 44.0148 45.7059 44.3057C45.9477 44.5966 46.0686 44.9475 46.0686 45.3589C46.0686 45.6723 46.0326 45.9273 45.9611 46.1239C45.8891 46.321 45.7639 46.6071 45.585 46.9832C45.4055 47.3593 45.1438 47.8757 44.7993 48.5335C44.4543 49.1914 44.2823 49.6232 44.2823 49.8289C44.2823 49.9184 44.3028 49.9858 44.3425 50.0303C44.3823 50.0748 44.4436 50.0973 44.5242 50.0973C44.6225 50.0973 44.7391 50.0571 44.8735 49.9767C45.0078 49.8964 45.1534 49.778 45.3098 49.6216C45.4662 49.4651 45.6344 49.2594 45.8139 49.0044C45.9928 48.7494 46.1788 48.4232 46.3717 48.0251C46.5641 47.6271 46.8441 47.0078 47.2111 46.1673C47.5781 45.3268 47.8001 44.8061 47.8764 44.6046C47.9522 44.4037 48.0311 44.2045 48.1118 44.0078H50.7315C50.6058 44.3116 50.4247 44.7578 50.1877 45.3471C49.9502 45.9364 49.7062 46.5305 49.4558 47.1284C49.2048 47.7268 48.8222 48.5951 48.3068 49.733C47.7915 50.8714 47.0956 51.7773 46.2175 52.4517C45.3372 53.1273 44.2625 53.4642 42.991 53.4642Z" fill="url(#paint4_linear_269_1278)"/>
<path d="M54.3913 43.875C54.9572 43.875 55.4398 44.0154 55.8396 44.2971C56.2394 44.5789 56.4393 44.9287 56.4393 45.3482C56.4393 45.6611 56.3426 45.9263 56.1486 46.1454C55.9546 46.3645 55.709 46.4732 55.4118 46.4732C55.1501 46.4732 54.9072 46.3709 54.6815 46.1652C54.4558 45.96 54.3435 45.7146 54.3435 45.4286C54.3435 45.2679 54.386 45.1227 54.4714 44.9936C54.5563 44.8645 54.6504 44.7729 54.7535 44.7193C54.8562 44.6657 54.9862 44.6234 55.1431 44.5918C55.2995 44.5607 55.3785 44.5002 55.3785 44.4107C55.3785 44.3304 55.3044 44.2548 55.1571 44.183C55.0093 44.1118 54.8057 44.0759 54.5456 44.0759C54.1871 44.0759 53.8916 44.1632 53.6589 44.3379C53.4256 44.5125 53.3096 44.738 53.3096 45.0155C53.3096 45.2304 53.3499 45.4007 53.4305 45.5255C53.5111 45.6509 53.6546 45.8073 53.8609 45.9954L54.9373 46.935C55.1797 47.1589 55.3586 47.3871 55.4758 47.6196C55.5924 47.8521 55.6504 48.1205 55.6504 48.4248C55.6504 49.0869 55.3404 49.6012 54.7207 49.9682C54.1006 50.3352 53.4138 50.5184 52.6593 50.5184C51.9855 50.5184 51.3766 50.3459 50.8333 50.0003C50.29 49.6548 50.0181 49.2043 50.0181 48.6482C50.0181 48.3525 50.1196 48.0991 50.3222 47.888C50.5248 47.6775 50.7839 47.572 51.0993 47.572C51.3605 47.572 51.6039 47.6791 51.8296 47.8934C52.0548 48.1077 52.1676 48.3578 52.1676 48.6434C52.1676 48.8491 52.109 49.0275 51.993 49.1791C51.8764 49.3312 51.7463 49.4223 51.6034 49.4534C51.4599 49.485 51.3411 49.5118 51.2476 49.5337C51.1536 49.5562 51.1068 49.6077 51.1068 49.688C51.1068 49.8161 51.2299 49.9505 51.4765 50.0919C51.7227 50.2334 52.0161 50.3041 52.3568 50.3041C52.6609 50.3041 52.9253 50.2189 53.1494 50.0491C53.373 49.8793 53.4853 49.6596 53.4853 49.3912C53.4853 49.1587 53.445 48.9798 53.3644 48.8544C53.2838 48.7291 53.1607 48.593 52.9947 48.4452C52.8286 48.2973 52.6228 48.1162 52.3767 47.9014C52.13 47.6866 51.9419 47.5012 51.8124 47.3448C51.6824 47.1884 51.5819 47.0314 51.5104 46.875C51.4384 46.7186 51.4029 46.515 51.4029 46.2643C51.4029 45.6648 51.6743 45.1168 52.2176 44.6202C52.7609 44.1236 53.4842 43.875 54.3913 43.875Z" fill="url(#paint5_linear_269_1278)"/>
<defs>
<linearGradient id="paint0_linear_269_1278" x1="0.000214955" y1="20.1429" x2="40.4654" y2="20.1429" gradientUnits="userSpaceOnUse">
<stop stop-color="#2B3582"/>
<stop offset="1" stop-color="#150E42"/>
</linearGradient>
<linearGradient id="paint1_linear_269_1278" x1="42.8296" y1="20.1429" x2="82.8112" y2="20.1429" gradientUnits="userSpaceOnUse">
<stop stop-color="#2B3582"/>
<stop offset="1" stop-color="#150E42"/>
</linearGradient>
<linearGradient id="paint2_linear_269_1278" x1="24.1288" y1="45.5425" x2="34.0973" y2="45.5425" gradientUnits="userSpaceOnUse">
<stop stop-color="#2B3582"/>
<stop offset="1" stop-color="#150E42"/>
</linearGradient>
<linearGradient id="paint3_linear_269_1278" x1="32.9554" y1="47.1832" x2="41.8089" y2="47.1832" gradientUnits="userSpaceOnUse">
<stop stop-color="#2B3582"/>
<stop offset="1" stop-color="#150E42"/>
</linearGradient>
<linearGradient id="paint4_linear_269_1278" x1="41.0159" y1="48.6676" x2="50.7291" y2="48.6676" gradientUnits="userSpaceOnUse">
<stop stop-color="#2B3582"/>
<stop offset="1" stop-color="#150E42"/>
</linearGradient>
<linearGradient id="paint5_linear_269_1278" x1="50.0172" y1="47.1966" x2="56.439" y2="47.1966" gradientUnits="userSpaceOnUse">
<stop stop-color="#2B3582"/>
<stop offset="1" stop-color="#150E42"/>
</linearGradient>
</defs>
</svg>
