<svg width="22" height="22" viewBox="0 0 22 22" fill="none" xmlns="http://www.w3.org/2000/svg">
<g clip-path="url(#clip0_269_2268)">
<path d="M20.9688 2.75V3.4375H18.6852L14.9988 0.421437C14.9377 0.37125 14.8607 0.34375 14.7812 0.34375H4.46875C3.71044 0.34375 3.09375 0.960437 3.09375 1.71875C3.09375 2.47706 3.71044 3.09375 4.46875 3.09375H4.50347C4.66331 3.87716 5.35734 4.46875 6.1875 4.46875H7.90625V6.875C7.90625 7.28612 8.09531 7.66459 8.39678 7.92103C7.67284 8.61025 7.21875 9.58031 7.21875 10.6562C7.21875 12.7411 8.91516 14.4375 11 14.4375C13.0848 14.4375 14.7812 12.7411 14.7812 10.6562C14.7812 9.74291 14.4557 8.90416 13.9147 8.25H20.9688V8.9375H21.6562V2.75H20.9688ZM8.10769 3.78125H6.1875C5.73994 3.78125 5.36181 3.49284 5.2195 3.09375H8.79519L8.10769 3.78125ZM7.90625 10.6562C7.90625 9.06641 9.11178 7.75431 10.6562 7.58278V8.29881C10.065 8.45247 9.625 8.98597 9.625 9.625C9.625 10.3833 10.2417 11 11 11C11.3792 11 11.6875 11.3083 11.6875 11.6875C11.6875 12.0667 11.3792 12.375 11 12.375C10.6208 12.375 10.3125 12.0667 10.3125 11.6875H9.625C9.625 12.3265 10.065 12.86 10.6562 13.0137V13.7297C9.11178 13.5582 7.90625 12.2461 7.90625 10.6562V10.6562ZM11.3455 6.89253C11.2317 6.88222 11.1165 6.875 11 6.875C10.8835 6.875 10.7683 6.88222 10.6545 6.89253C10.6545 6.88669 10.6562 6.88084 10.6562 6.875V4.93694L12.1921 3.09375H13.6077L14.4375 3.92356V5.5H12.7188C11.9604 5.5 11.3438 6.11669 11.3438 6.875C11.3438 6.88084 11.3455 6.88669 11.3455 6.89253V6.89253ZM11.3438 13.7297V13.0137C11.935 12.86 12.375 12.3265 12.375 11.6875C12.375 10.9292 11.7583 10.3125 11 10.3125C10.6208 10.3125 10.3125 10.0042 10.3125 9.625C10.3125 9.24584 10.6208 8.9375 11 8.9375C11.3792 8.9375 11.6875 9.24584 11.6875 9.625H12.375C12.375 8.98597 11.935 8.45247 11.3438 8.29881V7.58278C12.8882 7.75431 14.0938 9.06641 14.0938 10.6562C14.0938 12.2461 12.8882 13.5582 11.3438 13.7297V13.7297ZM13.1673 7.5625C12.8301 7.32566 12.4534 7.14312 12.0481 7.02591C12.0371 6.97675 12.0312 6.92656 12.0312 6.875C12.0312 6.49584 12.3396 6.1875 12.7188 6.1875H14.7812C14.971 6.1875 15.125 6.03384 15.125 5.84375V3.78125C15.125 3.68981 15.0889 3.6025 15.0243 3.53822L13.993 2.50697C13.9288 2.44234 13.8411 2.40625 13.75 2.40625H12.0312C11.9292 2.40625 11.8326 2.45163 11.7672 2.52966L10.0485 4.59216C9.99694 4.65403 9.96875 4.73206 9.96875 4.8125V6.875C9.96875 6.92656 9.96187 6.97675 9.95087 7.02625C9.59784 7.12834 9.26647 7.28097 8.96397 7.47519C8.74328 7.35763 8.59375 7.13144 8.59375 6.875V4.26731L9.86803 2.99303C9.96634 2.89472 9.99591 2.74691 9.94262 2.61834C9.88934 2.48978 9.76388 2.40625 9.625 2.40625H4.46875C4.08959 2.40625 3.78125 2.09791 3.78125 1.71875C3.78125 1.33959 4.08959 1.03125 4.46875 1.03125H14.6585L18.3449 4.04731C18.4061 4.0975 18.4831 4.125 18.5625 4.125H20.9688V7.5625H13.1673Z" fill="#79B0B0"/>
<path d="M17.875 16.8438H9.933C9.89416 16.6915 9.82437 16.5481 9.72056 16.4271L7.82341 14.2141C7.75809 14.1377 7.66287 14.0938 7.5625 14.0938H3.78125V13.75C3.78125 13.5599 3.62725 13.4062 3.4375 13.4062H0.6875C0.49775 13.4062 0.34375 13.5599 0.34375 13.75V20.625C0.34375 20.8151 0.49775 20.9688 0.6875 20.9688H3.4375C3.62725 20.9688 3.78125 20.8151 3.78125 20.625V20.2812H6.08334L8.05922 21.5985C8.11628 21.6363 8.18263 21.6562 8.25 21.6562C8.27441 21.6562 8.29916 21.6535 8.32356 21.6483L19.3236 19.2421C19.4813 19.2077 19.5938 19.0678 19.5938 18.9062V18.5625C19.5938 17.6148 18.8227 16.8438 17.875 16.8438V16.8438ZM3.09375 20.2812H1.03125V14.0938H3.09375V20.2812ZM18.9062 18.6295L8.31909 20.9454L6.37828 19.6512C6.32191 19.614 6.25522 19.5938 6.1875 19.5938H3.78125V14.7812H7.40438L9.19841 16.8743C9.25203 16.9369 9.28125 17.0163 9.28125 17.0981V17.5312C9.28125 17.721 9.12691 17.875 8.9375 17.875H8.53497C8.44319 17.875 8.35656 17.8393 8.29159 17.7743L6.77428 16.257L6.28822 16.743L7.80553 18.2603C8.00009 18.4552 8.25928 18.5625 8.53497 18.5625H8.9375C9.50606 18.5625 9.96875 18.0998 9.96875 17.5312H17.875C18.4436 17.5312 18.9062 17.9939 18.9062 18.5625V18.6295Z" fill="#79B0B0"/>
<path d="M19.7024 14.4554C19.1586 14.2739 18.7258 13.8411 18.5446 13.2976C18.4979 13.157 18.3669 13.0625 18.2188 13.0625C18.0706 13.0625 17.9396 13.157 17.8925 13.2976C17.7114 13.8411 17.2786 14.2739 16.7348 14.4554C16.5945 14.5021 16.5 14.6331 16.5 14.7812C16.5 14.9294 16.5945 15.0604 16.7351 15.1071C17.2789 15.2886 17.7117 15.7214 17.8929 16.2649C17.9396 16.4055 18.0706 16.5 18.2188 16.5C18.3669 16.5 18.4979 16.4055 18.545 16.2649C18.7261 15.7214 19.1589 15.2886 19.7027 15.1071C19.843 15.0604 19.9375 14.9294 19.9375 14.7812C19.9375 14.6331 19.843 14.5021 19.7024 14.4554ZM18.2188 15.4014C18.0496 15.1608 17.8392 14.9504 17.5986 14.7812C17.8396 14.6121 18.0496 14.4017 18.2188 14.1611C18.3879 14.4017 18.5983 14.6121 18.8389 14.7812C18.5983 14.9504 18.3879 15.1608 18.2188 15.4014Z" fill="#79B0B0"/>
<path d="M2.29763 7.54462C2.84144 7.72612 3.27422 8.15891 3.45538 8.70237C3.50213 8.84297 3.63309 8.9375 3.78125 8.9375C3.92941 8.9375 4.06038 8.84297 4.10747 8.70237C4.28863 8.15891 4.72141 7.72612 5.26522 7.54462C5.40547 7.49787 5.5 7.36691 5.5 7.21875C5.5 7.07059 5.40547 6.93963 5.26487 6.89288C4.72106 6.71138 4.28828 6.27859 4.10712 5.73513C4.06037 5.59453 3.92941 5.5 3.78125 5.5C3.63309 5.5 3.50212 5.59453 3.45503 5.73513C3.27387 6.27859 2.84109 6.71138 2.29728 6.89288C2.15703 6.93963 2.0625 7.07059 2.0625 7.21875C2.0625 7.36691 2.15703 7.49787 2.29763 7.54462ZM3.78125 6.59862C3.95038 6.83925 4.16075 7.04962 4.40137 7.21875C4.16041 7.38788 3.95038 7.59825 3.78125 7.83888C3.61212 7.59825 3.40175 7.38788 3.16113 7.21875C3.40175 7.04962 3.61212 6.83925 3.78125 6.59862Z" fill="#79B0B0"/>
</g>
<defs>
<clipPath id="clip0_269_2268">
<rect width="22" height="22" fill="white"/>
</clipPath>
</defs>
</svg>
