<svg width="200" height="187" viewBox="0 0 200 187" fill="none" xmlns="http://www.w3.org/2000/svg">
<path d="M175.141 35.2083C172.184 31.244 146.865 -1.54048 105.824 0.0564484C103.774 0.136495 63.748 2.20637 48.9843 27.9054C38.0636 46.9158 49.6257 63.7823 36.3031 76.7346C24.6945 88.0205 10.4284 80.5501 3.29434 89.6761C-7.57239 103.578 9.73308 141.123 36.321 162.061C63.7753 183.682 116.299 199.543 157.121 170.697C202.954 138.312 202.489 71.8671 175.141 35.2083Z" fill="#F4F7FA"/>
<path d="M109.829 152.839C103.796 147.163 95.8354 137.945 92.2331 124.91C87.509 107.816 94.4321 99.1774 93.651 70.2358C93.1573 51.9364 92.629 39.1703 83.427 32.3423C76.2157 26.9912 64.5413 25.9279 57.4558 30.8875C51.5646 35.0112 48.156 43.7823 47.116 50.0433C46.2683 55.1456 46.949 58.8505 44.0154 61.5387C41.0173 64.2856 37.7803 62.7307 34.9771 64.7653C29.2916 68.891 32.5838 82.5583 33.1154 84.7676C39.0338 109.339 61.617 125.911 71.5549 133.02C79.7715 138.899 92.4826 146.732 109.829 152.839Z" fill="url(#paint0_linear_269_1958)"/>
<g opacity="0.5">
<path opacity="0.5" d="M116.729 157.368C106.21 153.361 97.1572 148.58 89.8203 143.159C78.9602 135.135 72.1961 125.918 69.7157 115.762C67.7761 107.82 68.4954 99.2122 69.4063 88.3152C70.1615 79.2819 71.5082 72.9529 72.6965 67.3696C74.2361 60.134 75.4524 54.4187 74.6081 46.1545C73.7511 37.759 70.9885 29.4101 66.3968 21.3394L66.8107 21.1026C71.435 29.2313 74.2175 37.6436 75.0818 46.1052C75.9335 54.4434 74.7105 60.1914 73.1616 67.4683C71.9766 73.0376 70.6332 79.3506 69.88 88.3532C68.9372 99.6318 68.2565 107.781 70.1774 115.647C72.6306 125.691 79.3341 134.818 90.1017 142.774C97.4034 148.169 106.419 152.928 116.897 156.92L116.729 157.368Z" fill="white"/>
<path opacity="0.5" d="M70.2088 81.9864L70.1323 81.7276C65.2758 65.3853 56.5555 55.16 50.0954 49.4607C43.1018 43.2904 37.192 40.9557 37.1335 40.9324L37.3058 40.4868C37.3657 40.5101 43.354 42.8762 50.4102 49.1018C56.8822 54.8118 65.6058 65.0291 70.5095 81.326C71.6852 80.763 76.907 78.0868 82.1321 72.6909C87.5768 67.0683 94.1406 57.2539 94.4906 42.4293L94.967 42.4406C94.6131 57.4294 87.9707 67.3532 82.4602 73.0385C76.4898 79.1988 70.5155 81.8523 70.4556 81.8783L70.2088 81.9864Z" fill="white"/>
<path opacity="0.5" d="M68.8462 106.369L68.6799 106.32C60.7508 103.987 51.751 94.8371 41.931 79.1259C34.6312 67.4464 29.5865 56.3052 29.5366 56.1938L29.9704 55.9971C30.0203 56.1078 35.0538 67.2243 42.3368 78.8764C49.0064 89.546 58.9682 102.848 68.6486 105.812C69.4564 104.649 75.0827 96.6708 82.1888 89.6808C89.8744 82.1203 107.764 79.5095 107.944 79.4841L108.01 79.9571C107.832 79.9824 90.0959 82.5713 82.5221 90.0216C74.9084 97.5113 69.0013 106.139 68.9427 106.225L68.8462 106.369Z" fill="white"/>
<path opacity="0.5" d="M86.8817 140.942L86.4099 140.886C86.3214 140.876 77.4055 139.781 65.761 135.711C55.0113 131.953 39.6647 124.818 27.6003 112.163L4.30914 87.732L4.65314 87.4018L27.9443 111.833C39.9401 124.415 55.2089 131.515 65.906 135.256C75.9896 138.782 84.0133 140.067 85.9954 140.349C83.5016 135.821 82.6007 131.096 83.3173 126.296C83.9075 122.344 85.5889 118.337 88.3162 114.387C92.9478 107.677 99.0858 103.39 99.1477 103.348L99.4185 103.741C99.3573 103.783 93.2825 108.028 88.7008 114.669C86.018 118.557 84.3653 122.496 83.7877 126.373C83.0671 131.21 84.0286 135.974 86.6448 140.53L86.8817 140.942Z" fill="white"/>
</g>
<path d="M77.4249 152.439C64.3624 152.551 47.7057 150.826 31.7429 143.621C27.6689 141.783 2.50348 130.426 5.45304 118.938C6.49167 114.892 10.1419 114.247 11.6256 108.861C13.3835 102.479 9.38335 99.3008 6.60079 91.3562C4.94004 86.6161 0.0808859 72.7433 8.36268 65.0427C13.3117 60.4414 22.7292 58.2514 29.9032 59.9171C40.4259 62.3598 44.0608 72.6185 49.9114 90.0821C55.0972 105.563 53.7785 109.368 57.7075 120.45C60.6217 128.675 66.1044 139.997 77.4249 152.439Z" fill="url(#paint1_linear_269_1958)"/>
<g opacity="0.5">
<path opacity="0.5" d="M110.106 159.46C103.865 159.46 97.7465 158.745 91.7815 157.313C74.1466 153.082 58.8432 142.529 46.2958 125.951C33.2526 108.717 26.4546 89.2823 23.0479 76.0132C20.6746 66.7685 21.109 56.5352 24.3381 45.5988L24.7952 45.7343C21.5908 56.5866 21.1583 66.7338 23.5097 75.8938C26.9044 89.1202 33.6798 108.491 46.675 125.662C59.154 142.15 74.3669 152.643 91.8919 156.849C105.048 160.006 118.968 159.657 133.268 155.813L133.391 156.275C125.495 158.397 117.71 159.459 110.106 159.46Z" fill="white"/>
<path opacity="0.5" d="M32.4401 102.194L32.2598 102.078C4.06895 83.8705 4.31847 62.8722 5.06634 56.87C5.08097 56.7513 5.09162 56.6746 5.09229 56.6412L5.56869 56.6379C5.56935 56.6839 5.56137 56.7486 5.53875 56.9287C4.80086 62.8482 4.56265 83.5296 32.335 101.558C33.013 100.674 36.1748 96.3931 38.7804 90.2068C41.4711 83.8184 44.1033 74.0307 41.3613 63.68L41.8217 63.5573C44.5996 74.0434 41.9369 83.9458 39.2142 90.4056C36.2666 97.3984 32.6111 101.981 32.5745 102.027L32.4401 102.194Z" fill="white"/>
<path opacity="0.5" d="M35.5812 126.583C24.3565 126.583 16.5105 123.648 11.5516 120.813C7.91738 118.735 5.41295 116.488 3.95248 114.969C2.36425 113.318 1.64633 112.173 1.61705 112.125L2.02159 111.873C2.0502 111.919 4.94853 116.495 11.8151 120.414C23.25 126.94 36.7496 126.683 46.1059 125.302C46.77 123.818 53.4316 108.321 51.84 87.5898L50.15 65.5655L50.6251 65.5289L52.3151 87.5531C53.9905 109.388 46.5597 125.461 46.4838 125.621L46.4293 125.737L46.3035 125.756C42.4331 126.333 38.8628 126.583 35.5812 126.583Z" fill="white"/>
</g>
<path d="M95.9329 159.292V164.208H95.9402C96.241 167.176 108.621 172.626 126.604 172.727C153.044 172.875 161.972 166.955 162.388 163.925H162.398V159.394L95.9329 159.292Z" fill="url(#paint2_linear_269_1958)"/>
<path d="M162.398 159.413C162.398 162.469 147.143 164.883 128.628 164.804C110.442 164.728 95.9329 162.268 95.9329 159.309C95.9329 156.35 110.441 153.935 128.628 153.915C147.143 153.895 162.398 156.356 162.398 159.413Z" fill="url(#paint3_linear_269_1958)"/>
<path d="M162.14 159.041C162.14 162.074 147.001 164.475 128.624 164.403C110.567 164.333 96.1583 161.895 96.1583 158.957C96.1583 156.018 110.567 153.617 128.624 153.593C147.001 153.569 162.14 156.008 162.14 159.041Z" fill="url(#paint4_linear_269_1958)"/>
<path d="M162.398 163.925V159.395L95.9329 159.292V164.209L162.398 163.925Z" fill="url(#paint5_linear_269_1958)"/>
<path d="M162.398 159.413C162.398 162.469 147.143 164.883 128.628 164.804C110.442 164.728 95.9329 162.268 95.9329 159.309C95.9329 156.35 110.441 153.935 128.628 153.915C147.143 153.895 162.398 156.356 162.398 159.413Z" fill="url(#paint6_linear_269_1958)"/>
<path d="M162.14 159.041C162.14 162.074 147.001 164.475 128.624 164.403C110.567 164.333 96.1583 161.895 96.1583 158.957C96.1583 156.018 110.567 153.617 128.624 153.593C147.001 153.569 162.14 156.008 162.14 159.041Z" fill="url(#paint7_linear_269_1958)"/>
<path d="M95.9329 149.973V154.89H95.9402C96.241 157.858 108.621 163.049 126.604 162.957C155.099 162.81 161.972 157.638 162.388 154.607H162.398V150.076L95.9329 149.973Z" fill="url(#paint8_linear_269_1958)"/>
<path d="M162.398 150.094C162.398 153.15 147.143 155.563 128.628 155.485C110.442 155.409 95.9329 152.949 95.9329 149.99C95.9329 147.031 110.441 144.617 128.628 144.597C147.143 144.577 162.398 147.037 162.398 150.094Z" fill="url(#paint9_linear_269_1958)"/>
<path d="M162.14 149.722C162.14 152.755 147.001 155.156 128.624 155.085C110.567 155.015 96.1583 152.577 96.1583 149.639C96.1583 146.7 110.567 144.299 128.624 144.275C147.001 144.25 162.14 146.689 162.14 149.722Z" fill="url(#paint10_linear_269_1958)"/>
<path d="M162.398 154.606V150.077L95.9329 149.973V154.89L162.398 154.606Z" fill="url(#paint11_linear_269_1958)"/>
<path d="M162.398 150.094C162.398 153.15 147.143 155.563 128.628 155.485C110.442 155.409 95.9329 152.949 95.9329 149.99C95.9329 147.031 110.441 144.617 128.628 144.597C147.143 144.577 162.398 147.037 162.398 150.094Z" fill="url(#paint12_linear_269_1958)"/>
<path d="M162.14 149.722C162.14 152.755 147.001 155.156 128.624 155.085C110.567 155.015 96.1583 152.577 96.1583 149.639C96.1583 146.7 110.567 144.299 128.624 144.275C147.001 144.25 162.14 146.689 162.14 149.722Z" fill="url(#paint13_linear_269_1958)"/>
<path d="M95.9329 140.632V145.549H95.9402C96.241 148.516 108.621 153.708 126.604 153.615C155.099 153.468 161.972 148.296 162.388 145.265H162.398V140.735L95.9329 140.632Z" fill="url(#paint14_linear_269_1958)"/>
<path d="M162.398 140.752C162.398 143.809 147.143 146.222 128.628 146.144C110.442 146.068 95.9329 143.608 95.9329 140.649C95.9329 137.69 110.441 135.275 128.628 135.256C147.143 135.234 162.398 137.696 162.398 140.752Z" fill="url(#paint15_linear_269_1958)"/>
<path d="M162.14 140.381C162.14 143.414 147.001 145.814 128.624 145.743C110.567 145.673 96.1583 143.235 96.1583 140.297C96.1583 137.359 110.567 134.957 128.624 134.933C147.001 134.909 162.14 137.348 162.14 140.381Z" fill="url(#paint16_linear_269_1958)"/>
<path d="M162.398 145.265V140.735L95.9329 140.632V145.549L162.398 145.265Z" fill="url(#paint17_linear_269_1958)"/>
<path d="M162.398 140.752C162.398 143.809 147.143 146.222 128.628 146.144C110.442 146.068 95.9329 143.608 95.9329 140.649C95.9329 137.69 110.441 135.275 128.628 135.256C147.143 135.234 162.398 137.696 162.398 140.752Z" fill="url(#paint18_linear_269_1958)"/>
<path d="M162.14 140.381C162.14 143.414 147.001 145.814 128.624 145.743C110.567 145.673 96.1583 143.235 96.1583 140.297C96.1583 137.359 110.567 134.957 128.624 134.933C147.001 134.909 162.14 137.348 162.14 140.381Z" fill="url(#paint19_linear_269_1958)"/>
<path d="M95.9329 131.289V136.206H95.9402C96.241 139.174 108.621 144.366 126.604 144.273C155.099 144.126 161.972 138.954 162.388 135.923H162.398V131.392L95.9329 131.289Z" fill="url(#paint20_linear_269_1958)"/>
<path d="M162.398 131.41C162.398 134.467 147.143 136.88 128.628 136.802C110.442 136.725 95.9329 134.266 95.9329 131.307C95.9329 128.348 110.441 125.933 128.628 125.914C147.143 125.893 162.398 128.354 162.398 131.41Z" fill="url(#paint21_linear_269_1958)"/>
<path d="M162.14 131.039C162.14 134.073 147.001 136.473 128.624 136.402C110.567 136.332 96.1583 133.894 96.1583 130.956C96.1583 128.018 110.567 125.616 128.624 125.592C147.001 125.567 162.14 128.006 162.14 131.039Z" fill="url(#paint22_linear_269_1958)"/>
<path d="M162.398 135.923V131.393L95.9329 131.289V136.206L162.398 135.923Z" fill="url(#paint23_linear_269_1958)"/>
<path d="M162.398 131.41C162.398 134.467 147.143 136.88 128.628 136.802C110.442 136.725 95.9329 134.266 95.9329 131.307C95.9329 128.348 110.441 125.933 128.628 125.914C147.143 125.893 162.398 128.354 162.398 131.41Z" fill="url(#paint24_linear_269_1958)"/>
<path d="M162.14 131.039C162.14 134.073 147.001 136.473 128.624 136.402C110.567 136.332 96.1583 133.894 96.1583 130.956C96.1583 128.018 110.567 125.616 128.624 125.592C147.001 125.567 162.14 128.006 162.14 131.039Z" fill="url(#paint25_linear_269_1958)"/>
<path d="M95.9329 121.948V126.865H95.9402C96.241 129.833 108.621 135.024 126.604 134.932C155.099 134.785 161.972 129.612 162.388 126.581H162.398V122.051L95.9329 121.948Z" fill="url(#paint26_linear_269_1958)"/>
<path d="M162.398 122.069C162.398 125.125 147.143 127.539 128.628 127.46C110.442 127.384 95.9329 124.924 95.9329 121.965C95.9329 119.006 110.441 116.591 128.628 116.572C147.143 116.551 162.398 119.012 162.398 122.069Z" fill="url(#paint27_linear_269_1958)"/>
<path d="M162.14 121.697C162.14 124.73 147.001 127.131 128.624 127.06C110.567 126.99 96.1583 124.552 96.1583 121.614C96.1583 118.676 110.567 116.274 128.624 116.25C147.001 116.225 162.14 118.664 162.14 121.697Z" fill="url(#paint28_linear_269_1958)"/>
<path d="M162.398 126.582V122.051L95.9329 121.948V126.865L162.398 126.582Z" fill="url(#paint29_linear_269_1958)"/>
<path d="M162.398 122.069C162.398 125.125 147.143 127.539 128.628 127.46C110.442 127.384 95.9329 124.924 95.9329 121.965C95.9329 119.006 110.441 116.591 128.628 116.572C147.143 116.551 162.398 119.012 162.398 122.069Z" fill="url(#paint30_linear_269_1958)"/>
<path d="M162.14 121.697C162.14 124.73 147.001 127.131 128.624 127.06C110.567 126.99 96.1583 124.552 96.1583 121.614C96.1583 118.676 110.567 116.274 128.624 116.25C147.001 116.225 162.14 118.664 162.14 121.697Z" fill="url(#paint31_linear_269_1958)"/>
<path d="M95.9329 112.607V117.523H95.9402C96.241 120.491 108.621 125.683 126.604 125.59C155.099 125.443 161.972 120.271 162.388 117.24H162.398V112.709L95.9329 112.607Z" fill="url(#paint32_linear_269_1958)"/>
<path d="M162.398 112.727C162.398 115.784 147.143 118.197 128.628 118.119C110.442 118.042 95.9329 115.582 95.9329 112.623C95.9329 109.664 110.441 107.249 128.628 107.229C147.143 107.209 162.398 109.671 162.398 112.727Z" fill="url(#paint33_linear_269_1958)"/>
<path d="M162.14 112.356C162.14 115.389 147.001 117.79 128.624 117.718C110.567 117.648 96.1583 115.21 96.1583 112.272C96.1583 109.334 110.567 106.933 128.624 106.909C147.001 106.884 162.14 109.323 162.14 112.356Z" fill="url(#paint34_linear_269_1958)"/>
<path d="M162.398 117.24V112.709L95.9329 112.607V117.524L162.398 117.24Z" fill="url(#paint35_linear_269_1958)"/>
<path d="M162.398 112.727C162.398 115.784 147.143 118.197 128.628 118.119C110.442 118.042 95.9329 115.582 95.9329 112.623C95.9329 109.664 110.441 107.249 128.628 107.229C147.143 107.209 162.398 109.671 162.398 112.727Z" fill="url(#paint36_linear_269_1958)"/>
<path d="M162.14 112.356C162.14 115.389 147.001 117.79 128.624 117.718C110.567 117.648 96.1583 115.21 96.1583 112.272C96.1583 109.334 110.567 106.933 128.624 106.909C147.001 106.884 162.14 109.323 162.14 112.356Z" fill="url(#paint37_linear_269_1958)"/>
<path d="M95.9329 103.264V108.181H95.9402C96.241 111.149 108.621 116.341 126.604 116.248C155.099 116.101 161.972 110.929 162.388 107.898H162.398V103.367L95.9329 103.264Z" fill="url(#paint38_linear_269_1958)"/>
<path d="M162.398 103.385C162.398 106.441 147.143 108.855 128.628 108.777C110.442 108.7 95.9329 106.241 95.9329 103.281C95.9329 100.322 110.441 97.9076 128.628 97.8875C147.143 97.8675 162.398 100.328 162.398 103.385Z" fill="url(#paint39_linear_269_1958)"/>
<path d="M162.14 103.014C162.14 106.047 147.001 108.448 128.624 108.377C110.567 108.307 96.1583 105.869 96.1583 102.931C96.1583 99.9926 110.567 97.5912 128.624 97.5672C147.001 97.5419 162.14 99.9806 162.14 103.014Z" fill="url(#paint40_linear_269_1958)"/>
<path d="M162.398 107.898V103.368L95.9329 103.264V108.181L162.398 107.898Z" fill="url(#paint41_linear_269_1958)"/>
<path d="M162.398 103.385C162.398 106.441 147.143 108.855 128.628 108.777C110.442 108.7 95.9329 106.241 95.9329 103.281C95.9329 100.322 110.441 97.9076 128.628 97.8875C147.143 97.8675 162.398 100.328 162.398 103.385Z" fill="url(#paint42_linear_269_1958)"/>
<path d="M162.14 103.014C162.14 106.047 147.001 108.448 128.624 108.377C110.567 108.307 96.1583 105.869 96.1583 102.931C96.1583 99.9926 110.567 97.5912 128.624 97.5672C147.001 97.5419 162.14 99.9806 162.14 103.014Z" fill="url(#paint43_linear_269_1958)"/>
<path d="M57.4204 156.21H48V145.364H59.3042L62.3396 127.219H51.8725V116.373H64.2237L67.05 99.9999H78.2497L75.4234 116.373H92.5893L95.3106 99.9999H106.51L103.684 116.373H113V127.219H101.8L98.7653 145.364H109.232V156.21H96.8812L93.9503 173H82.7506L85.6814 156.21H68.5156L65.6893 173H54.4896L57.4204 156.21ZM87.5656 145.364L90.7055 127.218H73.5397L70.3994 145.364H87.5656Z" fill="#FF7536"/>
<path d="M122.675 66.0096C121.634 65.3332 122.582 63.3647 122.638 59.1369C122.707 53.9566 121.335 52.9907 122.437 50.9582C123.785 48.4727 127.178 47.4441 129.426 47.3961C129.921 47.3854 130.037 47.1139 134.191 48.1926C141.674 50.1357 143.548 48.0525 146.9 50.133C150.137 52.1435 148.719 54.3448 151.864 56.7022C156.961 60.5237 162.319 56.392 165.962 59.5885C169.408 62.6123 169.487 70.3154 165.863 74.5192C161.755 79.2846 154.347 77.8531 149.382 76.9079C148.337 76.7091 143.061 75.5985 137.567 71.5328C134.528 69.2841 132.441 66.8821 131.114 65.1124C130.802 64.7608 130.316 64.3346 129.674 64.2666C128.903 64.1838 128.285 64.6568 127.986 64.8636C126.42 65.9522 123.698 66.6746 122.675 66.0096Z" fill="url(#paint44_linear_269_1958)"/>
<path d="M126.857 63.1709C125.519 61.9482 120.743 64.3042 117.578 67.4314C113.859 71.1048 114.145 74.0839 110.9 78.6472C109.286 80.9159 106.52 83.9704 101.62 86.6459C101.967 87.5151 102.314 88.3849 102.661 89.2541C105.03 89.3969 109.682 89.3128 114.022 86.4718C117.037 84.498 118.588 81.8831 121.567 76.7335C124.557 71.5665 128.53 64.6991 126.857 63.1709Z" fill="url(#paint45_linear_269_1958)"/>
<path d="M96.6925 133.044L100.421 130.798H102.103C102.103 130.798 102.676 132.938 102.612 133.044C101.862 134.276 98.3712 135.213 96.1934 135.291C95.8315 135.303 95.3271 135.305 95.1967 135.042C94.9751 134.597 95.9619 133.664 96.6925 133.044Z" fill="url(#paint46_linear_269_1958)"/>
<path d="M100.486 128.347C100.726 129.737 100.423 130.463 100.096 130.869C99.8654 131.154 99.6612 131.236 98.2965 132.419C97.8454 132.811 97.6151 133.02 97.6677 133.13C97.7276 133.255 98.1255 133.187 98.9858 132.979C100.861 132.527 101.802 132.292 102.033 131.84C102.241 131.43 102.057 131.246 102.068 130.13C102.076 129.395 102.226 128.804 102.343 128.433C101.724 128.405 101.106 128.376 100.486 128.347Z" fill="url(#paint47_linear_269_1958)"/>
<path d="M97.7918 117.327C97.7918 117.327 96.1071 119.343 96.3812 121.551C96.6553 123.76 99.6056 120.531 100.017 119.439C100.428 118.348 100.908 116.793 100.908 116.793C100.908 116.793 98.8397 115.503 97.7918 117.327Z" fill="url(#paint48_linear_269_1958)"/>
<path d="M98.4336 114.175C98.4336 114.175 98.8907 116.522 98.0191 117.762C97.5852 118.379 96.9997 118.902 97.1714 119.405C97.2865 119.741 97.725 119.983 98.0962 119.945C98.8069 119.872 99.2008 118.78 99.4789 118.009C99.8894 116.871 100.118 114.437 100.118 114.437L98.4336 114.175Z" fill="url(#paint49_linear_269_1958)"/>
<path d="M99.7763 116.154C99.258 115.964 98.7404 115.775 98.222 115.586C97.4136 113.735 96.4275 110.696 96.7569 107.002C97.6039 97.5007 106.37 92.4658 107.343 91.9268C109.731 93.1282 112.15 94.8225 112.237 96.9591C112.347 99.6406 108.703 101.058 105.278 104.98C103.222 107.334 101.025 110.841 99.7763 116.154Z" fill="url(#paint50_linear_269_1958)"/>
<path d="M100.335 129.434C98.6233 122.731 99.0605 117.261 99.5542 114.11C100.301 109.347 101.818 99.6593 108.27 96.0466C109.679 95.2575 111.694 94.5511 114.148 92.3578C116.198 90.5261 117.501 88.6003 118.287 87.2428C126.916 84.7053 134.874 85.7339 138.386 90.3726C138.792 90.9089 139.808 92.0716 140.004 93.7859C140.448 97.6542 136.656 102.312 132.402 103.284C126.995 104.52 123.858 98.9543 119.068 100.806C117.728 101.324 116.592 102.608 114.32 105.175C111.43 108.441 109.805 111.455 109.19 112.661C107.36 116.252 105.972 118.903 105.769 122.338C105.721 123.138 105.693 124.755 104.759 126.499C104.041 127.838 103.068 128.73 102.344 129.282C101.674 129.333 101.004 129.383 100.335 129.434Z" fill="url(#paint51_linear_269_1958)"/>
<path opacity="0.3" d="M140.004 93.7869C139.808 92.0725 138.792 90.9099 138.386 90.3735C134.875 85.7341 126.916 84.7055 118.288 87.2437C117.501 88.6005 116.198 90.527 114.148 92.3587C111.694 94.552 109.679 95.2584 108.271 96.0475C104.331 98.2535 102.232 102.724 101.025 106.957C102.817 104.17 104.352 103.43 105.539 103.417C107.238 103.398 107.998 104.854 110.026 104.655C112.196 104.442 112.691 102.645 114.45 102.438C114.976 102.376 115.624 102.457 116.401 102.873C117.439 101.784 118.212 101.139 119.068 100.808C123.859 98.9559 126.995 104.522 132.402 103.286C136.656 102.313 140.448 97.6552 140.004 93.7869Z" fill="url(#paint52_linear_269_1958)"/>
<path d="M104.805 99.0444C105.782 98.9923 107.286 98.9623 109.1 99.1418C117.709 99.9949 120.083 104.264 127.199 105.306C128.882 105.553 136.376 106.65 139.622 102.306C141.952 99.1878 141.6 93.8146 139.051 91.7014C137.973 90.8068 136.905 90.8315 129.996 90.8942C127.394 90.9176 124.792 90.9262 122.19 90.9596C111.177 91.1003 109.071 90.3359 107.067 92.1616C106.132 93.0141 104.765 94.8439 104.805 99.0444Z" fill="url(#paint53_linear_269_1958)"/>
<path d="M128.056 63.6186C128.056 63.6186 140.907 59.8611 142.241 69.2933C143.518 78.3339 136.972 82.4829 139.951 91.6403C140.296 92.7015 115.487 87.8394 115.487 87.8394C118.799 83.6976 119.568 80.2803 119.648 77.9043C119.734 75.2994 118.985 74.1154 119.648 71.0363C119.648 71.0363 120.386 67.6003 123.052 64.6506C123.434 64.2263 123.89 63.7854 128.056 63.6186Z" fill="url(#paint54_linear_269_1958)"/>
<path d="M130.847 57.9657C130.729 58.5173 130.13 61.4764 131.337 62.2375C131.599 62.4029 132.102 62.497 133.108 62.6858C133.767 62.8098 134.319 62.8852 134.709 62.9319C134.652 63.4282 134.486 64.236 133.914 64.9704C132.313 67.0296 129.103 66.4967 128.645 66.4133C127.03 66.1184 125.442 65.6181 125.058 65.3126C124.473 64.847 124.014 64.4982 123.742 64.1433C124.367 63.8404 125.629 63.042 126.476 62.7812C127.108 62.5857 127.702 62.447 128.243 62.3469C128.331 61.7752 128.42 61.2036 128.51 60.6319C129.289 59.7434 130.068 58.8548 130.847 57.9657Z" fill="url(#paint55_linear_269_1958)"/>
<path d="M130.903 59.4404C130.903 59.4404 130.685 61.6089 128.583 61.9912C126.7 62.3334 125.283 57.7727 126.247 56.5927C126.568 56.1992 127.361 55.825 128.049 55.845C128.533 55.859 130.167 56.4827 130.394 58.1216C130.72 57.7781 131.125 57.6794 131.325 57.8228C131.579 58.0055 131.443 58.5358 131.412 58.6566C131.305 59.0728 131.034 59.3316 130.903 59.4404Z" fill="url(#paint56_linear_269_1958)"/>
<path d="M112.866 88.8983L132.536 89.8582C132.807 89.8715 133.054 90.017 133.197 90.2478L133.741 91.1236C134.012 91.5598 133.687 92.1215 133.174 92.1022L112.339 91.3064L112.866 88.8983Z" fill="url(#paint57_linear_269_1958)"/>
<path d="M92.4087 77.9171L112.73 78.312C113.331 78.324 113.881 78.6522 114.179 79.1765L121.216 91.5884L99.7543 90.7312C99.1654 90.7079 98.6278 90.3877 98.3251 89.8807L91.8052 78.9611C91.5277 78.4961 91.8684 77.9065 92.4087 77.9171Z" fill="url(#paint58_linear_269_1958)"/>
<path opacity="0.3" d="M114.179 79.1757C113.881 78.6514 113.331 78.3232 112.73 78.3112L112.285 78.3026C112.218 78.9603 112.017 79.562 111.615 80.0476C110.362 81.5638 108.28 80.6286 106.729 82.2335C105.024 83.9965 106.599 86.0944 105.075 87.7354C103.47 89.4624 100.877 88.0563 97.8954 89.1616L98.3246 89.8807C98.6273 90.3876 99.1649 90.7078 99.7538 90.7312L121.215 91.5883L114.179 79.1757Z" fill="url(#paint59_linear_269_1958)"/>
<path d="M130.934 88.2401C130.678 87.5624 130.421 86.8847 130.166 86.2069C132.996 85.4291 136.909 84.2798 140.923 82.8423C141.552 82.6168 142.298 82.338 142.543 81.6749C143.23 79.8145 138.866 77.8867 137.17 73.825C135.601 70.0681 136.464 64.8544 138.285 64.2387C142.073 62.9573 155.509 79.7225 150.71 86.7899C147.997 90.7843 139.635 91.4207 130.934 88.2401Z" fill="url(#paint60_linear_269_1958)"/>
<path d="M130.165 86.2059C128.389 85.2601 126.263 86.23 126.126 86.2947C125.736 86.4794 125.168 86.8083 124.594 87.396C124.529 87.4847 123.758 88.5553 124.039 88.8982C124.264 89.173 125.135 88.9449 126.183 88.2925C126.622 88.2311 127.275 88.1744 128.058 88.2465C129.496 88.3792 130.155 88.8348 130.676 88.4419C131.058 88.1544 131.189 87.5461 131.051 87.0938C130.903 86.6075 130.466 86.366 130.165 86.2059Z" fill="url(#paint61_linear_269_1958)"/>
<path d="M53.6504 169.502C53.6504 169.502 59.5601 172.195 59.6566 172.625C59.7531 173.054 55.8561 172.48 54.2652 172.543C52.6743 172.605 51.3656 172.133 51.5093 171.458C51.6537 170.782 52.2099 169.083 52.2099 169.083L53.6504 169.502Z" fill="url(#paint62_linear_269_1958)"/>
<path d="M53.8668 167.316L53.5075 169.984C53.5075 169.984 52.572 170.318 51.9432 169.923L51.6751 166.998L53.8668 167.316Z" fill="url(#paint63_linear_269_1958)"/>
<path d="M34.5777 167.037L34.0388 168.223C33.8884 168.555 33.8797 168.932 34.0161 169.269C34.3734 170.15 35.0807 171.866 35.3488 172.302C35.7141 172.897 39.5546 172.775 39.5546 172.775C39.5546 172.775 39.8307 172.254 38.9684 171.781C38.1061 171.308 37.5878 171.283 37.1992 170.469C36.8106 169.655 36.3116 167.274 36.3116 167.274L34.5777 167.037Z" fill="url(#paint64_linear_269_1958)"/>
<path d="M37.0516 163.878C36.8287 164.109 36.0934 167.975 36.0934 167.975C36.0934 167.975 35.7647 168.532 34.9191 167.884C34.0727 167.236 34.5365 167.594 34.5365 167.594L34.2018 163.93L37.0516 163.878Z" fill="url(#paint65_linear_269_1958)"/>
<path d="M57.1184 113.723C57.4304 121.68 57.4431 130.325 56.986 139.561C56.4716 149.962 55.4383 159.574 54.1362 168.288C53.6518 168.303 53.1435 168.306 52.6118 168.291C52.2532 168.281 51.9052 168.264 51.5692 168.24C50.8932 166.433 50.0947 164.057 49.3795 161.219C48.6276 158.235 48.1738 155.558 47.8504 152.999C46.7127 143.986 48.0461 143.2 47.1225 136.52C46.3048 130.605 45.1411 130.374 43.7757 121.975C42.2939 112.863 43.3971 111.495 43.9334 111.002C46.217 108.898 51.5812 110.33 57.1184 113.723Z" fill="url(#paint66_linear_269_1958)"/>
<path opacity="0.3" d="M43.9339 111.001C46.1117 108.996 51.0926 110.21 56.353 113.271C50.3015 119.825 49.6414 124.078 50.3674 126.836C51.1871 129.955 53.6802 130.853 53.6709 134.263C53.6589 138.453 49.887 139.563 49.9675 143.997C50.0207 146.929 51.6781 146.899 52.0694 150.52C52.5325 154.805 50.3674 156.282 51.0687 159.452C51.3707 160.816 52.2317 162.597 54.6843 164.433C54.5073 165.735 54.3263 167.024 54.1373 168.288C53.6536 168.303 53.1446 168.306 52.613 168.291C52.2543 168.281 51.9064 168.263 51.5703 168.24C50.8943 166.433 50.0959 164.058 49.3806 161.219C48.6288 158.235 48.175 155.558 47.8516 152.998C46.7138 143.986 48.0472 143.199 47.1237 136.52C46.306 130.605 45.1422 130.373 43.7769 121.975C42.2945 112.862 43.3976 111.495 43.9339 111.001Z" fill="url(#paint67_linear_269_1958)"/>
<path d="M54.7324 110.15C50.5532 118.406 46.2091 128.568 42.6966 140.511C40.0418 149.537 38.3544 157.906 37.2792 165.308C37.0244 165.469 36.4169 165.805 35.5845 165.804C34.4494 165.802 33.6876 165.175 33.4866 164.999C32.0035 159.988 31.5284 155.642 31.398 152.476C31.3142 150.45 31.1938 147.073 31.9303 142.789C32.7554 137.989 33.7029 137.602 34.9278 132.478C36.1993 127.16 35.5665 125.957 36.5905 119.376C37.0111 116.673 37.7782 112.631 39.2733 107.721C44.4266 108.531 49.5791 109.341 54.7324 110.15Z" fill="url(#paint68_linear_269_1958)"/>
<path d="M43.5462 84.3376C49.2997 80.9682 51.7655 81.3565 53.4336 78.33C55.083 75.3369 55.0797 70.5874 52.3497 68.0713C52.1494 67.8865 50.0695 66.0294 47.2556 66.3476C42.4544 66.8906 41.9094 73.3551 37.9119 73.8594C34.7228 74.2616 34.0641 70.3113 28.4564 67.9806C21.9278 65.2676 15.5064 67.5823 14.4857 67.9672C8.6538 70.1652 5.64701 74.5705 4.74877 75.9266C-0.838973 84.3622 0.117158 96.2499 5.64768 102.81C6.59782 103.937 8.36769 105.581 11.0405 106.715C15.7592 108.717 21.5852 104.902 23.1747 103.861C27.7045 100.895 26.9826 98.9982 32.8232 93.052C35.1287 90.704 38.4509 87.3213 43.5462 84.3376Z" fill="url(#paint69_linear_269_1958)"/>
<path d="M87.5596 93.3076C87.5596 93.3076 86.966 91.5272 86.817 90.1584C86.6679 88.7896 89.0201 88.7429 89.5823 88.3653C89.6861 88.2953 89.772 88.2919 89.8392 88.3366C90.0035 88.4474 89.8099 89.0364 89.4652 90.1904C88.905 92.0655 88.887 92.2476 88.6049 92.5284C88.2476 92.8853 87.5596 93.3076 87.5596 93.3076Z" fill="url(#paint70_linear_269_1958)"/>
<path d="M86.1481 89.1087C86.6265 89.7485 87.1056 90.3882 87.584 91.0279C87.2613 92.37 86.2 96.0074 82.798 98.9445C82.3242 99.3534 78.2575 102.758 72.4283 102.543C63.5843 102.217 58.9414 93.8622 58.7085 93.4266C57.3225 90.6236 52.3143 80.1756 54.9765 78.0897C56.8282 76.6389 61.9961 79.5425 64.9303 81.9112C69.5573 85.6467 69.0888 88.425 73.7843 91.2673C75.4411 92.2699 78.8883 94.3578 82.2398 93.0264C84.4913 92.1325 85.6637 90.106 86.1481 89.1087Z" fill="white"/>
<path opacity="0.33" d="M86.1481 89.1087C86.6265 89.7485 87.1056 90.3882 87.584 91.0279C87.2613 92.37 86.2 96.0074 82.798 98.9445C82.3242 99.3534 78.2575 102.758 72.4283 102.543C63.5843 102.217 58.9414 93.8622 58.7085 93.4266C57.3225 90.6236 52.3143 80.1756 54.9765 78.0897C56.8282 76.6389 61.9961 79.5425 64.9303 81.9112C69.5573 85.6467 69.0888 88.425 73.7843 91.2673C75.4411 92.2699 78.8883 94.3578 82.2398 93.0264C84.4913 92.1325 85.6637 90.106 86.1481 89.1087Z" fill="url(#paint71_linear_269_1958)"/>
<path d="M62.9364 127.894C64.5319 126.855 64.824 124.647 64.9391 123.343C65.6351 115.47 62.6755 108.918 62.2184 99.4252C62.08 96.5535 62.2923 95.9412 62.0588 91.4285C61.579 82.1578 60.4612 80.4708 59.5064 79.5129C57.1936 77.1942 53.8309 77.1429 51.8487 77.1129C51.0603 77.1008 43.7765 77.0842 40.9035 81.6488C38.7291 85.1042 41.6573 87.0907 40.7611 93.5071C39.6672 101.337 33.9937 107.779 32.7049 109.181C30.8465 111.202 29.0913 112.548 27.6002 115.659C26.1331 118.718 26.833 119.499 25.4464 122.056C22.9007 126.75 18.6344 127.634 19.0649 129.333C19.3962 130.641 22.1848 131.148 24.0105 131.092C26.7186 131.011 27.4432 129.689 29.7706 129.089C34.2771 127.926 35.7722 131.793 40.3625 131.332C45.5085 130.816 45.8804 125.731 50.4927 125.895C53.0211 125.985 53.946 127.55 59.2669 128.293C60.76 128.502 61.9257 128.552 62.9364 127.894Z" fill="white"/>
<path opacity="0.15" d="M62.9364 127.893C64.5319 126.854 64.824 124.647 64.9391 123.342C65.6351 115.469 62.6755 108.917 62.2184 99.4246C62.08 96.5529 62.2923 95.9405 62.0588 91.4279C61.6768 84.0543 61.5278 81.3067 59.5064 79.5123C58.5749 78.6852 56.7957 77.6312 55.7571 78.2329C53.8375 79.3449 57.0565 84.6073 54.8795 88.709C53.0251 92.203 49.52 90.5888 44.191 94.1468C38.3751 98.0298 40.624 101.239 32.7049 109.181C30.9876 110.903 29.0899 112.551 27.6002 115.659C26.1331 118.718 26.833 119.499 25.4464 122.056C22.9007 126.75 18.6344 127.634 19.0649 129.333C19.3962 130.641 22.1848 131.148 24.0105 131.092C26.7186 131.011 27.4432 129.689 29.7706 129.089C34.2771 127.926 35.7722 131.793 40.3625 131.332C45.5085 130.816 45.8804 125.731 50.4927 125.895C53.0211 125.985 53.946 127.55 59.2669 128.293C60.76 128.501 61.9257 128.552 62.9364 127.893Z" fill="url(#paint72_linear_269_1958)"/>
<path opacity="0.15" d="M22.4155 129.493C25.5121 128.55 26.0504 125.881 29.674 125.175C33.0986 124.508 34.1512 126.592 36.9325 125.654C40.2586 124.534 39.6298 121.258 42.8349 119.817C46.9854 117.95 50.9889 122.116 53.4435 120.057C55.0038 118.748 53.5639 116.916 55.2779 113.899C57.1562 110.594 59.8749 111.053 61.2602 108.302C62.5836 105.674 61.0559 103.365 60.3826 99.5851C59.8762 96.7415 59.7784 92.597 61.7406 87.1185C61.8637 88.3365 61.9715 89.7574 62.058 91.4284C62.2915 95.941 62.0792 96.5533 62.2176 99.425C62.6747 108.918 65.6343 115.47 64.9383 123.343C64.8232 124.648 64.5311 126.854 62.9356 127.894C61.9249 128.552 60.7592 128.502 59.2661 128.293C53.9452 127.549 53.0203 125.985 50.4919 125.895C45.8796 125.73 45.5077 130.816 40.3617 131.332C35.7714 131.793 34.2763 127.926 29.7698 129.089C27.4424 129.689 26.7178 131.011 24.0097 131.092C22.363 131.142 19.937 130.732 19.2344 129.691C20.5206 129.881 21.5672 129.751 22.4155 129.493Z" fill="url(#paint73_linear_269_1958)"/>
<path d="M49.0833 72.7154C49.0833 72.7154 49.2962 76.2681 48.4186 76.9345C47.8631 77.3561 46.9568 77.7856 46.366 78.0445C46.1877 78.1225 46.2136 78.3833 46.4039 78.4267L51.4899 79.5767C51.7321 79.6374 51.9883 79.578 52.1799 79.4173L54.1361 77.773C54.2691 77.6609 54.1973 77.4428 54.0236 77.4328L52.3595 77.3367C51.6137 77.1786 51.0328 76.5909 50.8818 75.8418L50.4067 73.4838L49.0833 72.7154Z" fill="url(#paint74_linear_269_1958)"/>
<path d="M49.1547 73.9394C49.1547 73.9394 50.0602 75.1855 51.4801 74.6659C52.7516 74.2009 51.9924 70.9089 50.9844 70.5334C50.6477 70.408 50.0303 70.4633 49.6171 70.7215C49.327 70.9029 48.5512 71.8688 48.9956 72.9515C48.6743 72.8581 48.3915 72.9428 48.321 73.1023C48.2311 73.3044 48.5033 73.5799 48.5645 73.6426C48.7787 73.8587 49.0362 73.9194 49.1547 73.9394Z" fill="url(#paint75_linear_269_1958)"/>
<path d="M59.5783 90.7791L58.9868 88.3583C58.895 87.9834 59.0533 87.5979 59.4113 87.3344C60.273 86.7007 60.4859 86.2077 60.9962 86.0696C61.9277 85.8175 62.3828 86.5052 61.7008 86.7894C61.0188 87.0736 60.4958 87.6332 60.776 88.6231C61.0554 89.6131 60.5231 90.4562 59.5783 90.7791Z" fill="url(#paint76_linear_269_1958)"/>
<path d="M61.1287 90.8413C60.3136 90.3257 59.4979 89.8107 58.6828 89.2951C58.3095 90.1235 57.0733 92.579 54.2694 93.9331C51.8069 95.1225 47.8892 95.5814 46.1333 93.6663C44.3248 91.6945 44.6269 88.1024 45.0701 84.0167C45.3987 80.9849 46.0342 79.2486 45.2297 78.7123C44.4213 78.1739 42.7785 79.2566 40.9754 80.4453C39.988 81.0963 38.1602 82.301 36.9286 83.8086C34.1388 87.2232 33.1653 93.7076 36.3491 98.8913C38.7444 102.791 43.2702 105.574 48.0442 105.328C54.628 104.988 60.5904 98.9407 61.1287 90.8413Z" fill="white"/>
<path d="M64.8405 73.9098L80.3103 70.1476L91.2955 81.6977L86.8103 97.01L71.3405 100.773L60.3553 89.2221L64.8405 73.9098Z" fill="url(#paint77_linear_269_1958)"/>
<path d="M71.6131 81.031L77.5448 79.5881L81.7566 84.0167L80.0373 89.8881L74.1056 91.331L69.8938 86.9024L71.6131 81.031Z" fill="white"/>
<path opacity="0.3" d="M64.8405 73.9099L71.6133 81.0314L69.8939 86.9028L60.3553 89.2222L64.8405 73.9099Z" fill="white"/>
<path d="M80.0376 89.8885L74.1059 91.3314L71.3406 100.773L86.8103 97.01L80.0376 89.8885Z" fill="url(#paint78_linear_269_1958)"/>
<path d="M81.7569 84.017L77.5451 79.5884L80.3103 70.1476L91.2955 81.6976L81.7569 84.017Z" fill="url(#paint79_linear_269_1958)"/>
<path d="M83.9983 74.9179L76.5463 85.6067L67.3742 94.8554L74.827 84.1666L83.9983 74.9179Z" fill="white"/>
<path d="M66.9577 75.7759L76.3533 84.7952L84.0656 95.2973L74.6699 86.278L66.9577 75.7759Z" fill="white"/>
<path d="M75.5725 87.4339C76.6229 87.3989 77.446 86.517 77.4112 85.464C77.3763 84.411 76.4965 83.5857 75.4462 83.6207C74.3959 83.6557 73.5727 84.5376 73.6076 85.5906C73.6425 86.6436 74.5222 87.4689 75.5725 87.4339Z" fill="white"/>
<path d="M73.9059 94.8303C74.6075 94.8303 75.1761 94.2601 75.1761 93.5569C75.1761 92.8536 74.6075 92.2834 73.9059 92.2834C73.2044 92.2834 72.6358 92.8536 72.6358 93.5569C72.6358 94.2601 73.2044 94.8303 73.9059 94.8303Z" fill="white"/>
<path d="M197.606 84.4946C197.128 85.7826 196.299 87.2775 195.43 87.649C194.445 88.0706 194.034 88.6663 194.034 88.6663L193.238 88.2034L192.288 87.6497C192.288 87.6497 192.31 87.5443 192.357 87.3716C192.403 87.2001 192.474 86.9613 192.571 86.6965C192.571 86.6965 192.863 86.3209 192.684 85.8487C192.505 85.3771 192.541 84.6487 192.846 84.2037C193.151 83.7595 193.445 82.6655 193.629 82.6982C194.073 82.7749 193.41 84.2791 193.6 84.5579C193.772 84.8101 193.987 84.7234 194.027 84.7047C194.03 84.7034 194.032 84.702 194.034 84.7007C195.281 84.151 196.794 81.188 197.463 81.5876C197.713 81.7363 197.809 83.9456 197.606 84.4946Z" fill="#FFAE73"/>
<path d="M193.292 86.2877L194.854 87.3884C194.965 87.4664 195.118 87.4391 195.195 87.3283L199.197 81.6203C199.275 81.5095 199.247 81.3554 199.137 81.2781L197.575 80.1774C197.464 80.0994 197.311 80.1267 197.233 80.2368L193.232 85.9449C193.155 86.0563 193.181 86.2103 193.292 86.2877Z" fill="#25468F"/>
<path d="M194.722 87.2956L195.637 87.9407C195.721 88 195.838 87.9794 195.898 87.8953L199.966 82.0913C200.026 82.0073 200.005 81.8899 199.921 81.8305L199.006 81.1855C198.922 81.1261 198.805 81.1468 198.745 81.2308L194.677 87.0348C194.617 87.1189 194.638 87.2363 194.722 87.2956Z" fill="#1E3865"/>
<path d="M170.884 78.0976C170.884 78.0976 178.832 91.9957 181.715 94.5525L192.288 86.6499C192.288 86.6499 193.822 87.1215 194.494 88.6658C194.494 88.6658 188.073 101.779 181.752 102.336C175.43 102.891 166.558 86.6172 166.558 86.6172L170.884 78.0976Z" fill="#6F7DEB"/>
<path d="M152.897 172.625H148.305C147.727 172.31 147.212 171.589 147.049 170.515C146.825 169.031 145.167 168.223 144.807 167.009C144.449 165.797 146.287 164.09 146.287 164.09L146.595 163.692L146.915 163.28L149.963 164C149.963 164 150.038 164.727 150.084 165.655C150.117 166.324 150.134 167.096 150.097 167.775C150.007 169.392 150.548 171.134 151.982 171.449C153.042 171.681 152.995 172.311 152.897 172.625Z" fill="#102C52"/>
<path d="M179.549 172.624H169.047C168.542 172.007 168.728 169.726 168.804 168.981C168.82 168.831 168.831 168.744 168.831 168.744C168.831 168.744 172.417 165.868 172.91 168.07C172.924 168.14 172.943 168.207 172.963 168.274C173.584 170.334 176.367 171.269 177.975 171.53C179.02 171.7 179.406 172.244 179.549 172.624Z" fill="#102C52"/>
<path d="M177.548 113.854C177.548 113.854 177.004 120.665 176.364 128.853C175.494 139.975 174.447 153.637 174.344 156.225C174.165 160.719 173.447 167.908 173.447 167.908C173.447 167.908 171.745 169.615 168.338 168.895C168.338 168.895 165.302 158.633 164.435 147.775C164.422 147.597 164.408 147.418 164.394 147.239C163.587 136.186 162.333 112.91 162.333 112.91L177.548 113.854Z" fill="#FF912B"/>
<path d="M177.548 113.854C177.548 113.854 177.004 120.665 176.364 128.853L164.435 147.776C164.422 147.598 164.408 147.418 164.394 147.239C163.587 136.186 162.333 112.91 162.333 112.91L177.548 113.854Z" fill="#FC7600"/>
<path d="M175.061 114.663C175.061 114.663 165.245 139.331 158.791 150.923C152.337 162.516 150.321 165.751 150.321 165.751C150.321 165.751 146.623 164.268 146.287 163.258C146.287 163.258 148.755 140.877 153.077 135.422C155.52 132.34 158.388 123.088 158.523 119.853C158.657 116.618 159.397 110.215 159.397 110.215L175.061 114.663Z" fill="#FF912B"/>
<path d="M172.618 78.7014C168.783 79.9147 162.454 76.4934 162.454 76.4934C162.454 76.4934 165.682 73.9793 165.497 68.4468L168.462 70.8428L170.477 72.4704C170.477 72.4704 170.469 73.4297 170.249 75.1113C170.19 75.5535 170.085 76.244 170.415 76.5975C171.699 77.9716 172.618 78.7014 172.618 78.7014Z" fill="#FFAE73"/>
<path d="M170.477 72.4703C170.477 72.4703 170.469 73.4296 170.249 75.1112C168.017 74.727 165.485 71.1102 165.485 71.1102C166.621 70.7813 167.617 70.722 168.463 70.8427L170.477 72.4703Z" fill="#F9924F"/>
<path d="M171.65 72.3792C171.65 72.3792 165.314 73.4345 164.72 69.4689C164.125 65.5032 162.907 62.9691 166.927 62.1273C170.947 61.2861 171.962 62.6803 172.481 63.9557C173 65.2311 173.282 72.003 171.65 72.3792Z" fill="#FFAE73"/>
<path d="M177.971 114.421C177.855 114.517 177.722 114.575 177.568 114.575C176.127 114.555 171.928 115.357 168.373 114.991C165.377 114.703 162.726 113.813 159.878 112.533C159.5 112.363 158.629 111.897 158.649 111.474C158.662 111.009 158.708 110.337 158.765 109.489C158.967 106.542 159.318 101.474 158.976 95.6264C158.914 94.5378 158.882 93.4578 158.878 92.3939C158.849 84.4686 160.416 77.4979 163.566 75.1385C163.835 74.9451 165.487 75.7549 167.005 76.5046C168.407 77.1984 169.506 77.2717 170.831 77.0029L172.459 78.1803C174.072 79.6818 175.839 81.7237 176.607 84.8235C177.261 87.461 177.645 92.2178 177.856 97.1473C177.952 99.3813 178.029 101.634 178.049 103.772V103.849C178.068 104.061 178.068 104.292 178.068 104.504C178.144 109.992 178.067 114.343 177.971 114.421Z" fill="#899BFA"/>
<path d="M158.765 109.49C158.967 106.543 159.318 101.475 158.976 95.6273C158.914 94.5387 158.882 93.4587 158.878 92.3948C160.19 89.2035 161.262 86.8895 161.262 86.8895H164.57C164.57 86.8888 166.994 103.493 158.765 109.49Z" fill="#6F7DEB"/>
<path d="M141.824 128.308L155.93 130.323C157.765 130.585 159.481 129.294 159.743 127.453L160.614 121.325C160.875 119.485 159.587 117.764 157.752 117.502L143.646 115.487C141.811 115.225 140.095 116.516 139.833 118.357L138.962 124.485C138.7 126.325 139.988 128.046 141.824 128.308Z" fill="#1E3865"/>
<path d="M158.549 119.33V119.329C158.153 118.334 157.297 117.549 156.212 117.282H156.211C156.21 117.282 156.209 117.282 156.208 117.282C156.102 117.256 155.994 117.234 155.883 117.218L153.075 116.817L153.262 115.495C153.305 115.2 153.229 114.905 153.049 114.666C152.87 114.427 152.608 114.271 152.314 114.229L151.582 114.125L148.633 113.703L148.101 113.627C147.492 113.54 146.925 113.966 146.838 114.577L146.651 115.9L141.803 115.207C139.96 114.944 138.238 116.24 137.975 118.087L137.095 124.287C136.832 126.134 138.125 127.861 139.967 128.123L154.047 130.135C154.295 130.171 154.541 130.178 154.781 130.159H154.782C154.783 130.159 154.783 130.159 154.783 130.159C155.169 130.129 155.539 130.033 155.882 129.88C156.918 129.422 157.704 128.455 157.875 127.254L158.756 121.055C158.841 120.452 158.76 119.861 158.549 119.33ZM147.53 114.676C147.557 114.491 147.701 114.351 147.877 114.323C147.917 114.317 147.959 114.316 148.002 114.322L148.629 114.411L150.949 114.744L152.214 114.924C152.442 114.957 152.601 115.169 152.568 115.397L152.381 116.719L147.342 115.999L147.53 114.676Z" fill="#25468F"/>
<path d="M152.374 109.824C152.374 109.824 151.712 110.504 151.78 111.444C151.951 113.785 151.673 114.846 150.172 115.087C150.172 115.087 148.39 115.423 148.367 114.373C148.367 114.373 149.205 114.38 149.03 112.91C148.828 111.214 148.848 111.198 149.959 110.312L150.694 109.094L152.374 109.824Z" fill="#FFAE73"/>
<path d="M150.667 110.819C151.858 111.052 153.148 110.958 153.148 110.958C153.148 110.958 156.684 100.007 157.139 99.0073C157.594 98.0074 167.641 86.1678 167.641 86.1678L163.456 75.6663C163.456 75.6663 152.589 93.8643 151.485 96.4218C149.662 100.648 149.029 110.121 149.029 110.121C149.029 110.121 149.731 110.636 150.667 110.819Z" fill="#899BFA"/>
<path d="M164.714 69.0872C164.714 69.0872 165.365 68.9785 165.259 68.0806C165.154 67.1828 165.156 66.0094 165.884 66.2282C166.612 66.447 166.649 67.0314 166.947 66.6898C167.247 66.3483 167.252 64.9108 169.419 64.8107C171.585 64.7107 172.465 65.4665 173.473 65.0229C174.48 64.5786 174.533 63.0504 174.533 63.0504C174.533 63.0504 174.247 63.596 173.814 63.7701C173.814 63.7701 175.495 61.4655 173.548 59.8852C171.602 58.305 169.619 59.3396 168.492 59.4076C166.011 59.5584 164.408 59.7071 163.598 61.3421C162.788 62.9757 163.122 67.5143 164.714 69.0872Z" fill="#25468F"/>
<path d="M151.382 111.239C151.382 111.239 152.095 111.984 152.14 112.294C152.285 113.29 152.617 113.719 152.45 113.828C152.105 114.053 151.648 113.316 151.429 112.655C151.21 111.993 151.382 111.239 151.382 111.239Z" fill="#FFAE73"/>
<defs>
<linearGradient id="paint0_linear_269_1958" x1="31.6857" y1="90.2656" x2="109.83" y2="90.2656" gradientUnits="userSpaceOnUse">
<stop stop-color="#AA80F9"/>
<stop offset="0.9964" stop-color="#6165D7"/>
</linearGradient>
<linearGradient id="paint1_linear_269_1958" x1="57.0221" y1="68.597" x2="34.1829" y2="129.747" gradientUnits="userSpaceOnUse">
<stop offset="0.00359712" stop-color="#E38DDD"/>
<stop offset="1" stop-color="#9571F6"/>
</linearGradient>
<linearGradient id="paint2_linear_269_1958" x1="108.903" y1="146.255" x2="137.116" y2="168.327" gradientUnits="userSpaceOnUse">
<stop stop-color="#FF9085"/>
<stop offset="1" stop-color="#FB6FBB"/>
</linearGradient>
<linearGradient id="paint3_linear_269_1958" x1="184.468" y1="169.721" x2="102.005" y2="156.099" gradientUnits="userSpaceOnUse">
<stop stop-color="#311944"/>
<stop offset="1" stop-color="#893976"/>
</linearGradient>
<linearGradient id="paint4_linear_269_1958" x1="129.24" y1="163.65" x2="129.267" y2="151.934" gradientUnits="userSpaceOnUse">
<stop stop-color="#FF9085"/>
<stop offset="1" stop-color="#FB6FBB"/>
</linearGradient>
<linearGradient id="paint5_linear_269_1958" x1="109.08" y1="146.008" x2="137.133" y2="167.955" gradientUnits="userSpaceOnUse">
<stop stop-color="#FF9085"/>
<stop offset="1" stop-color="#FB6FBB"/>
</linearGradient>
<linearGradient id="paint6_linear_269_1958" x1="184.468" y1="169.721" x2="102.005" y2="156.099" gradientUnits="userSpaceOnUse">
<stop stop-color="#311944"/>
<stop offset="1" stop-color="#893976"/>
</linearGradient>
<linearGradient id="paint7_linear_269_1958" x1="129.24" y1="163.65" x2="129.267" y2="151.934" gradientUnits="userSpaceOnUse">
<stop stop-color="#FF9085"/>
<stop offset="1" stop-color="#FB6FBB"/>
</linearGradient>
<linearGradient id="paint8_linear_269_1958" x1="108.91" y1="136.93" x2="137.155" y2="159.027" gradientUnits="userSpaceOnUse">
<stop stop-color="#FF9085"/>
<stop offset="1" stop-color="#FB6FBB"/>
</linearGradient>
<linearGradient id="paint9_linear_269_1958" x1="184.468" y1="160.402" x2="102.005" y2="146.779" gradientUnits="userSpaceOnUse">
<stop stop-color="#311944"/>
<stop offset="1" stop-color="#893976"/>
</linearGradient>
<linearGradient id="paint10_linear_269_1958" x1="129.24" y1="154.332" x2="129.267" y2="142.616" gradientUnits="userSpaceOnUse">
<stop stop-color="#FF9085"/>
<stop offset="1" stop-color="#FB6FBB"/>
</linearGradient>
<linearGradient id="paint11_linear_269_1958" x1="109.08" y1="136.69" x2="137.133" y2="158.636" gradientUnits="userSpaceOnUse">
<stop stop-color="#FF9085"/>
<stop offset="1" stop-color="#FB6FBB"/>
</linearGradient>
<linearGradient id="paint12_linear_269_1958" x1="184.468" y1="160.402" x2="102.005" y2="146.779" gradientUnits="userSpaceOnUse">
<stop stop-color="#311944"/>
<stop offset="1" stop-color="#893976"/>
</linearGradient>
<linearGradient id="paint13_linear_269_1958" x1="129.24" y1="154.332" x2="129.267" y2="142.616" gradientUnits="userSpaceOnUse">
<stop stop-color="#FF9085"/>
<stop offset="1" stop-color="#FB6FBB"/>
</linearGradient>
<linearGradient id="paint14_linear_269_1958" x1="108.91" y1="127.589" x2="137.154" y2="149.685" gradientUnits="userSpaceOnUse">
<stop stop-color="#FF9085"/>
<stop offset="1" stop-color="#FB6FBB"/>
</linearGradient>
<linearGradient id="paint15_linear_269_1958" x1="184.468" y1="151.061" x2="102.005" y2="137.438" gradientUnits="userSpaceOnUse">
<stop stop-color="#311944"/>
<stop offset="1" stop-color="#893976"/>
</linearGradient>
<linearGradient id="paint16_linear_269_1958" x1="129.24" y1="144.99" x2="129.267" y2="133.274" gradientUnits="userSpaceOnUse">
<stop stop-color="#FF9085"/>
<stop offset="1" stop-color="#FB6FBB"/>
</linearGradient>
<linearGradient id="paint17_linear_269_1958" x1="109.08" y1="127.348" x2="137.133" y2="149.295" gradientUnits="userSpaceOnUse">
<stop stop-color="#FF9085"/>
<stop offset="1" stop-color="#FB6FBB"/>
</linearGradient>
<linearGradient id="paint18_linear_269_1958" x1="184.468" y1="151.061" x2="102.005" y2="137.438" gradientUnits="userSpaceOnUse">
<stop stop-color="#311944"/>
<stop offset="1" stop-color="#893976"/>
</linearGradient>
<linearGradient id="paint19_linear_269_1958" x1="129.24" y1="144.99" x2="129.267" y2="133.274" gradientUnits="userSpaceOnUse">
<stop stop-color="#FF9085"/>
<stop offset="1" stop-color="#FB6FBB"/>
</linearGradient>
<linearGradient id="paint20_linear_269_1958" x1="108.91" y1="118.247" x2="137.155" y2="140.343" gradientUnits="userSpaceOnUse">
<stop stop-color="#FF9085"/>
<stop offset="1" stop-color="#FB6FBB"/>
</linearGradient>
<linearGradient id="paint21_linear_269_1958" x1="184.468" y1="141.719" x2="102.005" y2="128.096" gradientUnits="userSpaceOnUse">
<stop stop-color="#311944"/>
<stop offset="1" stop-color="#893976"/>
</linearGradient>
<linearGradient id="paint22_linear_269_1958" x1="129.24" y1="135.648" x2="129.267" y2="123.932" gradientUnits="userSpaceOnUse">
<stop stop-color="#FF9085"/>
<stop offset="1" stop-color="#FB6FBB"/>
</linearGradient>
<linearGradient id="paint23_linear_269_1958" x1="109.08" y1="118.006" x2="137.133" y2="139.953" gradientUnits="userSpaceOnUse">
<stop stop-color="#FF9085"/>
<stop offset="1" stop-color="#FB6FBB"/>
</linearGradient>
<linearGradient id="paint24_linear_269_1958" x1="184.468" y1="141.719" x2="102.005" y2="128.096" gradientUnits="userSpaceOnUse">
<stop stop-color="#311944"/>
<stop offset="1" stop-color="#893976"/>
</linearGradient>
<linearGradient id="paint25_linear_269_1958" x1="129.24" y1="135.648" x2="129.267" y2="123.932" gradientUnits="userSpaceOnUse">
<stop stop-color="#FF9085"/>
<stop offset="1" stop-color="#FB6FBB"/>
</linearGradient>
<linearGradient id="paint26_linear_269_1958" x1="108.91" y1="108.905" x2="137.155" y2="131.001" gradientUnits="userSpaceOnUse">
<stop stop-color="#FF9085"/>
<stop offset="1" stop-color="#FB6FBB"/>
</linearGradient>
<linearGradient id="paint27_linear_269_1958" x1="184.468" y1="132.377" x2="102.005" y2="118.755" gradientUnits="userSpaceOnUse">
<stop stop-color="#311944"/>
<stop offset="1" stop-color="#893976"/>
</linearGradient>
<linearGradient id="paint28_linear_269_1958" x1="129.24" y1="126.307" x2="129.267" y2="114.591" gradientUnits="userSpaceOnUse">
<stop stop-color="#FF9085"/>
<stop offset="1" stop-color="#FB6FBB"/>
</linearGradient>
<linearGradient id="paint29_linear_269_1958" x1="109.08" y1="108.664" x2="137.133" y2="130.611" gradientUnits="userSpaceOnUse">
<stop stop-color="#FF9085"/>
<stop offset="1" stop-color="#FB6FBB"/>
</linearGradient>
<linearGradient id="paint30_linear_269_1958" x1="184.468" y1="132.377" x2="102.005" y2="118.755" gradientUnits="userSpaceOnUse">
<stop stop-color="#311944"/>
<stop offset="1" stop-color="#893976"/>
</linearGradient>
<linearGradient id="paint31_linear_269_1958" x1="129.24" y1="126.307" x2="129.267" y2="114.591" gradientUnits="userSpaceOnUse">
<stop stop-color="#FF9085"/>
<stop offset="1" stop-color="#FB6FBB"/>
</linearGradient>
<linearGradient id="paint32_linear_269_1958" x1="108.91" y1="99.5641" x2="137.154" y2="121.66" gradientUnits="userSpaceOnUse">
<stop stop-color="#FF9085"/>
<stop offset="1" stop-color="#FB6FBB"/>
</linearGradient>
<linearGradient id="paint33_linear_269_1958" x1="184.468" y1="123.036" x2="102.005" y2="109.413" gradientUnits="userSpaceOnUse">
<stop stop-color="#311944"/>
<stop offset="1" stop-color="#893976"/>
</linearGradient>
<linearGradient id="paint34_linear_269_1958" x1="129.24" y1="116.965" x2="129.267" y2="105.249" gradientUnits="userSpaceOnUse">
<stop stop-color="#FF9085"/>
<stop offset="1" stop-color="#FB6FBB"/>
</linearGradient>
<linearGradient id="paint35_linear_269_1958" x1="109.08" y1="99.323" x2="137.133" y2="121.27" gradientUnits="userSpaceOnUse">
<stop stop-color="#FF9085"/>
<stop offset="1" stop-color="#FB6FBB"/>
</linearGradient>
<linearGradient id="paint36_linear_269_1958" x1="184.468" y1="123.036" x2="102.005" y2="109.413" gradientUnits="userSpaceOnUse">
<stop stop-color="#311944"/>
<stop offset="1" stop-color="#893976"/>
</linearGradient>
<linearGradient id="paint37_linear_269_1958" x1="129.24" y1="116.965" x2="129.267" y2="105.249" gradientUnits="userSpaceOnUse">
<stop stop-color="#FF9085"/>
<stop offset="1" stop-color="#FB6FBB"/>
</linearGradient>
<linearGradient id="paint38_linear_269_1958" x1="108.91" y1="90.2217" x2="137.155" y2="112.318" gradientUnits="userSpaceOnUse">
<stop stop-color="#FF9085"/>
<stop offset="1" stop-color="#FB6FBB"/>
</linearGradient>
<linearGradient id="paint39_linear_269_1958" x1="184.468" y1="113.694" x2="102.005" y2="100.071" gradientUnits="userSpaceOnUse">
<stop stop-color="#311944"/>
<stop offset="1" stop-color="#893976"/>
</linearGradient>
<linearGradient id="paint40_linear_269_1958" x1="129.24" y1="107.623" x2="129.267" y2="95.9075" gradientUnits="userSpaceOnUse">
<stop stop-color="#FF9085"/>
<stop offset="1" stop-color="#FB6FBB"/>
</linearGradient>
<linearGradient id="paint41_linear_269_1958" x1="109.08" y1="89.981" x2="137.133" y2="111.928" gradientUnits="userSpaceOnUse">
<stop stop-color="#FF9085"/>
<stop offset="1" stop-color="#FB6FBB"/>
</linearGradient>
<linearGradient id="paint42_linear_269_1958" x1="184.468" y1="113.694" x2="102.005" y2="100.071" gradientUnits="userSpaceOnUse">
<stop stop-color="#311944"/>
<stop offset="1" stop-color="#893976"/>
</linearGradient>
<linearGradient id="paint43_linear_269_1958" x1="129.24" y1="107.623" x2="129.267" y2="95.9075" gradientUnits="userSpaceOnUse">
<stop stop-color="#FF9085"/>
<stop offset="1" stop-color="#FB6FBB"/>
</linearGradient>
<linearGradient id="paint44_linear_269_1958" x1="119.635" y1="45.9677" x2="175.055" y2="83.5161" gradientUnits="userSpaceOnUse">
<stop stop-color="#311944"/>
<stop offset="1" stop-color="#6B3976"/>
</linearGradient>
<linearGradient id="paint45_linear_269_1958" x1="131.367" y1="152.844" x2="107.335" y2="43.3916" gradientUnits="userSpaceOnUse">
<stop offset="0.00359712" stop-color="#E38DDD"/>
<stop offset="1" stop-color="#9571F6"/>
</linearGradient>
<linearGradient id="paint46_linear_269_1958" x1="95.1646" y1="133.047" x2="102.617" y2="133.047" gradientUnits="userSpaceOnUse">
<stop stop-color="#311944"/>
<stop offset="1" stop-color="#6B3976"/>
</linearGradient>
<linearGradient id="paint47_linear_269_1958" x1="98.6788" y1="135.991" x2="109.848" y2="102.57" gradientUnits="userSpaceOnUse">
<stop stop-color="#FFC444"/>
<stop offset="0.9964" stop-color="#F36F56"/>
</linearGradient>
<linearGradient id="paint48_linear_269_1958" x1="96.3509" y1="119.329" x2="100.908" y2="119.329" gradientUnits="userSpaceOnUse">
<stop stop-color="#311944"/>
<stop offset="1" stop-color="#6B3976"/>
</linearGradient>
<linearGradient id="paint49_linear_269_1958" x1="93.7093" y1="131.874" x2="101.185" y2="109.504" gradientUnits="userSpaceOnUse">
<stop stop-color="#FFC444"/>
<stop offset="0.9964" stop-color="#F36F56"/>
</linearGradient>
<linearGradient id="paint50_linear_269_1958" x1="102.879" y1="94.1667" x2="108.457" y2="126.332" gradientUnits="userSpaceOnUse">
<stop stop-color="#AB316D"/>
<stop offset="1" stop-color="#792D3D"/>
</linearGradient>
<linearGradient id="paint51_linear_269_1958" x1="110.717" y1="132.293" x2="118.646" y2="107.264" gradientUnits="userSpaceOnUse">
<stop stop-color="#AB316D"/>
<stop offset="1" stop-color="#792D3D"/>
</linearGradient>
<linearGradient id="paint52_linear_269_1958" x1="110.718" y1="132.294" x2="118.647" y2="107.265" gradientUnits="userSpaceOnUse">
<stop stop-color="#AB316D"/>
<stop offset="1" stop-color="#792D3D"/>
</linearGradient>
<linearGradient id="paint53_linear_269_1958" x1="121.823" y1="90.9198" x2="127.389" y2="123.011" gradientUnits="userSpaceOnUse">
<stop stop-color="#AB316D"/>
<stop offset="1" stop-color="#792D3D"/>
</linearGradient>
<linearGradient id="paint54_linear_269_1958" x1="144.475" y1="149.965" x2="120.443" y2="40.5134" gradientUnits="userSpaceOnUse">
<stop offset="0.00359712" stop-color="#E38DDD"/>
<stop offset="1" stop-color="#9571F6"/>
</linearGradient>
<linearGradient id="paint55_linear_269_1958" x1="130.637" y1="69.9595" x2="127.377" y2="55.2039" gradientUnits="userSpaceOnUse">
<stop stop-color="#FFC444"/>
<stop offset="0.9964" stop-color="#F36F56"/>
</linearGradient>
<linearGradient id="paint56_linear_269_1958" x1="128.438" y1="56.8092" x2="132.174" y2="76.0022" gradientUnits="userSpaceOnUse">
<stop stop-color="#FFC444"/>
<stop offset="0.9964" stop-color="#F36F56"/>
</linearGradient>
<linearGradient id="paint57_linear_269_1958" x1="112.34" y1="90.5005" x2="133.84" y2="90.5005" gradientUnits="userSpaceOnUse">
<stop stop-color="#40447E"/>
<stop offset="0.9964" stop-color="#3C3B6B"/>
</linearGradient>
<linearGradient id="paint58_linear_269_1958" x1="98.5916" y1="76.9041" x2="112.722" y2="90.8865" gradientUnits="userSpaceOnUse">
<stop stop-color="#40447E"/>
<stop offset="0.9964" stop-color="#3C3B6B"/>
</linearGradient>
<linearGradient id="paint59_linear_269_1958" x1="98.5918" y1="76.9033" x2="112.723" y2="90.8857" gradientUnits="userSpaceOnUse">
<stop stop-color="#40447E"/>
<stop offset="0.9964" stop-color="#3C3B6B"/>
</linearGradient>
<linearGradient id="paint60_linear_269_1958" x1="154.847" y1="147.688" x2="130.816" y2="38.236" gradientUnits="userSpaceOnUse">
<stop offset="0.00359712" stop-color="#E38DDD"/>
<stop offset="1" stop-color="#9571F6"/>
</linearGradient>
<linearGradient id="paint61_linear_269_1958" x1="125.804" y1="86.2501" x2="132.968" y2="92.9839" gradientUnits="userSpaceOnUse">
<stop stop-color="#FFC444"/>
<stop offset="0.9964" stop-color="#F36F56"/>
</linearGradient>
<linearGradient id="paint62_linear_269_1958" x1="56.5137" y1="160.16" x2="55.0382" y2="178.892" gradientUnits="userSpaceOnUse">
<stop offset="0.003597" stop-color="#26264F"/>
<stop offset="1" stop-color="#444B8C"/>
</linearGradient>
<linearGradient id="paint63_linear_269_1958" x1="52.7237" y1="170.589" x2="52.992" y2="151.187" gradientUnits="userSpaceOnUse">
<stop stop-color="#893976"/>
<stop offset="1" stop-color="#311944"/>
</linearGradient>
<linearGradient id="paint64_linear_269_1958" x1="36.0743" y1="157.355" x2="37.0431" y2="176.12" gradientUnits="userSpaceOnUse">
<stop offset="0.003597" stop-color="#26264F"/>
<stop offset="1" stop-color="#444B8C"/>
</linearGradient>
<linearGradient id="paint65_linear_269_1958" x1="36.1982" y1="169.705" x2="33.9456" y2="150.434" gradientUnits="userSpaceOnUse">
<stop stop-color="#893976"/>
<stop offset="1" stop-color="#311944"/>
</linearGradient>
<linearGradient id="paint66_linear_269_1958" x1="57.3422" y1="139.159" x2="43.0335" y2="139.159" gradientUnits="userSpaceOnUse">
<stop offset="0.003597" stop-color="#26264F"/>
<stop offset="1" stop-color="#444B8C"/>
</linearGradient>
<linearGradient id="paint67_linear_269_1958" x1="56.3525" y1="139.16" x2="43.0334" y2="139.16" gradientUnits="userSpaceOnUse">
<stop offset="0.003597" stop-color="#26264F"/>
<stop offset="1" stop-color="#444B8C"/>
</linearGradient>
<linearGradient id="paint68_linear_269_1958" x1="57.8523" y1="134.102" x2="29.2892" y2="137.823" gradientUnits="userSpaceOnUse">
<stop offset="0.003597" stop-color="#26264F"/>
<stop offset="1" stop-color="#444B8C"/>
</linearGradient>
<linearGradient id="paint69_linear_269_1958" x1="29.8993" y1="76.1533" x2="8.60895" y2="95.5899" gradientUnits="userSpaceOnUse">
<stop offset="0.003597" stop-color="#26264F"/>
<stop offset="1" stop-color="#444B8C"/>
</linearGradient>
<linearGradient id="paint70_linear_269_1958" x1="87.436" y1="87.1088" x2="93.4585" y2="104.558" gradientUnits="userSpaceOnUse">
<stop stop-color="#FFC444"/>
<stop offset="0.9964" stop-color="#F36F56"/>
</linearGradient>
<linearGradient id="paint71_linear_269_1958" x1="87.5839" y1="90.127" x2="54.2093" y2="90.127" gradientUnits="userSpaceOnUse">
<stop stop-color="#AA80F9"/>
<stop offset="0.9964" stop-color="#6165D7"/>
</linearGradient>
<linearGradient id="paint72_linear_269_1958" x1="65.0448" y1="104.713" x2="19.035" y2="104.713" gradientUnits="userSpaceOnUse">
<stop stop-color="#AA80F9"/>
<stop offset="0.9964" stop-color="#6165D7"/>
</linearGradient>
<linearGradient id="paint73_linear_269_1958" x1="65.0446" y1="109.244" x2="19.2355" y2="109.244" gradientUnits="userSpaceOnUse">
<stop stop-color="#AA80F9"/>
<stop offset="0.9964" stop-color="#6165D7"/>
</linearGradient>
<linearGradient id="paint74_linear_269_1958" x1="51.8705" y1="80.7039" x2="44.5445" y2="68.4051" gradientUnits="userSpaceOnUse">
<stop stop-color="#FFC444"/>
<stop offset="0.9964" stop-color="#F36F56"/>
</linearGradient>
<linearGradient id="paint75_linear_269_1958" x1="51.4104" y1="73.1275" x2="37.179" y2="64.5816" gradientUnits="userSpaceOnUse">
<stop stop-color="#FFC444"/>
<stop offset="0.9964" stop-color="#F36F56"/>
</linearGradient>
<linearGradient id="paint76_linear_269_1958" x1="62.0275" y1="88.3972" x2="58.961" y2="88.3972" gradientUnits="userSpaceOnUse">
<stop stop-color="#FFC444"/>
<stop offset="0.9964" stop-color="#F36F56"/>
</linearGradient>
<linearGradient id="paint77_linear_269_1958" x1="91.2955" y1="81.6983" x2="60.3464" y2="89.1856" gradientUnits="userSpaceOnUse">
<stop stop-color="#AA80F9"/>
<stop offset="0.9964" stop-color="#6165D7"/>
</linearGradient>
<linearGradient id="paint78_linear_269_1958" x1="75.4199" y1="63.8249" x2="78.9481" y2="97.4985" gradientUnits="userSpaceOnUse">
<stop stop-color="#AA80F9"/>
<stop offset="0.9964" stop-color="#6165D7"/>
</linearGradient>
<linearGradient id="paint79_linear_269_1958" x1="84.0331" y1="69.3279" x2="84.5539" y2="84.4736" gradientUnits="userSpaceOnUse">
<stop stop-color="#AA80F9"/>
<stop offset="0.9964" stop-color="#6165D7"/>
</linearGradient>
</defs>
</svg>
