<svg width="200" height="140" viewBox="0 0 200 140" fill="none" xmlns="http://www.w3.org/2000/svg">
<path d="M167.649 76.7765C155.669 60.3719 172.135 60.4628 178.548 47.9254C180.091 46.0626 182.642 42.3831 183.374 38.339C184.015 34.7994 184.517 29.3261 183.269 23.3526C181.922 16.9015 178.097 8.27182 167.531 3.79989C162.496 1.6692 156.446 0.421098 149.546 0.0892825C144.061 -0.174317 138.026 0.149077 131.605 1.01567C121.393 2.39515 112.624 5.15073 105.386 8.69964C103.329 6.81149 100.793 5.12378 97.6651 3.79989C92.6306 1.6692 86.5798 0.421098 79.6804 0.0892825C74.1944 -0.174317 68.1599 0.149077 61.7396 1.01567C46.7616 3.03857 34.8893 8.02085 26.3981 14.1241C24.8202 13.8116 23.176 13.6457 21.4862 13.6457C9.6193 13.6457 0 21.7988 0 31.8568C0 39.0447 4.9142 45.26 12.0505 48.221C12.5235 52.9052 13.0528 58.7827 13.4371 64.8522C13.9463 72.895 13.7573 79.9583 12.8761 85.8476C11.7944 93.0725 7.34931 102.832 7.34931 102.832C-2.55547 118.948 2.42662 135.523 4.16577 140H74.0324H120.491H190.357C195.241 126.7 183.704 98.7606 167.649 76.7765ZM12.8052 95.7229C12.7535 95.7784 12.7025 95.834 12.6508 95.8888C13.7071 93.0902 14.5111 89.863 15.0551 86.2232C15.9632 80.1444 16.1592 72.8866 15.6353 64.6518C15.3745 60.5437 15.0466 56.5249 14.714 52.8934C19.5194 66.2612 25.723 81.95 12.8052 95.7229ZM122.688 5.29474C125.398 4.56374 128.531 3.87232 131.914 3.41081C141.769 2.06586 155.811 1.43254 166.735 6.05606C176.396 10.1448 179.888 18.0124 181.116 23.8916C182.031 28.2692 181.719 32.6628 180.898 36.4332C180.878 35.7022 180.833 34.9451 180.761 34.1618C178.217 6.56979 145.514 5.14484 145.514 5.14484C136.744 4.80376 129.194 4.87197 122.688 5.29474Z" fill="#FEE4CB"/>
<path opacity="0.5" d="M138.758 83.0391C138.451 81.5476 137.255 80.4351 135.824 80.4351C135.561 80.4351 135.307 80.473 135.064 80.5429C134.358 78.8594 132.826 77.693 131.049 77.693C130.59 77.693 130.147 77.7713 129.73 77.9153C128.774 76.1493 127.036 74.9677 125.051 74.9677C122.689 74.9677 120.677 76.6395 119.915 78.9799C119.376 78.6447 118.754 78.4527 118.092 78.4527C116.022 78.4527 114.344 80.324 114.344 82.6332C114.344 82.7705 114.351 82.9052 114.362 83.0391H138.758V83.0391Z" fill="white"/>
<path opacity="0.5" d="M43.3756 55.1462C43.0682 53.6547 41.8719 52.5422 40.4411 52.5422C40.1785 52.5422 39.9241 52.5801 39.6814 52.65C38.9755 50.9665 37.4436 49.8 35.6665 49.8C35.2075 49.8 34.7643 49.8784 34.3475 50.0224C33.3914 48.2563 31.6533 47.0748 29.6682 47.0748C27.3062 47.0748 25.2946 48.7465 24.5324 51.0869C23.993 50.7517 23.3716 50.5597 22.7097 50.5597C20.6393 50.5597 18.9616 52.431 18.9616 54.7402C18.9616 54.8775 18.9682 55.0122 18.9798 55.1462H43.3756Z" fill="white"/>
<path opacity="0.5" d="M85.902 100.384C85.5947 98.8927 84.3983 97.7802 82.9675 97.7802C82.7049 97.7802 82.4505 97.8181 82.2078 97.888C81.5019 96.2045 79.97 95.0381 78.1929 95.0381C77.7339 95.0381 77.2907 95.1164 76.874 95.2604C75.9179 93.4944 74.1797 92.3136 72.1947 92.3136C69.8327 92.3136 67.8211 93.9853 67.0589 96.3257C66.5195 95.9906 65.8981 95.7985 65.237 95.7985C63.1666 95.7985 61.4889 97.6698 61.4889 99.9782C61.4889 100.116 61.4956 100.25 61.5072 100.384H85.902V100.384Z" fill="white"/>
<path opacity="0.5" d="M176.894 33.5637C176.741 32.8183 176.143 32.2625 175.428 32.2625C175.298 32.2625 175.17 32.281 175.049 32.3164C174.696 31.4751 173.931 30.8923 173.043 30.8923C172.814 30.8923 172.593 30.931 172.385 31.0035C171.907 30.1209 171.039 29.5314 170.047 29.5314C168.868 29.5314 167.863 30.3668 167.482 31.5357C167.212 31.3681 166.902 31.2721 166.571 31.2721C165.537 31.2721 164.699 32.2069 164.699 33.3607C164.699 33.4289 164.702 33.4963 164.708 33.5637H176.894V33.5637Z" fill="white"/>
<path opacity="0.5" d="M135.57 23.4216C135.945 21.6016 137.405 20.2449 139.15 20.2449C139.471 20.2449 139.781 20.2912 140.078 20.3771C140.94 18.3231 142.809 16.8998 144.977 16.8998C145.538 16.8998 146.078 16.995 146.586 17.1718C147.753 15.0167 149.873 13.5757 152.295 13.5757C155.177 13.5757 157.631 15.6155 158.562 18.4713C159.22 18.062 159.978 17.8279 160.785 17.8279C163.311 17.8279 165.359 20.1118 165.359 22.9281C165.359 23.0948 165.352 23.2599 165.338 23.4233H135.57V23.4216Z" fill="white"/>
<path opacity="0.5" d="M51.7922 31.9553C52.3431 29.2797 54.4906 27.2837 57.0573 27.2837C57.5287 27.2837 57.9852 27.3511 58.421 27.4774C59.6877 24.4566 62.4367 22.3629 65.6247 22.3629C66.4491 22.3629 67.2436 22.5027 67.9909 22.7621C69.7076 19.593 72.8252 17.4741 76.3869 17.4741C80.6246 17.4741 84.2344 20.4739 85.6022 24.673C86.5707 24.0708 87.685 23.7272 88.8723 23.7272C92.5872 23.7272 95.598 27.0858 95.598 31.2276C95.598 31.4735 95.5864 31.7161 95.5657 31.9553H51.7922V31.9553Z" fill="white"/>
<path opacity="0.4" d="M148.557 49.0173C148.186 49.7138 147.986 50.5147 147.584 51.1884C147.119 51.9658 146.417 52.5208 145.731 53.0581C142.671 55.4549 139.504 57.9048 135.853 58.8059C134.937 59.0324 133.966 59.1731 133.197 59.7727C131.607 61.0115 131.759 64.1554 133.46 65.1963C135.406 66.3871 138.338 64.9925 139.771 66.8831C140.353 67.652 140.465 68.7587 141.037 69.5377C141.8 70.5786 143.142 70.7588 144.346 70.8464C145.169 70.9062 145.994 70.9584 146.818 71.0039C143.14 61.8074 151.793 59.4047 157.855 52.3035C157.681 52.2765 157.508 52.2479 157.335 52.2151C157.009 52.1544 156.667 52.0753 156.418 51.8319C156.169 51.5885 156.063 51.1253 156.28 50.8465C157.48 50.2747 158.701 49.6986 159.972 49.4047C160.27 48.918 160.555 48.411 160.821 47.8812C161.394 47.1772 162.109 46.2129 162.815 45.0684C160.127 45.2116 157.447 45.4423 154.774 45.8028C152.42 46.1219 149.768 46.7468 148.557 49.0173Z" fill="white"/>
<path d="M27.492 137.994C27.492 137.994 44.4222 130.94 40.9997 125.914C40.9997 125.914 40.945 124.114 34.5781 126.823C34.5781 126.823 32.0122 126.282 33.3643 123.824C34.7164 121.367 40.4869 119.736 39.5167 116.39C38.5465 113.043 35.0851 116.109 33.0628 115.917C31.0404 115.725 37.6708 106.632 36.1041 104.363C34.5375 102.095 31.6195 105.511 30.1183 105.251C28.6171 104.991 31.8333 91.8353 24.6801 90.5603C17.526 89.2852 21.6784 97.2496 22.9129 101.422C24.1465 105.593 19.2087 100.853 16.5708 103.794C13.9329 106.735 25.9609 109.987 23.0455 112.649C20.13 115.31 18.2766 111.799 16.2468 113.871C12.966 117.221 25.555 119.355 23.6817 121.881C22.188 123.894 19.3147 120.382 17.9047 121.794C16.4946 123.205 19.3338 132.745 27.492 137.994Z" fill="#FEB546"/>
<path opacity="0.52" d="M41.2127 126.283C41.1878 126.231 41.1605 126.179 41.1306 126.127C40.641 126.534 40.0809 126.964 39.4571 127.388C37.1671 128.947 33.5325 130.744 29.1904 130.492C29.4307 128.245 29.521 125.8 29.4597 123.171C33.3229 118.849 36.7521 117.155 38.9484 116.496C39.139 116.438 39.3229 116.389 39.501 116.344C39.4836 116.288 39.4662 116.234 39.448 116.182C39.274 116.225 39.095 116.274 38.9103 116.329C36.7123 116.986 33.2981 118.663 29.4539 122.917C29.4539 122.906 29.4531 122.895 29.4531 122.884C29.3793 120.184 29.149 117.287 28.7646 114.221C28.8648 113.99 29.8317 111.794 31.3544 109.365C32.448 107.621 34.0031 105.491 35.8092 104.017C35.7653 103.976 35.7214 103.938 35.6759 103.904C33.8581 105.393 32.2989 107.528 31.202 109.278C29.9269 111.311 29.0396 113.183 28.7215 113.884C28.4207 111.548 28.0322 109.115 27.5558 106.596C26.2269 99.5715 24.5202 93.518 23.5865 90.4314C23.5227 90.428 23.4614 90.4263 23.4001 90.4255C24.328 93.4902 26.0455 99.5673 27.381 106.627C27.6055 107.815 27.8251 109.061 28.0297 110.35C27.5152 109.929 25.9643 108.697 23.8002 107.34C21.9767 106.196 19.4275 104.788 16.5882 103.773C16.5816 103.78 16.575 103.787 16.5692 103.794C16.5335 103.834 16.5012 103.873 16.4714 103.913C19.3173 104.923 21.874 106.336 23.7008 107.48C26.178 109.033 27.8466 110.42 28.0711 110.609C28.5202 113.47 28.8971 116.537 29.1076 119.641C25.7571 117.156 19.2585 115.082 16.0091 114.147C15.9727 114.197 15.9387 114.246 15.9089 114.295C19.1706 115.232 25.8176 117.346 29.1225 119.869C29.4108 124.286 29.3578 128.768 28.6917 132.824C25.3727 131.577 22.5757 128.251 20.8061 125.663C19.7116 124.063 18.8666 122.543 18.3347 121.517C18.28 121.536 18.2262 121.56 18.174 121.588C18.7075 122.619 19.5567 124.146 20.6561 125.754C22.4465 128.372 25.2841 131.743 28.6635 132.996C28.3694 134.738 27.9601 136.4 27.4141 137.942C27.4398 137.959 27.4647 137.976 27.4904 137.992C27.4904 137.992 27.5285 137.976 27.5997 137.946C28.3445 135.825 28.869 133.389 29.1714 130.66C29.4547 130.677 29.7381 130.685 30.0214 130.685C31.6751 130.685 33.3387 130.403 34.9799 129.844C36.5391 129.313 38.081 128.532 39.5631 127.522C40.1771 127.107 40.728 126.684 41.2127 126.283Z" fill="white"/>
<path d="M29.5484 136.96C29.5484 136.96 30.8964 126.029 20.9876 116.162L20.0738 120.111L19.7697 115.259C19.7697 115.259 13.764 109.76 8.51053 107.001C8.51053 107.001 11.7764 119.754 13.3879 122.305L17.0067 124.463L13.2545 124.817C13.2545 124.817 14.9057 131.958 20.0249 136.395C25.145 140.831 29.5484 136.96 29.5484 136.96Z" fill="#FF5B7E"/>
<path d="M199.999 125.034C197.417 124.14 194.928 123.889 192.596 124.061C192.072 124.999 191.422 126.109 191.422 126.109L190.996 124.249C182.179 125.653 175.951 132.784 175.951 132.784C181.573 134.827 186.049 134.792 189.538 133.793C189.63 133.094 189.75 132.053 189.75 132.053L190.648 133.433C192.299 132.831 193.704 132.014 194.885 131.126C194.412 130.411 193.901 129.588 193.901 129.588L195.973 130.235C198.797 127.728 199.999 125.034 199.999 125.034Z" fill="#FF5B7E"/>
<path d="M189.539 133.793C189.63 133.093 189.751 132.052 189.751 132.052L190.649 133.433C192.3 132.83 193.705 132.014 194.886 131.126C194.413 130.411 193.902 129.588 193.902 129.588L195.974 130.235C198.797 127.727 200 125.033 200 125.033C189.603 125.98 175.953 132.782 175.953 132.782C181.574 134.825 186.049 134.792 189.539 133.793Z" fill="#E03268"/>
<path d="M168.936 131.226C168.936 131.226 166.491 119.049 176.795 106.98L178.159 111.337L178.089 105.843C178.089 105.843 184.375 99.0698 190.049 95.4544C190.049 95.4544 187.459 110.13 185.864 113.159L181.978 115.939L186.227 115.975C186.227 115.975 184.977 124.175 179.597 129.667C174.215 135.158 168.936 131.226 168.936 131.226Z" fill="#E03268"/>
<path d="M198.409 109.415C198.365 113.701 197.304 117.257 195.624 120.202C193.743 120.014 191.499 119.832 191.499 119.832L194.358 122.157C186.755 132.583 171.111 134.147 171.111 134.147C171.042 124.722 173.767 118.79 177.517 115.081C178.743 115.621 180.556 116.443 180.556 116.443L178.78 113.942C180.772 112.311 182.976 111.209 185.165 110.474C186.08 111.78 187.153 113.237 187.153 113.237L187.304 109.864C193.183 108.471 198.409 109.415 198.409 109.415Z" fill="#07085B"/>
<path d="M177.517 115.082C178.742 115.621 180.555 116.444 180.555 116.444L178.78 113.943C180.771 112.312 182.975 111.209 185.165 110.475C186.079 111.78 187.152 113.238 187.152 113.238L187.304 109.865C193.183 108.471 198.408 109.415 198.408 109.415C190.626 122.378 171.109 134.148 171.109 134.148C171.042 124.723 173.766 118.791 177.517 115.082Z" fill="#55769F"/>
<path d="M180.699 79.9794C176.071 80.0266 178.423 86.7235 179.128 88.5005C177.835 89.5945 176.737 90.707 175.814 91.7883C175.852 89.4606 177.368 87.7939 176.945 86.3285C176.472 84.6855 174.901 83.2849 173.487 86.0742C172.368 88.2841 174.518 91.1281 175.459 92.2145C173.897 94.1195 172.864 95.9007 172.205 97.27C171.859 94.5793 173.393 92.4537 172.733 90.8401C172.01 89.074 170.122 87.7282 168.931 91.0279C167.946 93.7548 170.926 96.7664 171.991 97.729C171.418 98.994 171.196 99.8176 171.172 99.906C170.715 101.566 170.364 103.188 170.102 104.767C169.743 102.404 170.682 100.323 169.895 98.9358C168.95 97.2709 166.923 96.1971 166.204 99.6812C165.634 102.438 168.651 104.922 169.937 105.84C169.467 109.151 169.387 112.256 169.553 115.096C168.495 113.113 168.327 109.594 166.769 108.093C165.748 107.107 164.819 107.28 164.216 107.602C163.702 107.877 163.366 108.388 163.282 108.999C162.808 112.452 167.994 114.949 169.586 115.629C169.829 119.124 170.438 122.196 171.134 124.724C170.578 123.702 169.747 122.158 169.348 121.338C168.719 120.045 167.247 118.588 165.957 118.415C165.903 118.408 165.851 118.403 165.8 118.399C164.82 118.334 164.037 119.072 163.898 120.067C163.357 123.958 169.974 125.411 171.408 125.679C171.413 125.697 171.418 125.714 171.423 125.732C173.325 132.064 175.892 135.79 176.001 135.946L176.518 135.579C176.493 135.542 174.051 131.994 172.203 126.092C176.917 122.414 176.373 118.357 174.955 117.579C173.491 116.775 171.237 117.514 171.743 120.375C172.037 122.034 171.98 123.814 171.881 125.018C171.155 122.48 170.506 119.342 170.247 115.749C177.929 113.446 175.697 108.479 173.684 108.217C171.647 107.95 170.951 109.283 170.934 111.685C170.922 113.281 170.499 114.583 170.216 115.28C170.044 112.495 170.111 109.444 170.56 106.191C171.977 106.707 175.671 107.769 177.206 105.486C179.123 102.633 177.091 101.571 175.35 101.822C173.748 102.053 172.915 104.639 170.627 105.719C170.895 103.917 171.278 102.056 171.805 100.144C171.813 100.113 172.259 98.4609 173.597 96.1373C174.971 96.8355 178.523 98.3413 180.331 96.3159C182.603 93.7717 180.693 92.4621 178.916 92.4772C177.329 92.4916 176.198 94.7755 173.915 95.6017C175.098 93.6622 176.882 91.3369 179.494 89.1102C180.923 89.8244 184.373 91.2317 186.146 89.2467C188.418 86.7025 186.508 85.392 184.729 85.408C183.12 85.4224 181.981 87.7729 179.632 88.5679L179.587 88.5098C180.099 87.735 181.194 86.0961 181.759 85.3432C182.513 84.3385 182.944 82.5304 182.384 81.3294C181.821 80.1268 180.699 79.9794 180.699 79.9794Z" fill="#FEB546"/>
<path d="M2.12766 138.612C2.12766 138.612 3.23769 133.118 14.0604 132.589C24.883 132.061 25.9931 135.883 42.0874 134.265C58.1825 132.647 66.3043 126.215 91.6482 127.174C116.991 128.133 113.173 133.248 138.541 133.754C163.91 134.259 167.785 130.027 181.248 131.483C194.711 132.94 200 138.923 200 138.923H195.822L2.12766 138.612Z" fill="#02CCC0"/>
<path d="M199.422 140H0.577608C0.25901 140 0 139.759 0 139.462C0 139.164 0.258216 138.923 0.577608 138.923H199.422C199.741 138.923 200 139.164 200 139.462C200 139.759 199.742 140 199.422 140Z" fill="#07085B"/>
<path d="M46.0328 80.1439C47.0701 76.1107 49.4412 73.2456 51.3285 73.7451C53.2158 74.2445 53.9043 77.9189 52.8662 81.9529C52.7228 82.5104 53.0998 82.5348 53.2249 82.048C54.3715 77.5913 53.611 73.5303 51.5257 72.9787C49.4404 72.4271 46.8207 75.5928 45.6741 80.0496C45.5432 80.5591 45.8895 80.7014 46.0328 80.1439Z" fill="#02CCC0"/>
<path d="M57.1224 100.612L52.8333 103.779L40.7539 79.5375L42.6238 76.4122L58.9997 80.8218L57.1224 100.612Z" fill="#00B0A5"/>
<path d="M52.8332 103.778L33.9651 98.7851L40.7314 77.2095L57.3237 81.5997L52.8332 103.778Z" fill="#02CCC0"/>
<path d="M58.9998 80.8218L42.6238 76.4122L43.5542 77.2173L40.7315 77.2098L57.3237 81.6L57.772 81.0408L58.9998 80.8218Z" fill="#008C83"/>
<path d="M44.8401 80.3424C45.9619 75.9817 48.5252 72.885 50.565 73.4248C52.6047 73.9647 53.3496 77.9372 52.2278 82.298C52.0729 82.9001 52.4805 82.9271 52.6155 82.4007C53.8549 77.5826 53.0322 73.1932 50.7787 72.5961C48.5244 71.9999 45.6926 75.4216 44.4523 80.2405C44.3107 80.7913 44.6852 80.9446 44.8401 80.3424Z" fill="#02CCC0"/>
<path d="M57.7719 81.041L53.6982 99.5081L57.1224 100.612L58.9997 80.822L57.7719 81.041Z" fill="#E6E6E6"/>
<path d="M45.2924 78.9846C47.1963 75.2917 50.1407 73.0423 51.869 73.9602C53.5972 74.8782 53.4547 78.6166 51.5508 82.3095C51.2882 82.8199 51.6494 82.9293 51.8789 82.4838C53.9824 78.4035 54.1398 74.2727 52.2302 73.2587C50.3205 72.2439 47.0671 74.73 44.9635 78.8103C44.7233 79.2769 45.029 79.495 45.2924 78.9846Z" fill="#FF5B7E"/>
<path d="M51.5664 101.464L46.6866 103.568L40.2832 77.1855L42.796 74.5688L57.776 82.6099L51.5664 101.464Z" fill="#E8486A"/>
<path d="M46.6866 103.568L29.4076 94.3875L40.7754 74.9123L55.9707 82.9854L46.6866 103.568Z" fill="#FF5B7E"/>
<path d="M57.776 82.6099L42.7961 74.5688L43.5244 75.566L40.7754 74.9124L55.9707 82.9855L56.5316 82.5433L57.776 82.6099Z" fill="#C23C59"/>
<path d="M44.0853 78.9055C46.1432 74.9136 49.3263 72.4823 51.1945 73.4743C53.0628 74.4673 52.9087 78.508 50.8507 82.4998C50.5665 83.0515 50.9576 83.1702 51.2061 82.6885C53.4803 78.2772 53.6502 73.8121 51.5864 72.7156C49.5218 71.6191 46.0049 74.3056 43.7307 78.7168C43.4705 79.2213 43.8011 79.4571 44.0853 78.9055Z" fill="#FF5B7E"/>
<path d="M56.5318 82.5433L48.4747 99.6049L51.5666 101.464L57.7762 82.6099L56.5318 82.5433Z" fill="#E6E6E6"/>
<path d="M46.1141 75.82C48.037 73.8105 50.3585 72.9347 51.2988 73.8627C52.2391 74.7908 51.4438 77.1725 49.5208 79.1811C49.2549 79.4581 49.4678 79.5996 49.6998 79.3571C51.8241 77.1371 52.7039 74.5062 51.6642 73.4804C50.6244 72.4546 48.0594 73.4231 45.9351 75.6431C45.6915 75.8974 45.8481 76.097 46.1141 75.82Z" fill="#FEB546"/>
<path d="M45.9219 91.5273L42.3809 91.9332L43.2243 73.6842L45.3369 72.4866L53.4761 80.5858L45.9219 91.5273Z" fill="#EBA741"/>
<path d="M42.3809 91.9339L32.9742 82.6531L43.97 72.3155L52.2417 80.477L42.3809 91.9339Z" fill="#FEB546"/>
<path d="M53.4762 80.5864L45.337 72.4873L45.6187 73.2722L43.97 72.3155L52.2417 80.477L52.6866 80.301L53.4762 80.5864Z" fill="#B88233"/>
<path d="M45.3511 75.5324C47.4298 73.3604 49.9393 72.413 50.9559 73.4169C51.9724 74.4199 51.1125 76.9945 49.0338 79.1664C48.7471 79.4663 48.9766 79.6195 49.2268 79.3568C51.5234 76.9566 52.4745 74.1125 51.3511 73.0034C50.2276 71.8942 47.4547 72.941 45.1581 75.3413C44.8946 75.6166 45.0636 75.8331 45.3511 75.5324Z" fill="#FEB546"/>
<path d="M52.6866 80.3011L44.279 89.7275L45.9219 91.528L53.4762 80.5866L52.6866 80.3011Z" fill="#E6E6E6"/>
<path d="M51.9667 75.2017C51.8697 75.2093 51.7554 75.12 51.6775 75.1781C51.0736 75.6337 50.6684 75.7457 50.5649 75.6346C50.4406 75.5023 50.5052 75.3423 50.4472 75.2488C50.3312 75.0636 50.1921 75.2286 50.0007 75.0602C49.8913 74.9642 49.9526 74.8135 49.912 74.7073C49.8714 74.6004 49.7985 74.5381 49.6345 74.4816C49.4704 74.4252 49.5276 74.2172 49.5144 74.0732C49.5019 73.9292 49.3321 73.9645 49.2625 73.8618C49.1341 73.6706 49.2244 73.2074 50.5889 72.2507L51.801 71.4321L53.0114 71.3294L53.5441 72.788C53.5441 72.788 53.2351 73.1973 53.0172 74.0024C52.8523 74.6139 52.5814 75.1512 51.9667 75.2017Z" fill="#FFC0BB"/>
<path d="M68.9532 94.3167L56.1133 132.907C56.1133 132.907 51.7057 136.785 51.8963 134.522C51.941 133.996 52.5922 130.254 52.6469 129.562C53.1117 123.754 54.3818 112.36 55.4025 108.45C56.506 104.22 59.1257 97.1927 59.1257 97.1927L68.9532 94.3167Z" fill="#FFC0BB"/>
<path d="M60.0493 135.923L56.0411 132.538L51.9235 134.322L53.1149 135.47L57.6227 136.791C57.6227 136.791 59.4503 136.815 59.5373 136.773C59.6243 136.73 60.0493 135.923 60.0493 135.923Z" fill="#FFC0BB"/>
<path d="M60.0494 135.923L61.061 136.811C61.5308 137.216 61.1894 137.993 60.5797 137.908L52.1481 136.737C51.8507 136.696 51.6428 136.417 51.6833 136.115L51.9244 134.322C57.2947 136.918 59.3088 136.635 60.0494 135.923Z" fill="#07085B"/>
<path d="M81.5828 77.3845C81.5828 77.3845 87.7659 97.3423 86.9407 100.108C86.413 101.878 76.5589 129.72 76.4031 129.668C76.2465 129.617 72.3087 128.445 72.3087 128.445C72.3087 128.445 79.6226 101.239 79.2647 99.4966C78.9076 97.7541 71.4926 81.6703 71.4926 81.6703L81.5828 77.3845Z" fill="#FFC0BB"/>
<path d="M79.9797 131.355L77.254 126.591L72.6037 126.837L73.3634 128.393L77.3037 131.321C77.3037 131.321 79.0808 132.009 79.1802 131.999C79.2796 131.989 79.9797 131.355 79.9797 131.355Z" fill="#FFC0BB"/>
<path d="M79.9795 131.355L80.6556 132.59C80.9721 133.156 80.3656 133.792 79.7989 133.488L71.9722 129.279C71.6963 129.13 71.5902 128.783 71.7369 128.502L72.6035 126.838C76.9381 131.327 79.0052 131.782 79.9795 131.355Z" fill="#07085B"/>
<path d="M79.2648 99.4966C79.2648 99.4966 75.902 109.902 73.6974 123.211L80.8108 107.622L79.2648 99.4966Z" fill="#FFC0BB"/>
<path d="M75.8886 46.0138C75.8886 46.0138 79.9515 43.9497 79.0443 38.1092C78.7585 36.2674 77.0451 35.6299 77.3442 33.1791C77.6433 30.7284 78.4188 27.7202 75.93 24.9444C73.4412 22.1695 71.1479 21.841 68.0345 21.7938C64.7876 21.7442 59.1323 24.002 57.7694 28.0057C56.4057 32.0094 51.3751 28.5683 46.0653 32.3488C40.7555 36.1293 42.3512 42.1457 43.7306 45.2483C47.9775 54.8035 55.7479 56.3514 65.1463 53.9892C74.5439 51.626 66.8282 49.9358 66.9143 49.7867C67.0005 49.6377 75.8886 46.0138 75.8886 46.0138Z" fill="#F46C0F"/>
<path d="M69.9433 39.3497L70.2225 35.9659L66.4637 36.2573L65.409 40.4462C65.2814 40.9431 66.8373 41.1882 67.2963 41.4038C67.829 41.6547 68.3261 40.2812 69.1538 40.1725C69.573 40.1169 69.8978 39.7767 69.9433 39.3497Z" fill="#FFC0BB"/>
<g opacity="0.6">
<path opacity="0.6" d="M70.0288 38.3155L70.2226 35.9659L66.4638 36.2573L66.134 37.566C66.9161 37.9904 68.4878 38.5572 70.0288 38.3155Z" fill="#FC8D84"/>
</g>
<path d="M74.1531 34.4595C74.2566 34.1487 74.332 33.8261 74.3784 33.4943C74.5193 32.6016 74.4994 31.687 74.4207 30.9021C74.4041 30.7337 74.3966 30.5653 74.3925 30.396C74.3759 29.713 74.2359 29.0131 73.941 28.3251C72.9923 26.1093 70.6775 24.7644 68.3147 25.0625C65.1316 25.4642 63.0339 28.5028 63.647 31.6095C63.2775 31.49 62.8947 31.522 62.5948 31.7384C62.0198 32.1528 61.9676 33.08 62.478 33.8093C62.9883 34.5378 63.8682 34.7938 64.444 34.3786C64.5235 34.3213 64.5923 34.2531 64.6519 34.1773C65.439 36.7662 67.9758 38.373 70.5276 37.8105C71.7753 37.5342 72.8068 36.7881 73.4961 35.7833C73.5433 35.7236 73.5922 35.6545 73.6419 35.5753C73.8623 35.2292 74.0271 34.8519 74.1531 34.4595Z" fill="#FFC0BB"/>
<path d="M69.1084 31.5482C69.1639 31.8076 69.0016 32.0637 68.7464 32.1201C68.4904 32.1774 68.2386 32.0123 68.1831 31.7529C68.1276 31.4935 68.2899 31.2375 68.5451 31.181C68.8011 31.1246 69.0529 31.2897 69.1084 31.5482Z" fill="#333333"/>
<path d="M73.1397 30.9359C73.1952 31.1953 73.0328 31.4514 72.7776 31.5078C72.5224 31.5642 72.2697 31.3991 72.2142 31.1406C72.1587 30.8812 72.3211 30.6252 72.5763 30.5687C72.8315 30.5115 73.0842 30.6765 73.1397 30.9359Z" fill="#333333"/>
<path d="M69.4672 30.4936C69.2203 30.449 68.9875 30.4203 68.7596 30.417C68.5318 30.4128 68.3114 30.438 68.1018 30.4961C67.893 30.5568 67.6867 30.6359 67.497 30.7622L67.4224 30.8052C67.3976 30.8195 67.376 30.8397 67.352 30.8549L67.2079 30.9576C67.1117 31.0284 67.0248 31.1117 66.9171 31.1842C66.9626 31.0671 67.0173 30.95 67.0844 30.8414C67.1623 30.742 67.2311 30.6275 67.3321 30.5441C67.5152 30.3572 67.7596 30.2292 68.014 30.1584C68.27 30.0877 68.5426 30.086 68.7936 30.145C69.0438 30.2081 69.2824 30.3176 69.4672 30.4936Z" fill="#F46C0F"/>
<path d="M71.3503 30.1788C71.4704 29.9523 71.661 29.7704 71.8789 29.6306C72.0984 29.4924 72.3569 29.4057 72.6221 29.3897C72.8855 29.3745 73.1573 29.4158 73.3901 29.5337C73.5127 29.5792 73.613 29.6651 73.7182 29.7341C73.8168 29.8158 73.9055 29.9085 73.985 30.0045C73.8599 29.9716 73.7514 29.9203 73.6378 29.8849L73.4688 29.8352C73.4407 29.8276 73.4141 29.8158 73.386 29.8099L73.3015 29.7939C73.0819 29.735 72.8607 29.7274 72.6436 29.7384C72.4265 29.7518 72.2094 29.7998 71.9949 29.8773C71.7819 29.9539 71.5698 30.0567 71.3503 30.1788Z" fill="#F46C0F"/>
<path d="M70.6121 30.2563C70.5797 30.6016 70.6038 30.9486 70.6676 31.2913C70.6999 31.4631 70.7454 31.6332 70.8109 31.8025C70.8797 31.9701 70.9634 32.1394 71.1142 32.2851L71.1779 32.3356L71.2343 32.3786C71.2583 32.3996 71.2906 32.4139 71.3097 32.4384C71.3561 32.4796 71.3901 32.5293 71.4116 32.5832C71.4621 32.691 71.4398 32.8274 71.3851 32.958C71.2641 33.2241 70.9857 33.4228 70.6808 33.5702C71.0164 33.5534 71.3859 33.4178 71.6047 33.0851C71.7115 32.9234 71.7704 32.6961 71.7008 32.4813C71.6834 32.4282 71.6627 32.3769 71.6312 32.3314C71.6047 32.2825 71.5674 32.2438 71.5309 32.2042C71.4953 32.1621 71.4505 32.1377 71.4099 32.1048C71.3851 32.0872 71.3801 32.0804 71.3669 32.0695L71.3312 32.0408C71.2376 31.9533 71.1589 31.8168 71.0901 31.6762C71.0172 31.5355 70.9683 31.3781 70.9095 31.2239C70.8059 30.9115 70.714 30.5864 70.6121 30.2563Z" fill="#F99893"/>
<path d="M71.2383 25.5317C71.2383 25.5317 68.7354 30.8239 63.6459 31.6088L62.7918 27.8999C62.7918 27.8999 64.4769 25.9216 64.6965 25.6673C64.916 25.4138 68.3303 24.2171 68.3303 24.2171L71.1754 24.6331L71.2383 25.5317Z" fill="#F46C0F"/>
<path d="M63.0695 43.6008C63.0695 43.6008 57.2178 64.3535 51.2643 71.8286L53.2352 73.198C53.2352 73.198 64.6809 58.1872 66.4315 51.5661C68.1829 44.9458 63.0695 43.6008 63.0695 43.6008Z" fill="#FFC0BB"/>
<path d="M64.7502 39.0173C64.7502 39.0173 80.3018 38.6812 77.4642 52.0296C77.4642 52.0296 76.2033 56.6212 76.4137 58.1168C76.6241 59.6117 78.62 63.6474 78.4104 67.4498C78.1999 71.2514 89.9687 77.2316 90.9148 80.9692C90.9148 80.9692 86.8171 83.4249 85.1352 85.5607C83.4542 87.6964 79.5661 96.7733 67.3773 97.0934C55.1885 97.4134 50.2499 98.0543 50.2499 98.0543C50.2499 98.0543 50.7752 93.5697 56.3443 86.9486C61.9134 80.3283 60.6525 61.9605 65.5911 57.476C65.5903 57.4751 59.3915 39.9942 64.7502 39.0173Z" fill="#07085B"/>
<path opacity="0.3" d="M56.3437 86.9486C61.9129 80.3283 60.6519 61.9605 65.5906 57.4759C65.5906 57.4759 60.144 42.1173 63.8747 39.3878C63.8756 39.3912 68.9534 54.0593 71.2649 56.195C71.2649 56.195 66.9998 64.9511 66.7678 69.2225C66.5359 73.494 69.8987 79.3168 68.1125 82.7596C66.3263 86.2024 64.7587 98.413 78.5192 93.4291C75.9003 95.393 72.3212 96.9645 67.3768 97.0942C55.188 97.4142 50.2494 98.0551 50.2494 98.0551C50.2494 98.0551 50.7746 93.5689 56.3437 86.9486Z" fill="#02CCC0"/>
<path d="M64.9987 58.0273C64.7734 57.9835 64.6276 57.7595 64.674 57.5304C64.7195 57.3039 64.9366 57.1582 65.1595 57.202C70.8488 58.3162 75.0136 57.7738 76.258 57.5591C76.4743 57.5212 76.6822 57.6618 76.7319 57.8791L76.7327 57.8816C76.7858 58.1166 76.635 58.3482 76.4022 58.3903C75.7013 58.5149 74.1768 58.7313 72.0153 58.7313C70.1222 58.7322 67.7411 58.5663 64.9987 58.0273ZM76.6424 57.4858L76.7352 57.8951L76.6424 57.4858Z" fill="#FF5B7E"/>
<path d="M68.588 34.4771C68.7379 35.2005 69.4181 35.7454 70.2333 35.7428C71.0486 35.7403 71.7246 35.1904 71.868 34.4661L68.588 34.4771Z" fill="white"/>
<path d="M85.4277 28.8019C85.5056 28.8608 85.6174 28.8086 85.6232 28.7109C85.668 27.9479 85.8229 25.5486 86.0159 25.5166C86.2463 25.4778 86.1593 27.6245 86.3598 27.707C86.5611 27.7887 86.5934 25.6926 86.8461 25.6909C87.0988 25.69 87.006 27.6001 87.1121 27.638C87.2189 27.675 87.5006 25.8543 87.6481 25.7625C87.7964 25.6715 87.7285 27.6523 87.8453 27.7348C87.9621 27.8174 88.4567 26.4657 88.5752 26.496C88.6945 26.5255 88.7782 26.5246 88.5238 29.8916L88.368 31.213L87.668 32.2219L86.2471 31.8783C86.2471 31.8783 83.9447 28.2174 84.016 28.0532C84.0839 27.8957 84.2289 27.894 85.4277 28.8019Z" fill="#FFC0BB"/>
<path d="M86.064 31.5844C86.064 31.5844 82.4642 44.4376 81.6597 44.814C80.8544 45.1905 73.6043 43.32 70.6291 41.8799C67.654 40.4398 64.2266 39.3812 63.3401 40.9535C62.4536 42.5258 66.2613 49.6902 79.977 50.0869C79.977 50.0869 85.2984 51.0663 86.8046 44.1656C88.3108 37.264 88.3862 31.063 88.3862 31.063L86.064 31.5844Z" fill="#FFC0BB"/>
<path d="M101.672 72.0655C101.745 72.0108 101.727 71.8962 101.642 71.8642C100.335 71.3808 100.261 71.2654 100.347 71.1324C100.436 70.9926 104.165 70.4367 104.165 70.4367L112.55 60.6608C113.575 58.8375 119.223 48.8704 120.538 48.2269C120.901 48.0492 121.897 47.4024 122.707 47.373L122.336 56.081C120.659 58.5276 117.881 62.2929 115.621 64.3596C113.165 66.908 108.543 70.2658 106.561 71.497L104.061 73.7557C101.615 75.6801 102.187 74.3731 102.063 74.3234C101.941 74.2737 101.696 73.8585 101.613 73.7928C101.531 73.7271 101.447 73.2791 101.281 73.162C101.116 73.0458 101.111 72.4917 101.672 72.0655Z" fill="#FFC0BB"/>
<path d="M125.808 35.5134C125.808 35.5134 125.669 38.7726 124.394 40.7845C123.296 42.516 121.79 45.5882 124.615 47.4974C127.439 49.4067 131.51 46.8144 131.568 46.6233C131.626 46.4329 132.989 44.2837 132.88 42.5649C132.77 40.846 133.526 38.7902 132.132 37.3358C130.737 35.8814 125.808 35.5134 125.808 35.5134Z" fill="#07085B"/>
<path d="M140.65 42.0388C139.532 39.6546 139.413 37.7252 139.495 35.9524C139.529 35.2088 139.809 33.0857 138.38 31.0779C136.311 28.1733 133.731 27.2107 130.868 27.7371C127.555 28.346 125.584 32.4119 125.783 34.9208L131.854 35.0412C130.877 35.2391 130.182 35.3798 130.182 35.3798C126.182 45.917 128.708 46.3078 129.383 47.662C130.058 49.017 134.228 50.4083 137.499 49.8255C142.763 48.889 142.057 45.0403 140.65 42.0388Z" fill="#07085B"/>
<path d="M134.372 40.7505L134.559 45.7884C134.559 45.7884 132.69 47.3413 129.439 45.2527C129.439 45.2527 130.085 44.5209 130.039 42.6108C129.991 40.6578 134.372 40.7505 134.372 40.7505Z" fill="#FFC0BB"/>
<path opacity="0.6" d="M134.372 40.7505L134.453 42.8517C133.684 44.1444 132.205 44.7448 129.843 44.3743C129.962 43.9583 130.056 43.3814 130.038 42.61C129.991 40.6578 134.372 40.7505 134.372 40.7505Z" fill="#FC8D84"/>
<path d="M127.451 35.5922C127.543 36.2937 127.171 36.9228 126.618 36.9986C126.066 37.0736 125.544 36.5657 125.451 35.8642C125.358 35.1627 125.732 34.5327 126.283 34.4578C126.835 34.3828 127.358 34.8915 127.451 35.5922Z" fill="#F99893"/>
<path d="M126.511 38.3793C126.421 37.4849 126.491 36.5779 126.612 35.8031C126.637 35.6372 126.654 35.4696 126.667 35.302C126.721 34.624 126.898 33.9377 127.229 33.2707C128.291 31.124 130.66 29.9205 132.985 30.3509C136.118 30.9303 138.03 34.0665 137.251 37.116C137.625 37.0175 138.002 37.0722 138.287 37.3038C138.834 37.7476 138.835 38.6707 138.289 39.3663C137.742 40.0611 136.857 40.2641 136.309 39.8202C136.233 39.7588 136.169 39.6872 136.114 39.6089C135.192 42.1345 132.588 43.5864 130.09 42.8815C128.2 42.3484 126.701 40.6388 126.511 38.3793Z" fill="#FFC0BB"/>
<path d="M129.177 35.6795C129.233 35.9389 129.07 36.1949 128.815 36.2513C128.527 36.3153 128.243 36.098 128.24 35.7797C128.239 35.5944 128.35 35.4193 128.517 35.3443C128.803 35.2155 129.114 35.3873 129.177 35.6795Z" fill="#333333"/>
<path d="M133.245 36.5319C133.301 36.7913 133.138 37.0474 132.883 37.1038C132.595 37.1678 132.311 36.9505 132.308 36.6321C132.306 36.4469 132.417 36.2717 132.585 36.1967C132.87 36.0679 133.182 36.2405 133.245 36.5319Z" fill="#333333"/>
<path d="M130.882 35.3804C130.799 35.6785 130.714 35.9733 130.613 36.2579C130.558 36.3986 130.51 36.5409 130.44 36.6698C130.373 36.7986 130.297 36.9249 130.2 37.0075L130.163 37.0353C130.15 37.0454 130.142 37.053 130.122 37.0664C130.086 37.0934 130.047 37.1127 130.017 37.1473C129.984 37.1793 129.951 37.2096 129.927 37.25C129.899 37.2862 129.88 37.3283 129.863 37.3721C129.796 37.549 129.837 37.7444 129.921 37.8892C130.004 38.0383 130.131 38.1495 130.268 38.2286C130.407 38.3069 130.556 38.3558 130.708 38.3777C130.568 38.312 130.437 38.2404 130.324 38.1461C130.21 38.0543 130.116 37.9414 130.061 37.816C130.008 37.6913 129.988 37.5532 130.041 37.4429C130.054 37.4159 130.065 37.3881 130.085 37.3646C130.101 37.3384 130.125 37.3182 130.148 37.2963C130.168 37.2728 130.2 37.2601 130.225 37.2408C130.252 37.2214 130.296 37.1911 130.33 37.1641C130.462 37.0445 130.543 36.8997 130.611 36.754C130.677 36.6074 130.724 36.4567 130.763 36.3051C130.838 36.0002 130.881 35.6912 130.882 35.3804Z" fill="#F99893"/>
<path d="M132.223 35.1288C132.473 35.133 132.705 35.1498 132.928 35.1877C133.15 35.2248 133.359 35.2879 133.553 35.3806C133.745 35.4749 133.933 35.586 134.099 35.7402C134.191 35.8067 134.261 35.8993 134.35 35.9785C134.435 36.0627 134.507 36.1587 134.604 36.2463C134.582 36.1225 134.549 35.997 134.504 35.8774C134.447 35.7637 134.398 35.6399 134.313 35.5406C134.166 35.3233 133.947 35.154 133.708 35.0386C133.468 34.9241 133.2 34.8761 132.942 34.893C132.684 34.9115 132.432 34.9831 132.223 35.1288Z" fill="#07085B"/>
<path d="M130.182 34.6968C130.054 34.4744 129.856 34.3009 129.631 34.1729C129.405 34.0466 129.143 33.975 128.877 33.9742C128.613 33.975 128.345 34.034 128.119 34.167C128.002 34.2218 127.905 34.3119 127.806 34.3902C127.714 34.4786 127.633 34.578 127.561 34.6808C127.685 34.6429 127.79 34.5873 127.901 34.5477C128.016 34.5149 128.118 34.4618 128.23 34.4416C128.444 34.3734 128.66 34.354 128.873 34.3506C129.087 34.3515 129.303 34.3843 129.52 34.4458C129.737 34.5081 129.954 34.5932 130.182 34.6968Z" fill="#07085B"/>
<path d="M136.587 37.1052C136.871 37.0497 136.903 37.0749 137.253 37.1162L137.538 37.0716L137.471 36.7077L137.362 36.6564L137.596 35.6685L137.461 34.6369C137.461 34.6369 136.575 31.6884 136.536 31.6093C136.496 31.5301 135.48 30.3359 135.415 30.2702C135.35 30.2045 133.482 29.9106 133.482 29.9106C133.482 29.9106 130.585 28.1884 130.541 30.1346C130.496 32.0809 132.475 33.7618 132.618 33.7214C132.375 33.2018 132.702 32.0607 132.702 32.0607C133.696 34.4827 136.18 36.7448 136.587 37.1052Z" fill="#07085B"/>
<path d="M132.118 39.4459C131.916 40.0834 131.251 40.5104 130.517 40.4304C129.782 40.3496 129.223 39.7895 129.161 39.1226L132.118 39.4459Z" fill="white"/>
<path d="M122.788 44.7523C122.788 44.7523 118.235 49.2419 117.254 51.3777C117.254 51.3777 119.488 58.4511 120.504 59.3758L123.431 56.9335L122.788 44.7523Z" fill="#FEB546"/>
<path d="M158.526 73.9124C158.458 73.8526 158.484 73.7389 158.571 73.7136C159.909 73.3296 159.991 73.2201 159.916 73.0803C159.837 72.9338 156.158 72.1009 156.158 72.1009L148.505 61.7236C147.615 59.8279 142.704 49.465 141.44 48.7255C141.091 48.5209 140.143 47.8017 139.338 47.7115L139.076 56.4238C140.572 58.9891 143.07 62.9524 145.174 65.1833C147.438 67.9085 151.804 71.6032 153.692 72.9801L156.022 75.4199C157.463 76.935 157.847 76.1753 157.972 76.1349C158.098 76.0945 158.372 75.6986 158.46 75.6397C158.547 75.5807 158.663 75.1394 158.837 75.0358C159.011 74.9314 159.054 74.379 158.526 73.9124Z" fill="#FFC0BB"/>
<path d="M141.072 47.4445L145.205 53.0862C145.205 53.0862 141.422 59.2088 140.582 60.419L139.601 58.8702C139.601 58.8702 136.729 54.4387 137.009 53.9402C137.288 53.4416 141.072 47.4445 141.072 47.4445Z" fill="#FEB546"/>
<path d="M127.26 87.0601C127.26 87.0601 132.651 107.254 134.813 109.13C136.197 110.331 159.275 128.369 159.379 128.24C159.484 128.111 162.177 124.965 162.177 124.965C162.177 124.965 141.576 106.069 140.951 104.405C140.327 102.743 138.031 85.1349 138.031 85.1349L127.26 87.0601Z" fill="#FFC0BB"/>
<path d="M124.785 44.4542C124.785 44.4542 136.606 45.2551 139.075 46.003C139.075 46.003 139.127 48.3812 138.576 48.8604C138.025 49.3396 132.484 51.4366 130.749 51.5764C129.014 51.7154 127.753 52.9972 126.44 51.0484C125.126 49.0996 124.785 48.6196 124.785 48.1117C124.785 47.6048 124.785 44.4542 124.785 44.4542Z" fill="#FFC0BB"/>
<path d="M157.264 131.621L157.03 126.116L161.076 123.774L161.262 125.5L159.499 130.127C159.499 130.127 158.368 131.68 158.278 131.727C158.19 131.772 157.264 131.621 157.264 131.621Z" fill="#FFC0BB"/>
<path d="M121.634 93.2901L128.164 133.483C128.164 133.483 131.896 138.034 132.068 135.769C132.108 135.242 132.06 131.443 132.116 130.751C132.582 124.944 133.141 113.49 132.756 109.465C132.34 105.11 130.873 97.7435 130.873 97.7435L121.634 93.2901Z" fill="#FFC0BB"/>
<path d="M157.264 131.621L157.35 133.032C157.384 133.682 158.233 133.884 158.548 133.317L162.904 125.482C163.058 125.206 162.962 124.855 162.69 124.699L161.076 123.772C159.81 129.93 158.31 131.447 157.264 131.621Z" fill="#07085B"/>
<path d="M122.788 44.7523C122.788 44.7523 120.056 56.5031 122.788 65.6154C122.788 65.6154 119.53 70.4571 119.53 76.1164C119.53 81.7758 122.788 103.667 122.788 103.667C122.788 103.667 132.14 103.133 136.973 101.318V87.3291L139.18 100.037L141.386 99.0748C141.386 99.0748 144.433 78.2884 136.553 66.8441C136.553 66.8441 139.39 59.6175 139.6 58.8705C139.6 58.8705 139.18 51.5023 141.071 47.4448C141.071 47.4448 138.917 46.003 139.075 46.003C139.232 46.003 137.183 49.3135 132.403 49.1527C127.621 48.9927 124.785 44.4542 124.785 44.4542L122.788 44.7523Z" fill="#FEB546"/>
<path d="M123.801 135.812L128.295 133.13L132.074 135.567L130.715 136.505L126.056 137.068C126.056 137.068 124.249 136.791 124.17 136.735C124.091 136.679 123.801 135.812 123.801 135.812Z" fill="#FFC0BB"/>
<path d="M123.8 135.812L122.661 136.522C122.134 136.844 122.346 137.667 122.962 137.684L131.47 137.914C131.77 137.922 132.019 137.681 132.027 137.377L132.075 135.568C126.36 137.247 124.418 136.636 123.8 135.812Z" fill="#07085B"/>
<path opacity="0.3" d="M130.249 65.1174C121.422 62.0207 124.785 44.4548 124.785 44.4548L122.788 44.7529C122.788 44.7529 120.056 56.5037 122.788 65.616C122.788 65.616 119.53 70.4576 119.53 76.117C119.53 81.7764 122.788 103.668 122.788 103.668C122.788 103.668 132.14 103.134 136.973 101.319C124.47 101.851 130.249 65.1174 130.249 65.1174Z" fill="#FEB546"/>
<path d="M140.951 104.406C140.951 104.406 149.307 111.323 158.228 121.319L143.963 112.094L140.951 104.406Z" fill="#FFC0BB"/>
<path d="M97.658 79.2719C98.6911 75.237 101.058 72.3686 102.946 72.8655C104.834 73.3623 105.527 77.0367 104.494 81.0716C104.351 81.6291 104.728 81.6527 104.853 81.1659C105.993 76.7075 105.228 72.6482 103.142 72.0991C101.056 71.55 98.44 74.7191 97.2984 79.1776C97.1691 79.6871 97.5155 79.8286 97.658 79.2719Z" fill="#F46C0F"/>
<path d="M108.772 99.7249L104.487 102.896L92.3788 78.6714L94.2437 75.5436L110.626 79.9322L108.772 99.7249Z" fill="#D65F0D"/>
<path d="M104.487 102.897L85.6126 97.9277L92.3525 76.3437L108.951 80.7137L104.487 102.897Z" fill="#F46C0F"/>
<path d="M110.626 79.9322L94.244 75.5436L95.1752 76.3479L92.3525 76.3437L108.951 80.7137L109.399 80.1537L110.626 79.9322Z" fill="#C7580D"/>
<path d="M96.4648 79.4716C97.5816 75.11 100.141 72.0092 102.181 72.5465C104.222 73.0838 104.971 77.0554 103.855 81.417C103.701 82.0191 104.109 82.0452 104.243 81.5189C105.476 76.6992 104.649 72.3107 102.394 71.7169C100.138 71.1232 97.3107 74.5491 96.0771 79.3688C95.9362 79.9205 96.3107 80.0737 96.4648 79.4716Z" fill="#F46C0F"/>
<path d="M109.399 80.1538L105.347 98.626L108.772 99.725L110.626 79.9323L109.399 80.1538Z" fill="#E6E6E6"/>
<path d="M96.9159 78.1136C98.8156 74.4182 101.757 72.1654 103.486 73.0817C105.215 73.9979 105.077 77.7354 103.178 81.4308C102.915 81.9412 103.277 82.0507 103.506 81.6052C105.605 77.5224 105.757 73.3916 103.847 72.3793C101.937 71.367 98.6855 73.8565 96.587 77.9401C96.3475 78.4058 96.6532 78.6239 96.9159 78.1136Z" fill="#FF5B7E"/>
<path d="M103.218 100.585L98.3408 102.695L91.9042 76.3208L94.4137 73.7008L109.405 81.7233L103.218 100.585Z" fill="#E8486A"/>
<path d="M98.3408 102.695L81.0501 93.5365L92.3938 74.047L107.599 82.1007L98.3408 102.695Z" fill="#FF5B7E"/>
<path d="M109.405 81.7233L94.4139 73.7008L95.1438 74.6971L92.394 74.0469L107.599 82.1006L108.159 81.6576L109.405 81.7233Z" fill="#C23C59"/>
<path d="M95.7083 78.0356C97.7614 74.0412 100.942 71.6057 102.811 72.5952C104.68 73.5848 104.532 77.6263 102.478 81.6207C102.195 82.1724 102.586 82.2911 102.833 81.8085C105.102 77.3947 105.267 72.9296 103.201 71.8356C101.136 70.7416 97.6222 73.4323 95.3529 77.847C95.0936 78.3523 95.425 78.5872 95.7083 78.0356Z" fill="#FF5B7E"/>
<path d="M108.159 81.6576L100.123 98.7301L103.218 100.585L109.405 81.7233L108.159 81.6576Z" fill="#E6E6E6"/>
<path d="M97.7335 74.9463C99.6539 72.9344 101.974 72.0552 102.916 72.9824C103.858 73.9096 103.064 76.2912 101.144 78.3031C100.879 78.581 101.091 78.7217 101.323 78.4791C103.445 76.2567 104.322 73.6241 103.281 72.6C102.24 71.576 99.6763 72.547 97.5546 74.7703C97.3118 75.0246 97.4684 75.2242 97.7335 74.9463Z" fill="#FEB546"/>
<path d="M97.5614 90.6549L94.0205 91.0651L94.8423 72.8152L96.9533 71.6151L105.102 79.7042L97.5614 90.6549Z" fill="#EBA741"/>
<path d="M94.0203 91.0655L84.6028 81.7974L95.5862 71.4463L103.868 79.596L94.0203 91.0655Z" fill="#FEB546"/>
<path d="M105.101 79.7046L96.9532 71.6155L97.2357 72.3996L95.5862 71.4463L103.868 79.596L104.312 79.42L105.101 79.7046Z" fill="#B88233"/>
<path d="M96.9705 74.6607C99.0467 72.4862 101.555 71.5354 102.573 72.5376C103.591 73.5398 102.734 76.1152 100.657 78.2896C100.371 78.5903 100.6 78.7427 100.851 78.48C103.145 76.0773 104.092 73.2316 102.967 72.1241C101.842 71.0166 99.0707 72.0668 96.7766 74.4704C96.5148 74.7458 96.6838 74.9614 96.9705 74.6607Z" fill="#FEB546"/>
<path d="M104.312 79.4198L95.9167 88.8572L97.5613 90.6552L105.101 79.7045L104.312 79.4198Z" fill="#E6E6E6"/>
<path d="M163.05 81.1389C161.903 76.6822 159.284 73.5164 157.199 74.0681C155.113 74.6197 154.353 78.6806 155.499 83.1374C155.625 83.6242 156.001 83.5998 155.858 83.0422C154.82 79.0091 155.509 75.3339 157.396 74.8345C159.283 74.335 161.654 77.2001 162.691 81.2341C162.835 81.7908 163.181 81.6493 163.05 81.1389Z" fill="#02CCC0"/>
<path d="M151.602 101.702L155.891 104.868L167.971 80.6272L166.102 77.5028L149.725 81.9115L151.602 101.702Z" fill="#00B0A5"/>
<path d="M155.891 104.868L174.76 99.8747L167.994 78.3L151.402 82.6902L155.891 104.868Z" fill="#02CCC0"/>
<path d="M149.725 81.9115L166.102 77.5028L165.171 78.3079L167.994 78.3003L151.401 82.6906L150.952 82.1313L149.725 81.9115Z" fill="#008C83"/>
<path d="M164.272 81.3302C163.033 76.5122 160.2 73.0896 157.946 73.6859C155.691 74.2821 154.869 78.6723 156.109 83.4904C156.244 84.0167 156.652 83.9898 156.497 83.3876C155.375 79.0269 156.119 75.0544 158.159 74.5146C160.2 73.9747 162.763 77.0722 163.884 81.4321C164.039 82.0351 164.414 81.881 164.272 81.3302Z" fill="#02CCC0"/>
<path d="M150.952 82.1312L155.027 100.598L151.602 101.702L149.725 81.9114L150.952 82.1312Z" fill="#E6E6E6"/>
<path d="M163.761 79.9014C161.658 75.8211 158.404 73.3359 156.494 74.3498C154.585 75.3647 154.742 79.4946 156.846 83.5749C157.075 84.0204 157.437 83.9101 157.174 83.4006C155.27 79.7077 155.127 75.9702 156.856 75.0514C158.584 74.1326 161.528 76.3828 163.432 80.0749C163.696 80.5861 164.002 80.3679 163.761 79.9014Z" fill="#07085B"/>
<path d="M157.158 102.555L162.038 104.659L168.442 78.2768L165.929 75.6594L150.949 83.7013L157.158 102.555Z" fill="#06074A"/>
<path d="M162.038 104.658L179.317 95.4779L167.949 76.0035L152.754 84.0766L162.038 104.658Z" fill="#07085B"/>
<path d="M150.949 83.7013L165.929 75.6594L165.201 76.6573L167.949 76.0038L152.754 84.0769L152.193 83.6339L150.949 83.7013Z" fill="#040536"/>
<path d="M164.995 79.8079C162.72 75.3967 159.203 72.7101 157.139 73.8066C155.074 74.9031 155.245 79.3683 157.519 83.7796C157.768 84.2613 158.159 84.1426 157.874 83.5909C155.816 79.5991 155.662 75.5584 157.531 74.5654C159.399 73.5725 162.582 76.0047 164.64 79.9966C164.924 80.5473 165.255 80.3124 164.995 79.8079Z" fill="#07085B"/>
<path d="M152.193 83.6334L160.251 100.696L157.158 102.554L150.949 83.7008L152.193 83.6334Z" fill="#E6E6E6"/>
<path d="M162.79 76.7337C160.666 74.5138 158.101 73.5453 157.061 74.571C156.021 75.5968 156.901 78.2277 159.026 80.4476C159.258 80.6901 159.47 80.5486 159.205 80.2716C157.282 78.2622 156.486 75.8814 157.427 74.9534C158.367 74.0253 160.689 74.9011 162.612 76.9105C162.876 77.1876 163.033 76.9872 162.79 76.7337Z" fill="#FF5B7E"/>
<path d="M162.802 92.6175L166.344 93.0234L165.5 74.7744L163.387 73.5777L155.249 81.676L162.802 92.6175Z" fill="#E8486A"/>
<path d="M166.344 93.0241L175.75 83.7442L164.754 73.4066L156.483 81.5672L166.344 93.0241Z" fill="#FF5B7E"/>
<path d="M155.249 81.6767L163.387 73.5784L163.106 74.3624L164.754 73.4066L156.483 81.5672L156.038 81.3912L155.249 81.6767Z" fill="#C23C59"/>
<path d="M163.567 76.4324C161.27 74.0322 158.497 72.9854 157.373 74.0946C156.25 75.2037 157.201 78.0477 159.497 80.4479C159.748 80.7098 159.978 80.5574 159.69 80.2576C157.612 78.0856 156.751 75.5111 157.768 74.5081C158.786 73.505 161.294 74.4516 163.373 76.6245C163.661 76.9234 163.83 76.707 163.567 76.4324Z" fill="#FF5B7E"/>
<path d="M156.038 81.3912L164.445 90.8185L162.803 92.6182L155.249 81.6767L156.038 81.3912Z" fill="#E6E6E6"/>
<path d="M100.748 72.6228C101.183 72.3297 102.812 72.2084 103.036 72.547C103.307 72.958 103.127 74.6744 102.588 74.8942C102.103 75.0492 100.162 73.0186 100.748 72.6228Z" fill="#FFC0BB"/>
<path d="M159.124 74.3553C158.696 74.0521 157.069 73.8963 156.838 74.2298C156.557 74.6349 156.702 76.3547 157.236 76.5863C157.719 76.7522 159.702 74.7638 159.124 74.3553Z" fill="#FFC0BB"/>
</svg>
