<svg width="22" height="22" viewBox="0 0 22 22" fill="none" xmlns="http://www.w3.org/2000/svg">
<g clip-path="url(#clip0_269_2233)">
<path d="M15.0327 2.67248C14.5687 2.46979 14.0284 2.68159 13.8257 3.14553C13.623 3.60946 13.8348 4.14984 14.2987 4.35253C17.2813 5.65552 19.25 8.60548 19.25 11.9166C19.25 16.4728 15.5558 20.1667 10.9999 20.1667C6.44336 20.1667 2.74982 16.4731 2.74982 11.9166C2.74982 8.60621 4.71781 5.65625 7.69952 4.3524C8.16337 4.14959 8.37499 3.60912 8.17214 3.14527C7.96932 2.68142 7.42886 2.46979 6.96501 2.67265C3.3217 4.26573 0.916504 7.8711 0.916504 11.9166C0.916504 17.4856 5.43088 22 10.9999 22C16.5684 22 21.0834 17.4853 21.0834 11.9166C21.0834 7.87015 18.6772 4.26461 15.0327 2.67248Z" fill="#DB261B"/>
<path d="M10.9996 10.0834C11.5059 10.0834 11.9163 9.67303 11.9163 9.16677V0.916702C11.9163 0.410398 11.5059 0 10.9996 0C10.4933 0 10.0829 0.410398 10.0829 0.91666V9.16672C10.0829 9.67299 10.4933 10.0834 10.9996 10.0834Z" fill="#DB261B"/>
</g>
<defs>
<clipPath id="clip0_269_2233">
<rect width="22" height="22" fill="white"/>
</clipPath>
</defs>
</svg>
