<svg width="133" height="150" viewBox="0 0 133 150" fill="none" xmlns="http://www.w3.org/2000/svg">
<path d="M46.9828 26.8625C49.8395 26.8625 52.1553 24.5309 52.1553 21.6547C52.1553 18.7786 49.8395 16.447 46.9828 16.447C44.1261 16.447 41.8103 18.7786 41.8103 21.6547C41.8103 24.5309 44.1261 26.8625 46.9828 26.8625Z" fill="url(#paint0_linear_269_896)"/>
<path d="M46.9828 25.3377C49.0031 25.3377 50.6408 23.6888 50.6408 21.6548C50.6408 19.6207 49.0031 17.9718 46.9828 17.9718C44.9626 17.9718 43.3248 19.6207 43.3248 21.6548C43.3248 23.6888 44.9626 25.3377 46.9828 25.3377Z" fill="#FAFAFA"/>
<path d="M48.9636 21.6548C48.9636 22.7539 48.078 23.6455 46.9864 23.6455C45.8948 23.6455 45.0092 22.7539 45.0092 21.6548C45.0092 20.5558 45.8948 19.6642 46.9864 19.6642C48.078 19.6642 48.9636 20.5558 48.9636 21.6548Z" fill="url(#paint1_linear_269_896)"/>
<path d="M22.9022 112.96C26.0584 112.96 28.6169 110.384 28.6169 107.206C28.6169 104.029 26.0584 101.453 22.9022 101.453C19.7461 101.453 17.1875 104.029 17.1875 107.206C17.1875 110.384 19.7461 112.96 22.9022 112.96Z" fill="url(#paint2_linear_269_896)"/>
<path d="M22.9022 111.275C25.1341 111.275 26.9434 109.454 26.9434 107.207C26.9434 104.959 25.1341 103.138 22.9022 103.138C20.6704 103.138 18.8611 104.959 18.8611 107.207C18.8611 109.454 20.6704 111.275 22.9022 111.275Z" fill="#FAFAFA"/>
<path d="M22.9022 109.408C24.1099 109.408 25.089 108.422 25.089 107.206C25.089 105.99 24.1099 105.005 22.9022 105.005C21.6944 105.005 20.7153 105.99 20.7153 107.206C20.7153 108.422 21.6944 109.408 22.9022 109.408Z" fill="url(#paint3_linear_269_896)"/>
<path d="M81.9217 133.376C84.7784 133.376 87.0942 131.045 87.0942 128.168C87.0942 125.292 84.7784 122.961 81.9217 122.961C79.065 122.961 76.7492 125.292 76.7492 128.168C76.7492 131.045 79.065 133.376 81.9217 133.376Z" fill="url(#paint4_linear_269_896)"/>
<path d="M83.3375 131.564C85.202 130.78 86.0827 128.624 85.3047 126.746C84.5267 124.869 82.3846 123.982 80.5201 124.766C78.6556 125.549 77.7748 127.706 78.5528 129.583C79.3308 131.46 81.473 132.347 83.3375 131.564Z" fill="#FAFAFA"/>
<path d="M81.9216 130.159C83.0136 130.159 83.8988 129.268 83.8988 128.169C83.8988 127.069 83.0136 126.178 81.9216 126.178C80.8297 126.178 79.9445 127.069 79.9445 128.169C79.9445 129.268 80.8297 130.159 81.9216 130.159Z" fill="url(#paint5_linear_269_896)"/>
<path d="M127.827 78.722C130.684 78.722 133 76.3904 133 73.5142C133 70.638 130.684 68.3064 127.827 68.3064C124.971 68.3064 122.655 70.638 122.655 73.5142C122.655 76.3904 124.971 78.722 127.827 78.722Z" fill="url(#paint6_linear_269_896)"/>
<path d="M127.827 77.1972C129.848 77.1972 131.485 75.5483 131.485 73.5142C131.485 71.4802 129.848 69.8313 127.827 69.8313C125.807 69.8313 124.169 71.4802 124.169 73.5142C124.169 75.5483 125.807 77.1972 127.827 77.1972Z" fill="#FAFAFA"/>
<path d="M127.827 75.505C128.919 75.505 129.805 74.6137 129.805 73.5143C129.805 72.4149 128.919 71.5236 127.827 71.5236C126.735 71.5236 125.85 72.4149 125.85 73.5143C125.85 74.6137 126.735 75.505 127.827 75.505Z" fill="url(#paint7_linear_269_896)"/>
<path d="M76.7528 80.0357C79.2382 80.0357 81.253 78.0072 81.253 75.5048C81.253 73.0025 79.2382 70.9739 76.7528 70.9739C74.2674 70.9739 72.2526 73.0025 72.2526 75.5048C72.2526 78.0072 74.2674 80.0357 76.7528 80.0357Z" fill="url(#paint8_linear_269_896)"/>
<path d="M76.7529 78.711C78.5116 78.711 79.9374 77.2755 79.9374 75.5048C79.9374 73.734 78.5116 72.2986 76.7529 72.2986C74.9941 72.2986 73.5684 73.734 73.5684 75.5048C73.5684 77.2755 74.9941 78.711 76.7529 78.711Z" fill="#FAFAFA"/>
<path d="M78.4734 75.5048C78.4734 76.462 77.7035 77.2371 76.7528 77.2371C75.8022 77.2371 75.0286 76.462 75.0286 75.5048C75.0286 74.5477 75.7986 73.7726 76.7528 73.7726C77.7035 73.7726 78.4734 74.5477 78.4734 75.5048Z" fill="url(#paint9_linear_269_896)"/>
<path d="M100.139 28.8568C102.996 28.8568 105.312 26.5252 105.312 23.6491C105.312 20.7729 102.996 18.4413 100.139 18.4413C97.2827 18.4413 94.9669 20.7729 94.9669 23.6491C94.9669 26.5252 97.2827 28.8568 100.139 28.8568Z" fill="url(#paint10_linear_269_896)"/>
<path d="M101.074 27.2136C103.027 26.6925 104.19 24.6762 103.673 22.7101C103.155 20.744 101.152 19.5726 99.1996 20.0938C97.2468 20.6149 96.0834 22.6312 96.601 24.5972C97.1185 26.5633 99.1212 27.7347 101.074 27.2136Z" fill="#FAFAFA"/>
<path d="M102.117 23.6492C102.117 24.7482 101.231 25.6398 100.139 25.6398C99.0477 25.6398 98.1622 24.7482 98.1622 23.6492C98.1622 22.5501 99.0477 21.6585 100.139 21.6585C101.231 21.6585 102.117 22.5465 102.117 23.6492Z" fill="url(#paint11_linear_269_896)"/>
<path d="M70.2538 122.302C70.1923 121.931 70.12 121.563 70.0369 121.199C69.9321 120.741 70.1779 120.271 70.608 120.093L72.5382 119.292C73.0298 119.089 73.2647 118.517 73.0623 118.022L71.7719 114.874C71.5695 114.379 71.002 114.143 70.5104 114.347L68.5874 115.147C68.1573 115.326 67.6585 115.176 67.4091 114.78C67.0078 114.135 66.5705 113.517 66.1042 112.927C65.815 112.56 65.8403 112.036 66.1512 111.686L67.5392 110.125C67.8934 109.725 67.8609 109.11 67.4633 108.753L64.9439 106.482C64.5463 106.125 63.9354 106.158 63.5812 106.559L62.1859 108.127C61.8751 108.476 61.3582 108.56 60.9678 108.309C60.3316 107.905 59.6738 107.538 58.9978 107.206C58.5785 107.003 58.3761 106.519 58.5062 106.067L59.0846 104.047C59.2328 103.531 58.9364 102.992 58.4231 102.843L55.1736 101.897C54.6603 101.747 54.1253 102.046 53.9771 102.563L53.3988 104.579C53.2687 105.026 52.8421 105.328 52.3795 105.278C51.6385 105.194 50.8866 105.15 50.1276 105.15C49.6613 105.15 49.2709 104.801 49.1914 104.339L48.8444 102.268C48.754 101.737 48.2552 101.38 47.7311 101.471L44.3984 102.039C43.8706 102.13 43.5164 102.632 43.6068 103.159L43.9538 105.23C44.0297 105.692 43.7731 106.151 43.3357 106.304C42.62 106.555 41.926 106.842 41.2537 107.166C40.8344 107.366 40.3319 107.225 40.0645 106.846L38.8608 105.132C38.5535 104.695 37.9499 104.59 37.5125 104.899L34.7546 106.868C34.3208 107.177 34.216 107.785 34.5232 108.225L35.7305 109.939C35.998 110.322 35.9655 110.846 35.6365 111.177C35.1052 111.712 34.6028 112.279 34.1329 112.869C33.8437 113.233 33.3268 113.328 32.922 113.098L31.093 112.079C30.6267 111.817 30.0375 111.988 29.7809 112.458L28.1434 115.435C27.8832 115.904 28.0531 116.497 28.5194 116.756L30.3411 117.771C30.746 117.997 30.9448 118.484 30.7893 118.928C30.5399 119.642 30.3303 120.37 30.1604 121.112C30.0556 121.567 29.6327 121.876 29.17 121.847L27.0916 121.727C26.5602 121.698 26.1012 122.105 26.0723 122.644L25.8807 126.043C25.8518 126.578 26.2566 127.04 26.7916 127.069L28.8736 127.19C29.3399 127.215 29.723 127.575 29.7772 128.045C29.817 128.416 29.8676 128.787 29.9327 129.158C29.9941 129.53 30.0664 129.897 30.1495 130.261C30.2544 130.72 30.0086 131.189 29.5784 131.367L27.6482 132.168C27.1566 132.372 26.9217 132.943 27.1241 133.438L28.4145 136.586C28.6169 137.081 29.1844 137.318 29.676 137.114L31.599 136.313C32.0291 136.135 32.528 136.284 32.7774 136.681C33.1786 137.325 33.616 137.944 34.0823 138.533C34.3714 138.901 34.3461 139.425 34.0353 139.774L32.6472 141.335C32.293 141.736 32.3255 142.351 32.7232 142.707L35.2425 144.978C35.6402 145.335 36.251 145.302 36.6053 144.902L37.9969 143.333C38.3077 142.984 38.8246 142.9 39.215 143.151C39.8512 143.555 40.509 143.923 41.185 144.25C41.6043 144.454 41.8067 144.938 41.6766 145.389L41.0982 147.409C40.95 147.926 41.2464 148.465 41.7597 148.614L45.0092 149.56C45.5225 149.709 46.0575 149.411 46.2057 148.894L46.784 146.878C46.9142 146.43 47.3407 146.128 47.8034 146.179C48.5444 146.263 49.2962 146.307 50.0516 146.307C50.5179 146.307 50.9083 146.656 50.9878 147.118L51.3348 149.189C51.4252 149.72 51.924 150.077 52.4481 149.986L55.7808 149.418C56.3086 149.327 56.6628 148.825 56.5724 148.297L56.2254 146.226C56.1495 145.764 56.4061 145.306 56.8435 145.153C57.5592 144.902 58.2532 144.614 58.9292 144.29C59.3485 144.09 59.8509 144.232 60.1184 144.611L61.322 146.325C61.6293 146.761 62.2329 146.867 62.6703 146.558L65.4282 144.589C65.862 144.279 65.9668 143.672 65.6596 143.231L64.4523 141.517C64.1848 141.135 64.2173 140.611 64.5463 140.28C65.0776 139.745 65.5801 139.177 66.0463 138.588C66.3355 138.224 66.8524 138.129 67.2572 138.358L69.0862 139.377C69.5525 139.639 70.1417 139.468 70.3983 138.999L72.0358 136.022C72.296 135.553 72.1261 134.959 71.6598 134.701L69.8381 133.686C69.4332 133.46 69.2344 132.972 69.3899 132.528C69.6393 131.815 69.8489 131.087 70.0188 130.345C70.1236 129.89 70.5465 129.58 71.0092 129.61L73.0876 129.73C73.619 129.759 74.078 129.351 74.107 128.813L74.2985 125.414C74.3274 124.879 73.9226 124.416 73.3876 124.387L71.3056 124.267C70.8393 124.242 70.4562 123.881 70.402 123.412C70.3658 123.044 70.3152 122.673 70.2538 122.302Z" fill="url(#paint12_linear_269_896)"/>
<path d="M63.4959 134.463C68.2857 127.009 66.167 117.057 58.7637 112.235C51.3604 107.412 41.4759 109.545 36.6862 116.999C31.8964 124.453 34.0151 134.405 41.4184 139.227C48.8217 144.049 58.7062 141.916 63.4959 134.463Z" stroke="#EAEBF0" stroke-width="1.0556" stroke-miterlimit="10"/>
<path d="M62.9281 132.949C66.8876 125.814 64.3529 116.799 57.2668 112.813C50.1807 108.826 41.2265 111.378 37.2671 118.513C33.3076 125.647 35.8423 134.662 42.9284 138.649C50.0145 142.635 58.9687 140.083 62.9281 132.949Z" fill="#FAFAFA"/>
<path d="M50.0914 116.967C45.2912 116.967 41.3874 120.897 41.3874 125.73C41.3874 130.563 45.2912 134.493 50.0914 134.493C54.8916 134.493 58.7954 130.563 58.7954 125.73C58.7954 120.897 54.8916 116.967 50.0914 116.967ZM46.3033 119.507C45.9527 120.082 45.6563 120.741 45.4141 121.461H44.2104C44.7743 120.679 45.4828 120.013 46.3033 119.507ZM43.3935 122.917H45.0309C44.9008 123.576 44.8141 124.274 44.7779 125.002H42.8694C42.9417 124.271 43.1224 123.568 43.3935 122.917ZM43.3935 128.543C43.1224 127.892 42.9417 127.189 42.8694 126.458H44.7779C44.8141 127.186 44.9008 127.881 45.0309 128.543H43.3935ZM44.2104 129.999H45.4141C45.6563 130.719 45.9527 131.378 46.3033 131.953C45.4828 131.447 44.7743 130.781 44.2104 129.999ZM49.3685 132.903C48.3962 132.539 47.5431 131.469 46.9648 129.999H49.3685V132.903ZM49.3685 128.543H46.5165C46.3647 127.888 46.2671 127.186 46.2274 126.458H49.3685V128.543ZM49.3685 125.002H46.2274C46.2671 124.274 46.3647 123.572 46.5165 122.917H49.3685V125.002ZM49.3685 121.461H46.9648C47.5431 119.991 48.3962 118.921 49.3685 118.557V121.461ZM56.7893 122.917C57.0604 123.568 57.2411 124.271 57.3134 125.002H55.4049C55.3688 124.274 55.282 123.576 55.1519 122.917H56.7893ZM55.9724 121.461H54.7687C54.5265 120.741 54.2301 120.082 53.8795 119.507C54.7 120.013 55.4085 120.679 55.9724 121.461ZM50.8143 118.557C51.7867 118.921 52.6397 119.991 53.2181 121.461H50.8143V118.557ZM50.8143 122.917H53.6663C53.8181 123.572 53.9157 124.274 53.9554 125.002H50.8143V122.917ZM50.8143 132.903V129.999H53.2181C52.6397 131.469 51.7867 132.539 50.8143 132.903ZM50.8143 128.543V126.458H53.9554C53.9157 127.186 53.8181 127.888 53.6663 128.543H50.8143ZM53.8795 131.953C54.2301 131.378 54.5265 130.719 54.7687 129.999H55.9724C55.4085 130.781 54.7 131.447 53.8795 131.953ZM56.7893 128.543H55.1519C55.282 127.881 55.3688 127.186 55.4049 126.458H57.3134C57.2411 127.189 57.0604 127.892 56.7893 128.543Z" fill="url(#paint13_linear_269_896)"/>
<path d="M126.949 89.6905C126.949 89.5849 126.938 89.483 126.935 89.3775L128.33 89.1737C128.558 89.1409 128.717 88.9298 128.681 88.7006L128.467 87.1976C128.435 86.9683 128.225 86.8082 127.997 86.8445L126.899 87.0047C126.7 87.0338 126.515 86.9137 126.447 86.7245C126.226 86.0949 125.937 85.4944 125.59 84.9376C125.478 84.7593 125.507 84.53 125.666 84.3953L126.541 83.6347C126.714 83.4819 126.732 83.2198 126.584 83.0452L125.597 81.8988C125.446 81.7241 125.185 81.7059 125.012 81.8551L124.094 82.6558C123.942 82.7904 123.718 82.7904 123.559 82.663C123.056 82.2664 122.514 81.9206 121.932 81.6368C121.748 81.5458 121.65 81.3384 121.708 81.1418L122.055 79.9445C122.12 79.7225 121.994 79.4896 121.773 79.4241L120.327 78.9983C120.107 78.9328 119.875 79.0602 119.81 79.2822L119.452 80.505C119.395 80.7015 119.203 80.8252 119.001 80.7997C118.69 80.7634 118.375 80.7415 118.054 80.7415C117.732 80.7415 117.417 80.7634 117.107 80.7997C116.904 80.8252 116.713 80.7015 116.655 80.505L116.297 79.2822C116.232 79.0602 116.001 78.9328 115.78 78.9983L114.334 79.4241C114.114 79.4896 113.987 79.7225 114.052 79.9445L114.399 81.1418C114.457 81.342 114.359 81.5458 114.175 81.6368C113.597 81.9206 113.051 82.2664 112.549 82.663C112.39 82.7904 112.169 82.7904 112.014 82.6558L111.095 81.8551C110.922 81.7023 110.658 81.7241 110.51 81.8988L109.523 83.0452C109.371 83.2198 109.393 83.4855 109.567 83.6347L110.441 84.3953C110.597 84.5336 110.626 84.7629 110.517 84.9376C110.17 85.4944 109.881 86.0912 109.66 86.7245C109.595 86.9137 109.407 87.0338 109.209 87.0047L108.11 86.8445C107.882 86.8118 107.672 86.9719 107.64 87.1976L107.427 88.7006C107.394 88.9298 107.553 89.1409 107.777 89.1737L109.173 89.3775C109.169 89.483 109.158 89.5849 109.158 89.6905C109.158 90.411 109.248 91.1061 109.407 91.7758C109.454 91.9723 109.364 92.1761 109.18 92.2598L108.276 92.6746C108.066 92.7693 107.976 93.0204 108.07 93.2278L108.695 94.6071C108.789 94.8182 109.039 94.9092 109.245 94.8145L110.091 94.4251C110.279 94.3378 110.499 94.4069 110.611 94.5816C110.994 95.1712 111.446 95.7134 111.952 96.1974C112.1 96.3357 112.133 96.5577 112.021 96.7288L111.54 97.4821C111.417 97.675 111.471 97.937 111.667 98.0607L112.935 98.8796C113.127 99.0033 113.387 98.9487 113.51 98.7522L113.969 98.0353C114.081 97.8606 114.302 97.7987 114.49 97.8824C115.133 98.1663 115.816 98.3737 116.528 98.4975C116.731 98.5339 116.879 98.7013 116.879 98.9087V99.7457C116.879 99.9786 117.067 100.164 117.295 100.164H118.802C119.033 100.164 119.218 99.975 119.218 99.7457V98.9087C119.218 98.7013 119.366 98.5339 119.568 98.4975C120.28 98.3737 120.963 98.1626 121.607 97.8824C121.795 97.7987 122.015 97.8606 122.127 98.0353L122.586 98.7522C122.709 98.9451 122.966 99.0033 123.161 98.8796L124.43 98.0607C124.621 97.937 124.679 97.675 124.556 97.4821L124.076 96.7288C123.967 96.5577 124 96.3357 124.144 96.1974C124.654 95.7134 125.102 95.1712 125.485 94.5816C125.597 94.4069 125.818 94.3378 126.006 94.4251L126.852 94.8145C127.061 94.9092 127.307 94.8182 127.401 94.6071L128.026 93.2278C128.12 93.0167 128.03 92.7693 127.82 92.6746L126.917 92.2598C126.732 92.1761 126.642 91.9723 126.689 91.7758C126.859 91.1061 126.949 90.4074 126.949 89.6905Z" fill="url(#paint14_linear_269_896)"/>
<path d="M118.057 96.3612C121.716 96.3612 124.683 93.3746 124.683 89.6904C124.683 86.0063 121.716 83.0197 118.057 83.0197C114.398 83.0197 111.432 86.0063 111.432 89.6904C111.432 93.3746 114.398 96.3612 118.057 96.3612Z" stroke="#EAEBF0" stroke-width="1.1502" stroke-miterlimit="10"/>
<path d="M123.794 91.065C124.541 87.8767 122.58 84.6817 119.414 83.9288C116.247 83.176 113.073 85.1503 112.326 88.3387C111.578 91.527 113.539 94.722 116.706 95.4749C119.872 96.2277 123.046 94.2534 123.794 91.065Z" fill="#FAFAFA"/>
<path d="M119.239 87.6744C119.239 88.3331 118.708 88.8644 118.057 88.8644C117.403 88.8644 116.875 88.3294 116.875 87.6744C116.875 87.0157 117.407 86.4843 118.057 86.4843C118.711 86.4807 119.239 87.0157 119.239 87.6744Z" fill="url(#paint15_linear_269_896)"/>
<path d="M120.443 92.6675H115.672V91.896C115.672 90.5677 116.741 89.4941 118.057 89.4941C119.377 89.4941 120.443 90.5713 120.443 91.896V92.6675V92.6675Z" fill="url(#paint16_linear_269_896)"/>
<path d="M105.89 100.932C105.89 100.838 105.883 100.739 105.883 100.645L107.81 100.441C108.019 100.419 108.171 100.23 108.149 100.019L107.846 97.1184C107.824 96.9073 107.636 96.7545 107.427 96.7763L105.793 96.9474C105.601 96.9692 105.428 96.8418 105.384 96.6526C105.131 95.5936 104.788 94.5673 104.358 93.5883C104.278 93.41 104.343 93.1989 104.513 93.1007L105.966 92.2564C106.147 92.1508 106.212 91.9143 106.107 91.7323L104.658 89.2067C104.553 89.0247 104.318 88.9592 104.137 89.0647L102.641 89.9345C102.474 90.0291 102.265 89.9855 102.149 89.8326C101.502 88.9847 100.783 88.195 99.9985 87.4744C99.8539 87.3434 99.8322 87.125 99.9442 86.9685L100.978 85.5347C101.101 85.3636 101.065 85.1234 100.895 84.9997L98.5526 83.2856C98.3827 83.1619 98.1442 83.1982 98.0213 83.3693L96.9694 84.825C96.8574 84.9815 96.6477 85.0252 96.4778 84.9342C95.5597 84.4247 94.5946 83.9952 93.5897 83.6532C93.4054 83.5913 93.297 83.402 93.3367 83.2128L93.709 81.4405C93.7524 81.233 93.6223 81.0292 93.4162 80.9856L90.5824 80.3778C90.3763 80.3342 90.1739 80.4652 90.1306 80.6726L89.7546 82.4595C89.7149 82.6487 89.5414 82.7761 89.3498 82.7579C88.8293 82.7142 88.3052 82.6888 87.7738 82.6888C87.2425 82.6888 86.7183 82.7142 86.1978 82.7579C86.0063 82.7761 85.8328 82.6487 85.793 82.4595L85.4171 80.6726C85.3737 80.4652 85.1713 80.3342 84.9653 80.3778L82.1314 80.9856C81.9254 81.0292 81.7952 81.233 81.8386 81.4405L82.2145 83.2128C82.2543 83.402 82.1459 83.5913 81.9615 83.6532C80.9566 83.9952 79.9915 84.4283 79.0734 84.9342C78.9035 85.0288 78.6939 84.9815 78.5818 84.825L77.53 83.3693C77.4071 83.1982 77.1685 83.1582 76.9986 83.2856L74.6564 84.9997C74.4865 85.1234 74.4467 85.3636 74.5732 85.5347L75.607 86.9685C75.7227 87.125 75.6974 87.3434 75.5528 87.4744C74.772 88.195 74.0491 88.9847 73.4021 89.8326C73.2864 89.9855 73.0768 90.0291 72.9105 89.9345L71.4141 89.0647C71.2333 88.9592 70.9984 89.0211 70.8935 89.2067L69.4441 91.7323C69.3393 91.9143 69.4007 92.1508 69.5851 92.2564L71.0381 93.1007C71.208 93.1989 71.2731 93.4064 71.1936 93.5883C70.767 94.5673 70.42 95.5899 70.167 96.6526C70.1236 96.8418 69.9501 96.9656 69.7586 96.9474L68.1247 96.7763C67.9151 96.7545 67.7271 96.9073 67.7054 97.1184L67.4018 100.019C67.3801 100.23 67.5319 100.419 67.7416 100.441L69.6682 100.645C69.6682 100.739 69.661 100.834 69.661 100.932C69.661 102.064 69.7658 103.174 69.961 104.248C69.9971 104.437 69.8887 104.623 69.7043 104.681L68.2368 105.161C68.038 105.227 67.9259 105.445 67.991 105.645L68.8874 108.418C68.9525 108.618 69.1694 108.731 69.3682 108.666L70.7887 108.2C70.9731 108.138 71.1719 108.229 71.2514 108.407C71.7032 109.419 72.249 110.384 72.8707 111.286C72.9792 111.446 72.9575 111.661 72.8165 111.788L71.7285 112.775C71.5731 112.916 71.5586 113.16 71.6996 113.317L73.637 115.482C73.778 115.639 74.0202 115.653 74.1756 115.511L75.2347 114.55C75.3793 114.419 75.5962 114.419 75.7408 114.55C76.5649 115.289 77.4577 115.952 78.4083 116.53C78.5746 116.632 78.6397 116.836 78.5601 117.014L77.989 118.303C77.9023 118.495 77.989 118.725 78.1842 118.808L80.8301 119.995C81.0217 120.082 81.2494 119.995 81.3326 119.798L81.8928 118.532C81.9724 118.353 82.1712 118.266 82.3555 118.324C83.4037 118.656 84.4881 118.896 85.6087 119.03C85.8002 119.052 85.9448 119.212 85.9448 119.409V120.785C85.9448 120.996 86.1147 121.17 86.328 121.17H89.2233C89.4329 121.17 89.6064 120.999 89.6064 120.785V119.409C89.6064 119.216 89.751 119.052 89.9426 119.03C91.0631 118.896 92.1475 118.656 93.1958 118.324C93.3801 118.266 93.5789 118.353 93.6584 118.532L94.2187 119.798C94.3054 119.991 94.5295 120.079 94.7211 119.995L97.367 118.808C97.5586 118.721 97.6453 118.495 97.5622 118.303L96.9911 117.014C96.9116 116.836 96.9803 116.632 97.1429 116.53C98.0936 115.952 98.9828 115.289 99.8105 114.55C99.9551 114.419 100.172 114.419 100.317 114.55L101.376 115.511C101.531 115.653 101.773 115.642 101.914 115.482L103.852 113.317C103.993 113.16 103.982 112.916 103.823 112.775L102.735 111.788C102.594 111.657 102.568 111.446 102.681 111.286C103.302 110.384 103.844 109.419 104.3 108.407C104.379 108.229 104.578 108.138 104.763 108.2L106.183 108.666C106.382 108.731 106.599 108.622 106.664 108.418L107.56 105.645C107.625 105.445 107.517 105.227 107.314 105.161L105.847 104.681C105.666 104.623 105.558 104.437 105.59 104.248C105.785 103.174 105.89 102.064 105.89 100.932Z" fill="url(#paint17_linear_269_896)"/>
<path d="M97.7737 111.003C103.297 105.442 103.297 96.4252 97.7737 90.8641C92.2502 85.3029 83.2948 85.3029 77.7713 90.8641C72.2477 96.4252 72.2477 105.442 77.7713 111.003C83.2948 116.564 92.2502 116.564 97.7737 111.003Z" stroke="#EAEBF0" stroke-width="1.0556" stroke-miterlimit="10"/>
<path d="M100.61 102.75C101.605 95.6165 96.6678 89.0212 89.5825 88.0192C82.4971 87.0172 75.9465 91.9879 74.9513 99.1215C73.9561 106.255 78.8931 112.85 85.9784 113.852C93.0638 114.854 99.6144 109.884 100.61 102.75Z" fill="#FAFAFA"/>
<path d="M86.9822 109.565C91.3451 109.565 94.8766 106.006 94.8766 101.617C94.8766 100.267 94.3958 98.1958 93.2355 97.2859C93.1849 97.2459 92.6391 97.8136 92.6391 97.8136L91.9162 98.5415C92.4656 99.4367 92.7873 100.488 92.7873 101.617C92.7873 104.845 90.1884 107.461 86.9859 107.461C83.7797 107.461 81.1808 104.845 81.1808 101.617C81.1808 98.3886 83.7797 95.7757 86.9822 95.7757C88.1064 95.7757 89.151 96.0959 90.0402 96.6491L90.6944 95.9904C90.6944 95.9904 91.3885 95.3135 91.3234 95.2516C89.9679 93.9124 88.2907 93.6685 86.9822 93.6685C82.623 93.6685 79.0879 97.2277 79.0879 101.617C79.0843 106.006 82.623 109.565 86.9822 109.565Z" fill="url(#paint18_linear_269_896)"/>
<path d="M86.9822 99.5603C87.0328 99.5603 87.0871 99.564 87.1377 99.5676L88.5944 98.101L88.6269 98.0683C88.1281 97.8317 87.5714 97.7007 86.9822 97.7007C84.8352 97.7007 83.0965 99.4512 83.0965 101.613C83.0965 103.775 84.8352 105.529 86.9822 105.529C89.1293 105.529 90.8716 103.778 90.8716 101.617C90.8716 101.027 90.7414 100.467 90.5065 99.9607L90.474 99.9898L89.0136 101.46C89.0173 101.511 89.0209 101.562 89.0209 101.617C89.0209 102.748 88.11 103.669 86.9786 103.669C85.8509 103.669 84.94 102.748 84.94 101.617C84.9436 100.481 85.8545 99.5603 86.9822 99.5603Z" fill="url(#paint19_linear_269_896)"/>
<path d="M95.1404 94.4035L95.5669 93.9741C95.7621 93.7776 95.7621 93.461 95.5669 93.2644L95.2741 92.966C95.1765 92.8678 95.0464 92.8204 94.9199 92.8204C94.797 92.8204 94.6669 92.8714 94.5693 92.966L94.0813 93.4573L93.9801 92.1472C93.9729 92.0526 93.897 91.9907 93.8138 91.9907C93.7704 91.9907 93.7307 92.0052 93.6945 92.0416L91.7716 93.9814C91.5981 94.1561 91.5077 94.3999 91.5258 94.6437L91.5294 94.7201L91.6234 95.932L90.9257 96.6307L89.6751 97.8936L89.6462 97.9227L88.4317 99.1418L87.8931 99.6841C87.8208 99.7532 87.7774 99.8478 87.7702 99.9497L87.7376 100.376C87.7196 100.623 87.9111 100.834 88.1569 100.834H88.1822L88.6268 100.809C88.7317 100.805 88.8293 100.761 88.9015 100.685L92.6824 96.8746L93.7813 96.9583L93.8283 96.9619C93.85 96.9619 93.8717 96.9619 93.8933 96.9619C94.1174 96.9619 94.3271 96.8746 94.4898 96.7145L96.4127 94.7784C96.5139 94.6765 96.4489 94.5018 96.3079 94.4909L95.1404 94.4035Z" fill="url(#paint20_linear_269_896)"/>
<path d="M124.462 62.7855L125.474 57.4649C125.514 57.2575 125.377 57.0537 125.171 57.0137L120.728 56.1584C120.548 56.122 120.417 55.9619 120.421 55.7763C120.443 54.5863 120.352 53.4108 120.164 52.2644C120.135 52.0788 120.237 51.9005 120.414 51.8423L124.686 50.3465C124.885 50.2774 124.99 50.059 124.921 49.8589L123.154 44.7421C123.085 44.5419 122.868 44.4364 122.669 44.5055L118.393 46.0013C118.22 46.0631 118.028 45.9867 117.938 45.8229C117.37 44.7967 116.712 43.8214 115.975 42.9079C115.859 42.7623 115.859 42.5585 115.979 42.4166L118.939 38.9702C119.076 38.8101 119.058 38.5663 118.899 38.428L114.829 34.887C114.67 34.7487 114.428 34.7669 114.291 34.927L111.334 38.3734C111.211 38.5153 111.009 38.5444 110.85 38.4498C109.859 37.853 108.807 37.3362 107.701 36.914C107.528 36.8485 107.426 36.6702 107.459 36.4846L108.308 32.012C108.348 31.8045 108.211 31.6007 108.005 31.5607L102.72 30.5417C102.514 30.5017 102.312 30.64 102.272 30.8474L101.423 35.32C101.386 35.502 101.227 35.633 101.043 35.6294C99.8611 35.6075 98.6935 35.6985 97.5549 35.8878C97.3706 35.9169 97.1935 35.815 97.1356 35.6367L95.65 31.3351C95.5814 31.1349 95.3645 31.0294 95.1657 31.0985L90.0835 32.8781C89.8847 32.9472 89.7799 33.1656 89.8486 33.3658L91.3342 37.671C91.3956 37.8457 91.3197 38.0386 91.1571 38.1295C90.1377 38.7009 89.169 39.3633 88.2654 40.1057C88.1208 40.2221 87.9184 40.2221 87.7774 40.102L84.3543 37.1215C84.1953 36.9832 83.9531 37.0014 83.8158 37.1615L80.2987 41.2593C80.1614 41.4194 80.1795 41.6633 80.3385 41.8016L83.7615 44.7785C83.9025 44.9022 83.9314 45.106 83.8375 45.2661C83.2447 46.2633 82.7314 47.3223 82.3121 48.4359C82.247 48.6106 82.0699 48.7125 81.8856 48.6798L77.4432 47.8245C77.2372 47.7845 77.0347 47.9228 76.995 48.1302L75.9829 53.4508C75.9431 53.6583 76.0805 53.8621 76.2865 53.9021L80.7289 54.7573C80.9096 54.7937 81.0397 54.9538 81.0361 55.1394C81.0144 56.3295 81.1048 57.505 81.2928 58.6513C81.3217 58.8369 81.2205 59.0153 81.0434 59.0735L76.7709 60.5692C76.5721 60.6384 76.4672 60.8567 76.5359 61.0569L78.3035 66.1737C78.3721 66.3738 78.589 66.4794 78.7878 66.4102L83.0639 64.9145C83.2374 64.8526 83.429 64.929 83.5194 65.0928C84.0869 66.1191 84.7447 67.0944 85.4821 68.0042C85.5978 68.1498 85.5978 68.3536 85.4785 68.4955L82.5181 71.9419C82.3808 72.102 82.3988 72.3459 82.5579 72.4841L86.6279 76.0251C86.787 76.1634 87.0292 76.1452 87.1665 75.9851L90.1233 72.5387C90.2462 72.3968 90.4486 72.3677 90.6076 72.4623C91.598 73.0591 92.6499 73.5759 93.756 73.9981C93.9295 74.0636 94.0307 74.2419 93.9982 74.4275L93.1487 78.9002C93.109 79.1076 93.2463 79.3114 93.4523 79.3514L98.7369 80.3704C98.943 80.4105 99.1454 80.2722 99.1851 80.0647L100.035 75.5921C100.071 75.4101 100.23 75.2791 100.414 75.2827C101.596 75.3046 102.764 75.2136 103.902 75.0244C104.087 74.9952 104.264 75.0971 104.322 75.2755L105.807 79.5771C105.876 79.7772 106.093 79.8828 106.291 79.8136L111.374 78.034C111.572 77.9649 111.677 77.7465 111.609 77.5464L110.123 73.2411C110.062 73.0664 110.137 72.8735 110.3 72.7826C111.319 72.2112 112.288 71.5489 113.195 70.8064C113.34 70.69 113.542 70.69 113.683 70.8101L117.106 73.7906C117.265 73.9289 117.508 73.9107 117.645 73.7506L121.162 69.6528C121.299 69.4927 121.281 69.2488 121.122 69.1106L117.699 66.1336C117.558 66.0099 117.529 65.8061 117.623 65.646C118.216 64.6488 118.729 63.5898 119.149 62.4762C119.214 62.3015 119.391 62.1996 119.575 62.2324L124.018 63.0876C124.22 63.1313 124.422 62.993 124.462 62.7855Z" fill="url(#paint21_linear_269_896)"/>
<path d="M113.037 63.8947C117.663 57.0506 115.902 47.7266 109.105 43.0689C102.307 38.4113 93.046 40.1837 88.4199 47.0278C83.7937 53.8719 85.5542 63.1959 92.3519 67.8536C99.1497 72.5112 108.411 70.7388 113.037 63.8947Z" stroke="#EAEBF0" stroke-width="1.1271" stroke-miterlimit="10"/>
<path d="M113.794 59.9711C116.272 52.7037 112.43 44.7897 105.211 42.2948C97.9931 39.7998 90.1327 43.6687 87.6547 50.9361C85.1766 58.2035 89.0193 66.1174 96.2375 68.6124C103.456 71.1073 111.316 67.2385 113.794 59.9711Z" fill="#FAFAFA"/>
<path d="M100.729 63.7791C96.1706 63.7791 92.462 60.0452 92.462 55.4561C92.462 50.867 96.1706 47.1331 100.729 47.1331C105.287 47.1331 108.995 50.867 108.995 55.4561C108.995 60.0452 105.287 63.7791 100.729 63.7791ZM100.729 47.588C96.42 47.588 92.9138 51.1181 92.9138 55.4524C92.9138 59.7904 96.42 63.3169 100.729 63.3169C105.037 63.3169 108.54 59.7868 108.54 55.4524C108.54 51.1181 105.037 47.588 100.729 47.588Z" fill="url(#paint22_linear_269_896)"/>
<path d="M107.264 55.4561C107.264 59.0917 104.34 62.0359 100.729 62.0359C97.1212 62.0359 94.1934 59.0917 94.1934 55.4561C94.1934 51.8241 97.1176 48.8763 100.729 48.8763C104.336 48.8763 107.264 51.8205 107.264 55.4561Z" fill="url(#paint23_linear_269_896)"/>
<path d="M103.071 56.8972C103.071 57.3885 102.89 57.8216 102.529 58.2C102.167 58.5749 101.672 58.7932 101.043 58.8515V59.6266H100.501V58.8515C99.8901 58.8078 99.4021 58.6222 99.0262 58.3019C98.6539 57.9817 98.4659 57.5523 98.4659 57.0246H99.6262C99.6696 57.5668 99.9624 57.8798 100.501 57.9635V55.8564C99.9226 55.7217 99.5178 55.5871 99.2828 55.4451C98.9973 55.2777 98.7985 55.0994 98.6936 54.9102C98.5418 54.6409 98.4659 54.3352 98.4659 53.9894C98.4659 53.4472 98.6539 53.0032 99.0262 52.6575C99.4021 52.3117 99.8901 52.1152 100.501 52.0643V51.2891H101.043V52.0643C101.614 52.1079 102.073 52.2826 102.417 52.5883C102.764 52.8904 102.959 53.3089 103.002 53.8475H101.842C101.824 53.6437 101.741 53.4617 101.6 53.3016C101.455 53.1415 101.271 53.0359 101.043 52.985V55.0557C101.647 55.194 102.048 55.325 102.25 55.4488C102.55 55.6344 102.738 55.7981 102.811 55.9364C102.984 56.2276 103.071 56.5515 103.071 56.8972ZM99.8214 53.2507C99.6515 53.4144 99.5684 53.6328 99.5684 53.913C99.5684 54.1896 99.6479 54.4043 99.8105 54.5499C99.9732 54.6954 100.201 54.8155 100.501 54.9029V52.9486C100.215 52.9886 99.9913 53.0869 99.8214 53.2507ZM101.73 57.6214C101.896 57.4394 101.976 57.2211 101.976 56.9591C101.976 56.7007 101.896 56.4969 101.734 56.3513C101.571 56.2057 101.343 56.0856 101.043 55.9983V57.9599C101.336 57.9162 101.564 57.8034 101.73 57.6214Z" fill="#EAEBF0"/>
<path d="M90.9872 19.6895C90.9872 19.5985 90.9799 19.5075 90.9799 19.4129L92.8089 19.22C93.0186 19.1982 93.1704 19.009 93.1487 18.7979L92.8632 16.0502C92.8415 15.8392 92.6535 15.6863 92.4439 15.7081L90.9076 15.8719C90.7161 15.8937 90.5426 15.7664 90.4992 15.5771C90.257 14.5727 89.9317 13.5974 89.5269 12.6694C89.4474 12.491 89.5124 12.28 89.6823 12.1817L91.0486 11.3883C91.2294 11.2828 91.2944 11.0463 91.1896 10.8643L89.816 8.4733C89.7112 8.29134 89.4763 8.22584 89.2955 8.33137L87.8894 9.15021C87.7232 9.24483 87.5135 9.20116 87.3979 9.04831C86.7834 8.24403 86.1002 7.49434 85.3592 6.81016C85.2146 6.67915 85.1929 6.4608 85.305 6.30431L86.2773 4.95778C86.4002 4.78674 86.3641 4.54654 86.1942 4.42281L83.9748 2.7997C83.8049 2.67597 83.5664 2.71236 83.4435 2.8834L82.4531 4.2554C82.341 4.41189 82.1314 4.45556 81.9615 4.36458C81.0903 3.8842 80.1758 3.47296 79.2216 3.14543C79.0372 3.08356 78.9288 2.89432 78.9686 2.70508L79.3192 1.0383C79.3626 0.830863 79.2324 0.627065 79.0264 0.583394L76.3444 0.00839115C76.1383 -0.0352799 75.9359 0.0957331 75.8925 0.303171L75.5383 1.98451C75.4985 2.17375 75.325 2.30112 75.1335 2.28657C74.6419 2.2429 74.143 2.22106 73.637 2.22106C73.1346 2.22106 72.6358 2.2429 72.1405 2.28657C71.949 2.30476 71.7755 2.17739 71.7357 1.98451L71.3815 0.303171C71.3381 0.0957331 71.1357 -0.0352799 70.9296 0.00839115L68.2476 0.583394C68.0416 0.627065 67.9114 0.830863 67.9548 1.0383L68.3054 2.70508C68.3452 2.89432 68.2368 3.08356 68.0524 3.14543C67.0982 3.47296 66.1836 3.88056 65.3125 4.36458C65.1426 4.4592 64.933 4.41189 64.8209 4.2554L63.8305 2.8834C63.7076 2.71236 63.4691 2.67233 63.2992 2.7997L61.0798 4.42281C60.9099 4.54654 60.8702 4.78674 60.9967 4.95778L61.969 6.30431C62.0847 6.4608 62.0594 6.67915 61.9148 6.81016C61.1738 7.49434 60.4906 8.24403 59.8761 9.04831C59.7605 9.20116 59.5508 9.24483 59.3846 9.15021L57.9785 8.33137C57.7977 8.22584 57.5628 8.2877 57.458 8.4733L56.0844 10.8643C55.9796 11.0463 56.041 11.2828 56.2254 11.3883L57.5917 12.1817C57.7616 12.28 57.8266 12.4874 57.7471 12.6694C57.3423 13.601 57.0134 14.5727 56.7748 15.5771C56.7314 15.7664 56.5579 15.8901 56.3663 15.8719L54.8301 15.7081C54.6205 15.6863 54.4325 15.8392 54.4108 16.0502L54.1253 18.7979C54.1036 19.009 54.2554 19.1982 54.4651 19.22L56.294 19.4129C56.294 19.5039 56.2868 19.5949 56.2868 19.6895C56.2868 20.7704 56.3844 21.8294 56.5724 22.8557C56.6085 23.0449 56.5001 23.2305 56.3194 23.2887L54.9386 23.74C54.7398 23.8055 54.6277 24.0239 54.6928 24.224L55.5422 26.8516C55.6073 27.0517 55.8241 27.1645 56.023 27.099L57.3567 26.6623C57.5411 26.6004 57.7399 26.6914 57.8194 26.8697C58.2496 27.8305 58.7664 28.744 59.3556 29.6028C59.4641 29.763 59.4424 29.9777 59.2978 30.105L58.2785 31.0294C58.123 31.1714 58.1086 31.4152 58.2496 31.5717L60.0858 33.6242C60.2268 33.7807 60.4689 33.7953 60.6244 33.6533L61.6184 32.7544C61.763 32.6234 61.9798 32.6234 62.1244 32.7544C62.9088 33.4568 63.7546 34.0828 64.6547 34.6359C64.8173 34.7378 64.886 34.9416 64.8065 35.1199L64.2715 36.3282C64.1848 36.5211 64.2715 36.7503 64.4667 36.834L66.9716 37.9586C67.1632 38.0459 67.3909 37.9586 67.4741 37.762L67.9982 36.5756C68.0777 36.3973 68.2765 36.31 68.4609 36.3682C69.4549 36.6812 70.4887 36.9105 71.5514 37.0378C71.7429 37.0597 71.8875 37.2234 71.8875 37.4163V38.7046C71.8875 38.9157 72.0574 39.0904 72.2707 39.0904H75.0142C75.2238 39.0904 75.3973 38.9193 75.3973 38.7046V37.4163C75.3973 37.2234 75.5419 37.0597 75.7335 37.0378C76.7962 36.9105 77.83 36.6812 78.824 36.3682C79.0083 36.31 79.2071 36.3973 79.2866 36.5756L79.8108 37.762C79.8975 37.9549 80.1216 38.0423 80.3132 37.9586L82.8181 36.834C83.0097 36.7467 83.0965 36.5211 83.0133 36.3282L82.4784 35.1199C82.3988 34.9416 82.4675 34.7378 82.6302 34.6359C83.5302 34.0864 84.3796 33.4568 85.1604 32.7544C85.305 32.6234 85.5219 32.6234 85.6664 32.7544L86.6605 33.6533C86.8159 33.7953 87.0581 33.7843 87.1991 33.6242L89.0353 31.5717C89.1762 31.4152 89.1654 31.1714 89.0064 31.0294L87.9834 30.105C87.8425 29.974 87.8171 29.763 87.9256 29.6028C88.5148 28.744 89.0317 27.8305 89.4618 26.8697C89.5413 26.6914 89.7401 26.6004 89.9245 26.6623L91.2583 27.099C91.4571 27.1645 91.674 27.0554 91.739 26.8516L92.5885 24.224C92.6535 24.0239 92.5451 23.8055 92.3427 23.74L90.9619 23.2887C90.7811 23.2305 90.6727 23.0449 90.7088 22.8557C90.8896 21.8294 90.9872 20.7704 90.9872 19.6895Z" fill="url(#paint24_linear_269_896)"/>
<path d="M73.6297 33.2419C81.0639 33.2419 87.0905 27.1742 87.0905 19.6893C87.0905 12.2044 81.0639 6.13672 73.6297 6.13672C66.1955 6.13672 60.1688 12.2044 60.1688 19.6893C60.1688 27.1742 66.1955 33.2419 73.6297 33.2419Z" stroke="#EAEBF0" stroke-width="1.0556" stroke-miterlimit="10"/>
<path d="M73.6299 32.0449C80.4073 32.0449 85.9015 26.5133 85.9015 19.6896C85.9015 12.866 80.4073 7.33435 73.6299 7.33435C66.8524 7.33435 61.3582 12.866 61.3582 19.6896C61.3582 26.5133 66.8524 32.0449 73.6299 32.0449Z" fill="#FAFAFA"/>
<path d="M73.6297 27.9216C69.7368 27.9216 66.5668 24.7336 66.5668 20.8105C66.5668 16.8874 69.7332 13.6994 73.6297 13.6994C77.5227 13.6994 80.6927 16.8874 80.6927 20.8105C80.6927 24.7336 77.5263 27.9216 73.6297 27.9216ZM73.6297 14.1143C69.9609 14.1143 66.9788 17.1203 66.9788 20.8105C66.9788 24.5007 69.9645 27.5067 73.6297 27.5067C77.2986 27.5067 80.2806 24.5007 80.2806 20.8105C80.2806 17.1203 77.2986 14.1143 73.6297 14.1143Z" fill="url(#paint25_linear_269_896)"/>
<path d="M75.0178 13.9578C74.9058 13.9578 74.8118 13.8668 74.8118 13.7503V12.3383C74.5877 11.887 74.125 11.5886 73.5864 11.5777C73.0695 11.5668 72.6033 11.8288 72.343 12.2801V13.6594C72.343 13.7722 72.2526 13.8668 72.137 13.8668C72.0249 13.8668 71.9309 13.7758 71.9309 13.6594V12.2291C71.9309 12.1964 71.9382 12.1636 71.9562 12.1309C72.2779 11.5195 72.9177 11.1519 73.5937 11.1628C74.2804 11.1774 74.8913 11.5741 75.1877 12.1964C75.2094 12.2401 75.2203 12.2874 75.2203 12.3383V13.7503C75.2239 13.8632 75.1299 13.9578 75.0178 13.9578Z" fill="url(#paint26_linear_269_896)"/>
<path d="M81.5096 22.2517C81.3976 22.2517 81.3036 22.1607 81.3036 22.0442V19.5732C81.3036 19.4604 81.394 19.3658 81.5096 19.3658C81.6217 19.3658 81.7157 19.4567 81.7157 19.5732V22.0442C81.7157 22.1607 81.6217 22.2517 81.5096 22.2517Z" fill="url(#paint27_linear_269_896)"/>
<path d="M65.7535 22.2517C65.6415 22.2517 65.5475 22.1607 65.5475 22.0442V19.5732C65.5475 19.4604 65.6378 19.3658 65.7535 19.3658C65.8656 19.3658 65.9596 19.4567 65.9596 19.5732V22.0442C65.9559 22.1607 65.8656 22.2517 65.7535 22.2517Z" fill="url(#paint28_linear_269_896)"/>
<path d="M79.2036 20.8103C79.2036 23.911 76.7095 26.4221 73.6299 26.4221C70.5502 26.4221 68.0561 23.911 68.0561 20.8103C68.0561 17.7133 70.5502 15.1986 73.6299 15.1986C76.7095 15.1986 79.2036 17.7133 79.2036 20.8103Z" fill="url(#paint29_linear_269_896)"/>
<path d="M77.1396 21.0179H73.4273V16.527H73.8358V20.6066H77.1396V21.0179Z" fill="#EAEBF0"/>
<path d="M74.8227 68.6156V61.1442C74.8227 60.7184 74.4793 60.3763 74.06 60.3763H68.338C67.9621 60.3763 67.6513 60.0997 67.5862 59.7285C67.2645 57.7997 66.7621 55.9364 66.1006 54.1496C65.9705 53.7965 66.1078 53.3999 66.4295 53.2106L71.3852 50.3283C71.7502 50.1173 71.8768 49.6478 71.6635 49.2802L67.9549 42.8096C67.7452 42.4421 67.2789 42.3147 66.9139 42.5294L61.951 45.4117C61.6257 45.6009 61.2208 45.5209 60.9787 45.2297C59.7569 43.7449 58.3978 42.3766 56.9231 41.1465C56.6339 40.9063 56.558 40.4951 56.7423 40.1675L59.6051 35.1708C59.8148 34.8033 59.6919 34.3338 59.3268 34.1227L52.9 30.3888C52.5349 30.1778 52.0686 30.3015 51.859 30.6691L48.9998 35.6585C48.8118 35.986 48.4215 36.1207 48.0672 35.9897C46.2925 35.3237 44.4382 34.8178 42.526 34.4939C42.1573 34.4321 41.8826 34.1154 41.8826 33.737V27.976C41.8826 27.5502 41.5392 27.2081 41.1199 27.2081H33.6991C33.2762 27.2081 32.9364 27.5539 32.9364 27.976V33.737C32.9364 34.1154 32.6617 34.4284 32.293 34.4939C30.3773 34.8178 28.5266 35.3237 26.7518 35.9897C26.4012 36.1207 26.0072 35.9824 25.8192 35.6585L22.9565 30.6691C22.7468 30.3015 22.2805 30.1741 21.9154 30.3888L15.4887 34.1227C15.1236 34.3338 14.9971 34.8033 15.2103 35.1708L18.0767 40.1675C18.2647 40.4951 18.1852 40.9027 17.896 41.1465C16.4212 42.3766 15.0621 43.7449 13.8404 45.2297C13.6018 45.5209 13.1934 45.5973 12.8681 45.4117L7.90518 42.5294C7.5401 42.3183 7.07382 42.4421 6.86417 42.8096L3.15557 49.2802C2.94592 49.6478 3.06881 50.1173 3.43389 50.3283L8.38954 53.207C8.71485 53.3962 8.84859 53.7893 8.71847 54.1459C8.05699 55.9328 7.55456 57.7997 7.23286 59.7249C7.17141 60.0961 6.85694 60.3727 6.48102 60.3727H0.762685C0.339775 60.3727 0 60.7184 0 61.1406V68.612C0 69.0378 0.343389 69.3798 0.762685 69.3798H6.48463C6.86055 69.3798 7.17141 69.6564 7.23647 70.0276C7.55818 71.9564 8.06061 73.8197 8.72208 75.6066C8.85221 75.9596 8.71485 76.3563 8.39315 76.5455L3.43751 79.4278C3.07243 79.6389 2.94592 80.1084 3.15918 80.4759L6.86778 86.9465C7.07743 87.3141 7.54372 87.4415 7.90879 87.2268L12.8717 84.3445C13.197 84.1552 13.6018 84.2353 13.844 84.5264C15.0657 86.0112 16.4248 87.3796 17.8996 88.6097C18.1888 88.8499 18.2647 89.2611 18.0803 89.5886L15.2139 94.5853C15.0043 94.9529 15.1272 95.4224 15.4923 95.6335L21.9191 99.3673C22.2841 99.5784 22.7504 99.4547 22.9601 99.0871L25.8229 94.0977C26.0108 93.7702 26.4012 93.6355 26.7554 93.7665C28.5302 94.4325 30.3845 94.9383 32.2966 95.2622C32.6653 95.3241 32.94 95.6407 32.94 96.0192V101.78C32.94 102.206 33.2834 102.548 33.7027 102.548H41.1235C41.5465 102.548 41.8862 102.202 41.8862 101.78V96.0192C41.8862 95.6407 42.1609 95.3277 42.5296 95.2622C44.4454 94.9383 46.2961 94.4325 48.0708 93.7665C48.4215 93.6355 48.8155 93.7702 49.0034 94.0977L51.8662 99.0871C52.0758 99.4547 52.5421 99.582 52.9072 99.3673L59.334 95.6335C59.6991 95.4224 59.8256 94.9529 59.6123 94.5853L56.7459 89.5886C56.558 89.2611 56.6375 88.8535 56.9267 88.6097C58.4014 87.3796 59.7605 86.0112 60.9823 84.5264C61.2208 84.2353 61.6293 84.1589 61.9546 84.3445L66.9175 87.2268C67.2826 87.4378 67.7489 87.3141 67.9585 86.9465L71.6671 80.4759C71.8768 80.1084 71.7539 79.6389 71.3888 79.4278L66.4331 76.5455C66.1078 76.3563 65.9741 75.9633 66.1042 75.6066C66.7657 73.8197 67.2681 71.9528 67.5898 70.0276C67.6513 69.6564 67.9657 69.3798 68.3417 69.3798H74.0636C74.4793 69.3835 74.8227 69.0414 74.8227 68.6156Z" fill="url(#paint30_linear_269_896)"/>
<path d="M37.4114 89.5776C50.9583 89.5776 61.9402 78.5208 61.9402 64.8816C61.9402 51.2424 50.9583 40.1856 37.4114 40.1856C23.8645 40.1856 12.8826 51.2424 12.8826 64.8816C12.8826 78.5208 23.8645 89.5776 37.4114 89.5776Z" stroke="#EAEBF0" stroke-width="1.0556" stroke-miterlimit="10"/>
<path d="M37.4113 88.1257C50.1616 88.1257 60.4979 77.719 60.4979 64.8818C60.4979 52.0445 50.1616 41.6378 37.4113 41.6378C24.6609 41.6378 14.3247 52.0445 14.3247 64.8818C14.3247 77.719 24.6609 88.1257 37.4113 88.1257Z" fill="#FAFAFA"/>
<path d="M35.8354 66.4102L36.3704 66.1809C36.5908 66.0863 36.6957 65.8279 36.5981 65.6059L36.1932 64.6488C36.0993 64.4268 35.8426 64.3212 35.6221 64.4195L35.0329 64.6742C34.9426 64.7143 34.8414 64.6852 34.7799 64.6087C34.563 64.3467 34.3136 64.1138 34.0461 63.91C33.963 63.8481 33.9305 63.7426 33.9702 63.648L34.198 63.1094C34.2919 62.8874 34.1907 62.629 33.9666 62.5344L33.016 62.1268C32.7955 62.0321 32.5389 62.134 32.4449 62.3597L32.1955 62.9529C32.1593 63.0439 32.0653 63.0948 31.9677 63.0839C31.6352 63.0439 31.2954 63.0439 30.9593 63.0875C30.8581 63.0984 30.7605 63.0439 30.7243 62.9492L30.5183 62.4033C30.4351 62.1777 30.1821 62.0613 29.958 62.1486L28.9929 62.5162C28.7688 62.5999 28.6531 62.8546 28.7399 63.0802L28.9676 63.6844C29.0038 63.7753 28.9712 63.8772 28.8917 63.9391C28.5411 64.2084 28.2374 64.5287 27.9917 64.8817C27.9338 64.9654 27.8254 65.0018 27.7278 64.9617L27.1495 64.7252C26.9253 64.6342 26.6723 64.7397 26.582 64.9654L26.1916 65.9262C26.1012 66.1518 26.206 66.4065 26.4301 66.4975L27.088 66.7668C27.1784 66.8032 27.229 66.8942 27.2217 66.9924C27.182 67.4692 27.2217 67.9605 27.3446 68.4445C27.3699 68.5428 27.3302 68.6483 27.2398 68.6956L26.7265 68.9722C26.5133 69.085 26.4338 69.3507 26.5494 69.5654L27.0374 70.4825C27.1494 70.6972 27.4133 70.7773 27.6266 70.6645L28.1905 70.3588C28.2772 70.3115 28.382 70.3296 28.4507 70.4024C28.6893 70.6463 28.9531 70.8573 29.2387 71.0357C29.3255 71.0903 29.3652 71.1921 29.3363 71.2904L29.1556 71.8436C29.0797 72.0729 29.2062 72.3203 29.4339 72.3967L30.4171 72.7206C30.6448 72.7971 30.8906 72.6697 30.9665 72.4404L31.1653 71.8254C31.1942 71.7308 31.2846 71.6725 31.3822 71.6762C31.7147 71.6871 32.0509 71.658 32.387 71.5852C32.4846 71.5634 32.5895 71.6107 32.6328 71.7016L32.8822 72.2257C32.9871 72.4441 33.2473 72.535 33.4642 72.4331L34.3932 71.9819C34.61 71.8763 34.7004 71.6143 34.5992 71.396L34.3209 70.8137C34.2775 70.7263 34.3028 70.6208 34.3751 70.5553C34.6245 70.326 34.8486 70.0676 35.0366 69.7874C35.0944 69.7037 35.1992 69.6673 35.2932 69.7037L35.839 69.9111C36.0631 69.9948 36.3161 69.882 36.3993 69.6564L36.7607 68.6811C36.8439 68.4554 36.7318 68.2007 36.5077 68.117L35.9077 67.8913C35.8173 67.8586 35.7631 67.7676 35.7703 67.6694C35.792 67.3345 35.7776 66.9961 35.7197 66.6576C35.6908 66.5485 35.745 66.4502 35.8354 66.4102ZM32.275 68.7466C31.2159 69.3616 29.8893 68.7611 29.6472 67.5529C29.499 66.8214 29.8423 66.0572 30.4857 65.6823C31.5448 65.0673 32.8714 65.6678 33.1136 66.876C33.2618 67.6075 32.9184 68.3717 32.275 68.7466Z" fill="url(#paint31_linear_269_896)"/>
<path d="M42.3995 72.7426C42.3344 72.7426 42.2657 72.7317 42.2007 72.7099L41.2211 72.386C41.0585 72.3314 40.9283 72.2186 40.8524 72.0657C40.7765 71.9129 40.7621 71.7382 40.8163 71.5781L40.997 71.0249C40.6862 70.8175 40.4078 70.5918 40.1584 70.3407L39.5692 70.6391C39.262 70.8066 38.8752 70.6865 38.709 70.3771L38.2246 69.46C38.1451 69.3108 38.127 69.1361 38.1776 68.9724C38.2282 68.8086 38.3367 68.6739 38.4849 68.5939L38.9981 68.3173C38.8752 67.7932 38.8319 67.2837 38.8752 66.7742L38.2065 66.4831C38.0475 66.4176 37.9246 66.2975 37.8595 66.1374C37.7945 65.9809 37.7945 65.8062 37.8595 65.6461L38.2499 64.6853C38.315 64.5288 38.4342 64.4051 38.5933 64.3359C38.7523 64.2704 38.9222 64.2704 39.0813 64.3323L39.6596 64.5689C39.9452 64.1831 40.2632 63.8519 40.6283 63.5717L40.4114 62.9421C40.2885 62.6109 40.4548 62.2434 40.7801 62.116L41.7452 61.7484C42.0706 61.6247 42.4392 61.7921 42.5658 62.1196L42.7682 62.6655C43.1405 62.6328 43.4947 62.6291 43.849 62.6728L44.1201 62.0687C44.2574 61.7448 44.6333 61.5919 44.955 61.7302L45.9057 62.1378C46.2274 62.2761 46.3792 62.651 46.2418 62.9785L46.0141 63.5171C46.3069 63.7537 46.5672 63.9975 46.7913 64.2704L47.4021 64.0266C47.7238 63.8883 48.0998 64.0375 48.2371 64.3614L48.6419 65.3185C48.7106 65.475 48.7106 65.6497 48.6492 65.8098C48.5877 65.97 48.4648 66.0937 48.3094 66.1592L47.7744 66.3885C47.7636 66.3921 47.7636 66.4103 47.7636 66.414C47.8214 66.7633 47.8395 67.12 47.8178 67.473L48.4287 67.7205C48.7576 67.8442 48.9239 68.2154 48.801 68.5429L48.4359 69.5183C48.3781 69.6784 48.2588 69.8058 48.1034 69.8749C47.9479 69.9477 47.7744 69.9513 47.6154 69.8931L47.0696 69.6857C46.8491 69.9877 46.6178 70.2607 46.3539 70.4972L46.625 71.105C46.6973 71.2578 46.7081 71.4325 46.6503 71.5926C46.5925 71.7528 46.4768 71.8838 46.325 71.9566L45.396 72.4078C45.2442 72.4843 45.0707 72.4915 44.9117 72.4333C44.7526 72.3751 44.6225 72.2623 44.5502 72.1058L44.3008 71.5817C43.9357 71.6472 43.5815 71.68 43.2272 71.6691L43.0067 72.295C42.9164 72.5716 42.667 72.7426 42.3995 72.7426ZM40.1403 69.9295C40.2488 69.9295 40.3572 69.9732 40.4404 70.0569C40.6681 70.2861 40.9211 70.4899 41.1922 70.661C41.3585 70.7665 41.4308 70.9667 41.3729 71.1523L41.1922 71.7054C41.1741 71.7673 41.1777 71.8292 41.2067 71.8874C41.2356 71.9456 41.2826 71.9857 41.344 72.0075L42.3236 72.3314C42.4501 72.3751 42.5802 72.3023 42.6236 72.1786L42.8224 71.5635C42.8802 71.3852 43.0429 71.2687 43.2345 71.276C43.5598 71.2833 43.8815 71.2542 44.1923 71.1887C44.3803 71.1486 44.5755 71.2396 44.6586 71.4179L44.908 71.942C44.937 72.0002 44.9839 72.0439 45.0418 72.0621C45.0996 72.0839 45.1647 72.0803 45.2225 72.0512L46.1515 71.5999C46.2093 71.5708 46.2527 71.5235 46.2744 71.4653C46.2961 71.407 46.2924 71.3415 46.2635 71.2833L45.9852 70.701C45.9057 70.5336 45.9454 70.3334 46.0828 70.2061C46.3214 69.9877 46.531 69.7439 46.7117 69.4746C46.8238 69.3108 47.0262 69.2453 47.2069 69.3145L47.7527 69.5219C47.8106 69.5437 47.8756 69.5437 47.9335 69.5146C47.9913 69.4891 48.0347 69.4418 48.0564 69.38L48.4215 68.4083C48.4684 68.2845 48.4034 68.1463 48.2841 68.1026L47.6805 67.8769C47.507 67.8114 47.3985 67.6404 47.413 67.4512C47.4347 67.1309 47.4166 66.807 47.366 66.4868C47.3335 66.2902 47.4347 66.101 47.6118 66.0246L48.1467 65.7953C48.266 65.7443 48.3239 65.6024 48.2696 65.4823L47.8648 64.5252C47.8142 64.4051 47.6732 64.3469 47.5539 64.4015L46.9648 64.6562C46.7949 64.729 46.5997 64.6817 46.4804 64.5361C46.278 64.2886 46.0394 64.0666 45.7792 63.8738C45.6201 63.7537 45.5659 63.5499 45.6418 63.3679L45.8695 62.8329C45.9201 62.7128 45.8659 62.5709 45.743 62.52L44.7924 62.1124C44.6731 62.0614 44.5321 62.116 44.4815 62.2397L44.2321 62.8329C44.1598 63.004 43.9899 63.1059 43.7983 63.084C43.4766 63.0476 43.1513 63.0477 42.8369 63.0877C42.6453 63.1132 42.4609 63.004 42.3923 62.822L42.1898 62.2798C42.1429 62.156 42.0055 62.0942 41.8862 62.1415L40.9211 62.509C40.7982 62.5563 40.7368 62.6946 40.7838 62.8147L41.0115 63.4189C41.0765 63.5935 41.0223 63.7901 40.8705 63.9029C40.538 64.1576 40.2524 64.4597 40.0138 64.8018C39.8982 64.9655 39.6958 65.0274 39.5114 64.951L38.9331 64.7144C38.8752 64.689 38.8102 64.6926 38.7523 64.7144C38.6945 64.7399 38.6475 64.7836 38.6258 64.8454L38.2354 65.8062C38.2101 65.8644 38.2101 65.9299 38.2354 65.9882C38.2607 66.0464 38.3041 66.0937 38.3656 66.1155L39.0234 66.3849C39.1933 66.454 39.2981 66.6287 39.2801 66.8143C39.2403 67.2765 39.2801 67.7423 39.3994 68.1972C39.45 68.3864 39.3632 68.583 39.1933 68.6776L38.68 68.9542C38.6258 68.9833 38.5824 69.0342 38.5644 69.0961C38.5463 69.158 38.5535 69.2198 38.5824 69.2781L39.0668 70.1952C39.1283 70.3116 39.2692 70.3553 39.3885 70.2934L39.9524 69.9877C40.0066 69.9477 40.0753 69.9295 40.1403 69.9295ZM47.6913 66.2065H47.6949H47.6913ZM43.2381 68.9906C42.9634 68.9906 42.6887 68.9323 42.432 68.8122C41.8465 68.5466 41.438 68.0262 41.3115 67.3856C41.1488 66.5741 41.5356 65.7152 42.2477 65.3004C42.8079 64.9728 43.4658 64.9401 44.0514 65.2057C44.6369 65.4714 45.0454 65.9918 45.1719 66.6323C45.3346 67.4439 44.9478 68.3027 44.2357 68.7176C43.9212 68.8996 43.5779 68.9906 43.2381 68.9906ZM43.2381 65.435C42.9634 65.435 42.6923 65.5078 42.4429 65.6534C41.8754 65.9845 41.5717 66.6651 41.6983 67.3092C41.7995 67.8224 42.1284 68.2372 42.5911 68.4483C43.0574 68.6594 43.5815 68.6303 44.0297 68.3719L44.1309 68.5466L44.0297 68.3719C44.5972 68.0407 44.9008 67.3602 44.7743 66.716C44.6731 66.2029 44.3442 65.788 43.8815 65.5769C43.6755 65.4823 43.455 65.435 43.2381 65.435Z" fill="url(#paint32_linear_269_896)"/>
<path d="M41.4525 57.4723L41.9875 57.243C42.208 57.1484 42.3128 56.89 42.2152 56.668L41.8103 55.7109C41.7164 55.4889 41.4597 55.3834 41.2392 55.4816L40.6501 55.7364C40.5597 55.7764 40.4585 55.7473 40.397 55.6709C40.1802 55.4088 39.9307 55.1759 39.6633 54.9721C39.5801 54.9102 39.5512 54.8047 39.591 54.7101L39.8187 54.1715C39.9127 53.9495 39.8115 53.6911 39.5874 53.5965L38.6367 53.1889C38.4162 53.0943 38.1596 53.1962 38.0656 53.4218L37.8162 54.015C37.7764 54.106 37.6861 54.1569 37.5885 54.146C37.2559 54.1096 36.9198 54.1096 36.58 54.1496C36.4788 54.1642 36.3812 54.106 36.345 54.0114L36.1426 53.4691C36.0559 53.2435 35.8065 53.127 35.5787 53.2144L34.6136 53.5819C34.3895 53.6693 34.2739 53.9204 34.3606 54.1496L34.5883 54.7538C34.6245 54.8447 34.5919 54.9466 34.5124 55.0085C34.1618 55.2778 33.8582 55.5981 33.6124 55.9511C33.5545 56.0348 33.4461 56.0712 33.3485 56.0311L32.7702 55.7946C32.5461 55.7036 32.293 55.8091 32.2027 56.0348L31.8123 56.9955C31.7219 57.2212 31.8268 57.4759 32.0509 57.5669L32.7087 57.8362C32.7991 57.8726 32.8497 57.9636 32.8425 58.0618C32.8027 58.5386 32.8425 59.0299 32.9654 59.5139C32.9907 59.6122 32.9473 59.7177 32.8605 59.765L32.3473 60.0416C32.134 60.1544 32.0545 60.4237 32.1665 60.6348L32.6545 61.5519C32.7702 61.7666 33.034 61.8467 33.2437 61.7302L33.8076 61.4245C33.8943 61.3772 33.9991 61.3954 34.0678 61.4682C34.3064 61.712 34.5739 61.9231 34.8558 62.1014C34.9426 62.156 34.9823 62.2615 34.9498 62.3562L34.7691 62.9093C34.6931 63.1386 34.8197 63.3897 35.0474 63.4625L36.0306 63.7864C36.2583 63.8628 36.5041 63.7354 36.58 63.5062L36.7788 62.8911C36.8077 62.7965 36.8981 62.7383 36.9957 62.7419C37.3282 62.7528 37.6644 62.7237 38.0005 62.6509C38.0981 62.6291 38.203 62.6764 38.2463 62.7674L38.4957 63.2915C38.6006 63.5098 38.8608 63.6008 39.0777 63.4989L40.0103 63.0476C40.2271 62.9421 40.3175 62.6801 40.2163 62.4617L39.938 61.8794C39.8946 61.7921 39.9199 61.6865 39.9922 61.621C40.2452 61.3918 40.4657 61.1334 40.6537 60.8532C40.7115 60.7694 40.8163 60.7331 40.9103 60.7694L41.4561 60.9769C41.6802 61.0606 41.9332 60.9478 42.0164 60.7185L42.3815 59.7468C42.4646 59.5212 42.3525 59.2664 42.1248 59.1827L41.5248 58.9535C41.4344 58.9207 41.3802 58.8297 41.3838 58.7315C41.4055 58.3967 41.391 58.0582 41.3332 57.7198C41.3079 57.6142 41.3585 57.5123 41.4525 57.4723ZM37.8921 59.8123C36.833 60.4274 35.5064 59.8269 35.2643 58.6187C35.1197 57.8872 35.4631 57.1229 36.1029 56.7481C37.1619 56.133 38.4885 56.7335 38.7307 57.9417C38.8789 58.6732 38.5355 59.4375 37.8921 59.8123Z" fill="url(#paint33_linear_269_896)"/>
<defs>
<linearGradient id="paint0_linear_269_896" x1="46.7283" y1="16.8475" x2="47.2779" y2="27.037" gradientUnits="userSpaceOnUse">
<stop stop-color="#FF839D"/>
<stop offset="1" stop-color="#F50B9A"/>
</linearGradient>
<linearGradient id="paint1_linear_269_896" x1="46.7283" y1="16.8476" x2="47.2779" y2="27.0371" gradientUnits="userSpaceOnUse">
<stop stop-color="#FF839D"/>
<stop offset="1" stop-color="#F50B9A"/>
</linearGradient>
<linearGradient id="paint2_linear_269_896" x1="22.357" y1="101.901" x2="23.5713" y2="113.56" gradientUnits="userSpaceOnUse">
<stop stop-color="#FF63DE"/>
<stop offset="1" stop-color="#B122E5"/>
</linearGradient>
<linearGradient id="paint3_linear_269_896" x1="22.3569" y1="101.901" x2="23.5712" y2="113.56" gradientUnits="userSpaceOnUse">
<stop stop-color="#FF63DE"/>
<stop offset="1" stop-color="#B122E5"/>
</linearGradient>
<linearGradient id="paint4_linear_269_896" x1="81.2869" y1="123.323" x2="82.569" y2="132.964" gradientUnits="userSpaceOnUse">
<stop stop-color="#9C27B0"/>
<stop offset="1" stop-color="#4A148C"/>
</linearGradient>
<linearGradient id="paint5_linear_269_896" x1="81.2868" y1="123.323" x2="82.5689" y2="132.965" gradientUnits="userSpaceOnUse">
<stop stop-color="#9C27B0"/>
<stop offset="1" stop-color="#4A148C"/>
</linearGradient>
<linearGradient id="paint6_linear_269_896" x1="126.991" y1="68.8761" x2="128.822" y2="78.8797" gradientUnits="userSpaceOnUse">
<stop stop-color="#FDC830"/>
<stop offset="1" stop-color="#F37335"/>
</linearGradient>
<linearGradient id="paint7_linear_269_896" x1="126.99" y1="68.8762" x2="128.822" y2="78.8798" gradientUnits="userSpaceOnUse">
<stop stop-color="#FDC830"/>
<stop offset="1" stop-color="#F37335"/>
</linearGradient>
<linearGradient id="paint8_linear_269_896" x1="76.0219" y1="71.4685" x2="77.616" y2="80.1771" gradientUnits="userSpaceOnUse">
<stop stop-color="#FF839D"/>
<stop offset="1" stop-color="#F50B9A"/>
</linearGradient>
<linearGradient id="paint9_linear_269_896" x1="76.0219" y1="71.4685" x2="77.6161" y2="80.1771" gradientUnits="userSpaceOnUse">
<stop stop-color="#FF839D"/>
<stop offset="1" stop-color="#F50B9A"/>
</linearGradient>
<linearGradient id="paint10_linear_269_896" x1="100.139" y1="18.3175" x2="100.139" y2="28.7141" gradientUnits="userSpaceOnUse">
<stop stop-color="#8E2DE2"/>
<stop offset="1" stop-color="#4A00E0"/>
</linearGradient>
<linearGradient id="paint11_linear_269_896" x1="100.139" y1="18.3176" x2="100.139" y2="28.7143" gradientUnits="userSpaceOnUse">
<stop stop-color="#8E2DE2"/>
<stop offset="1" stop-color="#4A00E0"/>
</linearGradient>
<linearGradient id="paint12_linear_269_896" x1="46.6231" y1="103.467" x2="53.9488" y2="149.852" gradientUnits="userSpaceOnUse">
<stop stop-color="#FF63DE"/>
<stop offset="1" stop-color="#B122E5"/>
</linearGradient>
<linearGradient id="paint13_linear_269_896" x1="44.8807" y1="113.444" x2="54.509" y2="135.839" gradientUnits="userSpaceOnUse">
<stop stop-color="#FF63DE"/>
<stop offset="1" stop-color="#B122E5"/>
</linearGradient>
<linearGradient id="paint14_linear_269_896" x1="116.558" y1="78.7102" x2="119.855" y2="100.63" gradientUnits="userSpaceOnUse">
<stop stop-color="#FF839D"/>
<stop offset="1" stop-color="#F50B9A"/>
</linearGradient>
<linearGradient id="paint15_linear_269_896" x1="117.928" y1="86.5145" x2="118.539" y2="91.9118" gradientUnits="userSpaceOnUse">
<stop stop-color="#FF839D"/>
<stop offset="1" stop-color="#F50B9A"/>
</linearGradient>
<linearGradient id="paint16_linear_269_896" x1="117.428" y1="86.5712" x2="118.038" y2="91.9685" gradientUnits="userSpaceOnUse">
<stop stop-color="#FF839D"/>
<stop offset="1" stop-color="#F50B9A"/>
</linearGradient>
<linearGradient id="paint17_linear_269_896" x1="84.7598" y1="81.275" x2="91.1698" y2="121.566" gradientUnits="userSpaceOnUse">
<stop stop-color="#9C27B0"/>
<stop offset="1" stop-color="#4A148C"/>
</linearGradient>
<linearGradient id="paint18_linear_269_896" x1="84.4784" y1="92.6265" x2="90.4572" y2="113.956" gradientUnits="userSpaceOnUse">
<stop stop-color="#9C27B0"/>
<stop offset="1" stop-color="#4A148C"/>
</linearGradient>
<linearGradient id="paint19_linear_269_896" x1="84.4955" y1="92.6216" x2="90.4743" y2="113.951" gradientUnits="userSpaceOnUse">
<stop stop-color="#9C27B0"/>
<stop offset="1" stop-color="#4A148C"/>
</linearGradient>
<linearGradient id="paint20_linear_269_896" x1="90.2879" y1="90.9979" x2="96.2666" y2="112.327" gradientUnits="userSpaceOnUse">
<stop stop-color="#9C27B0"/>
<stop offset="1" stop-color="#4A148C"/>
</linearGradient>
<linearGradient id="paint21_linear_269_896" x1="98.7013" y1="31.2769" x2="102.915" y2="80.8571" gradientUnits="userSpaceOnUse">
<stop stop-color="#FDC830"/>
<stop offset="1" stop-color="#F37335"/>
</linearGradient>
<linearGradient id="paint22_linear_269_896" x1="92.4613" y1="55.4552" x2="108.995" y2="55.4552" gradientUnits="userSpaceOnUse">
<stop stop-color="#FDC830"/>
<stop offset="1" stop-color="#F37335"/>
</linearGradient>
<linearGradient id="paint23_linear_269_896" x1="94.1943" y1="55.455" x2="107.263" y2="55.455" gradientUnits="userSpaceOnUse">
<stop stop-color="#FDC830"/>
<stop offset="1" stop-color="#F37335"/>
</linearGradient>
<linearGradient id="paint24_linear_269_896" x1="63.9284" y1="2.42249" x2="83.6485" y2="36.3474" gradientUnits="userSpaceOnUse">
<stop stop-color="#8E2DE2"/>
<stop offset="1" stop-color="#4A00E0"/>
</linearGradient>
<linearGradient id="paint25_linear_269_896" x1="66.57" y1="20.8117" x2="80.6925" y2="20.8117" gradientUnits="userSpaceOnUse">
<stop stop-color="#8E2DE2"/>
<stop offset="1" stop-color="#4A00E0"/>
</linearGradient>
<linearGradient id="paint26_linear_269_896" x1="71.9361" y1="12.5602" x2="75.223" y2="12.5602" gradientUnits="userSpaceOnUse">
<stop stop-color="#8E2DE2"/>
<stop offset="1" stop-color="#4A00E0"/>
</linearGradient>
<linearGradient id="paint27_linear_269_896" x1="81.305" y1="20.8118" x2="81.7146" y2="20.8118" gradientUnits="userSpaceOnUse">
<stop stop-color="#8E2DE2"/>
<stop offset="1" stop-color="#4A00E0"/>
</linearGradient>
<linearGradient id="paint28_linear_269_896" x1="65.548" y1="20.8118" x2="65.9577" y2="20.8118" gradientUnits="userSpaceOnUse">
<stop stop-color="#8E2DE2"/>
<stop offset="1" stop-color="#4A00E0"/>
</linearGradient>
<linearGradient id="paint29_linear_269_896" x1="68.0585" y1="20.8117" x2="79.2047" y2="20.8117" gradientUnits="userSpaceOnUse">
<stop stop-color="#8E2DE2"/>
<stop offset="1" stop-color="#4A00E0"/>
</linearGradient>
<linearGradient id="paint30_linear_269_896" x1="19.0929" y1="32.9348" x2="55.6249" y2="95.7818" gradientUnits="userSpaceOnUse">
<stop stop-color="#FF839D"/>
<stop offset="1" stop-color="#F50B9A"/>
</linearGradient>
<linearGradient id="paint31_linear_269_896" x1="27.4937" y1="57.4681" x2="35.5005" y2="77.0657" gradientUnits="userSpaceOnUse">
<stop stop-color="#FF839D"/>
<stop offset="1" stop-color="#F50B9A"/>
</linearGradient>
<linearGradient id="paint32_linear_269_896" x1="37.7422" y1="53.2811" x2="45.749" y2="72.8786" gradientUnits="userSpaceOnUse">
<stop stop-color="#FF839D"/>
<stop offset="1" stop-color="#F50B9A"/>
</linearGradient>
<linearGradient id="paint33_linear_269_896" x1="35.4081" y1="54.2347" x2="43.4149" y2="73.8323" gradientUnits="userSpaceOnUse">
<stop stop-color="#FF839D"/>
<stop offset="1" stop-color="#F50B9A"/>
</linearGradient>
</defs>
</svg>
