<svg width="20" height="20" viewBox="0 0 20 20" fill="none" xmlns="http://www.w3.org/2000/svg">
<g clip-path="url(#clip0_271_73)">
<path d="M10.3811 8.4767C9.69482 7.71152 9.73929 6.54009 10.4812 5.82875C11.2234 5.11786 12.396 5.12339 13.1312 5.84179L16.4025 9.11357C16.4165 9.05268 16.4252 8.99089 16.4286 8.92857V3.35071L16.4252 3.3425H16.4286V1.07143C16.4286 0.479821 15.9487 0 15.3571 0H1.07143C0.479821 0 0 0.479821 0 1.07143V8.92857C0 9.52018 0.479821 10 1.07143 10H11.7775L10.3811 8.4767ZM14.2857 1.07143H15V2.14286H14.2857V1.07143ZM12.8571 1.07143H13.5714V2.14286H12.8571V1.07143ZM11.4286 1.07143H12.1429V2.14286H11.4286V1.07143ZM10 1.07143H10.7143V2.14286H10V1.07143ZM0.714286 3.35714V1.64286C0.714286 1.13 1.13 0.714286 1.64286 0.714286H3.35714C3.87 0.714286 4.28571 1.13 4.28571 1.64286V3.35714C4.28571 3.87 3.87 4.28571 3.35714 4.28571H1.64286C1.13 4.28571 0.714286 3.87 0.714286 3.35714ZM2.5 8.21429H1.07143V7.5H2.5V8.21429ZM2.5 6.07143H1.07143V5.35714H2.5V6.07143ZM4.64286 6.07143H3.21429V5.35714H4.64286V6.07143ZM6.78571 6.07143H5.35714V5.35714H6.78571V6.07143ZM8.92857 8.21429H7.5V7.5H8.92857V8.21429ZM8.92857 6.07143H7.5V5.35714H8.92857V6.07143Z" fill="white" stroke="#79B0B0"/>
<path d="M1.65997 10.7143L2.03676 11.6921L4.57533 10.7143H1.65997Z" fill="white" stroke="#79B0B0"/>
<path d="M3.35716 3.57143C3.47556 3.57143 3.57145 3.47544 3.57145 3.35714V2.85714H2.85716V2.14285H3.57145V1.64285C3.57145 1.52455 3.47556 1.42857 3.35716 1.42857H1.64287C1.52457 1.42857 1.42859 1.52455 1.42859 1.64285V2.14285H2.14288V2.85714H1.42859V3.35714C1.42859 3.47544 1.52457 3.57143 1.64287 3.57143H3.35716Z" fill="white" stroke="#79B0B0"/>
<path d="M18.2064 8.83857C18.323 8.57857 18.3302 8.28258 18.2267 8.01731L17.1428 5.20516V8.92857C17.1423 9.17428 17.0911 9.41768 16.9921 9.64286L17.6117 9.40402C17.8775 9.3025 18.0916 9.09893 18.2064 8.83857Z" fill="white" stroke="#79B0B0"/>
<path d="M18.8413 5.78214L17.6841 4.62276L18.8927 7.76169C19.2481 8.6825 18.7895 9.71678 17.8682 10.0714L17.502 10.2143L18.8235 11.5357L18.3185 12.0407L12.6276 6.34714C12.1694 5.89062 11.4305 5.88321 10.9631 6.3308C10.4959 6.77803 10.4713 7.51678 10.9077 7.99419L13.8363 11.1873C13.9411 11.3016 13.9602 11.471 13.883 11.6058C13.0675 13.0308 13.1023 14.7892 13.9735 16.1811L14.1284 16.4286H19.9999V8.5683C19.997 7.52285 19.5804 6.52134 18.8413 5.78214Z" fill="white" stroke="#79B0B0"/>
<path d="M15.3571 17.1429H14.2857V20H20V17.1429H15.3571ZM15.7143 18.5714H15V17.8571H15.7143V18.5714Z" fill="white" stroke="#79B0B0"/>
<path d="M6.55608 10.7143V10.7164L2.29358 12.3571L2.89608 13.9224C3.10885 14.4748 3.72894 14.75 4.28108 14.537L12.8961 11.2189L12.4322 10.7143H6.55608Z" fill="white" stroke="#79B0B0"/>
</g>
<defs>
<clipPath id="clip0_271_73">
<rect width="20" height="20" fill="white"/>
</clipPath>
</defs>
</svg>
