<svg width="22" height="22" viewBox="0 0 22 22" fill="#000000" xmlns="http://www.w3.org/2000/svg">
<g clip-path="url(#clip0_269_2282)">
<path d="M1.60411 0.5H8.47911C9.08772 0.5 9.58339 0.995735 9.58339 1.60411V5.72911C9.58339 6.33769 9.08769 6.83339 8.47911 6.83339H1.60411C0.995735 6.83339 0.5 6.33772 0.5 5.72911V1.60411C0.5 0.995701 0.995701 0.5 1.60411 0.5Z" fill="white" stroke="#79B0B0"/>
<path d="M1.60411 9.6666H8.47911C9.08769 9.6666 9.58339 10.1623 9.58339 10.7709V20.3959C9.58339 21.0043 9.08772 21.5 8.47911 21.5H1.60411C0.995701 21.5 0.5 21.0043 0.5 20.3959V10.7709C0.5 10.1623 0.995735 9.6666 1.60411 9.6666Z" fill="white" stroke="#79B0B0"/>
<path d="M13.5209 15.1666H20.3959C21.0043 15.1666 21.5 15.6623 21.5 16.2709V20.3959C21.5 21.0043 21.0043 21.5 20.3959 21.5H13.5209C12.9123 21.5 12.4166 21.0043 12.4166 20.3959V16.2709C12.4166 15.6623 12.9123 15.1666 13.5209 15.1666Z" fill="white" stroke="#79B0B0"/>
<path d="M19.8959 0.5H20.3959C21.0043 0.5 21.5 0.995701 21.5 1.60411V11.2291C21.5 11.8377 21.0043 12.3334 20.3959 12.3334H13.5209C12.9123 12.3334 12.4166 11.8377 12.4166 11.2291V1.60411C12.4166 0.995735 12.9123 0.5 13.5209 0.5H19.8959Z" fill="white" stroke="#79B0B0"/>
</g>
<defs>
<clipPath id="clip0_269_2282">
<rect width="22" height="22" fill="#000000"/>
</clipPath>
</defs>
</svg>



