<svg width="76" height="133" viewBox="0 0 76 133" fill="none" xmlns="http://www.w3.org/2000/svg">
<path d="M71.7502 19.3356C71.5707 18.3916 70.2386 18.3145 69.9554 19.2327C67.2141 28.1084 59.2941 51.1584 47.6984 63.2044C28.8178 82.8179 15.7679 115.109 27.1111 132.288C27.1105 132.288 91.2832 122.174 71.7502 19.3356Z" fill="url(#paint0_linear_269_1191)"/>
<path opacity="0.43" d="M69.2949 32.0416C69.2616 32.2505 69.2052 32.5178 69.1562 32.7637L68.9956 33.5137L68.6565 35.0121L67.9504 38.0035C67.464 39.9942 66.953 41.979 66.4236 43.959C65.373 47.9206 64.2564 51.8645 63.058 55.7832C60.643 63.6137 58.0323 71.3858 55.002 78.9956C53.4699 82.7927 51.9265 86.5856 50.223 90.3088C48.52 94.0309 46.73 97.7134 44.7992 101.322C40.9639 108.55 36.5831 115.501 31.4543 121.902C31.3839 121.988 31.3968 122.115 31.4833 122.184C31.5671 122.252 31.6907 122.24 31.7622 122.161C34.4835 119.067 36.9679 115.771 39.3092 112.38C41.6227 108.968 43.7346 105.426 45.7514 101.834C49.7007 94.6025 53.1346 87.0999 56.1359 79.4381C57.6433 75.6094 59.0238 71.733 60.3485 67.84C61.6705 63.9459 62.9081 60.0234 64.0296 56.0682C65.1576 52.1152 66.228 48.1461 67.1857 44.1497C67.6602 42.1505 68.1159 40.1469 68.5468 38.138C68.7586 37.1324 68.9708 36.1274 69.1665 35.1187L69.4491 33.6026L69.5824 32.8425C69.6222 32.5826 69.6689 32.3475 69.699 32.0469C69.7098 31.9376 69.6297 31.8401 69.5201 31.8294C69.4147 31.8193 69.3202 31.8926 69.3035 31.9955L69.2949 32.0416Z" fill="white"/>
<path d="M56.4761 0.659704C44.3516 8.52663 -24.3303 57.1821 9.89318 129.633C9.89318 129.633 63.3805 109.204 58.3677 1.62184C58.3236 0.680596 57.2682 0.145421 56.4761 0.659704Z" fill="url(#paint1_linear_269_1191)"/>
<path opacity="0.43" d="M51.4702 14.2651C50.001 16.2049 48.5914 18.1822 47.1996 20.1735C45.8105 22.1663 44.4487 24.1779 43.1128 26.2066C40.4398 30.263 37.8646 34.3837 35.3943 38.5666C30.4568 46.9328 25.9121 55.5379 21.9494 64.412C17.999 73.286 14.6103 82.4365 12.2495 91.8763C11.6519 94.2334 11.1446 96.6136 10.6986 99.005C10.5933 99.604 10.4729 100.2 10.3799 100.802L10.093 102.604C9.92693 103.809 9.75066 105.014 9.62814 106.225C9.08054 111.062 8.95157 115.953 9.31108 120.818C9.32613 121.022 9.50454 121.175 9.70928 121.16C9.91403 121.145 10.0677 120.968 10.0527 120.763V120.762V120.759C9.67973 115.95 9.78828 111.102 10.3144 106.299C10.4315 105.096 10.6019 103.899 10.7626 102.702L11.0409 100.911C11.1312 100.313 11.2489 99.7197 11.351 99.124C11.7852 96.7454 12.2812 94.3765 12.8675 92.029C15.182 82.6272 18.5257 73.4928 22.4336 64.6263C26.3538 55.7592 30.8587 47.1524 35.7581 38.7803C38.2096 34.5948 40.766 30.4698 43.4212 26.4086C44.7481 24.3777 46.1006 22.3634 47.4807 20.3679C48.8628 18.3751 50.2654 16.3924 51.7207 14.4558L51.7217 14.4542C51.7739 14.3846 51.7599 14.2865 51.69 14.2346C51.6207 14.1821 51.5224 14.1954 51.4702 14.2651Z" fill="white"/>
<defs>
<linearGradient id="paint0_linear_269_1191" x1="56.5034" y1="67.8878" x2="19.6636" y2="186.623" gradientUnits="userSpaceOnUse">
<stop stop-color="#DDA9C0"/>
<stop offset="1" stop-color="#B796D1"/>
</linearGradient>
<linearGradient id="paint1_linear_269_1191" x1="22.5854" y1="86.2076" x2="56.8611" y2="-28.0924" gradientUnits="userSpaceOnUse">
<stop stop-color="#CB9EDD"/>
<stop offset="1" stop-color="#D16383"/>
</linearGradient>
</defs>
</svg>
