<svg width="50" height="78" viewBox="0 0 50 78" fill="none" xmlns="http://www.w3.org/2000/svg">
<path d="M24.3915 74.6703C22.9121 74.7978 20.345 75.0046 18.3212 75.0936C17.1046 75.1471 16.4043 75.0282 16.0008 74.8669C16.0013 74.9125 16.0029 74.9553 16.0045 74.995C16.0142 75.2071 16.1872 75.377 16.4022 75.3893C20.2262 75.602 23.2678 75.4627 24.3507 75.3973C24.5748 75.3839 24.708 75.1413 24.5936 74.9511C24.5361 74.8557 24.4668 74.7625 24.3915 74.6703Z" fill="url(#paint0_linear_269_1285)"/>
<path d="M18.3213 75.0934C20.345 75.0045 22.9127 74.7977 24.3916 74.6702C22.9374 72.8916 18.3213 71.6927 18.3213 71.6927H17.0176C16.1207 72.9811 15.9911 74.2078 16.0008 74.8673C16.4039 75.028 17.1046 75.147 18.3213 75.0934Z" fill="url(#paint1_linear_269_1285)"/>
<path d="M16.7977 69.571L16.9197 71.978C16.9332 72.2383 17.1288 72.4574 17.3905 72.4949C17.6511 72.5319 17.9999 72.5367 18.3696 72.414C18.5975 72.3385 18.7662 72.1472 18.8081 71.9142L19.2294 69.5715H16.7977V69.571Z" fill="url(#paint2_linear_269_1285)"/>
<path d="M1.66601 77.4472C1.02437 77.332 0.734187 76.9023 0.612738 76.4438C0.6122 76.448 0.611123 76.4518 0.610586 76.4561C0.516006 76.9404 0.73526 77.4424 1.17216 77.6808C1.70094 77.969 2.27864 78.0183 2.72789 77.9947C3.20939 77.969 3.65112 77.7124 3.89402 77.3015L3.89778 77.295C3.41467 77.6031 2.73595 77.6395 1.66601 77.4472Z" fill="url(#paint3_linear_269_1285)"/>
<path d="M4.69102 70.313H3.61571C1.97775 70.2701 0.949734 74.7202 0.612793 76.4436C0.734242 76.9027 1.02497 77.3318 1.66607 77.447C2.73601 77.6393 3.41419 77.6029 3.8973 77.2949C4.78184 75.7949 5.22088 73.5979 5.43154 72.3154C5.67175 70.8572 4.69102 70.313 4.69102 70.313Z" fill="url(#paint4_linear_269_1285)"/>
<path d="M3.75378 68.0788L3.15674 70.4456C3.08365 70.7359 3.22283 71.0359 3.49207 71.1736C3.82579 71.3445 4.29654 71.524 4.7286 71.472C4.93174 71.4474 5.10048 71.3049 5.16765 71.1142L6.04414 68.6236L3.75378 68.0788Z" fill="url(#paint5_linear_269_1285)"/>
<path d="M24.7559 36.9022C24.7559 36.9022 19.4207 70.1484 19.5083 70.3311C19.5083 70.3311 18.0348 70.9986 16.4285 70.4163C16.4285 70.4163 16.9111 52.6441 18.0418 45.8293C18.0418 45.8293 8.93627 61.7142 6.04459 69.6293C6.04459 69.6293 4.53668 69.4498 3.28833 68.6307C3.28833 68.6307 13.0924 40.0383 15.7079 36.2299L24.7559 36.9022Z" fill="url(#paint6_linear_269_1285)"/>
<path d="M18.2542 45.6563C18.2257 45.6563 18.1967 45.6488 18.1709 45.6322C18.0973 45.5861 18.0747 45.4891 18.1209 45.4157L20.1146 42.2411C20.1377 42.2046 20.1748 42.1789 20.2173 42.1704L21.6843 41.8757C21.7703 41.8591 21.8531 41.9138 21.8703 41.9989C21.8875 42.0841 21.8321 42.1671 21.7467 42.1843L20.3457 42.465L18.388 45.5823C18.3579 45.63 18.3068 45.6563 18.2542 45.6563Z" fill="url(#paint7_linear_269_1285)"/>
<path d="M49.2393 4.34695C49.2393 4.34695 45.6394 5.13873 43.4495 6.1464C43.0148 6.34676 42.6676 6.69658 42.4704 7.12783C41.8153 8.55818 39.856 12.1442 36.0562 13.8553C36.6032 14.5796 37.4845 16.0854 37.8682 18.6167C40.1505 16.9233 42.1206 14.0953 43.0669 9.45763C43.0669 9.45763 43.787 9.84816 44.6861 9.41317C45.1606 9.18335 45.7087 8.8571 46.1204 8.60103C46.5304 8.3455 46.8356 7.94853 46.9544 7.48461C47.1108 6.87229 47.0189 6.33337 47.0189 5.75587L48.8696 5.18427C48.8685 5.18373 49.4247 4.97481 49.2393 4.34695Z" fill="url(#paint8_linear_269_1285)"/>
<path d="M37.8677 18.6169C37.484 16.0857 36.6027 14.5793 36.0556 13.8555C33.6949 14.9189 30.6242 15.2586 26.7142 13.908C26.3536 13.7837 25.978 13.7109 25.5964 13.6884C23.5151 13.5668 16.6554 13.3445 10.9795 15.2141C9.78488 15.6073 8.81759 16.488 8.31889 17.6285C6.78358 21.1412 4.29762 29.1405 11.1988 33.1792C11.7292 31.8672 12.3407 30.8124 12.8641 30.0372C11.7528 28.1687 11.4234 25.6165 13.3956 22.2924C14.8336 26.1635 15.5081 31.811 15.6494 34.3106C15.6956 35.1334 15.551 35.9547 15.227 36.7149L15.1915 36.7979C15.1222 36.9602 15.2179 37.1472 15.392 37.1863C19.2768 38.0563 23.3174 37.82 24.5249 37.7204C24.7404 37.7027 24.9193 37.549 24.9688 37.3411C26.8577 29.4062 26.862 23.9928 26.3998 20.5712C28.1673 20.965 33.5713 21.8055 37.8677 18.6169Z" fill="url(#paint9_linear_269_1285)"/>
<path d="M26.4078 20.7846C26.3299 20.7846 26.2622 20.7273 26.2519 20.648C25.8081 17.3068 24.9047 15.8491 24.8956 15.8347C24.8494 15.7613 24.8709 15.6643 24.9445 15.6177C25.0176 15.5716 25.1148 15.593 25.1616 15.6664C25.2003 15.727 26.1101 17.1868 26.5642 20.6067C26.5755 20.693 26.5147 20.7717 26.4287 20.783C26.4212 20.784 26.4142 20.7846 26.4078 20.7846Z" fill="url(#paint10_linear_269_1285)"/>
<path d="M16.8204 9.0654C16.8204 9.0654 16.4276 13.2081 16.0815 14.4333C16.0289 14.6192 16.11 14.8152 16.2793 14.9117C16.8666 15.246 18.2751 15.7918 20.2022 14.8506C20.5144 14.6979 20.702 14.3738 20.6875 14.0304L20.5176 10.0275L16.8204 9.0654Z" fill="url(#paint11_linear_269_1285)"/>
<path d="M20.6018 3.76588C20.6018 3.76588 21.8588 6.64424 21.9431 8.15548C22.0275 9.66618 22.3542 10.6465 20.6018 10.9508C18.8494 11.2551 17.3732 10.3846 16.573 8.87976C16.573 8.87976 15.3198 6.56067 15.6009 5.61086C15.8825 4.66159 20.6018 3.76588 20.6018 3.76588Z" fill="url(#paint12_linear_269_1285)"/>
<path d="M17.1722 7.79803L17.2722 7.7541C17.399 7.69839 17.4533 7.54785 17.3899 7.42464C17.1427 6.94839 16.6612 5.85768 17.2835 5.60322C18.0852 5.27536 21.2628 4.62929 21.948 3.50537C22.6068 2.42538 22.0232 1.03092 21.1457 0.634499C21.0871 0.607713 21.0178 0.629146 20.9877 0.685931L20.9146 0.823606C20.8646 0.917891 20.7249 0.903961 20.6948 0.801104C20.6663 0.702533 20.5347 0.683786 20.4804 0.770571C20.2697 1.107 19.7006 1.65181 18.1798 1.93199C16.0179 2.32949 14.5885 3.20216 14.553 4.69144C14.5508 4.78626 14.4498 4.83876 14.3687 4.78948C14.2091 4.69251 13.9538 4.64697 13.612 4.93304C13.0182 5.43072 13.2611 6.72179 14.5627 7.78357C14.6245 7.83392 14.6239 7.93035 14.5573 7.97374C14.3214 8.12695 13.9694 8.49124 14.8808 8.97713C15.8234 9.47962 16.5274 9.43838 16.7987 9.39391C16.8659 9.38266 16.9094 9.31784 16.8949 9.25141L16.6058 7.94267C16.5897 7.86874 16.6461 7.79856 16.7219 7.79856H17.1722V7.79803Z" fill="url(#paint13_linear_269_1285)"/>
<path d="M17.2264 8.07394C17.2264 8.07394 16.7471 6.23536 15.9201 6.75072C15.093 7.26608 16.3494 8.81108 17.0142 8.87965L17.2264 8.07394Z" fill="url(#paint14_linear_269_1285)"/>
<path d="M44.0266 9.03024C43.9916 9.03024 43.9567 9.01899 43.9272 8.99488C43.8594 8.94024 43.8492 8.84113 43.9046 8.77417C44.0405 8.60702 45.2491 7.13434 45.7145 6.87237C45.8838 6.77702 45.9848 6.67844 46.0063 6.58737C46.0165 6.54398 46.0095 6.49523 45.9853 6.43951L44.5661 6.72291L43.7616 7.41077C43.6961 7.46755 43.5961 7.46005 43.5397 7.39416C43.4827 7.32827 43.4908 7.22916 43.5564 7.17237L44.392 6.45773C44.4124 6.44005 44.4371 6.42826 44.4635 6.42291L46.0348 6.10898C46.0977 6.09612 46.1611 6.12291 46.1965 6.17541C46.3115 6.34576 46.3497 6.50434 46.3131 6.65916C46.2696 6.84238 46.1245 7.00202 45.8698 7.14559C45.5194 7.34273 44.5091 8.53095 44.1496 8.97184C44.1179 9.01042 44.0722 9.03024 44.0266 9.03024Z" fill="#F8A570"/>
<path d="M17.1659 35.1696L22.7225 35.2382L20.7777 33.4135C20.2946 32.9598 19.5567 32.8864 18.9984 33.2475C18.6717 33.4585 18.3175 33.7457 18.0107 34.125C18.0107 34.125 14.5445 32.8623 12.8647 30.037C12.3413 30.8121 11.7297 31.8669 11.1993 33.1789C12.7051 34.0601 14.6579 34.7533 17.1659 35.1696Z" fill="url(#paint15_linear_269_1285)"/>
<path d="M17.7645 35.884C17.7752 35.8846 17.786 35.8851 17.7967 35.8846L31.901 35.8696C32.2498 35.869 32.5319 35.5899 32.5319 35.2465C32.5314 34.9026 32.2476 34.6181 31.8999 34.6246L17.7957 34.6396C17.4469 34.6401 17.1648 34.9192 17.1648 35.2626C17.1653 35.5958 17.4308 35.868 17.7645 35.884Z" fill="url(#paint16_linear_269_1285)"/>
<path d="M44.5801 23.2529H32.8339C31.9677 23.2529 31.1788 23.7463 30.809 24.5193L25.3788 35.8764H39.9758C40.5341 35.8764 41.036 35.54 41.2413 35.0279L45.4523 24.5183C45.6957 23.9113 45.2422 23.2529 44.5801 23.2529Z" fill="url(#paint17_linear_269_1285)"/>
<path d="M36.3049 29.076C36.0501 29.856 36.2382 30.6135 36.7251 30.7678C37.2115 30.9221 37.8123 30.4153 38.067 29.6353C38.3217 28.8553 38.1336 28.0978 37.6468 27.9436C37.1599 27.7893 36.5596 28.296 36.3049 29.076Z" fill="url(#paint18_linear_269_1285)"/>
<defs>
<linearGradient id="paint0_linear_269_1285" x1="16.0005" y1="75.0868" x2="24.6353" y2="75.0868" gradientUnits="userSpaceOnUse">
<stop stop-color="#53D8FF"/>
<stop offset="1" stop-color="#3840F7"/>
</linearGradient>
<linearGradient id="paint1_linear_269_1285" x1="16.0001" y1="73.3996" x2="24.3915" y2="73.3996" gradientUnits="userSpaceOnUse">
<stop stop-color="#2B3582"/>
<stop offset="1" stop-color="#150E42"/>
</linearGradient>
<linearGradient id="paint2_linear_269_1285" x1="16.7978" y1="71.0446" x2="19.23" y2="71.0446" gradientUnits="userSpaceOnUse">
<stop stop-color="#F9B776"/>
<stop offset="1" stop-color="#F47960"/>
</linearGradient>
<linearGradient id="paint3_linear_269_1285" x1="0.588768" y1="77.2215" x2="3.89773" y2="77.2215" gradientUnits="userSpaceOnUse">
<stop stop-color="#53D8FF"/>
<stop offset="1" stop-color="#3840F7"/>
</linearGradient>
<linearGradient id="paint4_linear_269_1285" x1="0.612895" y1="73.9388" x2="5.46981" y2="73.9388" gradientUnits="userSpaceOnUse">
<stop stop-color="#2B3582"/>
<stop offset="1" stop-color="#150E42"/>
</linearGradient>
<linearGradient id="paint5_linear_269_1285" x1="3.13739" y1="69.78" x2="6.04417" y2="69.78" gradientUnits="userSpaceOnUse">
<stop stop-color="#F9B776"/>
<stop offset="1" stop-color="#F47960"/>
</linearGradient>
<linearGradient id="paint6_linear_269_1285" x1="3.57544" y1="64.9801" x2="48.2427" y2="27.5051" gradientUnits="userSpaceOnUse">
<stop stop-color="#CB236D"/>
<stop offset="1" stop-color="#4C246D"/>
</linearGradient>
<linearGradient id="paint7_linear_269_1285" x1="19.9851" y1="25.274" x2="19.9851" y2="72.0818" gradientUnits="userSpaceOnUse">
<stop stop-color="#939DC6"/>
<stop offset="0.9964" stop-color="#E39AB7"/>
</linearGradient>
<linearGradient id="paint8_linear_269_1285" x1="43.1185" y1="8.74335" x2="31.6513" y2="23.7085" gradientUnits="userSpaceOnUse">
<stop stop-color="#F9B776"/>
<stop offset="1" stop-color="#F47960"/>
</linearGradient>
<linearGradient id="paint9_linear_269_1285" x1="6.91498" y1="7.5148" x2="27.2087" y2="27.3292" gradientUnits="userSpaceOnUse">
<stop stop-color="#A737D5"/>
<stop offset="1" stop-color="#EF497A"/>
</linearGradient>
<linearGradient id="paint10_linear_269_1285" x1="29.19" y1="10.0689" x2="22.1707" y2="26.5889" gradientUnits="userSpaceOnUse">
<stop stop-color="#909AC6"/>
<stop offset="0.9964" stop-color="#E295B4"/>
</linearGradient>
<linearGradient id="paint11_linear_269_1285" x1="17.4578" y1="18.3932" x2="18.7097" y2="11.8001" gradientUnits="userSpaceOnUse">
<stop stop-color="#F9B776"/>
<stop offset="1" stop-color="#F47960"/>
</linearGradient>
<linearGradient id="paint12_linear_269_1285" x1="20.8655" y1="6.29987" x2="13.696" y2="11.8028" gradientUnits="userSpaceOnUse">
<stop stop-color="#F9B776"/>
<stop offset="1" stop-color="#F47960"/>
</linearGradient>
<linearGradient id="paint13_linear_269_1285" x1="15.8068" y1="1.95976" x2="22.4734" y2="10.5699" gradientUnits="userSpaceOnUse">
<stop stop-color="#2B3582"/>
<stop offset="1" stop-color="#150E42"/>
</linearGradient>
<linearGradient id="paint14_linear_269_1285" x1="19.9741" y1="5.13842" x2="12.8046" y2="10.6412" gradientUnits="userSpaceOnUse">
<stop stop-color="#F9B776"/>
<stop offset="1" stop-color="#F47960"/>
</linearGradient>
<linearGradient id="paint15_linear_269_1285" x1="24.1874" y1="23.0758" x2="19.1795" y2="30.6112" gradientUnits="userSpaceOnUse">
<stop stop-color="#F9B776"/>
<stop offset="1" stop-color="#F47960"/>
</linearGradient>
<linearGradient id="paint16_linear_269_1285" x1="15.3723" y1="32.1553" x2="26.5609" y2="35.8363" gradientUnits="userSpaceOnUse">
<stop stop-color="#2B3582"/>
<stop offset="1" stop-color="#150E42"/>
</linearGradient>
<linearGradient id="paint17_linear_269_1285" x1="30.7814" y1="24.9271" x2="38.77" y2="33.3969" gradientUnits="userSpaceOnUse">
<stop stop-color="#2B3582"/>
<stop offset="1" stop-color="#150E42"/>
</linearGradient>
<linearGradient id="paint18_linear_269_1285" x1="35.6414" y1="27.0378" x2="39.2488" y2="32.4871" gradientUnits="userSpaceOnUse">
<stop stop-color="#53D8FF"/>
<stop offset="1" stop-color="#3840F7"/>
</linearGradient>
</defs>
</svg>
