<svg width="53" height="50" viewBox="0 0 53 50" fill="none" xmlns="http://www.w3.org/2000/svg">
<path d="M7.70656 36.9144C11.9563 36.9144 15.4014 33.4801 15.4014 29.2436C15.4014 25.0071 11.9563 21.5727 7.70656 21.5727C3.45682 21.5727 0.0117188 25.0071 0.0117188 29.2436C0.0117188 33.4801 3.45682 36.9144 7.70656 36.9144Z" fill="url(#paint0_linear_269_1249)"/>
<path d="M7.70733 36.6595C11.8158 36.6595 15.1464 33.3393 15.1464 29.2436C15.1464 25.148 11.8158 21.8278 7.70733 21.8278C3.59886 21.8278 0.26828 25.148 0.26828 29.2436C0.26828 33.3393 3.59886 36.6595 7.70733 36.6595Z" fill="url(#paint1_linear_269_1249)"/>
<path d="M1.57229 26.4751C1.525 26.4751 1.47717 26.4644 1.43203 26.4419C1.2778 26.3642 1.216 26.1767 1.29392 26.0235C2.52346 23.5957 4.98093 22.0871 7.70709 22.0871C8.14238 22.0871 8.57819 22.1262 9.00165 22.2033C9.17147 22.2339 9.28432 22.3962 9.25315 22.5655C9.22198 22.7348 9.05969 22.8484 8.88988 22.8157C8.50296 22.7455 8.10476 22.7096 7.70709 22.7096C5.21792 22.7096 2.97433 24.0869 1.85173 26.3032C1.79638 26.4125 1.68621 26.4751 1.57229 26.4751Z" fill="white"/>
<path opacity="0.78" d="M7.86827 35.6816C11.3455 35.6816 14.1643 32.8715 14.1643 29.4052C14.1643 25.9388 11.3455 23.1288 7.86827 23.1288C4.39106 23.1288 1.57224 25.9388 1.57224 29.4052C1.57224 32.8715 4.39106 35.6816 7.86827 35.6816Z" fill="white"/>
<path d="M7.2509 34.0713V33.3883C6.53671 33.3599 5.83059 33.1917 5.32867 32.9731C5.14972 32.8949 5.05836 32.6945 5.10995 32.5065L5.28406 31.8706C5.34801 31.637 5.6022 31.5165 5.82629 31.6103C6.32391 31.8181 6.93814 31.9826 7.60074 31.9826C8.28859 31.9826 8.80126 31.7501 8.80126 31.2738C8.80126 30.8437 8.40467 30.5881 7.4492 30.3326C6.08531 29.9608 5.10619 29.3678 5.10619 28.171C5.10619 27.0905 5.89884 26.2649 7.27455 26.0442V25.3612C7.27455 25.1416 7.45296 24.9632 7.67383 24.9632H8.07633C8.29666 24.9632 8.47561 25.1416 8.47561 25.3612V25.9746C9.13659 26.0008 9.61755 26.1133 9.9991 26.2473C10.1947 26.3158 10.3016 26.5258 10.2474 26.7251L10.0872 27.3133C10.0254 27.5399 9.78253 27.6642 9.56167 27.5812C9.21022 27.4489 8.71313 27.3106 8.06773 27.3106C7.25144 27.3106 7.01875 27.6476 7.01875 27.9498C7.01875 28.3215 7.50831 28.5771 8.56911 28.9028C10.0845 29.356 10.7138 29.9833 10.7138 31.1104C10.7138 32.1449 9.94429 33.0744 8.4525 33.3069V34.0708C8.4525 34.2904 8.27409 34.4688 8.05322 34.4688H7.65072C7.42931 34.4688 7.2509 34.291 7.2509 34.0713Z" fill="url(#paint2_linear_269_1249)"/>
<path d="M21.4744 23.3039C27.3066 23.3039 32.0346 18.5906 32.0346 12.7766C32.0346 6.96254 27.3066 2.24933 21.4744 2.24933C15.6421 2.24933 10.9142 6.96254 10.9142 12.7766C10.9142 18.5906 15.6421 23.3039 21.4744 23.3039Z" fill="url(#paint3_linear_269_1249)"/>
<path d="M21.4745 22.9538C27.1127 22.9538 31.6833 18.3975 31.6833 12.7769C31.6833 7.15637 27.1127 2.60001 21.4745 2.60001C15.8364 2.60001 11.2658 7.15637 11.2658 12.7769C11.2658 18.3975 15.8364 22.9538 21.4745 22.9538Z" fill="url(#paint4_linear_269_1249)"/>
<path d="M13.0562 8.79488C13.0191 8.79488 12.981 8.78631 12.9455 8.76863C12.8241 8.70756 12.7752 8.5597 12.8364 8.43917C14.4921 5.16865 17.8024 3.13724 21.4744 3.13724C22.0607 3.13724 22.6475 3.18974 23.2187 3.29367C23.3525 3.31777 23.4412 3.44581 23.417 3.5792C23.3928 3.71259 23.2649 3.80366 23.1306 3.77634C22.5884 3.67777 22.0311 3.62795 21.4744 3.62795C17.9889 3.62795 14.8479 5.55597 13.276 8.65988C13.233 8.74559 13.146 8.79488 13.0562 8.79488Z" fill="white"/>
<path opacity="0.78" d="M27.8058 19.0891C31.1801 15.7252 31.1802 10.2714 27.8058 6.90758C24.4315 3.54375 18.9606 3.54375 15.5862 6.90758C12.2119 10.2714 12.2119 15.7252 15.5862 19.0891C18.9606 22.4529 24.4315 22.4529 27.8058 19.0891Z" fill="white"/>
<path d="M20.8489 19.4018V18.4648C19.8688 18.4257 18.8998 18.1953 18.2114 17.8948C17.9659 17.7877 17.8401 17.5123 17.9111 17.2546L18.1497 16.382C18.2372 16.0616 18.5865 15.8961 18.8939 16.0246C19.577 16.3102 20.4201 16.5357 21.3294 16.5357C22.273 16.5357 22.977 16.217 22.977 15.5629C22.977 14.973 22.4332 14.6222 21.1214 14.2713C19.2497 13.7607 17.9057 12.9475 17.9057 11.305C17.9057 9.82164 18.9933 8.68968 20.8812 8.38647V7.44951C20.8812 7.14791 21.1262 6.90363 21.4288 6.90363H21.9812C22.2838 6.90363 22.5288 7.14791 22.5288 7.44951V8.29111C23.4354 8.32754 24.0958 8.48183 24.6198 8.66558C24.8879 8.75933 25.0347 9.04754 24.9605 9.32129L24.7407 10.1286C24.6558 10.4399 24.3221 10.6102 24.0195 10.4961C23.5375 10.3145 22.8556 10.1249 21.9689 10.1249C20.8489 10.1249 20.5292 10.5872 20.5292 11.0018C20.5292 11.5124 21.2009 11.8632 22.6567 12.3095C24.7364 12.9314 25.6005 13.7929 25.6005 15.3395C25.6005 16.7591 24.5446 18.0346 22.4971 18.3539V19.4028C22.4971 19.7044 22.2521 19.9487 21.9495 19.9487H21.3971C21.094 19.9482 20.8489 19.7034 20.8489 19.4018Z" fill="url(#paint5_linear_269_1249)"/>
<path d="M28.757 47.1216C34.7581 47.1216 39.623 42.2719 39.623 36.2895C39.623 30.3071 34.7581 25.4574 28.757 25.4574C22.7559 25.4574 17.8911 30.3071 17.8911 36.2895C17.8911 42.2719 22.7559 47.1216 28.757 47.1216Z" fill="url(#paint6_linear_269_1249)"/>
<path d="M28.7571 46.7617C34.5588 46.7617 39.2619 42.0732 39.2619 36.2896C39.2619 30.506 34.5588 25.8175 28.7571 25.8175C22.9554 25.8175 18.2523 30.506 18.2523 36.2896C18.2523 42.0732 22.9554 46.7617 28.7571 46.7617Z" fill="url(#paint7_linear_269_1249)"/>
<path d="M20.0949 32.1849C20.0579 32.1849 20.0197 32.1763 19.9842 32.1587C19.8628 32.0976 19.8139 31.9497 19.8751 31.8287C21.5776 28.466 24.9809 26.3767 28.7571 26.3767C29.3584 26.3767 29.9619 26.4308 30.5504 26.5375C30.6842 26.5616 30.7728 26.6896 30.7487 26.823C30.7245 26.9564 30.596 27.0469 30.4622 27.0207C29.9028 26.9194 29.3289 26.868 28.7566 26.868C25.1673 26.868 21.9328 28.8539 20.3142 32.0499C20.2717 32.1356 20.1847 32.1849 20.0949 32.1849Z" fill="white"/>
<path opacity="0.78" d="M35.2718 42.7848C38.7439 39.3235 38.7439 33.7116 35.2718 30.2503C31.7996 26.7889 26.1702 26.7889 22.698 30.2503C19.2259 33.7116 19.2259 39.3235 22.698 42.7848C26.1702 46.2462 31.7996 46.2462 35.2718 42.7848Z" fill="white"/>
<path d="M28.1138 43.1068V42.1425C27.1056 42.1023 26.1082 41.865 25.3994 41.5559C25.1463 41.4456 25.0173 41.1627 25.0904 40.897L25.336 39.9986C25.4263 39.6691 25.7858 39.4988 26.1018 39.6306C26.8047 39.9241 27.672 40.1566 28.6076 40.1566C29.5787 40.1566 30.3031 39.8282 30.3031 39.1554C30.3031 38.5484 29.7437 38.1874 28.3938 37.8263C26.4677 37.3013 25.085 36.464 25.085 34.7738C25.085 33.2476 26.2044 32.0824 28.1471 31.7706V30.8063C28.1471 30.4961 28.3997 30.2444 28.7108 30.2444H29.2794C29.5905 30.2444 29.8431 30.4961 29.8431 30.8063V31.672C30.776 31.709 31.4553 31.8681 31.9943 32.0572C32.2705 32.1542 32.4215 32.4504 32.3446 32.7322L32.1184 33.5631C32.0313 33.8834 31.688 34.0586 31.3763 33.9413C30.8797 33.7543 30.1784 33.5593 29.2665 33.5593C28.1143 33.5593 27.7849 34.035 27.7849 34.462C27.7849 34.987 28.4765 35.3481 29.9742 35.8077C32.1141 36.4479 33.0029 37.334 33.0029 38.9256C33.0029 40.3859 31.9163 41.6989 29.8092 42.0273V43.1063C29.8092 43.4164 29.5567 43.6682 29.2455 43.6682H28.677C28.3658 43.6688 28.1138 43.417 28.1138 43.1068Z" fill="url(#paint8_linear_269_1249)"/>
<path d="M42.6969 29.4706C47.0939 29.4706 50.6583 25.9173 50.6583 21.534C50.6583 17.1508 47.0939 13.5974 42.6969 13.5974C38.3 13.5974 34.7355 17.1508 34.7355 21.534C34.7355 25.9173 38.3 29.4706 42.6969 29.4706Z" fill="url(#paint9_linear_269_1249)"/>
<path d="M42.6969 29.2071C46.9478 29.2071 50.3939 25.7718 50.3939 21.5341C50.3939 17.2964 46.9478 13.8611 42.6969 13.8611C38.4459 13.8611 34.9999 17.2964 34.9999 21.5341C34.9999 25.7718 38.4459 29.2071 42.6969 29.2071Z" fill="url(#paint10_linear_269_1249)"/>
<path d="M36.3504 18.5925C36.3133 18.5925 36.2751 18.5839 36.2397 18.5663C36.1182 18.5052 36.0693 18.3573 36.1306 18.2363C37.3897 15.75 39.9057 14.2056 42.6969 14.2056C43.1419 14.2056 43.5879 14.2457 44.0227 14.3245C44.1565 14.3486 44.2451 14.4766 44.2209 14.61C44.1968 14.7434 44.0683 14.8329 43.9345 14.8072C43.5288 14.7338 43.1123 14.6963 42.6969 14.6963C40.0922 14.6963 37.7449 16.1373 36.5702 18.457C36.5272 18.5432 36.4401 18.5925 36.3504 18.5925Z" fill="white"/>
<path opacity="0.78" d="M47.4697 26.2934C50.0137 23.7574 50.0137 19.6457 47.4697 17.1097C44.9258 14.5737 40.8013 14.5737 38.2573 17.1097C35.7134 19.6457 35.7134 23.7574 38.2573 26.2934C40.8013 28.8294 44.9258 28.8294 47.4697 26.2934Z" fill="white"/>
<path d="M42.2257 26.529V25.8224C41.4868 25.793 40.7559 25.6189 40.2368 25.3928C40.0514 25.3119 39.9568 25.1046 40.01 24.9101L40.19 24.2523C40.2561 24.0106 40.5195 23.8858 40.7511 23.9828C41.2659 24.1981 41.9016 24.368 42.5873 24.368C43.2988 24.368 43.8298 24.1274 43.8298 23.6346C43.8298 23.1899 43.4197 22.9253 42.4304 22.6607C41.0192 22.276 40.0063 21.6626 40.0063 20.4241C40.0063 19.306 40.8263 18.4521 42.2499 18.2239V17.5173C42.2499 17.2902 42.4347 17.1059 42.6626 17.1059H43.079C43.3069 17.1059 43.4918 17.2902 43.4918 17.5173V18.1516C44.1753 18.1789 44.6729 18.2951 45.0679 18.4339C45.2705 18.5046 45.3807 18.7221 45.3248 18.9284L45.1593 19.5369C45.0953 19.7716 44.8438 19.9001 44.6154 19.8144C44.2516 19.6773 43.7379 19.5348 43.0694 19.5348C42.2251 19.5348 41.9838 19.8835 41.9838 20.1959C41.9838 20.5805 42.4906 20.8451 43.5879 21.1816C45.156 21.6503 45.8074 22.2996 45.8074 23.4658C45.8074 24.5362 45.0115 25.4978 43.4676 25.7383V26.529C43.4676 26.7562 43.2827 26.9405 43.0549 26.9405H42.6384C42.4105 26.941 42.2257 26.7567 42.2257 26.529Z" fill="url(#paint11_linear_269_1249)"/>
<defs>
<linearGradient id="paint0_linear_269_1249" x1="-2.82302" y1="41.4273" x2="7.46096" y2="29.4532" gradientUnits="userSpaceOnUse">
<stop stop-color="#FDF53F"/>
<stop offset="1" stop-color="#D93C65"/>
</linearGradient>
<linearGradient id="paint1_linear_269_1249" x1="13.3307" y1="20.7747" x2="-17.0562" y2="66.8243" gradientUnits="userSpaceOnUse">
<stop stop-color="#FDF53F"/>
<stop offset="1" stop-color="#D93C65"/>
</linearGradient>
<linearGradient id="paint2_linear_269_1249" x1="12.4196" y1="22.0916" x2="-3.75648" y2="49.3335" gradientUnits="userSpaceOnUse">
<stop stop-color="#FDF53F"/>
<stop offset="1" stop-color="#D93C65"/>
</linearGradient>
<linearGradient id="paint3_linear_269_1249" x1="7.0238" y1="29.4973" x2="21.1374" y2="13.0642" gradientUnits="userSpaceOnUse">
<stop stop-color="#FDF53F"/>
<stop offset="1" stop-color="#D93C65"/>
</linearGradient>
<linearGradient id="paint4_linear_269_1249" x1="29.1922" y1="1.1542" x2="-12.5106" y2="64.3523" gradientUnits="userSpaceOnUse">
<stop stop-color="#FDF53F"/>
<stop offset="1" stop-color="#D93C65"/>
</linearGradient>
<linearGradient id="paint5_linear_269_1249" x1="27.9426" y1="2.9613" x2="5.74271" y2="40.3479" gradientUnits="userSpaceOnUse">
<stop stop-color="#FDF53F"/>
<stop offset="1" stop-color="#D93C65"/>
</linearGradient>
<linearGradient id="paint6_linear_269_1249" x1="13.8878" y1="53.495" x2="28.4106" y2="36.5855" gradientUnits="userSpaceOnUse">
<stop stop-color="#FDF53F"/>
<stop offset="1" stop-color="#D93C65"/>
</linearGradient>
<linearGradient id="paint7_linear_269_1249" x1="36.6987" y1="24.33" x2="-6.21309" y2="89.36" gradientUnits="userSpaceOnUse">
<stop stop-color="#FDF53F"/>
<stop offset="1" stop-color="#D93C65"/>
</linearGradient>
<linearGradient id="paint8_linear_269_1249" x1="35.413" y1="26.1895" x2="12.5696" y2="64.66" gradientUnits="userSpaceOnUse">
<stop stop-color="#FDF53F"/>
<stop offset="1" stop-color="#D93C65"/>
</linearGradient>
<linearGradient id="paint9_linear_269_1249" x1="31.8024" y1="34.1403" x2="42.4432" y2="21.7508" gradientUnits="userSpaceOnUse">
<stop stop-color="#FDF53F"/>
<stop offset="1" stop-color="#D93C65"/>
</linearGradient>
<linearGradient id="paint10_linear_269_1249" x1="48.5157" y1="12.7713" x2="17.0746" y2="60.4183" gradientUnits="userSpaceOnUse">
<stop stop-color="#FDF53F"/>
<stop offset="1" stop-color="#D93C65"/>
</linearGradient>
<linearGradient id="paint11_linear_269_1249" x1="47.5738" y1="14.134" x2="30.8366" y2="42.3209" gradientUnits="userSpaceOnUse">
<stop stop-color="#FDF53F"/>
<stop offset="1" stop-color="#D93C65"/>
</linearGradient>
</defs>
</svg>
