<svg width="151" height="150" viewBox="0 0 151 150" fill="none" xmlns="http://www.w3.org/2000/svg">
<path d="M148.779 64.0694C144.686 37.3084 127.906 4.43065 94.7545 0.989769C94.7545 0.989769 69.5843 -2.06861 44.7718 2.56691C30.0455 5.31779 17.133 13.5072 8.96229 25.2768C0.791544 37.047 -1.93758 51.3987 1.37448 65.0813C3.52603 73.9683 4.97934 83.1659 4.58035 92.2982C3.88587 108.191 4.2854 123.027 19.7259 132.505C33.5126 140.968 50.8628 148.432 67.4156 149.739C78.6646 150.628 91.2794 149.19 102.121 146.265C157.374 131.354 152.872 90.8303 148.779 64.0694Z" fill="#F4F7FA"/>
<path d="M145.473 47.6033H104.008V51.1165H145.473V47.6033Z" fill="#BFC8D6"/>
<path d="M126.221 47.6033H122.889V123.79H126.221V47.6033Z" fill="#BFC8D6"/>
<path d="M107.895 47.6198C107.895 48.0189 107.571 48.3419 107.172 48.3419H105.101C104.702 48.3419 104.378 48.0183 104.378 47.6198V47.5849C104.378 47.1858 104.702 46.8628 105.101 46.8628H107.172C107.572 46.8628 107.895 47.1864 107.895 47.5849V47.6198Z" fill="#BFC8D6"/>
<path d="M107.895 46.3258C107.895 46.7249 107.571 47.0479 107.172 47.0479H105.101C104.702 47.0479 104.378 46.7244 104.378 46.3258V46.291C104.378 45.8919 104.702 45.5688 105.101 45.5688H107.172C107.572 45.5688 107.895 45.8924 107.895 46.291V46.3258Z" fill="#BFC8D6"/>
<path d="M144.548 47.6198C144.548 48.0189 144.224 48.3419 143.825 48.3419H141.754C141.355 48.3419 141.031 48.0183 141.031 47.6198V47.5849C141.031 47.1858 141.355 46.8628 141.754 46.8628H143.825C144.225 46.8628 144.548 47.1864 144.548 47.5849V47.6198Z" fill="#BFC8D6"/>
<path d="M144.548 46.3258C144.548 46.7249 144.224 47.0479 143.825 47.0479H141.754C141.355 47.0479 141.031 46.7244 141.031 46.3258V46.291C141.031 45.8919 141.355 45.5688 141.754 45.5688H143.825C144.225 45.5688 144.548 45.8924 144.548 46.291V46.3258Z" fill="#BFC8D6"/>
<path d="M145.473 59.8072H104.008V62.766H145.473V59.8072Z" fill="#BFC8D6"/>
<path d="M107.895 59.4547C107.895 59.8538 107.571 60.1769 107.172 60.1769H105.101C104.702 60.1769 104.378 59.8533 104.378 59.4547V59.4199C104.378 59.0208 104.702 58.6978 105.101 58.6978H107.172C107.572 58.6978 107.895 59.0213 107.895 59.4199V59.4547Z" fill="#BFC8D6"/>
<path d="M107.895 57.976C107.895 58.3751 107.571 58.6981 107.172 58.6981H105.101C104.702 58.6981 104.378 58.3745 104.378 57.976V57.9411C104.378 57.542 104.702 57.219 105.101 57.219H107.172C107.572 57.219 107.895 57.5426 107.895 57.9411V57.976Z" fill="#BFC8D6"/>
<path d="M144.548 59.4547C144.548 59.8538 144.224 60.1769 143.825 60.1769H141.754C141.355 60.1769 141.031 59.8533 141.031 59.4547V59.4199C141.031 59.0208 141.355 58.6978 141.754 58.6978H143.825C144.225 58.6978 144.548 59.0213 144.548 59.4199V59.4547Z" fill="#BFC8D6"/>
<path d="M144.548 57.976C144.548 58.3751 144.224 58.6981 143.825 58.6981H141.754C141.355 58.6981 141.031 58.3745 141.031 57.976V57.9411C141.031 57.542 141.355 57.219 141.754 57.219H143.825C144.225 57.219 144.548 57.5426 144.548 57.9411V57.976Z" fill="#BFC8D6"/>
<path d="M94.0117 24.6725H52.3606V28.0009H94.0117V24.6725Z" fill="#BFC8D6"/>
<path d="M74.7594 24.6725H71.4275V100.859H74.7594V24.6725Z" fill="#BFC8D6"/>
<path d="M56.2482 24.6895C56.2482 25.0885 55.9243 25.4116 55.5253 25.4116H53.4542C53.0547 25.4116 52.7313 25.088 52.7313 24.6895V24.6546C52.7313 24.2555 53.0552 23.9325 53.4542 23.9325H55.5253C55.9248 23.9325 56.2482 24.2561 56.2482 24.6546V24.6895Z" fill="#BFC8D6"/>
<path d="M56.2482 23.3953C56.2482 23.7944 55.9243 24.1174 55.5253 24.1174H53.4542C53.0547 24.1174 52.7313 23.7938 52.7313 23.3953V23.3604C52.7313 22.9613 53.0552 22.6383 53.4542 22.6383H55.5253C55.9248 22.6383 56.2482 22.9619 56.2482 23.3604V23.3953Z" fill="#BFC8D6"/>
<path d="M93.0864 24.6895C93.0864 25.0885 92.7625 25.4116 92.3635 25.4116H90.2924C89.8928 25.4116 89.5695 25.088 89.5695 24.6895V24.6546C89.5695 24.2555 89.8934 23.9325 90.2924 23.9325H92.3635C92.763 23.9325 93.0864 24.2561 93.0864 24.6546V24.6895Z" fill="#BFC8D6"/>
<path d="M93.0864 23.3953C93.0864 23.7944 92.7625 24.1174 92.3635 24.1174H90.2924C89.8928 24.1174 89.5695 23.7938 89.5695 23.3953V23.3604C89.5695 22.9613 89.8934 22.6383 90.2924 22.6383H92.3635C92.763 22.6383 93.0864 22.9619 93.0864 23.3604V23.3953Z" fill="#BFC8D6"/>
<path d="M94.0117 36.5072H52.3606V39.8356H94.0117V36.5072Z" fill="#BFC8D6"/>
<path d="M56.2481 36.3394C56.2481 36.7385 55.9242 37.0615 55.5252 37.0615H53.4541C53.0546 37.0615 52.7312 36.7379 52.7312 36.3394V36.3045C52.7312 35.9054 53.0551 35.5824 53.4541 35.5824H55.5252C55.9247 35.5824 56.2481 35.906 56.2481 36.3045V36.3394Z" fill="#BFC8D6"/>
<path d="M56.2481 35.0452C56.2481 35.4443 55.9242 35.7674 55.5252 35.7674H53.4541C53.0546 35.7674 52.7312 35.4438 52.7312 35.0452V35.0104C52.7312 34.6113 53.0551 34.2883 53.4541 34.2883H55.5252C55.9247 34.2883 56.2481 34.6118 56.2481 35.0104V35.0452Z" fill="#BFC8D6"/>
<path d="M93.0863 36.3394C93.0863 36.7385 92.7624 37.0615 92.3634 37.0615H90.2923C89.8927 37.0615 89.5694 36.7379 89.5694 36.3394V36.3045C89.5694 35.9054 89.8933 35.5824 90.2923 35.5824H92.3634C92.7629 35.5824 93.0863 35.906 93.0863 36.3045V36.3394Z" fill="#BFC8D6"/>
<path d="M93.0863 35.0452C93.0863 35.4443 92.7624 35.7674 92.3634 35.7674H90.2923C89.8927 35.7674 89.5694 35.4438 89.5694 35.0452V35.0104C89.5694 34.6113 89.8933 34.2883 90.2923 34.2883H92.3634C92.7629 34.2883 93.0863 34.6118 93.0863 35.0104V35.0452Z" fill="#BFC8D6"/>
<path d="M96.9785 61.406C92.7977 61.406 88.6581 60.8113 84.5964 59.6237C78.9698 57.978 73.4831 55.1971 68.2887 51.3576C59.4509 44.8252 54.4522 37.3804 54.4023 37.3059L54.8818 36.9882C54.9306 37.0621 59.8842 44.4346 68.6464 50.9071C76.7163 56.868 89.765 63.2644 106.105 59.8846L106.221 60.4471C103.13 61.0862 100.043 61.406 96.9785 61.406Z" fill="#BFC8D6"/>
<path d="M135.241 60.7307C126.692 60.7307 119.28 59.8741 113.127 58.1695C106.577 56.355 101.429 53.5811 97.8277 49.9254C91.7795 43.7856 92.1983 37.3935 92.2187 37.1246L92.7925 37.1685C92.7877 37.2322 92.3823 43.589 98.2524 49.537C101.785 53.1161 106.847 55.8359 113.298 57.6204C121.411 59.8645 131.743 60.6247 144.009 59.8784L144.044 60.4522C140.99 60.638 138.054 60.7307 135.241 60.7307Z" fill="#BFC8D6"/>
<path d="M105.685 48.7428C98.1042 48.7428 90.799 47.5921 83.947 45.3163C78.0774 43.3669 72.5253 40.5924 67.4462 37.0701C58.7939 31.0701 54.449 24.8853 54.4061 24.8232L54.8791 24.4959C54.9215 24.557 59.2203 30.671 67.7954 36.6126C75.7038 42.0924 88.9799 48.5424 107.283 48.1513L107.295 48.7256C106.756 48.7374 106.22 48.7428 105.685 48.7428Z" fill="#BFC8D6"/>
<path d="M144.013 48.7257C134.45 48.2784 125.782 46.7864 118.248 44.29C112.213 42.2908 106.887 39.6459 102.419 36.4295C94.7912 30.9379 92.3447 25.7581 92.2439 25.5401L92.7662 25.2996C92.7904 25.3521 95.2701 30.586 102.793 35.9908C109.743 40.9841 122.541 47.147 144.039 48.152L144.013 48.7257Z" fill="#BFC8D6"/>
<path opacity="0.75" d="M46.7034 31.5178C46.7034 21.981 38.5756 14.2502 28.5499 14.2502C18.5236 14.2502 10.3963 21.981 10.3963 31.5178C10.3963 37.3051 13.3898 42.4276 17.9846 45.5604C19.934 46.8895 21.116 49.0806 21.116 51.4377V52.7593C21.116 55.6302 23.4461 57.9579 26.32 57.9579H30.7803C33.6542 57.9579 35.9843 55.6302 35.9843 52.7593V51.4377C35.9843 49.08 37.1663 46.8895 39.1156 45.5604C43.7099 42.4276 46.7034 37.3056 46.7034 31.5178Z" fill="#F4F7FA"/>
<path d="M32.577 65.6571C32.577 66.8335 30.774 67.7871 28.5501 67.7871C26.3262 67.7871 24.5232 66.8335 24.5232 65.6571C24.5232 64.4807 26.3262 63.5276 28.5501 63.5276C30.774 63.5276 32.577 64.4807 32.577 65.6571Z" fill="url(#paint0_linear_269_1851)"/>
<path d="M23.1995 61.8526V64.0276C23.1995 64.7637 23.6188 65.4376 24.2838 65.7542C25.2068 66.194 26.7416 66.6767 28.972 66.6194C30.7814 66.5733 31.9612 66.2781 32.7114 65.968C33.436 65.6685 33.9004 64.9528 33.9004 64.169V62.9658L23.1995 61.8526Z" fill="url(#paint1_linear_269_1851)"/>
<path opacity="0.3" d="M23.1995 63.7576C23.3625 63.9162 23.5513 64.0501 23.7636 64.1514C24.7992 64.6448 31.582 65.7467 33.2182 65.1328C33.4306 65.053 33.622 64.9464 33.7894 64.8178C33.8607 64.6126 33.9004 64.3935 33.9004 64.169V62.9658L23.1995 61.8526V63.7576Z" fill="url(#paint2_linear_269_1851)"/>
<path d="M23.6746 60.373C23.0718 60.3103 22.5474 60.7822 22.5474 61.3876V61.4492C22.5474 62.2748 23.0177 63.0312 23.7636 63.3864C24.7992 63.8798 31.5821 64.9817 33.2183 64.3678C34.042 64.0587 34.5526 63.3521 34.5526 62.4735V62.4237C34.5526 61.9008 34.1573 61.4631 33.6371 61.409L23.6746 60.373Z" fill="url(#paint3_linear_269_1851)"/>
<path opacity="0.3" d="M33.6366 61.409L23.6741 60.3729C23.281 60.3322 22.9222 60.5192 22.7195 60.8218C22.9195 61.2927 23.2842 61.687 23.7631 61.9152C24.7986 62.4086 31.8706 63.6547 33.2177 63.0204C33.7422 62.7735 34.1535 62.3567 34.3739 61.8499C34.2104 61.6093 33.946 61.4411 33.6366 61.409Z" fill="url(#paint4_linear_269_1851)"/>
<path d="M23.2847 56.849C22.8777 56.849 22.5474 57.179 22.5474 57.5856V59.2891C22.5474 60.1146 23.0177 60.8711 23.7636 61.2262C24.7992 61.7196 31.8711 62.9657 33.2183 62.3314C34.0141 61.957 34.5526 61.192 34.5526 60.3134V57.5856C34.5526 57.179 34.2222 56.849 33.8152 56.849H23.2847Z" fill="url(#paint5_linear_269_1851)"/>
<path d="M34.4038 57.3796C34.4038 58.143 31.783 58.7622 28.5498 58.7622C25.3166 58.7622 22.6958 58.1435 22.6958 57.3796C22.6958 56.6162 25.3166 55.9969 28.5498 55.9969C31.783 55.9969 34.4038 56.6162 34.4038 57.3796Z" fill="url(#paint6_linear_269_1851)"/>
<path d="M46.7034 31.5178C46.7034 21.981 38.5756 14.2502 28.5499 14.2502C18.5236 14.2502 10.3963 21.981 10.3963 31.5178C10.3963 37.3051 13.3898 42.4276 17.9846 45.5604C19.934 46.8895 21.116 49.0806 21.116 51.4377V52.7593C21.116 55.6302 23.4461 57.9579 26.32 57.9579H30.7803C33.6542 57.9579 35.9843 55.6302 35.9843 52.7593V51.4377C35.9843 49.08 37.1663 46.8895 39.1156 45.5604C43.7099 42.4276 46.7034 37.3056 46.7034 31.5178Z" fill="url(#paint7_linear_269_1851)"/>
<path opacity="0.5" d="M28.5499 57.3006C30.9154 57.3006 32.8331 56.8478 32.8331 56.2892C32.8331 55.7306 30.9154 55.2778 28.5499 55.2778C26.1843 55.2778 24.2666 55.7306 24.2666 56.2892C24.2666 56.8478 26.1843 57.3006 28.5499 57.3006Z" fill="#F4F7FA"/>
<path opacity="0.3" d="M28.8792 45.1377C29.268 38.4825 40.4998 36.9247 40.4516 30.9809C40.4221 27.3204 35.9586 24.6017 35.0056 24.0574C27.983 20.0449 19.3393 24.6783 17.554 21.3992C17.1094 20.5828 17.3181 19.694 17.4366 19.1878C17.6162 18.4228 18.0222 17.7103 18.6244 17.0588C13.6697 20.1419 10.3958 25.4658 10.3958 31.5183C10.3958 37.3056 13.3893 42.4281 17.9841 45.5609C19.9335 46.89 21.1154 49.0811 21.1154 51.4382V52.7598C21.1154 55.6307 23.4456 57.9584 26.3195 57.9584H30.7797C33.6537 57.9584 35.9838 55.6307 35.9838 52.7598V51.7034C35.3698 52.1732 34.6651 52.5011 33.8918 52.4947C31.2093 52.4722 28.6856 48.45 28.8792 45.1377Z" fill="url(#paint8_linear_269_1851)"/>
<path opacity="0.44" d="M28.8401 47.2408C37.4677 47.2408 44.4619 40.503 44.4619 32.1915C44.4619 23.8801 37.4677 17.1423 28.8401 17.1423C20.2124 17.1423 13.2183 23.8801 13.2183 32.1915C13.2183 40.503 20.2124 47.2408 28.8401 47.2408Z" fill="#F4F7FA"/>
<path d="M34.4668 20.5209L22.3088 33.8923L27.3064 33.8612L23.2548 43.9197L35.3898 30.4766L30.8796 30.4889L34.4668 20.5209Z" fill="white"/>
<path d="M9.11468 137.473C7.38787 137.473 5.77903 136.6 4.91562 135.107C4.05221 133.613 4.05221 131.785 4.91562 130.291L37.5305 73.874C38.3939 72.3804 40.0027 71.459 41.7295 71.459C43.4564 71.459 45.0652 72.3906 45.9286 73.8842L78.5435 130.317C79.4069 131.811 79.4069 133.612 78.5435 135.106C77.6806 136.599 76.0712 137.473 74.3449 137.473H9.11468V137.473Z" fill="url(#paint9_linear_269_1851)"/>
<path d="M76.7229 134.091C76.2327 134.939 75.3253 135.44 74.345 135.44H9.11475C8.1339 135.44 7.22866 134.939 6.73797 134.091C6.2462 133.243 6.2462 132.207 6.73797 131.359L39.3518 74.9336C39.754 74.2388 40.4334 73.7652 41.2041 73.6152C41.3751 73.581 41.551 73.5654 41.7296 73.5654C42.7105 73.5654 43.6173 74.0888 44.1075 74.9384L76.7223 131.358C77.213 132.207 77.213 133.242 76.7229 134.091Z" fill="url(#paint10_linear_269_1851)"/>
<path d="M47.9903 89.394H40.0952L30.0073 111.701L42.0687 108.615L37.2444 120.106L34.2836 117.692L34.7223 129.342L44.5908 121.385H39.766L50.4025 102.777L40.2046 105.286L47.9903 89.394Z" fill="url(#paint11_linear_269_1851)"/>
<path opacity="0.3" d="M40.205 128.93C33.2248 131.824 28.5259 133.59 25.5919 135.44H9.11476C8.1339 135.44 7.22866 134.939 6.73797 134.091C6.2462 133.243 6.2462 132.207 6.73797 131.359L39.3518 74.9338C39.754 74.239 40.4335 73.7654 41.2041 73.6154C38.3436 79.2511 34.4057 90.8899 44.1724 100.258C57.5783 113.118 55.955 122.4 40.205 128.93Z" fill="url(#paint12_linear_269_1851)"/>
<path d="M118.483 79.1013L141.715 81.2769C143.776 81.6958 147.204 86.3629 146.645 88.0017L136.918 116.497L124.678 141.01C123.913 142.542 121.917 143.217 120.053 142.582L101.225 136.169C99.5242 135.589 95.2045 132.186 95.5611 130.616L104.503 107.617L114.166 81.1815C114.722 79.6595 116.649 78.7279 118.483 79.1013Z" fill="url(#paint13_linear_269_1851)"/>
<path d="M115.165 76.0244L140.595 81.1983C142.655 81.6172 143.886 83.2855 143.326 84.9242L133.599 113.42L121.359 137.932C120.594 139.464 118.598 140.14 116.734 139.505L97.9066 133.091C96.2055 132.512 95.1995 130.888 95.5566 129.318L101.184 104.539L110.848 78.104C111.404 76.5821 113.331 75.651 115.165 76.0244Z" fill="url(#paint14_linear_269_1851)"/>
<path d="M117.009 138.711C118.404 139.184 119.893 138.678 120.465 137.533L132.668 113.116L142.379 84.7251C142.797 83.5026 141.879 82.2518 140.341 81.9362L114.912 76.7211C113.54 76.4398 112.091 77.1384 111.675 78.2784L102.024 104.725L96.4159 129.51C96.1493 130.688 96.9044 131.902 98.1802 132.334L117.009 138.711Z" fill="url(#paint15_linear_269_1851)"/>
<path d="M107.872 98.3379L131.391 104.998L138.014 85.8472L114.546 80.2335L107.872 98.3379Z" fill="url(#paint16_linear_269_1851)"/>
<path d="M108.381 98.1275L131.077 104.537L137.47 86.0729L114.821 80.6382L108.381 98.1275Z" fill="url(#paint17_linear_269_1851)"/>
<g opacity="0.3">
<path opacity="0.3" d="M131.391 104.998L114.834 100.309C120.259 98.9744 122.9 97.0384 123.712 94.8329C124.932 91.5195 121.555 88.9112 123.176 86.1057C123.879 84.8875 125.324 83.9693 127.342 83.2943L138.013 85.8469L131.391 104.998Z" fill="white"/>
</g>
<path d="M103.426 112.036C101.408 117.674 104.369 123.712 110.155 125.529C116.065 127.383 122.606 124.131 124.641 118.258C126.665 112.418 123.401 106.371 117.474 104.752C111.67 103.167 105.432 106.429 103.426 112.036Z" fill="url(#paint18_linear_269_1851)"/>
<path d="M104.485 112.347C102.676 117.411 105.343 122.825 110.538 124.444C115.83 126.094 121.68 123.177 123.503 117.925C125.317 112.699 122.406 107.278 117.1 105.818C111.891 104.384 106.285 107.308 104.485 112.347Z" fill="url(#paint19_linear_269_1851)"/>
<path d="M115.485 109.401C115.485 108.667 114.889 108.072 114.154 108.072H112.558C111.823 108.072 111.227 108.667 111.227 109.401V119.501C111.227 120.235 111.823 120.831 112.558 120.831H114.154C114.889 120.831 115.485 120.235 115.485 119.501V109.401Z" fill="url(#paint20_linear_269_1851)"/>
<path d="M106.485 131.555C107.251 131.555 107.872 130.935 107.872 130.169C107.872 129.404 107.251 128.783 106.485 128.783C105.719 128.783 105.097 129.404 105.097 130.169C105.097 130.935 105.719 131.555 106.485 131.555Z" fill="white"/>
<path d="M102.161 130.337C102.927 130.337 103.548 129.717 103.548 128.951C103.548 128.186 102.927 127.566 102.161 127.566C101.394 127.566 100.773 128.186 100.773 128.951C100.773 129.717 101.394 130.337 102.161 130.337Z" fill="white"/>
<path d="M41.3337 139.915C38.4823 132.498 42.5066 120.342 45.0421 114.833C52.4309 98.7752 66.0063 98.2325 77.1367 97.7873C88.0699 97.3502 98.6238 96.9281 106.348 109.245C111.394 117.292 116.034 132.053 112.939 139.915C109.685 148.184 100.648 141.776 79.1564 141.663C55.5177 141.538 44.8941 149.177 41.3337 139.915Z" fill="url(#paint21_linear_269_1851)"/>
<path d="M87.4565 99.4766C87.4565 101.498 82.5147 103.925 76.4188 103.925C70.3229 103.925 65.3811 101.499 65.3811 99.4766C65.3811 97.4548 70.3229 98.3586 76.4188 98.3586C82.5152 98.3586 87.4565 97.4548 87.4565 99.4766Z" fill="url(#paint22_linear_269_1851)"/>
<path d="M72.3603 85.3734C70.6822 85.3734 74.5558 97.1532 68.4546 98.7705C67.8647 98.9269 67.7676 99.7192 68.3044 100.01C69.9422 100.896 73.0097 102.019 78.041 102.019C81.3096 102.019 83.7003 100.786 84.9418 99.9539C85.3665 99.6694 85.3242 99.0351 84.8694 98.801C82.9882 97.833 80.3776 94.7526 81.1562 85.6745L72.3603 85.3734Z" fill="url(#paint23_linear_269_1851)"/>
<path d="M67.2617 71.2503C67.2869 71.3981 67.7942 82.1504 70.2547 87.5204C70.961 89.0617 74.4634 88.8768 76.7303 88.6915C78.6989 88.5302 81.7858 89.2481 82.6551 87.89C86.15 82.4306 85.5574 68.9081 85.5574 68.9081C85.5574 68.9081 83.7668 64.4092 76.4246 64.5324C69.0824 64.6556 67.2617 71.2503 67.2617 71.2503Z" fill="url(#paint24_linear_269_1851)"/>
<path d="M68.98 77.0249C68.98 77.0249 67.4441 75.242 65.9967 75.0042C64.5493 74.7663 63.6066 78.511 65.5811 80.9479C67.5551 83.3848 69.8375 81.3641 69.8375 81.3641L68.98 77.0249Z" fill="url(#paint25_linear_269_1851)"/>
<path d="M83.9471 77.0249C83.9471 77.0249 85.483 75.242 86.9304 75.0042C88.3778 74.7663 89.3206 78.511 87.346 80.9479C85.372 83.3848 83.0896 81.3641 83.0896 81.3641L83.9471 77.0249Z" fill="url(#paint26_linear_269_1851)"/>
<path d="M67.7774 76.8905C67.971 77.2452 68.1925 77.5746 68.3421 77.5361C68.9626 77.3743 66.5686 71.332 68.7738 69.2165C69.9139 68.1225 71.1983 69.1195 75.8688 68.9084C80.5719 68.6957 81.7753 67.5718 83.197 68.4327C84.4921 69.217 85.6516 71.4568 84.6911 78.0911C84.9581 78.0295 85.2257 77.9679 85.4928 77.9062C85.1324 75.7334 85.5255 74.3625 85.9749 73.4984C86.3026 72.8679 86.8962 72.0552 86.8496 70.8809C86.8212 70.1529 86.5793 70.1207 86.5396 69.5245C86.4233 67.777 88.4187 67.3072 88.5153 65.5806C88.5893 64.2515 87.4417 63.9499 87.6513 62.5608C87.8299 61.3795 88.726 61.1588 88.5839 60.3054C88.4311 59.3845 87.2304 58.6993 86.3879 58.4604C85.5287 58.2167 85.2177 58.4872 84.7141 58.1401C83.9001 57.5792 84.291 56.5827 83.7027 56.2131C82.6548 55.5547 80.5719 58.184 79.2253 57.5294C78.4102 57.1329 78.7239 55.9501 78.0026 55.6635C76.6083 55.109 74.1446 59.0111 73.153 58.4931C72.6784 58.2451 73.1359 57.2947 72.4709 56.5951C71.6895 55.7733 69.8136 55.7749 68.9583 56.6444C68.1608 57.4554 68.8381 58.4235 67.994 59.451C67.2363 60.3734 66.3605 59.9936 65.5057 60.7329C64.0524 61.9886 64.5586 64.83 64.7388 65.8441C65.3604 69.3348 67.2953 70.0409 66.8609 72.4216C66.7499 73.0307 66.4914 73.7079 66.6759 74.7021C66.8577 75.6766 67.3639 76.4116 67.7774 76.8905Z" fill="url(#paint27_linear_269_1851)"/>
<g opacity="0.3">
<path opacity="0.3" d="M85.649 69.351C85.4774 67.6346 86.8084 66.8364 86.5848 65.6117C86.4051 64.6282 85.2913 63.7437 84.245 63.5551C82.0136 63.1523 80.5688 66.4351 78.3492 66.0794C76.6331 65.8046 76.8235 63.7335 74.8865 62.901C71.8168 61.5811 68.5992 65.6048 66.5576 64.4905C65.9441 64.1557 65.3236 63.2948 65.2796 60.9596C64.109 62.3027 64.5685 64.8875 64.7385 65.8442C65.3601 69.3349 67.295 70.041 66.8606 72.4217C66.7496 73.0308 66.4911 73.708 66.6756 74.7017C66.8568 75.6772 67.3631 76.4122 67.7765 76.8912C67.9701 77.2458 68.1916 77.5753 68.3412 77.5367C68.9617 77.3749 66.5678 71.3326 68.7729 69.2171C69.9131 68.1232 71.1974 69.1201 75.8679 68.9091C80.571 68.6964 81.7744 67.5725 83.1961 68.4333C84.4912 69.2176 85.6506 71.4574 84.6901 78.0917C84.9572 78.0301 85.2248 77.9685 85.4918 77.9069C85.1315 75.734 85.5246 74.3626 85.974 73.499C86.1091 73.2392 86.2888 72.9478 86.4507 72.6135C86.4164 72.0419 86.3193 71.414 86.1155 70.7546C85.878 69.9799 85.7042 69.9033 85.649 69.351Z" fill="url(#paint28_linear_269_1851)"/>
</g>
<path d="M85.589 51.9828H67.6001C65.574 51.9828 63.9314 53.6237 63.9314 55.6476V67.8372H89.2572V55.6476C89.2577 53.6237 87.6151 51.9828 85.589 51.9828Z" fill="url(#paint29_linear_269_1851)"/>
<path d="M80.1169 67.8371H73.0724V51.042C73.0724 50.6788 73.3674 50.3841 73.731 50.3841H79.4578C79.8214 50.3841 80.1163 50.6788 80.1163 51.042V67.8371H80.1169Z" fill="url(#paint30_linear_269_1851)"/>
<path d="M90.252 70.7164H62.9377C62.6926 70.7164 62.4937 70.5176 62.4937 70.2728V68.0973C62.4937 67.8524 62.6926 67.6537 62.9377 67.6537H90.252C90.4971 67.6537 90.6961 67.8524 90.6961 68.0973V70.2728C90.6961 70.5176 90.4971 70.7164 90.252 70.7164Z" fill="url(#paint31_linear_269_1851)"/>
<path d="M64.315 70.5359C64.8459 72.9531 70.14 74.8522 76.5946 74.8522C83.0487 74.8522 88.3434 72.9536 88.8743 70.5359H64.315Z" fill="url(#paint32_linear_269_1851)"/>
<path d="M65.3189 115.648C65.3189 117.285 63.9911 118.611 62.3528 118.611H61.8058C60.1674 118.611 58.8396 117.285 58.8396 115.648V99.9385C58.8396 98.3019 60.1674 96.9755 61.8058 96.9755H62.3528C63.9911 96.9755 65.3189 98.3019 65.3189 99.9385V115.648Z" fill="url(#paint33_linear_269_1851)"/>
<path d="M95.1226 115.648C95.1226 117.285 93.7948 118.611 92.1565 118.611H91.6095C89.9711 118.611 88.6433 117.285 88.6433 115.648V99.9385C88.6433 98.3019 89.9711 96.9755 91.6095 96.9755H92.1565C93.7948 96.9755 95.1226 98.3019 95.1226 99.9385V115.648Z" fill="url(#paint34_linear_269_1851)"/>
<path d="M99.7503 141.538C99.7503 143.174 98.4225 144.501 96.7842 144.501H56.8077C55.1694 144.501 53.8416 143.174 53.8416 141.538V117.692C53.8416 116.055 55.1694 114.729 56.8077 114.729H96.7842C98.4225 114.729 99.7503 116.055 99.7503 117.692V141.538Z" fill="url(#paint35_linear_269_1851)"/>
<path d="M76.5277 129.781C85.8956 130.459 86.6104 120.646 86.6104 120.646H67.9499C67.9499 120.646 67.568 129.133 76.5277 129.781Z" fill="url(#paint36_linear_269_1851)"/>
<defs>
<linearGradient id="paint0_linear_269_1851" x1="28.1719" y1="68.6789" x2="28.4936" y2="66.1023" gradientUnits="userSpaceOnUse">
<stop offset="0.003597" stop-color="#26264F"/>
<stop offset="1" stop-color="#444B8C"/>
</linearGradient>
<linearGradient id="paint1_linear_269_1851" x1="26.8457" y1="66.3307" x2="30.0647" y2="60.5305" gradientUnits="userSpaceOnUse">
<stop offset="0.003597" stop-color="#26264F"/>
<stop offset="1" stop-color="#444B8C"/>
</linearGradient>
<linearGradient id="paint2_linear_269_1851" x1="23.1995" y1="63.5834" x2="33.9003" y2="63.5834" gradientUnits="userSpaceOnUse">
<stop offset="0.003597" stop-color="#26264F"/>
<stop offset="1" stop-color="#444B8C"/>
</linearGradient>
<linearGradient id="paint3_linear_269_1851" x1="27.1527" y1="64.7466" x2="30.3313" y2="58.6244" gradientUnits="userSpaceOnUse">
<stop offset="0.003597" stop-color="#26264F"/>
<stop offset="1" stop-color="#444B8C"/>
</linearGradient>
<linearGradient id="paint4_linear_269_1851" x1="22.72" y1="61.7818" x2="34.3744" y2="61.7818" gradientUnits="userSpaceOnUse">
<stop offset="0.003597" stop-color="#26264F"/>
<stop offset="1" stop-color="#444B8C"/>
</linearGradient>
<linearGradient id="paint5_linear_269_1851" x1="22.5474" y1="59.6782" x2="34.5524" y2="59.6782" gradientUnits="userSpaceOnUse">
<stop offset="0.003597" stop-color="#26264F"/>
<stop offset="1" stop-color="#444B8C"/>
</linearGradient>
<linearGradient id="paint6_linear_269_1851" x1="28.2516" y1="58.7739" x2="29.4314" y2="53.2445" gradientUnits="userSpaceOnUse">
<stop offset="0.003597" stop-color="#26264F"/>
<stop offset="1" stop-color="#444B8C"/>
</linearGradient>
<linearGradient id="paint7_linear_269_1851" x1="25.9814" y1="27.923" x2="49.4003" y2="65.1427" gradientUnits="userSpaceOnUse">
<stop stop-color="#FCB148"/>
<stop offset="0.0521" stop-color="#FDBA46"/>
<stop offset="0.1424" stop-color="#FFC244"/>
<stop offset="0.3183" stop-color="#FFC444"/>
<stop offset="0.4849" stop-color="#FDB946"/>
<stop offset="0.7754" stop-color="#F99C4D"/>
<stop offset="0.8658" stop-color="#F8924F"/>
<stop offset="1" stop-color="#F8924F"/>
</linearGradient>
<linearGradient id="paint8_linear_269_1851" x1="26.8045" y1="19.5383" x2="22.1392" y2="58.0272" gradientUnits="userSpaceOnUse">
<stop stop-color="#FCB148"/>
<stop offset="0.0521" stop-color="#FDBA46"/>
<stop offset="0.1424" stop-color="#FFC244"/>
<stop offset="0.3183" stop-color="#FFC444"/>
<stop offset="0.4849" stop-color="#FDB946"/>
<stop offset="0.7754" stop-color="#F99C4D"/>
<stop offset="0.8658" stop-color="#F8924F"/>
<stop offset="1" stop-color="#F8924F"/>
</linearGradient>
<linearGradient id="paint9_linear_269_1851" x1="4.26836" y1="104.466" x2="79.1914" y2="104.466" gradientUnits="userSpaceOnUse">
<stop offset="0.003597" stop-color="#26264F"/>
<stop offset="1" stop-color="#444B8C"/>
</linearGradient>
<linearGradient id="paint10_linear_269_1851" x1="6.36924" y1="104.502" x2="77.0904" y2="104.502" gradientUnits="userSpaceOnUse">
<stop stop-color="#FCB148"/>
<stop offset="0.0521" stop-color="#FDBA46"/>
<stop offset="0.1424" stop-color="#FFC244"/>
<stop offset="0.3183" stop-color="#FFC444"/>
<stop offset="0.4849" stop-color="#FDB946"/>
<stop offset="0.7754" stop-color="#F99C4D"/>
<stop offset="0.8658" stop-color="#F8924F"/>
<stop offset="1" stop-color="#F8924F"/>
</linearGradient>
<linearGradient id="paint11_linear_269_1851" x1="30.0072" y1="109.368" x2="50.4025" y2="109.368" gradientUnits="userSpaceOnUse">
<stop offset="0.003597" stop-color="#26264F"/>
<stop offset="1" stop-color="#444B8C"/>
</linearGradient>
<linearGradient id="paint12_linear_269_1851" x1="6.36924" y1="104.527" x2="53.2226" y2="104.527" gradientUnits="userSpaceOnUse">
<stop stop-color="#FCB148"/>
<stop offset="0.0521" stop-color="#FDBA46"/>
<stop offset="0.1424" stop-color="#FFC244"/>
<stop offset="0.3183" stop-color="#FFC444"/>
<stop offset="0.4849" stop-color="#FDB946"/>
<stop offset="0.7754" stop-color="#F99C4D"/>
<stop offset="0.8658" stop-color="#F8924F"/>
<stop offset="1" stop-color="#F8924F"/>
</linearGradient>
<linearGradient id="paint13_linear_269_1851" x1="95.1587" y1="78.4253" x2="111.339" y2="102.838" gradientUnits="userSpaceOnUse">
<stop stop-color="#FCB148"/>
<stop offset="0.0521" stop-color="#FDBA46"/>
<stop offset="0.1424" stop-color="#FFC244"/>
<stop offset="0.3183" stop-color="#FFC444"/>
<stop offset="0.4849" stop-color="#FDB946"/>
<stop offset="0.7754" stop-color="#F99C4D"/>
<stop offset="0.8658" stop-color="#F8924F"/>
<stop offset="1" stop-color="#F8924F"/>
</linearGradient>
<linearGradient id="paint14_linear_269_1851" x1="134.032" y1="112.16" x2="102.281" y2="101.325" gradientUnits="userSpaceOnUse">
<stop stop-color="#FCB148"/>
<stop offset="0.0521" stop-color="#FDBA46"/>
<stop offset="0.1424" stop-color="#FFC244"/>
<stop offset="0.3183" stop-color="#FFC444"/>
<stop offset="0.4849" stop-color="#FDB946"/>
<stop offset="0.7754" stop-color="#F99C4D"/>
<stop offset="0.8658" stop-color="#F8924F"/>
<stop offset="1" stop-color="#F8924F"/>
</linearGradient>
<linearGradient id="paint15_linear_269_1851" x1="121.818" y1="129.537" x2="121.406" y2="99.68" gradientUnits="userSpaceOnUse">
<stop stop-color="#FCB148"/>
<stop offset="0.0521" stop-color="#FDBA46"/>
<stop offset="0.1424" stop-color="#FFC244"/>
<stop offset="0.3183" stop-color="#FFC444"/>
<stop offset="0.4849" stop-color="#FDB946"/>
<stop offset="0.7754" stop-color="#F99C4D"/>
<stop offset="0.8658" stop-color="#F8924F"/>
<stop offset="1" stop-color="#F8924F"/>
</linearGradient>
<linearGradient id="paint16_linear_269_1851" x1="131.157" y1="83.1882" x2="114.285" y2="113.113" gradientUnits="userSpaceOnUse">
<stop stop-color="#444B8C"/>
<stop offset="0.9964" stop-color="#26264F"/>
</linearGradient>
<linearGradient id="paint17_linear_269_1851" x1="125.189" y1="102.91" x2="125.894" y2="91.5373" gradientUnits="userSpaceOnUse">
<stop stop-color="#444B8C"/>
<stop offset="0.9964" stop-color="#26264F"/>
</linearGradient>
<linearGradient id="paint18_linear_269_1851" x1="124.47" y1="118.76" x2="103.565" y2="111.625" gradientUnits="userSpaceOnUse">
<stop stop-color="#FCB148"/>
<stop offset="0.0521" stop-color="#FDBA46"/>
<stop offset="0.1424" stop-color="#FFC244"/>
<stop offset="0.3183" stop-color="#FFC444"/>
<stop offset="0.4849" stop-color="#FDB946"/>
<stop offset="0.7754" stop-color="#F99C4D"/>
<stop offset="0.8658" stop-color="#F8924F"/>
<stop offset="1" stop-color="#F8924F"/>
</linearGradient>
<linearGradient id="paint19_linear_269_1851" x1="119.655" y1="106.16" x2="98.2898" y2="140.187" gradientUnits="userSpaceOnUse">
<stop stop-color="#FF9085"/>
<stop offset="1" stop-color="#FB6FBB"/>
</linearGradient>
<linearGradient id="paint20_linear_269_1851" x1="114.935" y1="107.79" x2="108.992" y2="132.91" gradientUnits="userSpaceOnUse">
<stop stop-color="#FCB148"/>
<stop offset="0.0521" stop-color="#FDBA46"/>
<stop offset="0.1424" stop-color="#FFC244"/>
<stop offset="0.3183" stop-color="#FFC444"/>
<stop offset="0.4849" stop-color="#FDB946"/>
<stop offset="0.7754" stop-color="#F99C4D"/>
<stop offset="0.8658" stop-color="#F8924F"/>
<stop offset="1" stop-color="#F8924F"/>
</linearGradient>
<linearGradient id="paint21_linear_269_1851" x1="40.3533" y1="121.066" x2="113.937" y2="121.066" gradientUnits="userSpaceOnUse">
<stop stop-color="#AA80F9"/>
<stop offset="0.9964" stop-color="#6165D7"/>
</linearGradient>
<linearGradient id="paint22_linear_269_1851" x1="76.5064" y1="104.796" x2="76.2262" y2="87.6885" gradientUnits="userSpaceOnUse">
<stop stop-color="#AA80F9"/>
<stop offset="0.9964" stop-color="#6165D7"/>
</linearGradient>
<linearGradient id="paint23_linear_269_1851" x1="76.6394" y1="106.567" x2="76.546" y2="91.6028" gradientUnits="userSpaceOnUse">
<stop stop-color="#AB316D"/>
<stop offset="1" stop-color="#792D3D"/>
</linearGradient>
<linearGradient id="paint24_linear_269_1851" x1="75.3973" y1="85.154" x2="77.8254" y2="55.8931" gradientUnits="userSpaceOnUse">
<stop stop-color="#AB316D"/>
<stop offset="1" stop-color="#792D3D"/>
</linearGradient>
<linearGradient id="paint25_linear_269_1851" x1="66.7297" y1="84.4349" x2="69.1578" y2="55.1743" gradientUnits="userSpaceOnUse">
<stop stop-color="#AB316D"/>
<stop offset="1" stop-color="#792D3D"/>
</linearGradient>
<linearGradient id="paint26_linear_269_1851" x1="85.2525" y1="85.9718" x2="87.6806" y2="56.7112" gradientUnits="userSpaceOnUse">
<stop stop-color="#AB316D"/>
<stop offset="1" stop-color="#792D3D"/>
</linearGradient>
<linearGradient id="paint27_linear_269_1851" x1="74.7544" y1="71.0458" x2="81.1993" y2="51.0364" gradientUnits="userSpaceOnUse">
<stop stop-color="#311944"/>
<stop offset="1" stop-color="#6B3976"/>
</linearGradient>
<linearGradient id="paint28_linear_269_1851" x1="74.7545" y1="71.0461" x2="81.1993" y2="51.0367" gradientUnits="userSpaceOnUse">
<stop stop-color="#311944"/>
<stop offset="1" stop-color="#6B3976"/>
</linearGradient>
<linearGradient id="paint29_linear_269_1851" x1="67.9831" y1="38.2229" x2="84.4095" y2="82.5497" gradientUnits="userSpaceOnUse">
<stop stop-color="#FFC444"/>
<stop offset="0.9964" stop-color="#F36F56"/>
</linearGradient>
<linearGradient id="paint30_linear_269_1851" x1="74.1472" y1="52.2065" x2="86.7365" y2="89.2058" gradientUnits="userSpaceOnUse">
<stop stop-color="#FFC444"/>
<stop offset="0.9964" stop-color="#F36F56"/>
</linearGradient>
<linearGradient id="paint31_linear_269_1851" x1="62.4933" y1="69.185" x2="90.6958" y2="69.185" gradientUnits="userSpaceOnUse">
<stop stop-color="#FFC444"/>
<stop offset="0.9964" stop-color="#F36F56"/>
</linearGradient>
<linearGradient id="paint32_linear_269_1851" x1="73.1612" y1="61.3178" x2="80.4572" y2="81.006" gradientUnits="userSpaceOnUse">
<stop stop-color="#FFC444"/>
<stop offset="0.9964" stop-color="#F36F56"/>
</linearGradient>
<linearGradient id="paint33_linear_269_1851" x1="58.8398" y1="107.793" x2="65.3188" y2="107.793" gradientUnits="userSpaceOnUse">
<stop offset="0.003597" stop-color="#26264F"/>
<stop offset="1" stop-color="#444B8C"/>
</linearGradient>
<linearGradient id="paint34_linear_269_1851" x1="88.6434" y1="107.793" x2="95.1224" y2="107.793" gradientUnits="userSpaceOnUse">
<stop offset="0.003597" stop-color="#26264F"/>
<stop offset="1" stop-color="#444B8C"/>
</linearGradient>
<linearGradient id="paint35_linear_269_1851" x1="53.8418" y1="129.614" x2="99.7504" y2="129.614" gradientUnits="userSpaceOnUse">
<stop offset="0.003597" stop-color="#26264F"/>
<stop offset="1" stop-color="#444B8C"/>
</linearGradient>
<linearGradient id="paint36_linear_269_1851" x1="72.6685" y1="128.12" x2="56.8706" y2="148.63" gradientUnits="userSpaceOnUse">
<stop offset="0.003597" stop-color="#26264F"/>
<stop offset="0.8332" stop-color="#3F4582"/>
<stop offset="1" stop-color="#444B8C"/>
</linearGradient>
</defs>
</svg>
