<svg width="22" height="22" viewBox="0 0 22 22" fill="#000000" xmlns="http://www.w3.org/2000/svg">
<g clip-path="url(#clip0_269_2249)">
<path d="M16.4999 7.5625C15.6841 7.5625 14.8866 7.80443 14.2082 8.25769C13.5299 8.71095 13.0011 9.35518 12.6889 10.1089C12.3767 10.8627 12.295 11.6921 12.4542 12.4922C12.6134 13.2924 13.0062 14.0274 13.5831 14.6043C14.16 15.1812 14.895 15.5741 15.6952 15.7332C16.4954 15.8924 17.3248 15.8107 18.0785 15.4985C18.8322 15.1863 19.4765 14.6576 19.9297 13.9792C20.383 13.3009 20.6249 12.5033 20.6249 11.6875C20.6237 10.5939 20.1887 9.54536 19.4154 8.77204C18.6421 7.99872 17.5936 7.56373 16.4999 7.5625ZM16.4999 15.125C15.8201 15.125 15.1555 14.9234 14.5902 14.5457C14.0249 14.1679 13.5843 13.6311 13.3241 13.003C13.0639 12.3748 12.9959 11.6837 13.1285 11.0169C13.2611 10.3501 13.5885 9.73756 14.0693 9.25682C14.55 8.77608 15.1625 8.44869 15.8293 8.31605C16.4961 8.18341 17.1873 8.25149 17.8154 8.51166C18.4435 8.77184 18.9804 9.21243 19.3581 9.77772C19.7358 10.343 19.9374 11.0076 19.9374 11.6875C19.9364 12.5989 19.5739 13.4726 18.9295 14.117C18.285 14.7615 17.4113 15.124 16.4999 15.125V15.125Z" fill="#79B0B0"/>
<path d="M16.5 10.6562H17.1875C17.2787 10.6562 17.3661 10.62 17.4306 10.5556C17.495 10.4911 17.5312 10.4037 17.5312 10.3125C17.5312 10.2213 17.495 10.1339 17.4306 10.0694C17.3661 10.005 17.2787 9.96875 17.1875 9.96875H16.8438V9.625C16.8438 9.53383 16.8075 9.4464 16.7431 9.38193C16.6786 9.31747 16.5912 9.28125 16.5 9.28125C16.4088 9.28125 16.3214 9.31747 16.2569 9.38193C16.1925 9.4464 16.1562 9.53383 16.1562 9.625V10.0279C15.927 10.109 15.7338 10.2686 15.6108 10.4784C15.4878 10.6882 15.4429 10.9347 15.484 11.1744C15.5251 11.4141 15.6497 11.6315 15.8356 11.7883C16.0215 11.9451 16.2568 12.0312 16.5 12.0312C16.5912 12.0312 16.6786 12.0675 16.7431 12.1319C16.8075 12.1964 16.8438 12.2838 16.8438 12.375C16.8438 12.4662 16.8075 12.5536 16.7431 12.6181C16.6786 12.6825 16.5912 12.7188 16.5 12.7188H15.8125C15.7213 12.7188 15.6339 12.755 15.5694 12.8194C15.505 12.8839 15.4688 12.9713 15.4688 13.0625C15.4688 13.1537 15.505 13.2411 15.5694 13.3056C15.6339 13.37 15.7213 13.4062 15.8125 13.4062H16.1562V13.75C16.1562 13.8412 16.1925 13.9286 16.2569 13.9931C16.3214 14.0575 16.4088 14.0938 16.5 14.0938C16.5912 14.0938 16.6786 14.0575 16.7431 13.9931C16.8075 13.9286 16.8438 13.8412 16.8438 13.75V13.3471C17.073 13.266 17.2662 13.1064 17.3892 12.8966C17.5122 12.6868 17.5571 12.4403 17.516 12.2006C17.4749 11.9609 17.3503 11.7435 17.1644 11.5867C16.9785 11.4299 16.7432 11.3438 16.5 11.3438C16.4088 11.3437 16.3214 11.3075 16.2569 11.2431C16.1925 11.1786 16.1562 11.0912 16.1562 11C16.1562 10.9088 16.1925 10.8214 16.2569 10.7569C16.3214 10.6925 16.4088 10.6562 16.5 10.6562Z" fill="#79B0B0"/>
<path d="M19.7204 16.0411L12.7571 17.8578L11.2034 17.2363L12.063 17.0224C12.3334 16.9549 12.569 16.7891 12.7239 16.5573C12.8787 16.3256 12.9418 16.0445 12.9007 15.7688C12.8596 15.4931 12.7174 15.2426 12.5017 15.0661C12.286 14.8895 12.0123 14.7996 11.734 14.8138L5.85045 15.125L4.46875 15.124V14.7813C4.46875 14.6901 4.43253 14.6026 4.36807 14.5382C4.3036 14.4737 4.21617 14.4375 4.125 14.4375H1.86115L4.2674 12.0313H6.875C6.92014 12.0313 6.96484 12.0224 7.00655 12.0051C7.04826 11.9878 7.08615 11.9625 7.11808 11.9306L12.1736 6.875H15.125C15.1701 6.875 15.2148 6.86611 15.2566 6.84884C15.2983 6.83156 15.3362 6.80624 15.3681 6.77432L20.2813 1.86115V3.09375C20.2813 3.18492 20.3175 3.27235 20.3819 3.33682C20.4464 3.40128 20.5338 3.4375 20.625 3.4375C20.7162 3.4375 20.8036 3.40128 20.8681 3.33682C20.9325 3.27235 20.9688 3.18492 20.9688 3.09375V1.03125C20.9688 0.940082 20.9325 0.852648 20.8681 0.788182C20.8036 0.723716 20.7162 0.6875 20.625 0.6875H18.5625C18.4713 0.6875 18.3839 0.723716 18.3194 0.788182C18.255 0.852648 18.2188 0.940082 18.2188 1.03125C18.2188 1.12242 18.255 1.20985 18.3194 1.27432C18.3839 1.33878 18.4713 1.375 18.5625 1.375H19.7951L14.9826 6.1875H12.0313C11.9861 6.1875 11.9414 6.19639 11.8997 6.21366C11.858 6.23094 11.8201 6.25626 11.7882 6.28818L6.73265 11.3438H4.125C4.07986 11.3437 4.03516 11.3526 3.99345 11.3699C3.95174 11.3872 3.91385 11.4125 3.88193 11.4444L0.788176 14.5382C0.756209 14.5701 0.730858 14.608 0.713581 14.6497C0.696303 14.6914 0.68744 14.7361 0.6875 14.7813V20.9688C0.6875 21.0599 0.723717 21.1474 0.788182 21.2118C0.852648 21.2763 0.940082 21.3125 1.03125 21.3125H4.125C4.21617 21.3125 4.3036 21.2763 4.36807 21.2118C4.43253 21.1474 4.46875 21.0599 4.46875 20.9688V20.5797L6.53125 20.2869L12.312 21.6471C12.3792 21.6629 12.4496 21.6581 12.514 21.6333L20.5276 18.5512C20.8426 18.43 21.0992 18.193 21.2448 17.8886C21.3904 17.5842 21.414 17.2357 21.3107 16.9145C21.2074 16.5933 20.985 16.3238 20.6893 16.1614C20.3936 15.9989 20.0469 15.9559 19.7204 16.0411H19.7204ZM3.78125 20.625H1.375V15.125H3.78125V20.625ZM5.87757 15.812L11.7691 15.5002C11.8477 15.4963 11.9259 15.5138 11.9953 15.5509C12.0647 15.5879 12.1228 15.6431 12.1632 15.7106C12.2037 15.7781 12.2251 15.8553 12.2251 15.934C12.225 16.0127 12.2037 16.0899 12.1632 16.1573C12.134 16.2063 12.0954 16.2489 12.0496 16.2829C12.0039 16.3168 11.9518 16.3413 11.8965 16.355L8.51056 17.1976C8.46648 17.2082 8.42494 17.2275 8.38834 17.2542C8.35173 17.281 8.32078 17.3147 8.29727 17.3535C8.27376 17.3923 8.25816 17.4353 8.25136 17.4802C8.24456 17.525 8.24669 17.5707 8.25764 17.6147C8.2686 17.6587 8.28815 17.7001 8.31517 17.7366C8.34219 17.773 8.37615 17.8037 8.41509 17.8269C8.45403 17.8501 8.49719 17.8654 8.54207 17.8719C8.58695 17.8784 8.63267 17.876 8.67659 17.8647L10.062 17.52L12.6066 18.5378C12.6748 18.565 12.7499 18.5698 12.821 18.5512L19.8937 16.7062C20.0501 16.6657 20.216 16.6865 20.3575 16.7645C20.499 16.8424 20.6054 16.9714 20.6548 17.1252C20.7043 17.279 20.693 17.4459 20.6234 17.5917C20.5538 17.7374 20.4311 17.8511 20.2804 17.9093L12.3664 20.9536L6.62578 19.6029C6.58417 19.5931 6.54109 19.5911 6.49877 19.5972L4.46875 19.8853V15.8115L5.87757 15.812Z" fill="#79B0B0"/>
</g>
<defs>
<clipPath id="clip0_269_2249">
<rect width="22" height="22" fill="#000000"/>
</clipPath>
</defs>
</svg>
