<svg width="22" height="22" viewBox="0 0 22 22" fill="none" xmlns="http://www.w3.org/2000/svg">
<path d="M16.5 8.25C15.8201 8.25 15.1555 8.45161 14.5902 8.82932C14.0249 9.20704 13.5843 9.7439 13.3242 10.372C13.064 11.0001 12.9959 11.6913 13.1286 12.3581C13.2612 13.0249 13.5886 13.6374 14.0693 14.1182C14.5501 14.5989 15.1626 14.9263 15.8294 15.0589C16.4962 15.1916 17.1873 15.1235 17.8155 14.8633C18.4436 14.6031 18.9804 14.1626 19.3582 13.5973C19.7359 13.032 19.9375 12.3674 19.9375 11.6875C19.9365 10.7761 19.574 9.90239 18.9295 9.25796C18.2851 8.61353 17.4114 8.25103 16.5 8.25V8.25ZM16.5 11.3437C16.7432 11.3438 16.9785 11.4299 17.1644 11.5867C17.3503 11.7435 17.4748 11.9609 17.516 12.2006C17.5571 12.4403 17.5122 12.6868 17.3892 12.8966C17.2662 13.1064 17.073 13.266 16.8437 13.3471V13.75C16.8437 13.8412 16.8075 13.9286 16.7431 13.9931C16.6786 14.0575 16.5912 14.0937 16.5 14.0937C16.4088 14.0937 16.3214 14.0575 16.2569 13.9931C16.1925 13.9286 16.1562 13.8412 16.1562 13.75V13.4062H15.8125C15.7213 13.4062 15.6339 13.37 15.5694 13.3056C15.505 13.2411 15.4687 13.1537 15.4687 13.0625C15.4687 12.9713 15.505 12.8839 15.5694 12.8194C15.6339 12.755 15.7213 12.7187 15.8125 12.7187H16.5C16.5912 12.7187 16.6786 12.6825 16.7431 12.6181C16.8075 12.5536 16.8437 12.4662 16.8437 12.375C16.8437 12.2838 16.8075 12.1964 16.7431 12.1319C16.6786 12.0675 16.5912 12.0312 16.5 12.0312C16.2568 12.0311 16.0215 11.9451 15.8356 11.7883C15.6497 11.6315 15.5251 11.4141 15.484 11.1744C15.4429 10.9347 15.4878 10.6882 15.6108 10.4784C15.7338 10.2686 15.927 10.109 16.1562 10.0279V9.625C16.1562 9.53383 16.1925 9.44639 16.2569 9.38193C16.3214 9.31746 16.4088 9.28125 16.5 9.28125C16.5912 9.28125 16.6786 9.31746 16.7431 9.38193C16.8075 9.44639 16.8437 9.53383 16.8437 9.625V9.96875H17.1875C17.2787 9.96875 17.3661 10.005 17.4306 10.0694C17.495 10.1339 17.5312 10.2213 17.5312 10.3125C17.5312 10.4037 17.495 10.4911 17.4306 10.5556C17.3661 10.62 17.2787 10.6562 17.1875 10.6562H16.5C16.4088 10.6562 16.3214 10.6925 16.2569 10.7569C16.1925 10.8214 16.1562 10.9088 16.1562 11C16.1562 11.0912 16.1925 11.1786 16.2569 11.2431C16.3214 11.3075 16.4088 11.3437 16.5 11.3437Z" fill="white" stroke="#008080"/>
<path d="M1.375 15.125H3.78125V20.625H1.375V15.125Z" fill="white" stroke="#008080"/>
<path d="M19.894 16.7063L12.8213 18.5514C12.7502 18.5699 12.6751 18.5652 12.6069 18.538L10.0623 17.5201L8.67689 17.8649C8.63297 17.8761 8.58725 17.8786 8.54237 17.8721C8.49749 17.8656 8.45433 17.8503 8.41539 17.8271C8.37645 17.8039 8.34249 17.7731 8.31547 17.7367C8.28844 17.7003 8.26889 17.6589 8.25794 17.6149C8.24699 17.5709 8.24485 17.5252 8.25166 17.4803C8.25846 17.4355 8.27406 17.3925 8.29757 17.3537C8.32108 17.3149 8.35203 17.2812 8.38864 17.2544C8.42524 17.2276 8.46678 17.2084 8.51086 17.1977L11.8968 16.3552C12.0084 16.3271 12.1044 16.256 12.1635 16.1572C12.2227 16.0585 12.2403 15.9404 12.2124 15.8287C12.1878 15.7313 12.1303 15.6453 12.0495 15.5855C11.9688 15.5256 11.8698 15.4955 11.7694 15.5003L5.87774 15.8121L4.46875 15.8116V19.8854L6.49859 19.5973C6.54092 19.5912 6.584 19.5932 6.62561 19.603L12.3662 20.9537L20.2811 17.9096C20.4318 17.8513 20.5545 17.7377 20.6241 17.5919C20.6937 17.4461 20.7049 17.2793 20.6555 17.1255C20.6061 16.9717 20.4997 16.8426 20.3582 16.7647C20.2167 16.6868 20.0507 16.666 19.8944 16.7064L19.894 16.7063Z" fill="white" stroke="#008080"/>
<path d="M20.2811 1.03125H18.2186C18.1274 1.03125 18.04 1.06747 17.9755 1.13193C17.911 1.1964 17.8748 1.28383 17.8748 1.375C17.8748 1.46617 17.911 1.5536 17.9755 1.61807C18.04 1.68253 18.1274 1.71875 18.2186 1.71875H19.4512L14.9824 6.1875H12.0311C11.9859 6.1875 11.9412 6.19639 11.8995 6.21366C11.8578 6.23094 11.8199 6.25626 11.788 6.28818L6.73247 11.3438H4.12483C4.07968 11.3437 4.03498 11.3526 3.99328 11.3699C3.95157 11.3872 3.91367 11.4125 3.88175 11.4444L1.4755 13.8507C1.41103 13.9151 1.37482 14.0026 1.37482 14.0938C1.37482 14.1849 1.41103 14.2724 1.4755 14.3368C1.53997 14.4013 1.62741 14.4375 1.71858 14.4375C1.80975 14.4375 1.89718 14.4013 1.96165 14.3368L4.26718 12.0312H6.87483C6.91997 12.0313 6.96467 12.0224 7.00638 12.0051C7.04808 11.9878 7.08598 11.9625 7.1179 11.9306L12.1734 6.875H15.1248C15.17 6.875 15.2147 6.86611 15.2564 6.84884C15.2981 6.83156 15.336 6.80624 15.3679 6.77432L19.9373 2.2049V3.4375C19.9373 3.52867 19.9735 3.6161 20.038 3.68057C20.1025 3.74503 20.1899 3.78125 20.2811 3.78125C20.3722 3.78125 20.4597 3.74503 20.5241 3.68057C20.5886 3.6161 20.6248 3.52867 20.6248 3.4375V1.375C20.6248 1.28383 20.5886 1.1964 20.5241 1.13193C20.4597 1.06747 20.3722 1.03125 20.2811 1.03125V1.03125Z" fill="white" stroke="#008080"/>
</svg>
