<svg width="22" height="22" viewBox="0 0 22 22" fill="none" xmlns="http://www.w3.org/2000/svg">
<path d="M20.9688 2.75V4.125H18.5625C18.4831 4.125 18.4061 4.0975 18.3449 4.04731L14.6585 1.03125H4.46875C4.08959 1.03125 3.78125 1.33959 3.78125 1.71875C3.78125 2.09791 4.08959 2.40625 4.46875 2.40625H9.625C9.76388 2.40625 9.88934 2.48978 9.94263 2.61834C9.99591 2.74691 9.96634 2.89472 9.86803 2.99303L8.59375 4.26731V6.875C8.59375 7.13144 8.74328 7.35763 8.96362 7.47519C9.26613 7.28097 9.5975 7.12834 9.95053 7.02625C9.96187 6.97675 9.96875 6.92656 9.96875 6.875V4.8125C9.96875 4.73206 9.99694 4.65403 10.0485 4.59216L11.7672 2.52966C11.8326 2.45163 11.9292 2.40625 12.0312 2.40625H13.75C13.8411 2.40625 13.9288 2.44234 13.993 2.50697L15.0243 3.53822C15.0889 3.6025 15.125 3.68981 15.125 3.78125V5.84375C15.125 6.03384 14.971 6.1875 14.7812 6.1875H12.7188C12.3396 6.1875 12.0312 6.49584 12.0312 6.875C12.0312 6.92656 12.0371 6.97675 12.0481 7.02591C12.4534 7.14312 12.8301 7.32566 13.1673 7.5625H20.9688V8.9375H21.6562V2.75H20.9688Z"  fill="white" stroke="#79B0B0"/>
<path d="M7.90625 10.6562C7.90625 12.246 9.11178 13.5581 10.6562 13.7296V13.0136C10.065 12.8599 9.625 12.3264 9.625 11.6874H10.3125C10.3125 12.0666 10.6208 12.3749 11 12.3749C11.3792 12.3749 11.6875 12.0666 11.6875 11.6874C11.6875 11.3083 11.3792 10.9999 11 10.9999C10.2417 10.9999 9.625 10.3832 9.625 9.62492C9.625 8.98589 10.065 8.45239 10.6562 8.29873V7.5827C9.11178 7.75423 7.90625 9.06633 7.90625 10.6562Z"  fill="white" stroke="#79B0B0"/>
<path d="M11 8.93742C10.6208 8.93742 10.3125 9.24576 10.3125 9.62492C10.3125 10.0041 10.6208 10.3124 11 10.3124C11.7583 10.3124 12.375 10.9291 12.375 11.6874C12.375 12.3264 11.935 12.8599 11.3438 13.0136V13.7296C12.8882 13.5581 14.0938 12.246 14.0938 10.6562C14.0938 9.06633 12.8882 7.75423 11.3438 7.5827V8.29873C11.935 8.45239 12.375 8.98589 12.375 9.62492H11.6875C11.6875 9.24576 11.3792 8.93742 11 8.93742Z"  fill="white" stroke="#79B0B0"/>
<path d="M5.21973 3.09375C5.36204 3.49284 5.74016 3.78125 6.18773 3.78125H8.10791L8.79541 3.09375H5.21973Z" fill="white" stroke="#79B0B0"/>
<path d="M1.03125 14.0938H3.09375V20.2812H1.03125V14.0938Z"  fill="white" stroke="#79B0B0"/>
<path d="M17.875 17.5313H9.96875C9.96875 18.0998 9.50606 18.5625 8.9375 18.5625H8.53497C8.25962 18.5625 8.00044 18.4552 7.80553 18.2603L6.28822 16.743L6.77428 16.257L8.29159 17.7743C8.35656 17.8393 8.44319 17.875 8.53497 17.875H8.9375C9.12691 17.875 9.28125 17.721 9.28125 17.5313V17.0981C9.28125 17.0163 9.25203 16.9366 9.19841 16.8743L7.40438 14.7812H3.78125V19.5938H6.1875C6.25522 19.5938 6.32191 19.614 6.37828 19.6515L8.31909 20.9457L18.9062 18.6295V18.5625C18.9062 17.9939 18.4436 17.5313 17.875 17.5313Z"  fill="white" stroke="#79B0B0"/>
<path d="M16.8438 14.7812C17.4931 14.5647 18.0022 14.0556 18.2188 13.4062C18.4353 14.0556 18.9444 14.5647 19.5938 14.7812C18.9444 14.9978 18.4353 15.5069 18.2188 16.1562C18.0022 15.5069 17.4931 14.9978 16.8438 14.7812Z"  fill="white" stroke="#79B0B0"/>
<path d="M2.40625 7.21875C3.05559 7.00219 3.56469 6.49309 3.78125 5.84375C3.99781 6.49309 4.50691 7.00219 5.15625 7.21875C4.50691 7.43531 3.99781 7.94441 3.78125 8.59375C3.56469 7.94441 3.05559 7.43531 2.40625 7.21875Z"  fill="white" stroke="#79B0B0"/>
</svg>
