<svg width="150" height="150" viewBox="0 0 150 150" fill="none" xmlns="http://www.w3.org/2000/svg">
<path opacity="0.3" d="M143.523 101.088C128.347 136.277 88.288 151.391 56.9013 148.814C48.3316 148.111 31.0885 146.695 17.6253 134.064C-8.22998 109.809 -4.24794 59.1074 20.503 29.2576C23.6903 25.4133 45.7532 -0.341039 80.1342 0.00342369C105.306 0.255744 122.974 14.3616 125.122 16.1187C127.836 18.3387 133.822 23.6138 139.217 31.9827C151.892 51.6476 153.006 79.0985 143.523 101.088Z" fill="url(#paint0_linear_8_837)"/>
<path d="M130.75 19.3356C130.571 18.3917 129.239 18.3145 128.955 19.2327C126.214 28.1084 118.294 51.1585 106.698 63.2045C87.8178 82.8179 74.7679 115.109 86.1111 132.288C86.1105 132.288 150.283 122.174 130.75 19.3356Z" fill="url(#paint1_linear_8_837)"/>
<path opacity="0.43" d="M128.295 32.0416C128.261 32.2505 128.205 32.5178 128.156 32.7637L127.995 33.5137L127.656 35.0121L126.95 38.0035C126.464 39.9942 125.953 41.979 125.423 43.959C124.373 47.9206 123.256 51.8645 122.058 55.7832C119.643 63.6137 117.032 71.3858 114.002 78.9956C112.47 82.7927 110.926 86.5856 109.223 90.3088C107.52 94.0309 105.73 97.7134 103.799 101.322C99.9637 108.55 95.5829 115.501 90.4541 121.902C90.3837 121.988 90.3966 122.115 90.4831 122.184C90.5669 122.252 90.6905 122.24 90.762 122.161C93.4833 119.067 95.9677 115.771 98.3091 112.38C100.623 108.968 102.734 105.426 104.751 101.834C108.701 94.6025 112.134 87.0999 115.136 79.4381C116.643 75.6094 118.024 71.733 119.348 67.84C120.67 63.9459 121.908 60.0234 123.029 56.0682C124.157 52.1152 125.228 48.1461 126.185 44.1497C126.66 42.1505 127.116 40.1469 127.547 38.138C127.758 37.1324 127.971 36.1274 128.166 35.1187L128.449 33.6026L128.582 32.8425C128.622 32.5826 128.669 32.3475 128.699 32.0469C128.71 31.9376 128.63 31.8401 128.52 31.8294C128.415 31.8193 128.32 31.8926 128.303 31.9955L128.295 32.0416Z" fill="white"/>
<path d="M115.476 0.659704C103.352 8.52663 34.6697 57.1821 68.8932 129.633C68.8932 129.633 122.38 109.204 117.368 1.62184C117.324 0.680596 116.268 0.145421 115.476 0.659704Z" fill="url(#paint2_linear_8_837)"/>
<path opacity="0.43" d="M110.47 14.2651C109.001 16.2049 107.591 18.1822 106.199 20.1734C104.81 22.1663 103.449 24.1779 102.113 26.2066C99.4397 30.263 96.8645 34.3837 94.3942 38.5665C89.4566 46.9328 84.9119 55.5379 80.9492 64.412C76.9989 73.286 73.6101 82.4365 71.2494 91.8763C70.6518 94.2334 70.1445 96.6136 69.6985 99.005C69.5932 99.6039 69.4728 100.2 69.3798 100.802L69.0929 102.604C68.9268 103.809 68.7505 105.014 68.628 106.225C68.0804 111.062 67.9514 115.953 68.311 120.818C68.326 121.022 68.5044 121.175 68.7092 121.16C68.9139 121.145 69.0676 120.968 69.0526 120.763V120.762V120.759C68.6796 115.95 68.7882 111.102 69.3143 106.299C69.4314 105.096 69.6018 103.899 69.7624 102.702L70.0408 100.911C70.1311 100.313 70.2488 99.7196 70.3509 99.1239C70.7851 96.7454 71.2811 94.3764 71.8674 92.029C74.1819 82.6272 77.5255 73.4928 81.4334 64.6262C85.3537 55.7591 89.8586 47.1524 94.758 38.7803C97.2095 34.5948 99.7659 30.4698 102.421 26.4086C103.748 24.3777 105.101 22.3634 106.481 20.3679C107.863 18.375 109.265 16.3924 110.721 14.4558L110.722 14.4542C110.774 14.3845 110.76 14.2865 110.69 14.2345C110.621 14.182 110.522 14.1954 110.47 14.2651Z" fill="white"/>
<path d="M6.93555 25.8324C6.93555 20.9751 10.8853 17.0376 15.7578 17.0376H90.7846C94.9236 17.0376 98.3371 20.2712 98.5472 24.3924L104.086 132.828C104.25 136.053 101.704 138.773 98.465 138.832L12.4755 140.389C9.43225 140.444 6.93608 138 6.93608 134.966V25.8324H6.93555Z" fill="url(#paint3_linear_8_837)"/>
<path d="M25.043 138.545C25.042 138.545 25.0414 138.545 25.0404 138.545L15.4184 138.422C12.2011 138.38 9.5835 135.737 9.5835 132.529V118.047C9.5835 117.934 9.67539 117.843 9.78878 117.843C9.90217 117.843 9.99406 117.934 9.99406 118.047V132.529C9.99406 135.514 12.4295 137.973 15.4233 138.012L25.0452 138.136C25.1586 138.137 25.2494 138.23 25.2478 138.343C25.2467 138.455 25.1548 138.545 25.043 138.545Z" fill="white"/>
<path d="M9.78878 113.767C9.67539 113.767 9.5835 113.675 9.5835 113.562V111.217C9.5835 111.104 9.67539 111.012 9.78878 111.012C9.90217 111.012 9.99406 111.104 9.99406 111.217V113.562C9.99406 113.675 9.90217 113.767 9.78878 113.767Z" fill="white"/>
<path d="M13.0821 18.7063C13.0729 17.1522 14.4438 15.9495 15.9888 16.1584C26.2346 17.5432 61.4663 21.8273 90.5959 19.5982C91.9243 19.4964 93.077 20.4998 93.148 21.8262L98.955 130.745C99.0345 132.239 97.8904 133.516 96.3932 133.605C84.1419 134.327 33.6877 137.122 15.6911 135.242C14.5959 135.128 13.7646 134.209 13.7581 133.111L13.0821 18.7063Z" fill="url(#paint4_linear_8_837)"/>
<path opacity="0.6" d="M14.2891 21.4357C14.2805 19.94 15.5998 18.7829 17.0862 18.9838C26.9462 20.3166 60.851 24.4389 88.8838 22.2939C90.1623 22.1959 91.2714 23.1618 91.3397 24.4379L96.928 129.256C97.0048 130.693 95.9037 131.922 94.4624 132.007C82.6727 132.702 34.1176 135.391 16.7992 133.583C15.7454 133.473 14.9453 132.588 14.9388 131.532L14.2891 21.4357Z" fill="white"/>
<g opacity="0.6">
<path opacity="0.6" d="M86.0935 51.5064C86.5443 51.5064 86.8936 51.1394 86.87 50.6905L86.8566 50.4387C86.8329 49.9898 86.4444 49.6191 85.9941 49.6148L22.4819 48.9913C22.031 48.987 21.8607 49.2934 22.103 49.6721L22.8355 50.8175C23.0778 51.1962 23.6448 51.5064 24.0957 51.5064H86.0935Z" fill="white"/>
</g>
<g opacity="0.6">
<path opacity="0.6" d="M23.0641 54.2296C22.6132 54.2226 22.3843 54.5575 22.5552 54.9732L22.9711 55.9846C23.142 56.4003 23.6509 56.7405 24.1013 56.7405H63.3837C63.8346 56.7405 64.1909 56.373 64.1753 55.9241L64.1667 55.6733C64.1516 55.2244 63.7701 54.851 63.3192 54.8441L23.0641 54.2296Z" fill="white"/>
</g>
<g opacity="0.6">
<path opacity="0.6" d="M86.0939 64.6636C86.5448 64.6636 86.8941 64.2967 86.8705 63.8478L86.857 63.596C86.8334 63.147 86.4449 62.7763 85.9945 62.772L22.4829 62.1485C22.032 62.1442 21.8616 62.4506 22.104 62.8294L22.8365 63.9747C23.0788 64.3535 23.6458 64.6636 24.0966 64.6636H86.0939Z" fill="white"/>
</g>
<g opacity="0.6">
<path opacity="0.6" d="M23.0641 67.3868C22.6132 67.3799 22.3843 67.7147 22.5552 68.1304L22.9711 69.1418C23.142 69.5575 23.6509 69.8977 24.1013 69.8977H63.3837C63.8346 69.8977 64.1909 69.5302 64.1753 69.0813L64.1667 68.8306C64.1516 68.3816 63.7701 68.0083 63.3192 68.0013L23.0641 67.3868Z" fill="white"/>
</g>
<g opacity="0.6">
<path opacity="0.6" d="M86.4816 79.1009C86.9325 79.1009 87.2818 78.7339 87.2581 78.285L87.2447 78.0332C87.2211 77.5843 86.8325 77.2135 86.3822 77.2093L22.8706 76.5857C22.4197 76.5814 22.2493 76.8878 22.4917 77.2666L23.2242 78.4119C23.4665 78.7907 24.0335 79.1009 24.4843 79.1009H86.4816Z" fill="white"/>
</g>
<g opacity="0.6">
<path opacity="0.6" d="M86.6765 87.2276C87.1273 87.2276 87.4766 86.8607 87.453 86.4117L87.4396 86.1599C87.4159 85.711 87.0274 85.3403 86.577 85.336L23.0654 84.7124C22.6145 84.7082 22.4442 85.0146 22.6865 85.3933L23.419 86.5387C23.6613 86.9174 24.2283 87.2276 24.6792 87.2276H86.6765Z" fill="white"/>
</g>
<g opacity="0.6">
<path opacity="0.6" d="M86.8703 95.5483C87.3211 95.5483 87.6704 95.1814 87.6468 94.7325L87.6334 94.4807C87.6097 94.0318 87.2212 93.6611 86.7709 93.6568L23.2592 93.0332C22.8084 93.029 22.638 93.3354 22.8804 93.7141L23.6128 94.8594C23.8552 95.2382 24.4221 95.5483 24.873 95.5483H86.8703Z" fill="white"/>
</g>
<g opacity="0.6">
<path opacity="0.6" d="M86.6765 104.062C87.1273 104.062 87.4766 103.695 87.453 103.246L87.4396 102.994C87.4159 102.545 87.0274 102.175 86.577 102.17L23.0654 101.547C22.6145 101.542 22.4442 101.849 22.6865 102.228L23.419 103.373C23.6613 103.752 24.2283 104.062 24.6792 104.062H86.6765Z" fill="white"/>
</g>
<g opacity="0.6">
<path opacity="0.6" d="M86.8703 112.382C87.3211 112.382 87.6704 112.015 87.6468 111.566L87.6334 111.314C87.6097 110.865 87.2212 110.495 86.7709 110.49L23.2592 109.867C22.8084 109.862 22.638 110.169 22.8804 110.548L23.6128 111.693C23.8552 112.072 24.4221 112.382 24.873 112.382H86.8703Z" fill="white"/>
</g>
<g opacity="0.6">
<path opacity="0.6" d="M86.8704 121.283C87.3212 121.283 87.6705 120.916 87.6469 120.467L87.6335 120.215C87.6098 119.766 87.2213 119.396 86.771 119.391L23.2583 118.768C22.8074 118.763 22.637 119.07 22.8794 119.449L23.6119 120.594C23.8542 120.973 24.4212 121.283 24.872 121.283H86.8704Z" fill="white"/>
</g>
<path d="M57.9248 2.25243C55.2148 0.373148 52.8583 0.410113 51.1994 0.898146C49.6862 1.34332 48.7054 2.79939 48.8494 4.36581L49.5647 12.1497L58.0774 12.9029C58.0774 12.9029 63.2396 5.93866 57.9248 2.25243ZM54.1814 8.53204C53.0093 8.53204 52.0587 7.5849 52.0587 6.41598C52.0587 5.24705 53.0088 4.29992 54.1814 4.29992C55.354 4.29992 56.3041 5.24705 56.3041 6.41598C56.3041 7.5849 55.3534 8.53204 54.1814 8.53204Z" fill="url(#paint5_linear_8_837)"/>
<path d="M50.4157 8.87542C50.3109 8.87542 50.2211 8.7956 50.2115 8.689L50.0975 7.44936C50.0873 7.33686 50.1706 7.23722 50.2835 7.22651C50.3985 7.21579 50.4963 7.29936 50.5065 7.41186L50.6204 8.6515C50.6306 8.76399 50.5479 8.86364 50.4345 8.87382C50.428 8.87542 50.4216 8.87542 50.4157 8.87542ZM50.1921 6.44651C50.0873 6.44651 49.9976 6.36669 49.9879 6.26008L49.9014 5.31885C49.7644 3.82689 50.7059 2.43779 52.1407 2.01565C53.1569 1.71673 54.2037 1.67387 55.2522 1.88816C55.3634 1.91066 55.4349 2.01887 55.4123 2.12976C55.3897 2.24012 55.2817 2.31137 55.1699 2.2894C54.1881 2.08905 53.2079 2.12869 52.2573 2.40833C51.01 2.77529 50.1916 3.98386 50.3109 5.28188L50.3974 6.22312C50.4076 6.33562 50.3249 6.43526 50.2115 6.44598C50.2045 6.44598 50.1986 6.44651 50.1921 6.44651Z" fill="white"/>
<path d="M37.9463 17.1804V13.2671C37.9463 11.916 39.0694 10.8339 40.4236 10.8805L67.4902 11.8051C68.6913 11.8464 69.6639 12.7914 69.736 13.9871L69.9622 17.7472L37.9463 17.1804Z" fill="url(#paint6_linear_8_837)"/>
<path d="M48.0392 12.355H46.8752C46.7618 12.355 46.6699 12.2634 46.6699 12.1503C46.6699 12.0373 46.7618 11.9457 46.8752 11.9457H48.0392C48.1526 11.9457 48.2445 12.0373 48.2445 12.1503C48.2445 12.2634 48.1526 12.355 48.0392 12.355Z" fill="white"/>
<path d="M39.4113 15.9517C39.2979 15.9517 39.2061 15.8601 39.2061 15.7471V14.1641C39.2061 12.941 40.2045 11.9457 41.4314 11.9457H45.7106C45.824 11.9457 45.9159 12.0373 45.9159 12.1503C45.9159 12.2634 45.824 12.355 45.7106 12.355H41.4314C40.4308 12.355 39.6166 13.1666 39.6166 14.1635V15.7465C39.6171 15.8601 39.5247 15.9517 39.4113 15.9517Z" fill="white"/>
<path d="M26.9181 18.1684C26.9837 16.813 28.1046 15.748 29.4658 15.748L76.7968 15.7469C78.4987 15.7469 79.9534 16.9678 80.2442 18.6398L80.2845 18.8707C80.6026 20.7017 79.1882 22.3764 77.324 22.3764H28.7646C27.6489 22.3764 26.7601 21.4464 26.8133 20.3359L26.9181 18.1684Z" fill="url(#paint7_linear_8_837)"/>
<path d="M8.70656 67.9145C12.9563 67.9145 16.4014 64.4801 16.4014 60.2436C16.4014 56.0071 12.9563 52.5728 8.70656 52.5728C4.45682 52.5728 1.01172 56.0071 1.01172 60.2436C1.01172 64.4801 4.45682 67.9145 8.70656 67.9145Z" fill="url(#paint8_linear_8_837)"/>
<path d="M8.70712 67.6595C12.8156 67.6595 16.1462 64.3393 16.1462 60.2436C16.1462 56.148 12.8156 52.8278 8.70712 52.8278C4.59864 52.8278 1.26807 56.148 1.26807 60.2436C1.26807 64.3393 4.59864 67.6595 8.70712 67.6595Z" fill="url(#paint9_linear_8_837)"/>
<path d="M2.57232 57.4752C2.52503 57.4752 2.4772 57.4645 2.43206 57.442C2.27783 57.3643 2.21603 57.1768 2.29395 57.0236C3.52349 54.5957 5.98096 53.0872 8.70712 53.0872C9.14241 53.0872 9.57822 53.1263 10.0017 53.2034C10.1715 53.2339 10.2843 53.3963 10.2532 53.5656C10.222 53.7348 10.0597 53.8484 9.88991 53.8157C9.50299 53.7456 9.10479 53.7097 8.70712 53.7097C6.21795 53.7097 3.97436 55.087 2.85176 57.3032C2.79641 57.4125 2.68624 57.4752 2.57232 57.4752Z" fill="white"/>
<path opacity="0.78" d="M8.8683 66.6816C12.3455 66.6816 15.1643 63.8715 15.1643 60.4052C15.1643 56.9388 12.3455 54.1288 8.8683 54.1288C5.39109 54.1288 2.57227 56.9388 2.57227 60.4052C2.57227 63.8715 5.39109 66.6816 8.8683 66.6816Z" fill="white"/>
<path d="M8.25096 65.0714V64.3884C7.53678 64.36 6.83065 64.1918 6.32873 63.9732C6.14978 63.895 6.05842 63.6946 6.11001 63.5066L6.28412 62.8707C6.34807 62.6371 6.60226 62.5166 6.82635 62.6104C7.32397 62.8182 7.9382 62.9827 8.6008 62.9827C9.28866 62.9827 9.80132 62.7502 9.80132 62.2739C9.80132 61.8438 9.40473 61.5882 8.44926 61.3327C7.08537 60.9609 6.10625 60.3679 6.10625 59.1711C6.10625 58.0906 6.8989 57.265 8.27461 57.0443V56.3613C8.27461 56.1416 8.45302 55.9633 8.67389 55.9633H9.07639C9.29672 55.9633 9.47567 56.1416 9.47567 56.3613V56.9747C10.1367 57.0009 10.6176 57.1134 10.9992 57.2474C11.1948 57.3159 11.3017 57.5259 11.2474 57.7252L11.0873 58.3134C11.0255 58.54 10.7826 58.6643 10.5617 58.5813C10.2103 58.449 9.71319 58.3107 9.06779 58.3107C8.2515 58.3107 8.01881 58.6477 8.01881 58.9498C8.01881 59.3216 8.50837 59.5772 9.56917 59.9029C11.0846 60.3561 11.7139 60.9834 11.7139 62.1105C11.7139 63.145 10.9443 64.0745 9.45256 64.307V65.0709C9.45256 65.2905 9.27415 65.4689 9.05328 65.4689H8.65078C8.42938 65.4689 8.25096 65.2911 8.25096 65.0714Z" fill="url(#paint10_linear_8_837)"/>
<path d="M22.4743 54.3038C28.3065 54.3038 33.0345 49.5906 33.0345 43.7765C33.0345 37.9625 28.3065 33.2493 22.4743 33.2493C16.642 33.2493 11.9141 37.9625 11.9141 43.7765C11.9141 49.5906 16.642 54.3038 22.4743 54.3038Z" fill="url(#paint11_linear_8_837)"/>
<path d="M22.4749 53.9538C28.113 53.9538 32.6836 49.3974 32.6836 43.7769C32.6836 38.1563 28.113 33.6 22.4749 33.6C16.8367 33.6 12.2661 38.1563 12.2661 43.7769C12.2661 49.3974 16.8367 53.9538 22.4749 53.9538Z" fill="url(#paint12_linear_8_837)"/>
<path d="M14.0563 39.7948C14.0192 39.7948 13.981 39.7863 13.9456 39.7686C13.8241 39.7075 13.7752 39.5597 13.8365 39.4391C15.4922 36.1686 18.8025 34.1372 22.4744 34.1372C23.0607 34.1372 23.6475 34.1897 24.2188 34.2936C24.3526 34.3177 24.4413 34.4458 24.4171 34.5792C24.3929 34.7126 24.265 34.8036 24.1307 34.7763C23.5884 34.6777 23.0312 34.6279 22.4744 34.6279C18.9889 34.6279 15.8479 36.5559 14.2761 39.6598C14.2331 39.7456 14.146 39.7948 14.0563 39.7948Z" fill="white"/>
<path opacity="0.78" d="M28.806 50.089C32.1803 46.7252 32.1803 41.2714 28.806 37.9075C25.4316 34.5437 19.9607 34.5437 16.5864 37.9075C13.212 41.2714 13.212 46.7252 16.5864 50.089C19.9607 53.4529 25.4316 53.4529 28.806 50.089Z" fill="white"/>
<path d="M21.8492 50.4018V49.4649C20.869 49.4258 19.9001 49.1954 19.2117 48.8949C18.9661 48.7877 18.8403 48.5124 18.9113 48.2547L19.1499 47.382C19.2375 47.0617 19.5868 46.8961 19.8941 47.0247C20.5772 47.3102 21.4203 47.5358 22.3296 47.5358C23.2732 47.5358 23.9772 47.217 23.9772 46.5629C23.9772 45.9731 23.4334 45.6222 22.1216 45.2713C20.2499 44.7608 18.9059 43.9476 18.9059 42.3051C18.9059 40.8217 19.9936 39.6897 21.8814 39.3865V38.4496C21.8814 38.148 22.1265 37.9037 22.429 37.9037H22.9814C23.284 37.9037 23.529 38.148 23.529 38.4496V39.2912C24.4356 39.3276 25.0961 39.4819 25.62 39.6656C25.8882 39.7594 26.0349 40.0476 25.9607 40.3214L25.7409 41.1287C25.656 41.4399 25.3223 41.6103 25.0197 41.4962C24.5377 41.3146 23.8558 41.1249 22.9691 41.1249C21.8492 41.1249 21.5294 41.5872 21.5294 42.0019C21.5294 42.5124 22.2011 42.8633 23.6569 43.3095C25.7366 43.9315 26.6007 44.7929 26.6007 46.3395C26.6007 47.7592 25.5448 49.0347 23.4973 49.354V50.4029C23.4973 50.7045 23.2523 50.9488 22.9497 50.9488H22.3973C22.0942 50.9483 21.8492 50.7034 21.8492 50.4018Z" fill="url(#paint13_linear_8_837)"/>
<path d="M29.7571 78.1217C35.7582 78.1217 40.623 73.272 40.623 67.2896C40.623 61.3072 35.7582 56.4575 29.7571 56.4575C23.756 56.4575 18.8911 61.3072 18.8911 67.2896C18.8911 73.272 23.756 78.1217 29.7571 78.1217Z" fill="url(#paint14_linear_8_837)"/>
<path d="M29.7573 77.7617C35.5589 77.7617 40.2621 73.0732 40.2621 67.2896C40.2621 61.506 35.5589 56.8175 29.7573 56.8175C23.9556 56.8175 19.2524 61.506 19.2524 67.2896C19.2524 73.0732 23.9556 77.7617 29.7573 77.7617Z" fill="url(#paint15_linear_8_837)"/>
<path d="M21.0948 63.1849C21.0578 63.1849 21.0196 63.1763 20.9841 63.1586C20.8627 63.0976 20.8138 62.9497 20.8751 62.8286C22.5775 59.466 25.9808 57.3767 29.757 57.3767C30.3583 57.3767 30.9618 57.4308 31.5503 57.5374C31.6841 57.5615 31.7727 57.6896 31.7486 57.823C31.7244 57.9563 31.5959 58.0469 31.4621 58.0206C30.9027 57.9194 30.3288 57.868 29.7565 57.868C26.1673 57.868 22.9327 59.8538 21.3141 63.0499C21.2716 63.1356 21.1846 63.1849 21.0948 63.1849Z" fill="white"/>
<path opacity="0.78" d="M36.2718 73.7849C39.7439 70.3235 39.7439 64.7116 36.2718 61.2503C32.7996 57.789 27.1702 57.789 23.698 61.2503C20.2259 64.7116 20.2259 70.3235 23.698 73.7849C27.1701 77.2462 32.7996 77.2462 36.2718 73.7849Z" fill="white"/>
<path d="M29.1135 74.1068V73.1425C28.1054 73.1024 27.108 72.865 26.3991 72.5559C26.146 72.4456 26.0171 72.1627 26.0901 71.897L26.3357 70.9986C26.426 70.6692 26.7855 70.4988 27.1015 70.6306C27.8044 70.9242 28.6718 71.1567 29.6074 71.1567C30.5784 71.1567 31.3028 70.8283 31.3028 70.1554C31.3028 69.5485 30.7434 69.1874 29.3935 68.8263C27.4675 68.3013 26.0848 67.464 26.0848 65.7738C26.0848 64.2476 27.2041 63.0824 29.1468 62.7706V61.8063C29.1468 61.4962 29.3994 61.2444 29.7105 61.2444H30.2791C30.5902 61.2444 30.8428 61.4962 30.8428 61.8063V62.6721C31.7757 62.709 32.455 62.8681 32.994 63.0572C33.2702 63.1542 33.4212 63.4504 33.3444 63.7322L33.1181 64.5631C33.0311 64.8835 32.6877 65.0587 32.376 64.9413C31.8794 64.7544 31.1782 64.5594 30.2662 64.5594C29.114 64.5594 28.7846 65.0351 28.7846 65.462C28.7846 65.987 29.4762 66.3481 30.9739 66.8077C33.1138 67.4479 34.0027 68.334 34.0027 69.9256C34.0027 71.3859 32.9161 72.699 30.809 73.0274V74.1063C30.809 74.4165 30.5564 74.6682 30.2452 74.6682H29.6767C29.3655 74.6688 29.1135 74.417 29.1135 74.1068Z" fill="url(#paint16_linear_8_837)"/>
<path d="M43.6972 60.4706C48.0942 60.4706 51.6586 56.9172 51.6586 52.534C51.6586 48.1507 48.0942 44.5974 43.6972 44.5974C39.3003 44.5974 35.7358 48.1507 35.7358 52.534C35.7358 56.9172 39.3003 60.4706 43.6972 60.4706Z" fill="url(#paint17_linear_8_837)"/>
<path d="M43.697 60.2071C47.9479 60.2071 51.394 56.7718 51.394 52.5341C51.394 48.2964 47.9479 44.8611 43.697 44.8611C39.4461 44.8611 36 48.2964 36 52.5341C36 56.7718 39.4461 60.2071 43.697 60.2071Z" fill="url(#paint18_linear_8_837)"/>
<path d="M37.3507 49.5925C37.3136 49.5925 37.2755 49.5839 37.24 49.5663C37.1186 49.5052 37.0697 49.3573 37.1309 49.2363C38.39 46.75 40.9061 45.2056 43.6972 45.2056C44.1422 45.2056 44.5882 45.2457 45.023 45.3245C45.1568 45.3486 45.2455 45.4766 45.2213 45.61C45.1971 45.7434 45.0687 45.8329 44.9349 45.8072C44.5291 45.7338 44.1127 45.6963 43.6972 45.6963C41.0925 45.6963 38.7452 47.1373 37.5705 49.457C37.5275 49.5432 37.4404 49.5925 37.3507 49.5925Z" fill="white"/>
<path opacity="0.78" d="M48.47 57.2934C51.0139 54.7574 51.0139 50.6457 48.47 48.1097C45.926 45.5737 41.8015 45.5737 39.2576 48.1097C36.7136 50.6457 36.7136 54.7574 39.2576 57.2934C41.8015 59.8294 45.926 59.8294 48.47 57.2934Z" fill="white"/>
<path d="M43.226 57.529V56.8224C42.4871 56.7929 41.7562 56.6188 41.2371 56.3928C41.0517 56.3119 40.9571 56.1045 41.0103 55.9101L41.1903 55.2522C41.2564 55.0106 41.5198 54.8858 41.7514 54.9828C42.2662 55.1981 42.9019 55.3679 43.5876 55.3679C44.2991 55.3679 44.8301 55.1274 44.8301 54.6345C44.8301 54.1899 44.42 53.9253 43.4307 53.6606C42.0195 53.276 41.0066 52.6626 41.0066 51.424C41.0066 50.306 41.8266 49.4521 43.2502 49.2239V48.5173C43.2502 48.2901 43.435 48.1058 43.6629 48.1058H44.0793C44.3072 48.1058 44.4921 48.2901 44.4921 48.5173V49.1515C45.1756 49.1789 45.6732 49.2951 46.0682 49.4339C46.2708 49.5046 46.381 49.7221 46.3251 49.9283L46.1596 50.5369C46.0956 50.7715 45.8441 50.9001 45.6157 50.8144C45.2519 50.6773 44.7382 50.5347 44.0697 50.5347C43.2254 50.5347 42.9841 50.8835 42.9841 51.1958C42.9841 51.5805 43.4909 51.8451 44.5882 52.1815C46.1563 52.6503 46.8077 53.2996 46.8077 54.4658C46.8077 55.5361 46.0118 56.4978 44.4679 56.7383V57.529C44.4679 57.7561 44.283 57.9404 44.0552 57.9404H43.6387C43.4108 57.941 43.226 57.7567 43.226 57.529Z" fill="url(#paint19_linear_8_837)"/>
<path d="M78.402 115.286C74.3893 115.286 70.986 114.437 68.1916 112.741C65.3972 111.045 64 108.822 64 106.071C64 104.036 64.7163 102.321 66.1495 100.928C67.5822 99.5356 69.3201 98.8392 71.3622 98.8392C73.5117 98.8392 75.24 99.3931 76.548 100.5C77.8554 101.607 78.5094 103.071 78.5094 104.893C78.5094 106.214 78.2407 107.241 77.7034 107.973C77.166 108.705 76.548 109.357 75.8494 109.928C75.1508 110.5 74.6403 110.911 74.3178 111.161C74.0669 111.447 73.9417 111.803 73.9417 112.232C73.9417 112.768 74.2818 113.259 74.9627 113.705C75.643 114.152 76.4674 114.375 77.4347 114.375C80.372 114.375 82.7634 112.786 84.6088 109.607C86.4536 106.429 87.3763 103.161 87.3763 99.8035C87.3763 97.9108 86.991 96.4017 86.2209 95.2767C85.4503 94.1517 84.1697 93.5892 82.3786 93.5892C81.4828 93.5892 80.6407 93.6963 79.8529 93.9106C79.1006 94.1967 78.366 94.4646 77.6496 94.7142C77.2197 94.7142 77.0048 94.4287 77.0048 93.8571C77.0048 93.5003 77.4717 93.241 78.4068 93.0803C79.3413 92.9196 80.2404 92.8392 81.1039 92.8392C84.1241 92.8392 86.6417 91.786 88.6553 89.6785C90.6689 87.5715 91.6754 84.9466 91.6754 81.8035C91.6754 80.2682 91.2251 78.9466 90.3255 77.8393C89.4254 76.7325 87.9863 76.1786 86.006 76.1786C84.3503 76.1786 82.973 76.4373 81.8756 76.9527C80.7772 77.4691 80.2291 78.0836 80.2291 78.795C80.2291 79.5434 81.0798 80.1568 82.7817 80.6373C84.483 81.1178 85.3342 82.4084 85.3342 84.5089C85.3342 86.0399 84.7249 87.2501 83.5071 88.1399C82.2889 89.0303 80.7665 89.4749 78.9393 89.4749C77.1837 89.4749 75.7688 88.9944 74.694 88.0328C73.6192 87.0717 73.0818 85.7721 73.0818 84.1339C73.0818 82.4244 73.7982 80.903 75.2314 79.5669C76.6641 78.2319 78.2585 77.2527 80.0141 76.6296C81.7692 76.0071 83.3819 75.5791 84.8533 75.3471C86.3236 75.1162 87.903 75 89.5914 75C93.7949 75 97.3239 75.7216 100.181 77.1632C103.037 78.6053 104.465 80.626 104.465 83.2253C104.465 86.2521 103.157 88.5406 100.542 90.0889C97.9268 91.6381 94.9352 92.4128 91.5679 92.4128V92.8397C94.6128 92.8397 97.1116 93.654 99.0645 95.2831C101.017 96.9122 101.993 98.8724 101.993 101.164C101.993 105.997 99.668 109.558 95.018 111.849C90.3685 114.141 84.8291 115.286 78.402 115.286Z" fill="url(#paint20_linear_8_837)"/>
<path d="M146.811 91.3392C146.811 97.5181 144.285 103.054 139.234 107.946C134.182 112.839 128.253 115.286 121.446 115.286C116.86 115.286 113.278 113.768 110.698 110.732C108.119 107.697 106.829 103.768 106.829 98.9463C106.829 92.4824 109.435 86.8751 114.648 82.125C119.861 77.3753 125.709 75 132.194 75C136.672 75 140.228 76.4732 142.861 79.4196C145.494 82.366 146.811 86.3399 146.811 91.3392ZM137.03 78.8036C137.03 77.8752 136.788 77.1787 136.305 76.7143C135.821 76.2504 135.096 76.0179 134.128 76.0179C133.018 76.0179 131.987 76.4379 131.038 77.2768C130.089 78.1162 128.754 80.0893 127.035 83.1964C125.315 86.3035 123.147 91.2947 120.532 98.1695C117.917 105.045 116.61 109.482 116.61 111.482C116.61 112.411 116.851 113.107 117.335 113.571C117.819 114.036 118.544 114.268 119.511 114.268C120.658 114.268 121.688 113.848 122.601 113.009C123.515 112.17 124.867 110.161 126.659 106.982C128.45 103.804 130.626 98.7947 133.188 91.9553C135.749 85.1169 137.03 80.7321 137.03 78.8036Z" fill="url(#paint21_linear_8_837)"/>
<path d="M94.6447 124.098C94.5727 124.277 94.5216 124.413 94.4899 124.506C94.4582 124.6 94.4426 124.687 94.4426 124.768C94.4426 124.83 94.4582 124.877 94.4899 124.908C94.5211 124.94 94.5684 124.955 94.6307 124.955C94.908 124.955 95.1837 124.777 95.4572 124.419C95.7302 124.063 95.9226 123.792 96.0349 123.609C96.1467 123.427 96.2923 123.183 96.4713 122.88L96.6459 122.96C96.3504 123.505 96.0881 123.938 95.8603 124.259C95.6324 124.581 95.3315 124.867 94.9601 125.116C94.5883 125.366 94.1653 125.491 93.6908 125.491C93.2786 125.491 92.9363 125.364 92.6633 125.11C92.3898 124.856 92.2538 124.514 92.2538 124.086L92.2673 123.912C91.918 124.439 91.5751 124.834 91.2398 125.097C90.9045 125.36 90.4853 125.492 89.9834 125.492C89.4277 125.492 88.9801 125.304 88.6399 124.929C88.2992 124.554 88.1294 124.041 88.1294 123.389C88.1294 122.363 88.5572 121.354 89.4127 120.363C90.2677 119.371 91.2376 118.876 92.321 118.876C92.7595 118.876 93.1024 118.956 93.3485 119.117C93.5946 119.278 93.7182 119.532 93.7182 119.88L93.7048 120.081C93.7585 119.939 93.931 119.501 94.2218 118.769C94.5125 118.037 94.7167 117.521 94.8333 117.222C94.9494 116.923 95.0348 116.695 95.0886 116.539C95.1423 116.383 95.1692 116.264 95.1692 116.184C95.1692 116.015 95.0972 115.91 94.9542 115.869C94.8107 115.829 94.4926 115.809 94.0004 115.809V115.595H98.0979L94.6447 124.098ZM93.5296 119.853C93.5296 119.71 93.4979 119.603 93.4356 119.531C93.3727 119.46 93.2786 119.424 93.1534 119.424C92.9831 119.424 92.802 119.54 92.6096 119.772C92.4167 120.005 92.155 120.448 91.8239 121.105C91.4924 121.761 91.1458 122.503 90.7825 123.328C90.4197 124.154 90.2386 124.683 90.2386 124.915C90.2386 124.995 90.2591 125.058 90.2988 125.103C90.3391 125.148 90.395 125.169 90.4665 125.169C90.7889 125.169 91.0711 125.04 91.3129 124.781C91.5547 124.522 91.7428 124.297 91.8771 124.105C92.0115 123.913 92.1614 123.641 92.3275 123.288C92.493 122.936 92.7348 122.348 93.0529 121.527C93.3705 120.705 93.5296 120.147 93.5296 119.853Z" fill="url(#paint22_linear_8_837)"/>
<path d="M105.809 119.009L103.485 124.098C103.458 124.152 103.413 124.268 103.35 124.446C103.288 124.625 103.256 124.737 103.256 124.781C103.256 124.853 103.272 124.909 103.304 124.948C103.335 124.988 103.382 125.008 103.444 125.008C103.57 125.008 103.744 124.919 103.968 124.74C104.192 124.562 104.432 124.31 104.687 123.984C104.943 123.658 105.173 123.294 105.38 122.892L105.554 122.973C105.303 123.437 105.046 123.85 104.781 124.211C104.517 124.573 104.188 124.877 103.794 125.122C103.399 125.367 102.925 125.49 102.37 125.49C101.922 125.49 101.586 125.368 101.362 125.122C101.138 124.877 101.026 124.508 101.026 124.017C100.677 124.535 100.343 124.91 100.026 125.142C99.7075 125.374 99.298 125.49 98.7961 125.49C98.2587 125.49 97.8175 125.318 97.473 124.975C97.128 124.632 96.9561 124.183 96.9561 123.629C96.9561 122.576 97.4419 121.52 98.4135 120.462C99.385 119.404 100.462 118.875 101.644 118.875C101.922 118.875 102.172 118.942 102.397 119.076C102.62 119.21 102.732 119.42 102.732 119.706L102.692 120.027L103.162 119.009H105.809V119.009ZM102.558 119.732C102.558 119.59 102.529 119.485 102.471 119.417C102.412 119.35 102.321 119.316 102.196 119.316C102.025 119.316 101.831 119.45 101.611 119.718C101.391 119.986 101.107 120.455 100.758 121.124C100.408 121.794 100.059 122.535 99.7096 123.348C99.3603 124.16 99.1857 124.687 99.1857 124.928C99.1857 125.008 99.2034 125.071 99.2394 125.115C99.2749 125.16 99.3286 125.182 99.4006 125.182C99.6779 125.182 99.9423 125.046 100.193 124.774C100.444 124.502 100.637 124.27 100.771 124.078C100.905 123.886 101.082 123.56 101.302 123.1C101.521 122.64 101.786 122.049 102.095 121.326C102.404 120.603 102.558 120.072 102.558 119.732Z" fill="url(#paint23_linear_8_837)"/>
<path d="M106.991 128.464C106.427 128.464 105.957 128.312 105.58 128.009C105.204 127.705 105.016 127.348 105.016 126.937C105.016 126.616 105.137 126.33 105.379 126.08C105.621 125.83 105.947 125.705 106.36 125.705C106.7 125.705 106.993 125.815 107.24 126.033C107.486 126.252 107.61 126.522 107.61 126.843C107.61 127.325 107.376 127.633 106.911 127.767C106.678 127.803 106.512 127.827 106.414 127.841C106.315 127.855 106.266 127.91 106.266 128.008C106.266 128.089 106.313 128.149 106.407 128.189C106.501 128.23 106.643 128.249 106.831 128.249C107.297 128.249 107.723 128.044 108.109 127.634C108.494 127.224 108.823 126.752 109.097 126.217C109.371 125.682 109.731 124.899 110.18 123.865L110.14 123.851C109.799 124.381 109.442 124.788 109.07 125.07C108.697 125.353 108.251 125.495 107.73 125.495C107.318 125.495 106.96 125.367 106.656 125.112C106.351 124.857 106.199 124.466 106.199 123.937C106.199 123.696 106.257 123.418 106.374 123.105C106.49 122.792 106.622 122.479 106.77 122.165C106.918 121.852 107.171 121.364 107.529 120.702C107.887 120.04 108.066 119.646 108.066 119.521C108.066 119.45 108.048 119.396 108.013 119.36C107.977 119.325 107.923 119.307 107.851 119.307C107.627 119.307 107.392 119.459 107.146 119.763C106.9 120.066 106.683 120.363 106.495 120.654C106.307 120.945 106.159 121.179 106.052 121.357L105.877 121.277C106.378 120.452 106.804 119.845 107.153 119.455C107.503 119.065 108 118.87 108.645 118.87C109.11 118.87 109.464 119.015 109.706 119.306C109.948 119.597 110.069 119.947 110.069 120.359C110.069 120.672 110.033 120.927 109.961 121.124C109.889 121.321 109.764 121.607 109.585 121.983C109.405 122.359 109.144 122.876 108.799 123.534C108.454 124.191 108.282 124.623 108.282 124.829C108.282 124.918 108.303 124.986 108.343 125.03C108.382 125.075 108.444 125.097 108.524 125.097C108.623 125.097 108.739 125.057 108.873 124.977C109.008 124.896 109.153 124.778 109.31 124.622C109.466 124.465 109.634 124.259 109.814 124.004C109.993 123.749 110.179 123.423 110.372 123.025C110.564 122.627 110.844 122.008 111.211 121.167C111.578 120.327 111.8 119.806 111.876 119.605C111.952 119.404 112.031 119.204 112.112 119.008H114.732C114.606 119.312 114.425 119.758 114.188 120.347C113.95 120.936 113.706 121.531 113.456 122.128C113.205 122.727 112.822 123.595 112.307 124.733C111.791 125.871 111.096 126.777 110.217 127.452C109.337 128.127 108.262 128.464 106.991 128.464Z" fill="url(#paint24_linear_8_837)"/>
<path d="M118.391 118.875C118.957 118.875 119.44 119.015 119.84 119.297C120.239 119.579 120.439 119.929 120.439 120.348C120.439 120.661 120.343 120.926 120.149 121.145C119.955 121.364 119.709 121.473 119.412 121.473C119.15 121.473 118.907 121.371 118.682 121.165C118.456 120.96 118.344 120.715 118.344 120.429C118.344 120.268 118.386 120.123 118.471 119.994C118.556 119.864 118.65 119.773 118.754 119.719C118.856 119.666 118.986 119.623 119.143 119.592C119.3 119.561 119.379 119.5 119.379 119.411C119.379 119.33 119.304 119.255 119.157 119.183C119.009 119.112 118.806 119.076 118.546 119.076C118.187 119.076 117.892 119.163 117.659 119.338C117.426 119.513 117.31 119.738 117.31 120.016C117.31 120.23 117.35 120.401 117.43 120.526C117.511 120.651 117.655 120.807 117.861 120.995L118.937 121.935C119.18 122.159 119.359 122.387 119.476 122.62C119.592 122.852 119.65 123.121 119.65 123.425C119.65 124.087 119.34 124.601 118.721 124.968C118.101 125.335 117.414 125.518 116.659 125.518C115.985 125.518 115.377 125.346 114.833 125C114.29 124.655 114.018 124.204 114.018 123.648C114.018 123.352 114.12 123.099 114.322 122.888C114.525 122.677 114.784 122.572 115.099 122.572C115.36 122.572 115.604 122.679 115.83 122.893C116.055 123.108 116.168 123.358 116.168 123.643C116.168 123.849 116.109 124.027 115.993 124.179C115.876 124.331 115.746 124.422 115.603 124.453C115.46 124.485 115.341 124.512 115.248 124.534C115.154 124.556 115.107 124.608 115.107 124.688C115.107 124.816 115.23 124.951 115.477 125.092C115.723 125.233 116.016 125.304 116.357 125.304C116.661 125.304 116.925 125.219 117.149 125.049C117.373 124.879 117.485 124.66 117.485 124.391C117.485 124.159 117.445 123.98 117.364 123.854C117.284 123.729 117.161 123.593 116.995 123.445C116.829 123.297 116.623 123.116 116.377 122.901C116.13 122.687 115.942 122.501 115.812 122.345C115.682 122.188 115.582 122.031 115.51 121.875C115.438 121.719 115.403 121.515 115.403 121.264C115.403 120.665 115.674 120.117 116.218 119.62C116.761 119.124 117.484 118.875 118.391 118.875Z" fill="url(#paint25_linear_8_837)"/>
<path d="M34.3917 146.67C32.9123 146.798 30.3452 147.005 28.3214 147.094C27.1048 147.147 26.4046 147.028 26.001 146.867C26.0015 146.913 26.0031 146.955 26.0047 146.995C26.0144 147.207 26.1874 147.377 26.4024 147.389C30.2265 147.602 33.2681 147.463 34.3509 147.397C34.575 147.384 34.7083 147.141 34.5938 146.951C34.5363 146.856 34.467 146.762 34.3917 146.67Z" fill="url(#paint26_linear_8_837)"/>
<path d="M28.3214 147.093C30.3452 147.004 32.9128 146.798 34.3917 146.67C32.9376 144.892 28.3214 143.693 28.3214 143.693H27.0177C26.1208 144.981 25.9913 146.208 26.001 146.867C26.404 147.028 27.1048 147.147 28.3214 147.093Z" fill="url(#paint27_linear_8_837)"/>
<path d="M26.7979 141.571L26.9198 143.978C26.9333 144.238 27.1289 144.457 27.3906 144.495C27.6512 144.532 28 144.537 28.3697 144.414C28.5976 144.339 28.7663 144.147 28.8082 143.914L29.2296 141.572H26.7979V141.571Z" fill="url(#paint28_linear_8_837)"/>
<path d="M11.666 149.447C11.0244 149.332 10.7342 148.902 10.6127 148.444C10.6122 148.448 10.6111 148.452 10.6106 148.456C10.516 148.94 10.7353 149.442 11.1722 149.681C11.7009 149.969 12.2786 150.018 12.7279 149.995C13.2094 149.969 13.6511 149.712 13.894 149.301L13.8978 149.295C13.4147 149.603 12.736 149.639 11.666 149.447Z" fill="url(#paint29_linear_8_837)"/>
<path d="M14.691 142.313H13.6157C11.9778 142.27 10.9497 146.72 10.6128 148.444C10.7342 148.903 11.025 149.332 11.6661 149.447C12.736 149.639 13.4142 149.603 13.8973 149.295C14.7818 147.795 15.2209 145.598 15.4315 144.315C15.6717 142.857 14.691 142.313 14.691 142.313Z" fill="url(#paint30_linear_8_837)"/>
<path d="M13.7536 140.079L13.1565 142.446C13.0834 142.736 13.2226 143.036 13.4919 143.174C13.8256 143.345 14.2963 143.524 14.7284 143.472C14.9315 143.447 15.1003 143.305 15.1674 143.114L16.0439 140.624L13.7536 140.079Z" fill="url(#paint31_linear_8_837)"/>
<path d="M34.7561 108.902C34.7561 108.902 29.4209 142.148 29.5085 142.331C29.5085 142.331 28.035 142.999 26.4288 142.416C26.4288 142.416 26.9113 124.644 28.042 117.829C28.042 117.829 18.9365 133.714 16.0448 141.629C16.0448 141.629 14.5369 141.45 13.2886 140.631C13.2886 140.631 23.0927 112.038 25.7081 108.23L34.7561 108.902Z" fill="url(#paint32_linear_8_837)"/>
<path d="M28.254 117.656C28.2255 117.656 28.1965 117.649 28.1707 117.632C28.097 117.586 28.0745 117.489 28.1207 117.416L30.1144 114.241C30.1375 114.205 30.1746 114.179 30.217 114.17L31.6841 113.876C31.7701 113.859 31.8529 113.914 31.8701 113.999C31.8873 114.084 31.8319 114.167 31.7465 114.184L30.3455 114.465L28.3878 117.582C28.3577 117.63 28.3066 117.656 28.254 117.656Z" fill="url(#paint33_linear_8_837)"/>
<path d="M59.2393 76.3469C59.2393 76.3469 55.6394 77.1387 53.4495 78.1464C53.0148 78.3467 52.6676 78.6966 52.4704 79.1278C51.8153 80.5581 49.856 84.1442 46.0562 85.8552C46.6032 86.5795 47.4845 88.0854 47.8682 90.6166C50.1505 88.9233 52.1206 86.0953 53.0669 81.4576C53.0669 81.4576 53.787 81.8481 54.6861 81.4131C55.1606 81.1833 55.7087 80.8571 56.1204 80.601C56.5304 80.3455 56.8356 79.9485 56.9544 79.4846C57.1108 78.8723 57.0189 78.3333 57.0189 77.7558L58.8696 77.1842C58.8685 77.1837 59.4247 76.9748 59.2393 76.3469Z" fill="url(#paint34_linear_8_837)"/>
<path d="M47.8675 90.6169C47.4838 88.0857 46.6025 86.5792 46.0554 85.8555C43.6947 86.9189 40.6241 87.2585 36.714 85.908C36.3535 85.7837 35.9778 85.7109 35.5963 85.6884C33.515 85.5667 26.6552 85.3444 20.9793 87.2141C19.7847 87.6073 18.8174 88.488 18.3187 89.6285C16.7834 93.1412 14.2975 101.14 21.1986 105.179C21.729 103.867 22.3405 102.812 22.864 102.037C21.7526 100.169 21.4232 97.6165 23.3954 94.2924C24.8335 98.1635 25.5079 103.811 25.6492 106.311C25.6955 107.133 25.5509 107.955 25.2269 108.715L25.1914 108.798C25.1221 108.96 25.2177 109.147 25.3918 109.186C29.2766 110.056 33.3172 109.82 34.5247 109.72C34.7402 109.703 34.9192 109.549 34.9686 109.341C36.8575 101.406 36.8618 95.9928 36.3997 92.5712C38.1671 92.9649 43.5711 93.8055 47.8675 90.6169Z" fill="url(#paint35_linear_8_837)"/>
<path d="M36.4076 92.7846C36.3297 92.7846 36.262 92.7273 36.2518 92.648C35.8079 89.3068 34.9045 87.8491 34.8954 87.8347C34.8492 87.7613 34.8707 87.6643 34.9443 87.6177C35.0174 87.5716 35.1147 87.593 35.1614 87.6664C35.2001 87.727 36.1099 89.1868 36.564 92.6067C36.5753 92.693 36.5145 92.7717 36.4286 92.783C36.421 92.784 36.4141 92.7846 36.4076 92.7846Z" fill="url(#paint36_linear_8_837)"/>
<path d="M26.8202 81.0654C26.8202 81.0654 26.4274 85.2081 26.0813 86.4332C26.0287 86.6191 26.1098 86.8152 26.2791 86.9116C26.8665 87.2459 28.275 87.7918 30.202 86.8506C30.5142 86.6979 30.7018 86.3738 30.6873 86.0304L30.5175 82.0275L26.8202 81.0654Z" fill="url(#paint37_linear_8_837)"/>
<path d="M30.6016 75.7659C30.6016 75.7659 31.8585 78.6442 31.9429 80.1555C32.0273 81.6662 32.354 82.6465 30.6016 82.9508C28.8492 83.2551 27.373 82.3845 26.5728 80.8797C26.5728 80.8797 25.3196 78.5607 25.6006 77.6108C25.8822 76.6616 30.6016 75.7659 30.6016 75.7659Z" fill="url(#paint38_linear_8_837)"/>
<path d="M27.1722 79.798L27.2721 79.7541C27.3989 79.6984 27.4532 79.5479 27.3898 79.4246C27.1426 78.9484 26.6611 77.8577 27.2834 77.6032C28.0852 77.2754 31.2628 76.6293 31.9479 75.5054C32.6068 74.4254 32.0232 73.0309 31.1456 72.6345C31.087 72.6077 31.0177 72.6291 30.9876 72.6859L30.9145 72.8236C30.8646 72.9179 30.7248 72.904 30.6947 72.8011C30.6663 72.7025 30.5346 72.6838 30.4803 72.7706C30.2697 73.107 29.7006 73.6518 28.1798 73.932C26.0179 74.3295 24.5884 75.2022 24.5529 76.6914C24.5508 76.7863 24.4498 76.8388 24.3686 76.7895C24.209 76.6925 23.9537 76.647 23.612 76.933C23.0182 77.4307 23.2611 78.7218 24.5626 79.7836C24.6244 79.8339 24.6239 79.9303 24.5572 79.9737C24.3213 80.127 23.9693 80.4912 24.8807 80.9771C25.8233 81.4796 26.5273 81.4384 26.7987 81.3939C26.8659 81.3827 26.9094 81.3178 26.8949 81.2514L26.6058 79.9427C26.5896 79.8687 26.6461 79.7986 26.7218 79.7986H27.1722V79.798Z" fill="url(#paint39_linear_8_837)"/>
<path d="M27.2264 80.074C27.2264 80.074 26.7471 78.2354 25.9201 78.7507C25.093 79.2661 26.3494 80.8111 27.0142 80.8797L27.2264 80.074Z" fill="url(#paint40_linear_8_837)"/>
<path d="M54.0264 81.0302C53.9915 81.0302 53.9566 81.019 53.927 80.9949C53.8593 80.9402 53.8491 80.8411 53.9044 80.7742C54.0404 80.607 55.249 79.1343 55.7143 78.8724C55.8836 78.777 55.9847 78.6784 56.0061 78.5874C56.0164 78.544 56.0094 78.4952 55.9852 78.4395L54.566 78.7229L53.7615 79.4108C53.6959 79.4675 53.596 79.46 53.5395 79.3941C53.4826 79.3283 53.4906 79.2291 53.5562 79.1724L54.3918 78.4577C54.4123 78.44 54.437 78.4282 54.4633 78.4229L56.0346 78.109C56.0975 78.0961 56.1609 78.1229 56.1964 78.1754C56.3114 78.3457 56.3495 78.5043 56.313 78.6591C56.2695 78.8424 56.1244 79.002 55.8697 79.1456C55.5193 79.3427 54.509 80.5309 54.1495 80.9718C54.1178 81.0104 54.0721 81.0302 54.0264 81.0302Z" fill="#F8A570"/>
<path d="M27.1658 107.17L32.7224 107.238L30.7776 105.414C30.2945 104.96 29.5566 104.886 28.9983 105.247C28.6716 105.459 28.3174 105.746 28.0106 106.125C28.0106 106.125 24.5444 104.862 22.8646 102.037C22.3412 102.812 21.7296 103.867 21.1992 105.179C22.705 106.06 24.6578 106.753 27.1658 107.17Z" fill="url(#paint41_linear_8_837)"/>
<path d="M27.7643 107.884C27.775 107.885 27.7858 107.885 27.7965 107.885L41.9008 107.87C42.2496 107.869 42.5317 107.59 42.5317 107.247C42.5311 106.903 42.2474 106.618 41.8997 106.625L27.7954 106.64C27.4467 106.64 27.1646 106.919 27.1646 107.263C27.1651 107.596 27.4306 107.868 27.7643 107.884Z" fill="url(#paint42_linear_8_837)"/>
<path d="M54.5798 95.2529H42.8336C41.9673 95.2529 41.1784 95.7463 40.8087 96.5193L35.3784 107.876H49.9754C50.5338 107.876 51.0357 107.54 51.241 107.028L55.452 96.5183C55.6954 95.9113 55.2418 95.2529 54.5798 95.2529Z" fill="url(#paint43_linear_8_837)"/>
<path d="M46.3045 101.076C46.0498 101.856 46.2379 102.614 46.7248 102.768C47.2111 102.922 47.8119 102.415 48.0666 101.635C48.3214 100.855 48.1333 100.098 47.6464 99.9436C47.1595 99.7893 46.5592 100.296 46.3045 101.076Z" fill="url(#paint44_linear_8_837)"/>
<path d="M126.731 142.363C126.731 142.363 131.845 119.417 124.97 122.575C118.094 125.732 124.274 141.75 124.97 142.751C125.664 143.753 126.33 144.328 126.731 142.363Z" fill="url(#paint45_linear_8_837)"/>
<path d="M126.217 142.99C126.217 142.99 123.988 127.112 130.366 128.327C136.743 129.542 127.084 142.858 127.022 143.431C126.96 144.003 126.217 142.99 126.217 142.99Z" fill="url(#paint46_linear_8_837)"/>
<path d="M125.4 143.076C125.4 143.076 123.883 128.943 118.981 131.232C114.078 133.522 124.671 143.13 124.841 143.612C125.011 144.094 125.4 143.076 125.4 143.076Z" fill="url(#paint47_linear_8_837)"/>
<g opacity="0.7">
<path opacity="0.7" d="M127.17 125.168C127.131 125.168 127.095 125.142 127.084 125.103C126.88 124.42 126.541 123.962 126.078 123.74C125.424 123.427 124.739 123.696 124.732 123.698C124.686 123.717 124.633 123.694 124.615 123.648C124.596 123.602 124.618 123.55 124.665 123.531C124.696 123.519 125.431 123.229 126.156 123.577C126.667 123.822 127.038 124.319 127.257 125.052C127.271 125.1 127.244 125.15 127.196 125.164C127.188 125.167 127.179 125.168 127.17 125.168Z" fill="white"/>
<path opacity="0.7" d="M127.17 140.898C127.154 140.898 127.136 140.893 127.121 140.883C127.079 140.856 127.068 140.8 127.094 140.758C127.119 140.721 129.543 136.969 131.144 133.505C131.641 132.43 131.714 131.49 131.361 130.711C130.83 129.54 129.5 129.134 129.487 129.13C129.439 129.115 129.412 129.065 129.426 129.018C129.44 128.97 129.491 128.943 129.538 128.957C129.597 128.974 130.961 129.392 131.526 130.637C131.902 131.465 131.829 132.455 131.309 133.581C129.702 137.056 127.271 140.819 127.247 140.857C127.229 140.883 127.2 140.898 127.17 140.898Z" fill="white"/>
<path opacity="0.7" d="M124.112 140.851C124.069 140.851 124.03 140.821 124.022 140.777C124.02 140.762 123.73 139.204 122.325 134.955C121.784 133.319 121.061 132.313 120.234 132.048C119.516 131.817 118.951 132.22 118.945 132.224C118.905 132.254 118.848 132.244 118.819 132.204C118.789 132.164 118.798 132.108 118.838 132.078C118.864 132.06 119.48 131.619 120.286 131.875C121.184 132.162 121.928 133.179 122.497 134.899C123.908 139.165 124.198 140.731 124.201 140.746C124.209 140.795 124.177 140.842 124.128 140.851C124.122 140.851 124.117 140.851 124.112 140.851Z" fill="white"/>
</g>
<path d="M121.322 142.308L122.711 147.247C122.925 148.007 123.617 148.535 124.409 148.541L127.546 148.564C128.447 148.571 129.21 147.905 129.323 147.014L129.977 141.832L121.322 142.308Z" fill="url(#paint48_linear_8_837)"/>
<path d="M129.853 141.477L121.234 141.628C120.814 141.636 120.476 142.003 120.479 142.449C120.482 142.894 120.823 143.252 121.243 143.248L129.853 143.167C130.312 143.163 130.686 142.78 130.686 142.311C130.686 141.843 130.312 141.469 129.853 141.477Z" fill="url(#paint49_linear_8_837)"/>
<path d="M42.4701 35.4781H45.0381V37.4941H39.8061V28.9981H42.4701V35.4781ZM50.0164 37.5781C49.2164 37.5781 48.4804 37.3901 47.8084 37.0141C47.1444 36.6381 46.6164 36.1181 46.2244 35.4541C45.8324 34.7901 45.6364 34.0421 45.6364 33.2101C45.6364 32.3781 45.8324 31.6301 46.2244 30.9661C46.6164 30.3021 47.1444 29.7861 47.8084 29.4181C48.4804 29.0421 49.2164 28.8541 50.0164 28.8541C50.8164 28.8541 51.5484 29.0421 52.2124 29.4181C52.8764 29.7861 53.4004 30.3021 53.7844 30.9661C54.1764 31.6301 54.3724 32.3781 54.3724 33.2101C54.3724 34.0421 54.1764 34.7901 53.7844 35.4541C53.4004 36.1181 52.8724 36.6381 52.2004 37.0141C51.5364 37.3901 50.8084 37.5781 50.0164 37.5781ZM50.0164 35.0941C50.5444 35.0941 50.9524 34.9261 51.2404 34.5901C51.5284 34.2461 51.6724 33.7861 51.6724 33.2101C51.6724 32.6261 51.5284 32.1661 51.2404 31.8301C50.9524 31.4861 50.5444 31.3141 50.0164 31.3141C49.4804 31.3141 49.0684 31.4861 48.7804 31.8301C48.4924 32.1661 48.3484 32.6261 48.3484 33.2101C48.3484 33.7861 48.4924 34.2461 48.7804 34.5901C49.0684 34.9261 49.4804 35.0941 50.0164 35.0941ZM60.7814 36.2101H57.9494L57.5294 37.4941H54.7334L57.8414 28.9981H60.9134L64.0094 37.4941H61.2014L60.7814 36.2101ZM60.1334 34.2061L59.3654 31.8421L58.5974 34.2061H60.1334ZM72.7626 37.4941H70.0986L67.2786 33.2221V37.4941H64.6146V28.9981H67.2786L70.0986 33.3421V28.9981H72.7626V37.4941Z" fill="#93278F"/>
<defs>
<linearGradient id="paint0_linear_8_837" x1="158.699" y1="168.695" x2="48.9142" y2="49.8268" gradientUnits="userSpaceOnUse">
<stop stop-color="#B37CFF"/>
<stop offset="1" stop-color="#F895E7"/>
</linearGradient>
<linearGradient id="paint1_linear_8_837" x1="115.503" y1="67.8879" x2="78.6636" y2="186.623" gradientUnits="userSpaceOnUse">
<stop stop-color="#DDA9C0"/>
<stop offset="1" stop-color="#B796D1"/>
</linearGradient>
<linearGradient id="paint2_linear_8_837" x1="81.5854" y1="86.2076" x2="115.861" y2="-28.0924" gradientUnits="userSpaceOnUse">
<stop stop-color="#CB9EDD"/>
<stop offset="1" stop-color="#D16383"/>
</linearGradient>
<linearGradient id="paint3_linear_8_837" x1="55.4829" y1="133.105" x2="48.6255" y2="-70.5137" gradientUnits="userSpaceOnUse">
<stop stop-color="#8E9BFF"/>
<stop offset="1" stop-color="#5B42FF"/>
</linearGradient>
<linearGradient id="paint4_linear_8_837" x1="61.6387" y1="24.7523" x2="46.785" y2="157.886" gradientUnits="userSpaceOnUse">
<stop stop-color="#53D8FF"/>
<stop offset="1" stop-color="#3840F7"/>
</linearGradient>
<linearGradient id="paint5_linear_8_837" x1="66.2955" y1="-8.91165" x2="31.9223" y2="36.4469" gradientUnits="userSpaceOnUse">
<stop stop-color="#2B3582"/>
<stop offset="1" stop-color="#150E42"/>
</linearGradient>
<linearGradient id="paint6_linear_8_837" x1="70.0808" y1="-6.04319" x2="35.7076" y2="39.3154" gradientUnits="userSpaceOnUse">
<stop stop-color="#2B3582"/>
<stop offset="1" stop-color="#150E42"/>
</linearGradient>
<linearGradient id="paint7_linear_8_837" x1="52.5295" y1="-4.07155" x2="54.2656" y2="36.1755" gradientUnits="userSpaceOnUse">
<stop stop-color="#53D8FF"/>
<stop offset="1" stop-color="#3840F7"/>
</linearGradient>
<linearGradient id="paint8_linear_8_837" x1="-1.82302" y1="72.4273" x2="8.46096" y2="60.4532" gradientUnits="userSpaceOnUse">
<stop stop-color="#FDF53F"/>
<stop offset="1" stop-color="#D93C65"/>
</linearGradient>
<linearGradient id="paint9_linear_8_837" x1="14.3305" y1="51.7747" x2="-16.0564" y2="97.8243" gradientUnits="userSpaceOnUse">
<stop stop-color="#FDF53F"/>
<stop offset="1" stop-color="#D93C65"/>
</linearGradient>
<linearGradient id="paint10_linear_8_837" x1="13.4196" y1="53.0916" x2="-2.75642" y2="80.3336" gradientUnits="userSpaceOnUse">
<stop stop-color="#FDF53F"/>
<stop offset="1" stop-color="#D93C65"/>
</linearGradient>
<linearGradient id="paint11_linear_8_837" x1="8.02371" y1="60.4972" x2="22.1373" y2="44.0641" gradientUnits="userSpaceOnUse">
<stop stop-color="#FDF53F"/>
<stop offset="1" stop-color="#D93C65"/>
</linearGradient>
<linearGradient id="paint12_linear_8_837" x1="30.1925" y1="32.1542" x2="-11.5103" y2="95.3523" gradientUnits="userSpaceOnUse">
<stop stop-color="#FDF53F"/>
<stop offset="1" stop-color="#D93C65"/>
</linearGradient>
<linearGradient id="paint13_linear_8_837" x1="28.9429" y1="33.9614" x2="6.74292" y2="71.348" gradientUnits="userSpaceOnUse">
<stop stop-color="#FDF53F"/>
<stop offset="1" stop-color="#D93C65"/>
</linearGradient>
<linearGradient id="paint14_linear_8_837" x1="14.8879" y1="84.4951" x2="29.4106" y2="67.5856" gradientUnits="userSpaceOnUse">
<stop stop-color="#FDF53F"/>
<stop offset="1" stop-color="#D93C65"/>
</linearGradient>
<linearGradient id="paint15_linear_8_837" x1="37.6988" y1="55.33" x2="-5.2129" y2="120.36" gradientUnits="userSpaceOnUse">
<stop stop-color="#FDF53F"/>
<stop offset="1" stop-color="#D93C65"/>
</linearGradient>
<linearGradient id="paint16_linear_8_837" x1="36.4127" y1="57.1895" x2="13.5693" y2="95.66" gradientUnits="userSpaceOnUse">
<stop stop-color="#FDF53F"/>
<stop offset="1" stop-color="#D93C65"/>
</linearGradient>
<linearGradient id="paint17_linear_8_837" x1="32.8028" y1="65.1402" x2="43.4435" y2="52.7508" gradientUnits="userSpaceOnUse">
<stop stop-color="#FDF53F"/>
<stop offset="1" stop-color="#D93C65"/>
</linearGradient>
<linearGradient id="paint18_linear_8_837" x1="49.5158" y1="43.7713" x2="18.0747" y2="91.4183" gradientUnits="userSpaceOnUse">
<stop stop-color="#FDF53F"/>
<stop offset="1" stop-color="#D93C65"/>
</linearGradient>
<linearGradient id="paint19_linear_8_837" x1="48.5741" y1="45.1339" x2="31.8369" y2="73.3209" gradientUnits="userSpaceOnUse">
<stop stop-color="#FDF53F"/>
<stop offset="1" stop-color="#D93C65"/>
</linearGradient>
<linearGradient id="paint20_linear_8_837" x1="64.0002" y1="95.1429" x2="104.465" y2="95.1429" gradientUnits="userSpaceOnUse">
<stop stop-color="#2B3582"/>
<stop offset="1" stop-color="#150E42"/>
</linearGradient>
<linearGradient id="paint21_linear_8_837" x1="106.829" y1="95.1429" x2="146.811" y2="95.1429" gradientUnits="userSpaceOnUse">
<stop stop-color="#2B3582"/>
<stop offset="1" stop-color="#150E42"/>
</linearGradient>
<linearGradient id="paint22_linear_8_837" x1="88.1288" y1="120.542" x2="98.0973" y2="120.542" gradientUnits="userSpaceOnUse">
<stop stop-color="#2B3582"/>
<stop offset="1" stop-color="#150E42"/>
</linearGradient>
<linearGradient id="paint23_linear_8_837" x1="96.9554" y1="122.183" x2="105.809" y2="122.183" gradientUnits="userSpaceOnUse">
<stop stop-color="#2B3582"/>
<stop offset="1" stop-color="#150E42"/>
</linearGradient>
<linearGradient id="paint24_linear_8_837" x1="105.016" y1="123.668" x2="114.729" y2="123.668" gradientUnits="userSpaceOnUse">
<stop stop-color="#2B3582"/>
<stop offset="1" stop-color="#150E42"/>
</linearGradient>
<linearGradient id="paint25_linear_8_837" x1="114.017" y1="122.197" x2="120.439" y2="122.197" gradientUnits="userSpaceOnUse">
<stop stop-color="#2B3582"/>
<stop offset="1" stop-color="#150E42"/>
</linearGradient>
<linearGradient id="paint26_linear_8_837" x1="26.0008" y1="147.087" x2="34.6355" y2="147.087" gradientUnits="userSpaceOnUse">
<stop stop-color="#53D8FF"/>
<stop offset="1" stop-color="#3840F7"/>
</linearGradient>
<linearGradient id="paint27_linear_8_837" x1="26.0002" y1="145.4" x2="34.3916" y2="145.4" gradientUnits="userSpaceOnUse">
<stop stop-color="#2B3582"/>
<stop offset="1" stop-color="#150E42"/>
</linearGradient>
<linearGradient id="paint28_linear_8_837" x1="26.7979" y1="143.045" x2="29.2301" y2="143.045" gradientUnits="userSpaceOnUse">
<stop stop-color="#F9B776"/>
<stop offset="1" stop-color="#F47960"/>
</linearGradient>
<linearGradient id="paint29_linear_8_837" x1="10.5888" y1="149.221" x2="13.8977" y2="149.221" gradientUnits="userSpaceOnUse">
<stop stop-color="#53D8FF"/>
<stop offset="1" stop-color="#3840F7"/>
</linearGradient>
<linearGradient id="paint30_linear_8_837" x1="10.6129" y1="145.939" x2="15.4698" y2="145.939" gradientUnits="userSpaceOnUse">
<stop stop-color="#2B3582"/>
<stop offset="1" stop-color="#150E42"/>
</linearGradient>
<linearGradient id="paint31_linear_8_837" x1="13.1372" y1="141.78" x2="16.044" y2="141.78" gradientUnits="userSpaceOnUse">
<stop stop-color="#F9B776"/>
<stop offset="1" stop-color="#F47960"/>
</linearGradient>
<linearGradient id="paint32_linear_8_837" x1="13.5757" y1="136.98" x2="58.243" y2="99.505" gradientUnits="userSpaceOnUse">
<stop stop-color="#CB236D"/>
<stop offset="1" stop-color="#4C246D"/>
</linearGradient>
<linearGradient id="paint33_linear_8_837" x1="29.9849" y1="97.274" x2="29.9849" y2="144.082" gradientUnits="userSpaceOnUse">
<stop stop-color="#939DC6"/>
<stop offset="0.9964" stop-color="#E39AB7"/>
</linearGradient>
<linearGradient id="paint34_linear_8_837" x1="53.1185" y1="80.7433" x2="41.6513" y2="95.7085" gradientUnits="userSpaceOnUse">
<stop stop-color="#F9B776"/>
<stop offset="1" stop-color="#F47960"/>
</linearGradient>
<linearGradient id="paint35_linear_8_837" x1="16.9148" y1="79.5148" x2="37.2086" y2="99.3291" gradientUnits="userSpaceOnUse">
<stop stop-color="#A737D5"/>
<stop offset="1" stop-color="#EF497A"/>
</linearGradient>
<linearGradient id="paint36_linear_8_837" x1="39.1898" y1="82.0689" x2="32.1705" y2="98.5889" gradientUnits="userSpaceOnUse">
<stop stop-color="#909AC6"/>
<stop offset="0.9964" stop-color="#E295B4"/>
</linearGradient>
<linearGradient id="paint37_linear_8_837" x1="27.4576" y1="90.3931" x2="28.7095" y2="83.8001" gradientUnits="userSpaceOnUse">
<stop stop-color="#F9B776"/>
<stop offset="1" stop-color="#F47960"/>
</linearGradient>
<linearGradient id="paint38_linear_8_837" x1="30.8653" y1="78.2999" x2="23.6958" y2="83.8028" gradientUnits="userSpaceOnUse">
<stop stop-color="#F9B776"/>
<stop offset="1" stop-color="#F47960"/>
</linearGradient>
<linearGradient id="paint39_linear_8_837" x1="25.8068" y1="73.9598" x2="32.4734" y2="82.5699" gradientUnits="userSpaceOnUse">
<stop stop-color="#2B3582"/>
<stop offset="1" stop-color="#150E42"/>
</linearGradient>
<linearGradient id="paint40_linear_8_837" x1="29.9741" y1="77.1384" x2="22.8046" y2="82.6413" gradientUnits="userSpaceOnUse">
<stop stop-color="#F9B776"/>
<stop offset="1" stop-color="#F47960"/>
</linearGradient>
<linearGradient id="paint41_linear_8_837" x1="34.1874" y1="95.0759" x2="29.1794" y2="102.611" gradientUnits="userSpaceOnUse">
<stop stop-color="#F9B776"/>
<stop offset="1" stop-color="#F47960"/>
</linearGradient>
<linearGradient id="paint42_linear_8_837" x1="25.3721" y1="104.155" x2="36.5607" y2="107.836" gradientUnits="userSpaceOnUse">
<stop stop-color="#2B3582"/>
<stop offset="1" stop-color="#150E42"/>
</linearGradient>
<linearGradient id="paint43_linear_8_837" x1="40.781" y1="96.9271" x2="48.7696" y2="105.397" gradientUnits="userSpaceOnUse">
<stop stop-color="#2B3582"/>
<stop offset="1" stop-color="#150E42"/>
</linearGradient>
<linearGradient id="paint44_linear_8_837" x1="45.6411" y1="99.0378" x2="49.2484" y2="104.487" gradientUnits="userSpaceOnUse">
<stop stop-color="#53D8FF"/>
<stop offset="1" stop-color="#3840F7"/>
</linearGradient>
<linearGradient id="paint45_linear_8_837" x1="124.966" y1="126.613" x2="131.495" y2="199.96" gradientUnits="userSpaceOnUse">
<stop stop-color="#C32B78"/>
<stop offset="1" stop-color="#593092"/>
</linearGradient>
<linearGradient id="paint46_linear_8_837" x1="118.383" y1="149.565" x2="135.306" y2="124.359" gradientUnits="userSpaceOnUse">
<stop stop-color="#A737D5"/>
<stop offset="1" stop-color="#EF497A"/>
</linearGradient>
<linearGradient id="paint47_linear_8_837" x1="120.847" y1="133.515" x2="127.633" y2="179.225" gradientUnits="userSpaceOnUse">
<stop stop-color="#A737D5"/>
<stop offset="1" stop-color="#EF497A"/>
</linearGradient>
<linearGradient id="paint48_linear_8_837" x1="121.322" y1="145.199" x2="129.976" y2="145.199" gradientUnits="userSpaceOnUse">
<stop stop-color="#18459F"/>
<stop offset="1" stop-color="#2874B5"/>
</linearGradient>
<linearGradient id="paint49_linear_8_837" x1="125.522" y1="141.703" x2="126.227" y2="149.623" gradientUnits="userSpaceOnUse">
<stop stop-color="#18459F"/>
<stop offset="1" stop-color="#2874B5"/>
</linearGradient>
</defs>
</svg>
