<svg width="200" height="179" viewBox="0 0 200 179" fill="none" xmlns="http://www.w3.org/2000/svg">
<path d="M73.0621 158.57H151.972C155.632 158.57 158.598 155.606 158.598 151.949V43.3634C158.598 39.7063 155.631 36.7428 151.972 36.7428H73.0621C69.4017 36.7428 66.4356 39.7074 66.4356 43.3634V151.949C66.4356 155.606 69.4017 158.57 73.0621 158.57Z" fill="url(#paint0_linear_269_534)"/>
<path d="M139.333 84.3791L139.269 84.0994C139.329 84.0854 145.293 82.7283 152.698 81.6856C159.537 80.7219 169.036 79.8375 175.461 81.0937L175.473 81.097C175.504 81.1056 178.664 81.9847 183.203 81.3972C187.39 80.8563 193.645 78.9205 199.659 72.7768L199.864 72.9773C197.181 75.7175 194.227 77.8647 191.082 79.3584C188.565 80.5539 185.921 81.3365 183.224 81.6834C178.729 82.2622 175.563 81.4189 175.399 81.3745C163.17 78.9855 139.57 84.3249 139.333 84.3791Z" fill="#97A43C"/>
<path d="M180.021 91.1923C177.943 91.1923 175.986 90.5821 174.262 89.3822C172.123 87.894 170.515 85.621 169.736 82.9816C168.452 78.6384 169.6 73.364 175.058 71.3685C180.456 69.3947 183.793 70.8526 187.019 72.2617C190.533 73.7965 193.852 75.2457 199.706 72.744L200 72.6183L199.898 72.9218C199.885 72.9597 198.594 76.7675 195.828 80.8626C194.201 83.2689 192.39 85.3045 190.443 86.9108C188.007 88.9226 185.351 90.2656 182.55 90.9007C181.693 91.0958 180.846 91.1923 180.021 91.1923ZM180.038 70.6987C178.601 70.6987 177 70.9632 175.156 71.6384C169.874 73.57 168.765 78.6872 170.01 82.9003C171.462 87.8148 176.214 92.0443 182.486 90.6211C188.73 89.2044 193.056 84.4482 195.585 80.7076C197.881 77.3106 199.154 74.113 199.516 73.1343C193.73 75.5059 190.261 73.9905 186.903 72.524C184.835 71.6222 182.722 70.6987 180.038 70.6987Z" fill="#97A43C"/>
<path d="M172.05 80.6568L171.89 80.8949L185.312 89.9633L185.473 89.7252L172.05 80.6568Z" fill="#97A43C"/>
<path d="M186.123 71.9838L176.75 81.4259L176.954 81.6281L186.328 72.1861L186.123 71.9838Z" fill="#97A43C"/>
<path d="M168.474 102.316L168.6 101.508C168.622 101.37 169.084 98.1208 165.334 96.7149C163.057 95.8608 158.979 93.4924 158.137 90.0325C157.639 87.9828 158.342 85.8876 160.228 83.8021C162.169 81.6559 164.708 81.3578 167.02 83.0032C169.045 84.4438 170.555 87.1785 171.062 90.3198C171.477 92.8952 171.433 96.9436 168.868 101.6L168.474 102.316ZM163.999 82.2456C162.725 82.2456 161.492 82.8341 160.442 83.995C158.623 86.0057 157.942 88.0142 158.417 89.9653C159.23 93.3081 163.211 95.6126 165.436 96.4461C168.388 97.5539 168.86 99.815 168.906 100.918C173.07 92.8215 170.199 85.6177 166.854 83.2374C165.921 82.574 164.949 82.2456 163.999 82.2456Z" fill="#97A43C"/>
<path d="M168.88 101.572L168.604 101.49C168.611 101.468 169.257 99.2752 169.053 96.3215C168.866 93.6019 167.896 89.6608 164.345 86.3255C161.237 83.4054 158.7 83.1399 155.764 82.832C152.26 82.4646 148.289 82.0484 142.501 76.7707L142.695 76.5583C148.413 81.772 152.334 82.1839 155.794 82.5459C158.658 82.8461 161.363 83.129 164.542 86.1153C168.165 89.5177 169.152 93.538 169.342 96.3117C169.547 99.3164 168.886 101.55 168.88 101.572Z" fill="#97A43C"/>
<path d="M162.041 84.441L160.237 93.4089L160.518 93.4655L162.323 84.4976L162.041 84.441Z" fill="#97A43C"/>
<path d="M165.131 86.7583L165.125 87.0457L169.939 87.1421L169.945 86.8546L165.131 86.7583Z" fill="#97A43C"/>
<path d="M167.287 90.0569L165.822 96.7987L166.102 96.8596L167.568 90.1179L167.287 90.0569Z" fill="#97A43C"/>
<path d="M169.144 94.8221L168.957 95.0402L170.625 96.473L170.813 96.2549L169.144 94.8221Z" fill="#97A43C"/>
<path d="M139.181 47.9249C139.181 47.9249 154.636 60.7032 148.33 71.9251C142.022 83.1469 138.069 73.9748 138.069 73.9748C138.069 73.9748 133.4 75.7437 139.56 62.0202C142.463 55.5513 139.181 47.9249 139.181 47.9249Z" fill="#BBD070"/>
<path d="M164.949 31.1206C164.949 31.1206 176.928 43.3559 163.372 62.3907C149.816 81.4255 152.774 90.7841 152.774 90.7841C152.774 90.7841 129.985 60.9068 164.949 31.1206Z" fill="#97A43C"/>
<path d="M148.603 85.2812C141.81 87.1509 146.447 67.0463 156.356 60.2263C166.264 53.4063 175.469 52.1706 180.847 45.8925C180.847 45.8925 182.059 76.0722 148.603 85.2812Z" fill="#48753A"/>
<path d="M173.348 19.5734C153.249 20.8719 152.867 43.7004 152.867 43.7004V152.425H72.1672V43.7004C72.1672 43.7004 72.075 20.9478 92.7487 19.5734H173.348V19.5734Z" fill="url(#paint1_linear_269_534)"/>
<path d="M138.194 47.9764H82.7632V52.8627H138.194V47.9764Z" fill="#DFEAF0"/>
<path d="M130.093 59.2763H82.7632V62.7373H130.093V59.2763Z" fill="#DFEAF0"/>
<path d="M106.556 68.4141H82.7632V73.5551H106.556V68.4141Z" fill="#DFEAF0"/>
<path d="M138.194 68.4141H113.586V73.5551H138.194V68.4141Z" fill="#DFEAF0"/>
<path d="M120.668 78.3134H82.7632V81.9781H120.668V78.3134Z" fill="#DFEAF0"/>
<path d="M125.469 87.476H82.7632V89.5116H125.469V87.476Z" fill="#DFEAF0"/>
<path d="M134.118 96.6382H82.7632V98.6738H134.118V96.6382Z" fill="#DFEAF0"/>
<path d="M106.719 117.161H82.6005V105.638H106.719V117.161ZM82.926 116.836H106.393V105.963H82.926V116.836Z" fill="#DFEAF0"/>
<path d="M134.118 105.801H112.517V108.448H134.118V105.801Z" fill="#DFEAF0"/>
<path d="M127.828 111.399H112.517V114.046H127.828V111.399Z" fill="#DFEAF0"/>
<path d="M125.088 124.125H82.7632V126.161H125.088V124.125Z" fill="#DFEAF0"/>
<path d="M107.091 133.287H82.7632V135.322H107.091V133.287Z" fill="#DFEAF0"/>
<path d="M144.648 138.668H129.441V123.475H144.648V138.668ZM130.866 137.244H143.222V124.899H130.866V137.244Z" fill="url(#paint2_linear_269_534)"/>
<path d="M137.283 134.251L131.937 129.216L133.568 127.489L137.391 131.091L145.753 124.226L147.262 126.06L137.283 134.251Z" fill="url(#paint3_linear_269_534)"/>
<path d="M166.306 141.199H178.995V140.446H166.306V141.199Z" fill="#E2D2CA"/>
<path d="M177.294 143.157H176.182V177.381H177.294V143.157Z" fill="#706865"/>
<path d="M159.473 141.308H168.292V140.232H159.473V141.308Z" fill="#CCBDB7"/>
<path d="M162.213 141.198H165.552V131.063H162.213V141.198Z" fill="#4667A8"/>
<path d="M134.68 143.156H183.546V141.21H134.68V143.156Z" fill="#B59074"/>
<path d="M192.925 129.434C192.925 129.434 193.46 136.921 191.996 137.818C191.078 138.379 187.421 140.273 187.529 140.627C187.637 140.983 189.595 143.787 189.595 143.787C189.595 143.787 196.62 139.164 196.847 137.707C197.069 136.284 196.501 126.743 195.536 126.303C194.812 125.974 194.43 126.246 193.519 126.922C192.239 127.873 192.925 129.434 192.925 129.434Z" fill="#F75A5A"/>
<path d="M180.119 131.571L179.5 131.342C179.5 131.342 180.272 129.531 180.61 129.576C180.998 129.627 181.483 129.754 181.483 129.754L180.119 131.571Z" fill="#EAD8CF"/>
<path d="M179.978 131.883C180.058 131.824 181.294 129.452 181.294 129.452L183.938 129.811L182.509 132.62L179.978 131.883Z" fill="#DA9B5B"/>
<path d="M184.281 172.707C184.281 172.707 184.499 174.222 184.527 174.45C184.554 174.677 186.957 174.315 186.957 174.315L187.152 172.512C187.152 172.512 184.582 172.493 184.281 172.707Z" fill="#424773"/>
<path d="M184.5 174.257C184.5 174.257 183.739 175.169 183.002 175.567C182.265 175.965 181.108 176.123 180.673 176.535C180.358 176.832 179.528 178.112 182.586 178.087C185.645 178.062 187.12 178.268 187.448 177.777C187.776 177.286 186.974 174.155 186.974 174.155C186.974 174.155 186.25 174.415 184.5 174.257Z" fill="#292C47"/>
<path d="M168.884 172.722C168.884 172.722 169.102 174.237 169.13 174.464C169.158 174.692 171.561 174.33 171.561 174.33L171.755 172.526C171.755 172.526 169.184 172.507 168.884 172.722Z" fill="#424773"/>
<path d="M169.104 174.272C169.104 174.272 168.343 175.185 167.606 175.582C166.87 175.98 164.16 176.308 163.724 176.719C163.41 177.016 162.887 178.214 167.191 178.101C170.248 178.022 171.724 178.282 172.052 177.791C172.38 177.3 171.578 174.169 171.578 174.169C171.578 174.169 170.895 174.448 169.104 174.272Z" fill="#292C47"/>
<path d="M192.031 146.534C192.031 146.534 183.295 148.012 181.321 148.32C179.348 148.63 168.649 151.29 167.31 152.101C166.245 152.746 167.869 168.242 168.247 174.155H172.462L172.768 156.421C177.826 156.547 181.434 155.238 185.117 155.797C188.8 156.357 191.871 157.15 194.211 154.014C194.21 154.014 194.297 147.219 192.031 146.534Z" fill="#292C47"/>
<path d="M183.42 174.169L187.527 173.915L187.927 156.419C190.105 156.474 190.851 156.336 192.613 156.122L195.928 148.421C193.022 149.002 183.711 151.348 182.47 152.1C181.405 152.746 183.041 168.256 183.42 174.169Z" fill="#292C47"/>
<path d="M188.01 113.814C188.01 113.814 184.807 112.93 183.584 115.414C182.363 117.899 182.916 122.607 184.53 123.05C186.145 123.494 188.465 122.983 189.136 121.438C189.806 119.892 190.34 117.695 190.181 116.272C190.02 114.849 188.86 114.155 188.01 113.814Z" fill="#EEA886"/>
<path d="M185.368 122.554C185.368 122.554 185.403 124.444 185.194 124.846C184.986 125.249 189.654 125.147 189.654 125.147C189.654 125.147 188.919 122.879 189.337 120.946C189.75 119.034 185.368 122.554 185.368 122.554Z" fill="#EEA886"/>
<path d="M189.588 120.232C189.588 120.232 189.339 120.739 188.13 120.657C186.922 120.575 185.328 119.119 184.815 118.989C184.302 118.859 184.271 118.567 184.271 118.567L184 119.049L183.475 119.13C183.475 119.13 183.832 117.669 183.054 117.156C182.276 116.642 183.404 112.502 187.345 113.501C187.345 113.501 190.352 114.051 190.392 115.728C190.431 117.405 190.172 119.343 189.588 120.232Z" fill="#3A3F47"/>
<path d="M184.949 124.798C184.949 124.798 184.962 124.029 185.312 123.955C185.661 123.881 188.982 123.425 189.409 123.593L189.594 124.61C189.594 124.609 188.768 125.117 184.949 124.798Z" fill="#E2D2CA"/>
<path d="M183.989 118.223C184.079 117.592 184.796 116.868 185.207 117.85C185.619 118.832 184.93 120.263 184.469 120.186C184.008 120.11 183.867 119.079 183.989 118.223Z" fill="#EEA886"/>
<path d="M171.042 133.89C171.044 133.889 171.045 133.889 171.047 133.89C171.024 133.9 171.02 133.901 171.042 133.89Z" fill="#323657"/>
<path d="M188.944 114.266C188.944 114.266 192.848 114.083 189.625 120.173L188.944 114.266Z" fill="#3A3F47"/>
<path d="M197.645 176.245L197.354 177.061L185.081 173.261L185.669 171.608L197.645 176.245Z" fill="#918783"/>
<path d="M184.66 172.679H186.055V159.347H184.66V172.679Z" fill="#918783"/>
<path d="M181.242 159.424H189.471V158.637H181.242V159.424Z" fill="#5E5854"/>
<path d="M172.96 176.245L173.251 177.061L185.525 173.261L184.986 171.503L172.96 176.245Z" fill="#918783"/>
<path d="M181.609 176.973V177.922L185.525 173.261L184.986 171.503L181.609 176.973Z" fill="#918783"/>
<path d="M171.813 177.379C171.813 178.012 172.327 178.525 172.96 178.525C173.594 178.525 174.107 178.012 174.107 177.379C174.107 176.746 173.594 176.234 172.96 176.234C172.327 176.234 171.813 176.746 171.813 177.379Z" fill="#BFB2AC"/>
<path d="M183.466 178.19C183.914 177.742 183.914 177.017 183.466 176.57C183.018 176.122 182.292 176.122 181.844 176.57C181.396 177.017 181.396 177.742 181.844 178.19C182.292 178.637 183.018 178.637 183.466 178.19Z" fill="#BFB2AC"/>
<path d="M197.906 178.475C198.523 178.33 198.905 177.712 198.759 177.097C198.614 176.481 197.996 176.099 197.38 176.245C196.763 176.39 196.382 177.008 196.527 177.624C196.673 178.239 197.29 178.621 197.906 178.475Z" fill="#BFB2AC"/>
<path d="M177.026 158.639H193.58C194.392 158.639 195.05 157.981 195.05 157.17V157.132C195.05 156.32 194.391 155.663 193.58 155.663H177.026C176.215 155.663 175.556 156.321 175.556 157.132V157.17C175.556 157.981 176.214 158.639 177.026 158.639Z" fill="#E2D2CA"/>
<path d="M140.932 177.38H142.044V143.156H140.932V177.38Z" fill="#706865"/>
<path d="M150.93 135.945H176.835C177.646 135.945 178.302 135.29 178.302 134.48V117.085C178.302 116.275 177.646 115.62 176.835 115.62H150.93C150.12 115.62 149.464 116.275 149.464 117.085V134.48C149.464 135.288 150.12 135.945 150.93 135.945Z" fill="#5F8BE3"/>
<path d="M150.592 132.76H177.172V116.718H150.592V132.76Z" fill="#F5F7FF"/>
<path d="M157.913 141.237V140.875C157.913 140.875 158.422 138.625 162.022 138.625C165.622 138.625 165.549 141.236 165.549 141.236H157.913V141.237Z" fill="#2C4069"/>
<path d="M165.593 138.96C165.593 138.96 164.81 138.899 164.524 138.727C164.238 138.554 162.523 137.402 162.121 137.586C161.718 137.771 159.039 138.591 159.132 138.982C159.225 139.374 159.473 139.336 159.661 139.266C159.85 139.197 161.797 138.789 161.968 138.858C161.968 138.858 160.056 139.555 160.049 140.063C160.041 140.571 160.449 140.695 160.63 140.888C160.811 141.08 161.029 141.558 161.522 141.594C162.015 141.631 164.418 140.795 164.912 140.757C165.407 140.719 166.323 140.787 166.386 140.707C166.446 140.626 165.593 138.96 165.593 138.96Z" fill="#EEA886"/>
<path d="M179.831 125.865C182.325 125.427 184.949 124.798 184.949 124.798L189.594 124.61C189.594 124.61 193.856 125.547 195.535 126.305C195.694 126.376 195.694 130.104 196.131 131.082L194.739 134.015C194.739 134.015 193.935 139.826 193.768 142.41C193.691 143.596 193.985 153.876 193.985 153.876C193.985 153.876 193.568 154.082 190.399 154.431C187.229 154.78 179.31 154.305 179.26 153.931C179.21 153.557 180.794 140.004 180.864 139.301C180.971 138.224 180.552 133.246 180.552 133.246C179.956 134.047 178.432 137.668 176.845 139.389C175.911 140.402 171.289 141.023 170.418 141.052C168.522 141.115 165.062 141.492 164.961 141.307C164.881 141.197 164.66 138.239 164.877 138.167C165.066 138.104 171.491 137.735 173.137 136.862C173.739 136.544 175.539 132.622 175.539 132.622C175.539 132.622 178.455 126.483 179.831 125.865Z" fill="#F75A5A"/>
<path d="M188.983 153.577H196.78C198.339 153.577 199.603 152.315 199.603 150.757V137.796C199.603 136.239 198.339 134.976 196.78 134.976H188.983C187.424 134.976 186.16 136.239 186.16 137.796V150.757C186.16 152.315 187.424 153.577 188.983 153.577Z" fill="#E2D2CA"/>
<path d="M188.542 157.897C190.525 157.897 192.131 157.231 193.32 155.92C196.008 152.955 195.525 147.745 195.503 147.524C195.462 147.113 195.095 146.813 194.685 146.854C194.274 146.895 193.975 147.26 194.015 147.671C194.02 147.731 194.449 152.453 192.209 154.919C191.304 155.917 190.104 156.401 188.542 156.401C188.129 156.401 187.795 156.736 187.795 157.148C187.794 157.563 188.129 157.897 188.542 157.897Z" fill="#E2D2CA"/>
<path d="M77.8402 135.412C77.8402 135.412 78.1711 135.727 78.285 136.022C78.3751 136.255 78.6778 136.564 78.821 136.741C78.9642 136.917 79.498 137.742 79.5739 137.972C79.6054 138.066 79.5642 138.715 79.6488 138.899C79.7334 139.083 79.9504 139.435 79.7866 139.502C79.6227 139.568 79.3385 139.303 79.3385 139.303C79.3385 139.303 79.4047 139.476 79.2788 139.577C79.0336 139.776 78.8514 139.696 78.8514 139.696C78.8514 139.696 78.8025 139.915 78.6789 139.971C78.4066 140.098 78.233 140.015 78.233 140.015C78.233 140.015 78.1364 140.154 77.9368 140.197C77.6807 140.254 77.5104 140.059 77.5104 140.059C77.5104 140.059 77.2066 140.201 77.0699 140.073C76.9332 139.945 76.904 139.78 76.8258 139.652C76.7477 139.525 76.4266 138.285 76.5915 137.297C76.7575 136.309 75.985 135.569 75.985 135.569L77.8402 135.412Z" fill="#EEA886"/>
<path d="M80.5689 143.005H76.3009C75.867 143.005 75.5144 142.653 75.5144 142.219V139.53C75.5144 139.096 75.867 138.744 76.3009 138.744H80.5689C81.0029 138.744 81.3554 139.096 81.3554 139.53V142.219C81.3554 142.653 81.0029 143.005 80.5689 143.005ZM76.3009 139.273C76.1588 139.273 76.0427 139.389 76.0427 139.531V142.22C76.0427 142.362 76.1588 142.478 76.3009 142.478H80.5689C80.711 142.478 80.8271 142.362 80.8271 142.22V139.531C80.8271 139.389 80.711 139.273 80.5689 139.273H76.3009Z" fill="#0E1E2B"/>
<path d="M86.4412 141.851H70.4283V153.313H86.4412V141.851Z" fill="#595C59"/>
<path d="M71.6336 111.178C71.6336 111.178 70.8134 111.19 70.463 113.639C70.1126 116.09 70.7765 117.114 70.8546 118.133C70.9338 119.153 72.1305 125.739 72.163 126.03C72.1956 126.321 72.3561 129.826 72.8226 130.756C73.2891 131.686 76.7217 136.958 76.7673 137.22C76.8129 137.484 78.4337 136.302 78.4337 136.302C78.4337 136.302 75.7377 130.663 75.5815 130.02C75.4253 129.376 74.3404 126.091 74.5118 125.088C74.6832 124.085 74.0312 118.553 74.0941 117.937C74.1581 117.324 73.2056 111.552 71.6336 111.178Z" fill="#EEA886"/>
<path d="M71.6337 111.178C71.6337 111.178 70.8135 111.19 70.4631 113.639C70.1126 116.09 70.4294 116.972 70.641 118.035C70.8406 119.037 71.5208 125.174 71.5534 125.465C71.5859 125.756 72.4007 129.455 72.8238 130.757C73.146 131.746 76.2054 136.927 76.252 137.19C76.2976 137.453 78.6312 135.979 78.6312 135.979C78.6312 135.979 75.6391 130.146 75.4829 129.504C75.3266 128.86 74.82 126.633 74.8037 125.616C74.7842 124.42 74.0324 118.555 74.0953 117.938C74.1582 117.324 73.9228 112.016 71.6337 111.178Z" fill="#384C9E"/>
<path d="M64.7716 168.328C64.7716 168.328 66.2004 170.447 66.7754 170.958C66.7754 170.958 68.1001 171.421 68.1825 172.322C68.2368 172.91 68.1847 173.856 66.6713 173.898C65.1579 173.94 64.1858 173.412 63.9091 172.496C63.6325 171.58 63.1085 171.171 63.1085 171.171V173.088H62.7678C62.7678 173.088 62.6821 171.235 62.6615 170.894C62.6398 170.554 62.4163 169.244 63.1356 168.664C63.8549 168.083 64.7716 168.328 64.7716 168.328Z" fill="#EDDAD3"/>
<path d="M74.4609 166.633C74.4609 166.633 74.7083 167.218 75.1748 167.826C75.5176 168.272 76.5819 170.105 77.0506 170.233C77.5193 170.361 78.9698 170.617 79.0967 171.426C79.2247 172.235 79.2887 172.81 77.8599 172.874C76.4311 172.938 75.4938 173.023 74.8114 172.022C74.129 171.02 73.0419 170.296 73.0419 170.296V172.908H72.4875C72.4875 172.908 72.2315 170.19 72.0829 169.998C71.9331 169.806 71.5502 167.719 72.8716 166.632C74.1951 165.547 74.4609 166.633 74.4609 166.633Z" fill="#EDDAD3"/>
<path d="M63.8127 127.42C63.8127 127.42 62.0085 129.764 61.5193 132.543C61.03 135.322 61.8078 144.651 61.7872 146.026C61.7655 147.399 60.4864 150.818 60.7425 153.406C60.9985 155.995 63.1357 168.662 63.1357 168.662L64.7718 168.327C64.7718 168.327 64.6123 155.196 64.7718 154.11C64.9312 153.024 65.2524 149.064 65.3164 148.616C65.3804 148.169 69.3761 136.423 69.3761 134.42C69.3761 132.415 68.161 124.151 63.8127 127.42Z" fill="#EEA886"/>
<path d="M72.8725 128.336C72.8725 128.336 75.8353 139.636 76.1879 141.201C76.5394 142.766 77.0493 144.059 77.0493 144.723C77.0493 146.265 76.4754 148.742 76.4754 148.742L74.4608 166.634H72.8725C72.8725 166.634 71.87 156.187 71.7106 154.078C71.5511 151.97 72.8616 148.711 72.5416 147.816C72.2215 146.922 67.3927 136.602 67.3927 136.602C67.3927 136.602 63.7377 125.056 72.8725 128.336Z" fill="#EEA886"/>
<path d="M67.0217 171.067C67.0217 171.067 65.7773 171.705 64.6468 170.862C63.5175 170.018 63.1356 168.662 63.1356 168.662L64.7716 168.327L67.0217 171.067Z" fill="#EEA886"/>
<path d="M77.0515 170.233C77.0515 170.233 75.7724 170.552 75.282 170.233C74.7917 169.913 73.1253 167.098 72.572 166.93C72.572 166.93 73.1068 165.845 74.4608 166.633C74.4608 166.633 76.6891 169.764 77.0515 170.233Z" fill="#EEA886"/>
<path d="M76.6652 143.003C76.6652 143.003 71.2201 146.205 61.0156 146.205C61.0156 146.205 60.4374 134.38 61.9215 131.053C63.4056 127.727 73.2543 129.795 73.2543 129.795C73.2543 129.795 76.3147 140.557 76.6652 143.003Z" fill="#1D3B54"/>
<path d="M69.2261 110.296C69.2261 110.296 70.8089 111.042 71.3579 111.152C71.9079 111.261 74.0398 114.029 74.413 115.039C74.7862 116.049 74.413 117.564 73.6438 119.343C72.8746 121.122 73.5993 121.715 73.2478 123.493C72.8963 125.272 72.5882 129.039 72.6543 130.026C72.7205 131.015 63.7636 131.201 61.7197 129.4C61.7197 129.4 63.7745 126.326 64.0381 125.886C64.3017 125.447 64.0815 123.053 63.8407 122.438C63.5987 121.823 61.9898 116.594 61.9898 116.594C61.9898 116.594 60.6739 112.578 61.8629 111.656C62.8957 110.855 65.711 110.569 66.2166 110.393C66.7232 110.218 68.1933 110.142 69.2261 110.296Z" fill="#EDDAD3"/>
<path d="M69.7318 113.82L70.6929 112.694L69.8576 109.732C69.8587 109.733 69.5788 111.382 69.7318 113.82Z" fill="#D6C5BE"/>
<path d="M67.2302 99.0739C68.1708 98.7433 71.6262 97.9314 72.4398 102.346C73.2535 106.76 70.8136 109.9 68.5711 109.067C66.3297 108.232 64.9443 105.18 64.813 102.851C64.6796 100.523 66.0433 99.4912 67.2302 99.0739Z" fill="#EEA886"/>
<path d="M72.4385 102.345C72.4385 102.345 72.6078 98.5676 68.8497 98.4365C65.0916 98.3053 64.0805 101.397 64.3876 103.65C64.6957 105.904 66.2514 107.092 66.2514 107.092C66.2514 107.092 66.1158 105.268 66.8459 104.795C67.575 104.321 70.4987 103.377 71.7735 101.181C71.7724 101.181 72.3637 101.875 72.4385 102.345Z" fill="#252E3B"/>
<path d="M67.753 101.945C67.2583 103.449 65.7894 104.318 64.4734 103.885C63.1574 103.453 62.4924 101.883 62.9871 100.379C63.4818 98.8741 64.9507 98.0059 66.2667 98.4384C67.5827 98.8709 68.2477 100.44 67.753 101.945Z" fill="#252E3B"/>
<path d="M69.9824 108.47C69.9824 108.47 69.6667 111.371 69.7329 112.315C69.7329 112.315 68.0882 113.961 66.2179 110.393C66.2179 110.393 67.0044 108.922 66.4121 106.918C65.8197 104.915 69.9824 108.47 69.9824 108.47Z" fill="#EEA886"/>
<path d="M69.7318 112.315V113.82L67.8398 112.407L69.7318 112.315Z" fill="#EEA886"/>
<path d="M69.7317 113.819L68.9462 112.848L66.2991 110.212L65.4431 111.036L69.7317 113.819Z" fill="#D6C5BE"/>
<path d="M65.9325 110.465C65.9325 110.465 68.1533 113.832 68.2596 115.315C68.3659 116.797 67.434 127.885 66.6876 131.45C65.9412 135.014 60.5514 131.048 60.5514 131.048C60.5514 131.048 64.1739 125.191 62.783 120.499C61.3922 115.809 60.8877 113.934 60.8877 113.934C60.8877 113.934 61.3662 111.322 63.0619 110.954C64.5482 110.631 65.9325 110.465 65.9325 110.465Z" fill="#384C9E"/>
<path d="M74.5845 115.487C74.5845 115.487 74.961 116.905 73.3998 120.035C73.3998 120.035 73.4248 124.041 73.4681 125.293C73.5126 126.545 73.8088 131.278 73.8088 131.278L72.265 132.181C71.9536 132.363 71.5696 132.11 71.613 131.752C72.0502 128.151 73.4725 114.487 70.4001 110.813L71.6325 111.176C71.6336 111.177 73.8479 112.967 74.5845 115.487Z" fill="#384C9E"/>
<path d="M67.2225 103.997C67.0858 103.65 66.629 103.554 66.3654 103.751C66.1018 103.948 65.9477 104.541 66.3654 105.31C66.7831 106.079 68.2563 106.615 67.2225 103.997Z" fill="#EEA886"/>
<path d="M70.6941 112.694L71.9059 113.029L69.8587 109.733L70.6941 112.694Z" fill="#FAE6DE"/>
<path d="M68.9464 112.848L67.8398 114.297L65.567 110.512L66.2993 110.212L68.9464 112.848Z" fill="#FAE6DE"/>
<path d="M69.9173 109.108L69.863 109.69C69.863 109.69 68.5558 109.934 66.846 107.851C66.8449 107.85 68.0578 109.328 69.9173 109.108Z" fill="#A77860"/>
<path d="M76.6425 126.866C76.6425 126.866 77.4106 127.36 77.8532 127.084C78.2297 126.849 78.8849 126.816 79.0878 126.806C79.3579 126.791 80.1716 126.44 80.1922 126.781C80.2128 127.121 78.8795 127.424 78.6126 127.544C78.3457 127.663 79.5207 128.236 79.653 128.511C79.7854 128.785 78.7244 130.675 77.9628 130.188C77.2012 129.702 76.7097 128.68 76.5589 128.621C76.4081 128.563 75.9915 128.288 75.9915 128.288L76.6425 126.866Z" fill="#EEA886"/>
<path d="M62.0443 111.482C62.0443 111.482 63.1107 111.218 64.034 112.205C64.9572 113.194 65.4183 114.819 65.6602 115.345C65.9022 115.872 68.9572 120.748 69.133 120.857C69.3087 120.967 72.4137 123.47 73.8197 124.809C75.2268 126.149 77.9683 127.642 77.9683 127.642L76.9355 129.092C76.9355 129.092 68.6046 124.656 67.5501 123.03C66.4945 121.406 62.283 116.903 62.283 116.903C62.283 116.903 59.7693 113.119 62.0443 111.482Z" fill="#EEA886"/>
<path d="M79.5022 128.356C79.5022 128.356 81.7328 130.001 81.7903 130.234C81.8467 130.468 81.7512 130.583 81.5353 130.438C81.3205 130.293 79.3341 128.911 79.3341 128.911C79.3341 128.911 81.6471 131.301 81.736 131.483C81.7881 131.589 81.6145 131.824 81.4919 131.757C81.3693 131.69 78.9413 129.452 78.9413 129.452C78.9413 129.452 81.097 131.687 81.1252 131.861C81.1502 132.013 80.9375 132.189 80.7661 132.035C80.5947 131.88 78.477 129.918 78.477 129.918C78.477 129.918 79.9438 131.643 79.8809 131.805C79.8429 131.903 79.7019 132.114 79.3373 131.656C78.9728 131.199 77.9997 130.211 77.9997 130.211L79.5022 128.356Z" fill="#EEA886"/>
<path d="M73.7677 119.249C73.7677 119.249 73.8414 124.251 73.5355 126.663L73.3999 120.035L73.7677 119.249Z" fill="#27356E"/>
<path d="M62.5943 111.115C62.5943 111.115 63.2018 111.217 64.1251 112.205C65.0483 113.194 65.5094 114.819 65.7513 115.345C65.9933 115.872 69.0483 120.748 69.2241 120.857C69.3998 120.967 71.9439 122.713 73.351 124.053C74.7581 125.392 77.3759 126.992 77.3759 126.992L76.0328 128.985C76.0328 128.985 68.686 124.921 67.5208 123.372C66.2764 121.718 61.8392 116.863 61.8392 116.863C61.8392 116.863 58.9621 112.442 62.5943 111.115Z" fill="#384C9E"/>
<path d="M79.3503 139.176C79.3503 139.176 79.0639 138.063 78.7059 137.897C78.3478 137.731 78.4281 138.138 78.4281 138.138C78.4281 138.138 78.3554 137.734 78.0224 137.756C77.6893 137.779 77.8097 138.251 77.8097 138.251C77.8097 138.251 77.6709 137.959 77.3541 138.101C77.0373 138.243 77.2282 138.613 77.2282 138.613C77.2282 138.613 76.8008 138.308 76.6977 138.723C76.5241 139.425 77.0503 140.085 77.0503 140.085C77.0503 140.085 77.2163 140.235 77.5114 140.078C77.5114 140.078 77.8531 140.471 78.2415 140.049C78.2415 140.049 78.8111 140.198 78.8664 139.726C78.8643 139.726 79.5076 139.804 79.3503 139.176Z" fill="#DB9C7C"/>
<path d="M67.6053 124.544L65.0905 120.49C65.0905 120.49 67.2354 123.02 67.4588 123.291C67.6823 123.562 67.7008 123.582 67.7008 123.582C67.7008 123.582 67.6357 124.405 67.6053 124.544Z" fill="#27356E"/>
<path d="M97.9346 134.146C97.9346 134.146 98.1093 134.936 98.4152 135.742C98.5649 136.134 98.6387 138.713 98.6235 139.046C98.6105 139.326 98.425 139.16 98.3306 138.976C98.2764 138.87 98.1071 137.979 97.9422 137.505C97.8033 137.107 97.684 136.959 97.6135 137.088C97.543 137.217 97.4161 138.873 97.5679 139.581C97.7198 140.289 97.5614 141.92 97.1882 141.684C96.815 141.447 95.9428 138.498 96.0155 137.387C96.0893 136.276 96.4863 134.883 96.4863 134.883L97.9346 134.146Z" fill="#EEA886"/>
<path d="M97.5851 135.64C97.5851 135.64 98.8023 127.555 99.1245 126.019C99.271 125.323 99.6735 123.592 99.9273 122.17C100.012 121.701 100.082 121.219 100.142 120.747C100.142 120.745 100.142 120.744 100.142 120.744C100.381 118.858 100.443 117.138 100.443 117.138C100.443 117.138 101.498 112.307 98.4464 112.009C98.4464 112.009 97.6285 112.264 97.5807 112.6C97.3963 113.891 96.9754 116.683 96.9569 117.344C96.9428 117.882 96.153 123.302 96.1411 123.494C96.1183 123.866 95.936 126.378 95.8612 127.48C95.6876 130.054 95.6214 135.811 95.6214 135.811L97.5851 135.64Z" fill="#F75A5A"/>
<path d="M96.612 170.099C96.612 170.099 95.4338 171.413 94.2383 171.688C93.0427 171.964 92.2063 172.315 92.1965 173.069C92.1879 173.824 95.6378 174.32 97.0058 173.56C99.0486 172.426 99.2558 172.768 99.4826 172.201C99.7093 171.634 99.2103 170.118 99.2255 169.938C99.2439 169.714 96.612 170.099 96.612 170.099Z" fill="#202338"/>
<path d="M108.629 170.442C108.629 170.442 107.763 171.722 106.604 172.017C105.462 172.308 104.721 172.862 104.664 173.595C104.608 174.328 107.359 175.287 109.291 174C110.561 173.155 111.035 173.203 111.291 172.665C111.547 172.127 111.157 170.622 111.182 170.447C111.214 170.232 108.629 170.442 108.629 170.442Z" fill="#202338"/>
<path d="M96.7444 169.471C96.7444 169.471 96.5893 170.087 96.6121 170.1C96.6348 170.113 99.3069 170.431 99.2256 169.938C99.1605 169.536 99.0661 169.101 99.0661 169.101L96.7444 169.471Z" fill="#81807E"/>
<path d="M108.665 169.809C108.665 169.809 108.608 170.429 108.629 170.443C108.651 170.457 111.197 170.937 111.182 170.448C111.17 170.061 111.02 169.578 111.02 169.578L108.665 169.809Z" fill="#81807E"/>
<path d="M99.1734 132.623C99.1734 132.623 98.2013 142.05 97.6968 145.278C97.1056 149.051 96.9059 152.17 96.741 154.122C96.5338 156.578 96.4937 168.661 96.3483 169.38C96.2029 170.099 99.5661 169.578 99.5661 169.578C99.5661 169.578 101.221 153.79 101.838 151.173C102.413 148.738 104.546 138.25 105.07 138.915C105.594 139.581 106.245 151.154 106.633 153.075C107.022 154.995 108.203 170.037 108.203 170.037C108.203 170.037 110.879 170.569 111.592 169.968C111.592 169.968 111.917 157.006 111.669 153.404C111.575 152.032 113.279 136.946 111.094 130.873C109.939 127.662 99.1734 132.623 99.1734 132.623Z" fill="#292C47"/>
<path d="M115.827 133.962C115.827 133.962 114.188 134.46 113.503 134.334C112.816 134.208 113.163 125.797 113.136 124.047C113.116 122.627 112.338 118.88 112.338 118.88C112.338 118.88 112.338 118.883 112.337 118.887C112.335 118.888 112.335 118.89 112.335 118.891C112.335 118.893 112.334 118.896 112.334 118.898C112.257 119.178 111.208 123.068 111.171 124.936C111.133 126.875 111.424 134.294 111.424 134.294L108.817 135.521L99.8018 135.78L98.488 135.799C98.488 135.799 98.6952 131.402 98.7722 129.895C98.8199 128.937 99.0065 127.222 98.9588 125.553C98.9588 125.553 98.9892 123.793 98.8145 123.034C98.7961 119.688 98.5932 116.373 98.5932 116.373C98.4804 114.856 98.4023 113.438 98.3578 112.113C98.7245 111.921 99.1649 111.693 99.5175 111.526C100.608 111.007 102.128 110.309 103.103 109.861C103.675 109.599 104.234 109.408 104.234 109.408C104.234 109.408 108.132 109.035 108.447 109.055C108.547 109.061 109.034 109.23 109.673 109.474C111.055 109.999 113.72 111.065 114.144 111.37C114.767 111.815 116.082 122.393 116.141 123.134C116.249 124.466 115.827 133.962 115.827 133.962Z" fill="#D8D5E0"/>
<path d="M108.427 109.044C108.14 111.669 105.223 111.669 105.223 111.669C105.223 111.669 104.015 110.613 104.055 109.832C104.056 109.816 104.057 109.798 104.059 109.782C104.076 109.637 104.24 109.46 104.256 109.171C104.258 109.132 104.26 109.092 104.261 109.052C104.262 109.013 104.262 108.974 104.262 108.935C104.261 108.736 104.25 108.538 104.238 108.402C104.234 108.354 104.229 108.313 104.226 108.28C104.222 108.232 104.217 108.204 104.217 108.204C104.217 108.204 104.688 107.709 105.285 107.119C106.328 106.089 107.765 104.766 107.767 105.292C107.767 105.32 107.763 105.354 107.755 105.392C107.503 106.575 108.427 109.044 108.427 109.044Z" fill="#EEA886"/>
<path d="M108.154 130.722C108.154 130.722 108.391 132.21 108.411 132.597L108.911 132.497C108.911 132.497 108.774 130.924 108.692 130.659L108.154 130.722Z" fill="#5D676C"/>
<path d="M116.344 139.386C116.344 139.386 116.191 137.3 115.632 136.985C115.074 136.669 115.403 137.31 115.403 137.31C115.403 137.31 115.738 138.821 115.815 139.433C115.82 139.462 116.344 139.386 116.344 139.386Z" fill="#7F827F"/>
<path d="M110.827 140.859L118.185 138.654L118.301 147.747L111.013 152.261L110.827 140.859Z" fill="#7F827F"/>
<path d="M111.013 152.261L111.942 152.418L119.027 147.866L118.8 138.687L118.185 138.654L111.013 152.261Z" fill="#7F827F"/>
<path d="M106.438 110.59L105.224 111.671C105.224 111.671 106.626 111.577 106.887 111.344L106.438 110.59Z" fill="#B4B1BA"/>
<path d="M98.7383 134.384C98.7383 134.384 104.443 134.87 109.439 134.384V136.022C109.439 136.022 101.935 137.105 98.4877 135.71L98.7383 134.384Z" fill="#292C47"/>
<path d="M103.102 109.861C102.786 110.005 102.414 110.176 102.018 110.358C101.188 110.741 100.254 111.174 99.5163 111.524C99.1247 111.711 98.6408 111.93 98.2654 112.087C98.3088 113.433 98.375 114.876 98.4889 116.422C98.4889 116.422 98.5963 120.196 98.8144 123.775C98.8882 124.288 98.9261 124.811 98.8838 125.348C98.8296 126.048 98.7536 126.812 98.6625 127.61C98.6614 127.621 98.6604 127.63 98.6593 127.64C98.6376 127.83 98.6148 128.02 98.592 128.213C98.592 128.216 98.5909 128.218 98.5909 128.221C98.106 132.209 97.2847 136.785 96.8562 138.169C96.7661 138.459 97.0775 138.725 97.301 138.931L98.8611 139.915C98.8611 139.915 99.5044 133.998 99.7181 131.991C99.9242 130.053 100.573 127.454 100.857 124.922V124.921C101.217 121.708 101.713 118.561 101.98 116.692C102.677 111.824 103.604 109.646 103.604 109.646L103.102 109.861Z" fill="#F75A5A"/>
<path d="M113.017 124.126C113.137 125.75 112.45 134.738 113.136 134.864C113.823 134.989 116.344 134.436 116.344 134.436C116.344 134.436 116.661 124.744 116.559 123.729C116.485 122.989 115.307 111.898 114.684 111.452C114.325 111.194 111.663 110.251 110.357 109.737C110.118 109.643 109.887 109.553 109.673 109.472C109.396 109.78 106.456 115.212 106.228 119.627C106.158 120.971 106.473 123.808 106.713 126.126C106.969 128.599 107.252 130.529 107.459 132.597C107.868 136.672 108.154 139.914 108.154 139.914L112.213 138.108C112.869 137.779 113.779 136.432 113.532 135.742C112.594 133.116 111.412 128.63 111.411 126.326C111.411 126.326 111.864 120.684 112.223 119.444C112.223 119.445 112.863 122.062 113.017 124.126Z" fill="#F75A5A"/>
<path d="M113.773 134.757C113.773 134.757 113.572 135.664 113.302 136.57C113.032 137.477 112.775 137.768 112.896 138.283C112.989 138.673 113.434 138.959 113.544 138.832C113.654 138.705 113.685 137.187 114.314 137.184C114.943 137.182 114.155 139.066 114.527 138.923C114.899 138.78 116.33 137.969 116.227 137.206C116.125 136.443 115.539 135.899 115.56 134.755C115.578 133.718 115.248 133.29 115.248 133.29L113.773 134.757Z" fill="#EEA886"/>
<path d="M114.251 137.121C114.251 137.121 113.417 137.348 113.509 140.179L114.455 140.007C114.455 140.007 114.414 138.442 114.685 137.584C114.685 137.585 114.628 137.031 114.251 137.121Z" fill="#7F827F"/>
<path d="M112.909 128.669L112.95 135.811C112.95 135.811 114.377 135.748 116.344 135.022L116.481 124.95L112.909 128.669Z" fill="#F75A5A"/>
<path d="M103.896 110.781C103.896 110.781 103.792 112.271 105.054 112.306C106.315 112.341 107.318 111.13 107.318 111.13L105.223 111.67L103.948 110.59L103.896 110.781Z" fill="#D8D5E0"/>
<path d="M108.259 108.553C108.259 108.553 107.062 110.087 106.438 110.589L107.461 112.305L109.226 109.305L108.259 108.553Z" fill="#EAE6F2"/>
<path d="M104.143 110.872L105.223 111.67C105.223 111.67 104.275 109.941 104.255 109.172L104.143 110.872Z" fill="#B4B1BA"/>
<path d="M104.256 109.172L103.563 109.662L102.79 111.964L104.143 110.872L104.256 109.172Z" fill="#EAE6F2"/>
<path d="M98.67 121.076C98.67 121.076 98.977 123.733 98.8154 126.159C98.6538 128.583 97.9899 132.461 97.9899 132.461C97.9899 132.461 97.9833 123.952 98.67 121.076Z" fill="#963737"/>
<path d="M100.822 101.49C100.822 101.49 100.06 103.341 100.558 103.564C100.969 103.748 100.308 105.556 100.228 105.849C100.148 106.142 100.981 106.26 101.172 106.424C101.363 106.586 102.108 108.757 102.784 108.754C103.46 108.751 106.362 107.387 107.093 106.45C107.824 105.511 108.092 101.591 107.373 100.025C106.654 98.4589 102.169 98.253 100.822 101.49Z" fill="#EEA886"/>
<path d="M100.672 101.887C100.672 101.887 99.5065 100.097 101.113 98.5089C102.72 96.9209 106.213 99.0443 106.588 99.1007C106.962 99.156 109.157 99.6253 108.426 102.961C107.777 105.93 107.715 106.008 107.715 106.008C107.715 106.008 106.844 104.438 106.435 104.203C105.797 103.835 104.51 104.075 104.51 104.075C104.51 104.075 104.956 102.369 103.964 102.238C102.973 102.107 101.612 101.422 100.672 101.887Z" fill="#323657"/>
<path d="M105.441 103.026C105.503 102.792 105.676 101.796 106.567 102.276C107.458 102.758 106.301 104.723 106.158 104.761C106.017 104.801 104.923 104.997 105.441 103.026Z" fill="#EEA886"/>
<path d="M106.977 106.582C106.956 106.632 106.294 108.241 104.261 109.053C104.262 109.014 104.262 108.975 104.262 108.936C104.261 108.737 104.25 108.539 104.238 108.403C104.233 108.355 104.229 108.314 104.226 108.281C104.226 108.28 106.411 107.255 106.977 106.582Z" fill="#A77860"/>
<path d="M33.6762 74.5411H56.7236V91.8264V95.4663L53.2053 91.8264H33.6762V74.5411Z" fill="#FFCE55"/>
<path d="M48.0424 80.8183C47.9567 80.723 47.8308 80.62 47.6648 80.5105C47.4988 80.401 47.3057 80.2948 47.0866 80.194C46.8674 80.0932 46.6277 80.0065 46.3651 79.9349C46.1026 79.8623 45.8335 79.8168 45.558 79.7962L45.5482 82.7531L45.8194 82.8117C46.3337 82.9374 46.798 83.0772 47.2124 83.2301C47.6269 83.384 47.9762 83.5704 48.2615 83.7905C48.5468 84.0105 48.7671 84.2804 48.9233 84.6001C49.0795 84.9199 49.1566 85.3079 49.1555 85.7654C49.1544 86.2705 49.0622 86.7008 48.8799 87.0574C48.6977 87.414 48.446 87.711 48.1259 87.9473C47.8059 88.1847 47.4338 88.3614 47.0085 88.4795C46.5843 88.5966 46.1286 88.6594 45.6426 88.6681L45.6372 90.1683L44.894 90.1661L44.8995 88.6378C44.2138 88.5879 43.5607 88.4502 42.9423 88.2248C42.3228 87.9993 41.7576 87.685 41.2434 87.2839L41.9768 85.9149C42.0809 86.0298 42.2328 86.1545 42.4335 86.2878C42.6331 86.4222 42.8664 86.5512 43.1333 86.6759C43.4001 86.8005 43.692 86.9111 44.012 87.0075C44.331 87.104 44.6619 87.1723 45.0047 87.2113L45.0145 84.2544C44.957 84.2349 44.8973 84.2186 44.8354 84.2034C44.7736 84.1893 44.7139 84.172 44.6564 84.1525C44.152 84.017 43.7115 83.8761 43.335 83.7265C42.9586 83.578 42.6472 83.3981 42.3999 83.1878C42.1525 82.9775 41.9648 82.7315 41.8379 82.4507C41.7099 82.17 41.647 81.8286 41.648 81.4286C41.6491 80.9625 41.7316 80.5484 41.8954 80.1864C42.0581 79.8255 42.2881 79.5144 42.5843 79.2532C42.8805 78.9919 43.2266 78.7892 43.6225 78.6418C44.0185 78.4955 44.4546 78.4044 44.932 78.3676L44.9363 76.9249L45.6795 76.9271L45.6751 78.3698C46.2946 78.4099 46.8664 78.5356 47.3893 78.747C47.9122 78.9583 48.3743 79.212 48.7736 79.509L48.0424 80.8183ZM43.3231 81.1739C43.322 81.5738 43.4609 81.8741 43.7419 82.0757C44.0218 82.2762 44.4481 82.454 45.0199 82.6079L45.0296 79.794C44.4481 79.8211 44.0185 79.9555 43.7419 80.1973C43.4631 80.439 43.3242 80.7652 43.3231 81.1739ZM47.4392 85.9301C47.4403 85.5106 47.2743 85.1941 46.9423 84.9784C46.6092 84.7627 46.1427 84.5687 45.5428 84.3953L45.533 87.2243C46.1427 87.2167 46.6125 87.104 46.9423 86.8861C47.2732 86.6683 47.4381 86.3496 47.4392 85.9301Z" fill="white"/>
<path d="M123.019 11.2423L117.839 8.255V10.2245H110.138V12.2601H117.839V14.2306L123.019 11.2423Z" fill="#FFCE55"/>
<path d="M110.138 4.68912L115.319 7.67641V5.70692H123.019V3.67023H115.319V1.70074L110.138 4.68912Z" fill="#FFCE55"/>
<path d="M159.627 4.80068C159.586 4.67929 159.51 4.53512 159.4 4.36928C159.291 4.20236 159.155 4.03002 158.992 3.85225C158.831 3.67341 158.643 3.49998 158.431 3.33089C158.219 3.1618 157.989 3.01438 157.743 2.88756L156.573 5.60387L156.8 5.7632C157.224 6.08079 157.596 6.3908 157.916 6.69429C158.236 6.99779 158.484 7.30671 158.661 7.62104C158.837 7.93538 158.935 8.27031 158.952 8.62475C158.97 8.98028 158.889 9.36724 158.708 9.7878C158.508 10.2517 158.254 10.6116 157.946 10.8685C157.638 11.1254 157.291 11.2999 156.904 11.392C156.516 11.4841 156.104 11.5015 155.667 11.4429C155.23 11.3844 154.787 11.2641 154.337 11.0809L153.744 12.4586L153.061 12.1648L153.666 10.7612C153.055 10.4457 152.509 10.0642 152.028 9.61329C151.548 9.16346 151.151 8.65185 150.836 8.08171L152.049 7.11052C152.1 7.25685 152.191 7.43136 152.322 7.63188C152.454 7.83349 152.616 8.04377 152.813 8.26273C153.009 8.48168 153.235 8.69846 153.491 8.912C153.747 9.12553 154.024 9.31738 154.324 9.48864L155.495 6.77234C155.449 6.73223 155.401 6.69321 155.35 6.65527C155.299 6.61733 155.25 6.5794 155.206 6.53821C154.795 6.21628 154.445 5.91279 154.158 5.6288C153.87 5.34481 153.655 5.05757 153.51 4.76708C153.365 4.47659 153.29 4.17743 153.282 3.86851C153.276 3.55959 153.351 3.22141 153.509 2.85396C153.694 2.42581 153.932 2.07679 154.224 1.80798C154.516 1.53917 154.849 1.34406 155.224 1.21941C155.6 1.09584 155.998 1.04382 156.42 1.06441C156.842 1.08501 157.279 1.17172 157.732 1.32564L158.302 0L158.986 0.293743L158.415 1.61938C158.969 1.89903 159.446 2.23938 159.844 2.63826C160.242 3.03823 160.567 3.45229 160.818 3.88152L159.627 4.80068ZM155.145 3.27778C154.987 3.64522 154.998 3.97582 155.177 4.27065C155.356 4.56547 155.678 4.89607 156.143 5.26135L157.257 2.6762C156.712 2.47242 156.265 2.42798 155.914 2.54179C155.564 2.65669 155.308 2.90166 155.145 3.27778ZM157.064 9.26644C157.23 8.88164 157.202 8.52503 156.981 8.19661C156.759 7.86818 156.407 7.50615 155.923 7.1116L154.803 9.70976C155.368 9.94172 155.844 10.023 156.232 9.95147C156.621 9.87994 156.898 9.65231 157.064 9.26644Z" fill="#FFCE55"/>
<path d="M46.5822 151.773C55.1578 143.205 55.1578 129.314 46.5822 120.746C38.0067 112.178 24.103 112.178 15.5274 120.746C6.95186 129.314 6.95185 143.205 15.5274 151.773C24.103 160.341 38.0067 160.341 46.5822 151.773Z" fill="#F8BB66"/>
<path d="M36.1337 157.607L28.5568 114.463C40.0187 113.14 50.6647 120.967 52.6848 132.47C54.7049 143.971 47.3623 154.952 36.1337 157.607Z" fill="#F8BB66"/>
<path d="M9.42695 140.052C7.6499 129.936 13.1156 120.224 22.0974 116.224L29.4595 158.148C19.652 157.442 11.204 150.168 9.42695 140.052Z" fill="#F8BB66"/>
<path d="M42.8564 148.05C49.3742 141.538 49.3742 130.98 42.8564 124.469C36.3386 117.957 25.7712 117.957 19.2535 124.469C12.7357 130.98 12.7357 141.538 19.2535 148.05C25.7712 154.562 36.3387 154.562 42.8564 148.05Z" fill="#F89829"/>
<path d="M31.8309 130.473C31.6139 130.447 31.3362 130.457 30.9999 130.503C30.6625 130.55 30.2969 130.631 29.903 130.748C29.5092 130.865 29.1035 131.025 28.6869 131.226C28.2703 131.428 27.8732 131.672 27.4968 131.957L30.8154 135.755L31.2288 135.524C32.0283 135.107 32.7802 134.763 33.4843 134.494C34.1884 134.225 34.8458 134.072 35.4588 134.032C36.0717 133.993 36.6586 134.091 37.2184 134.324C37.7782 134.558 38.3153 134.968 38.8284 135.555C39.3947 136.204 39.7614 136.858 39.9307 137.521C40.0988 138.182 40.1119 138.845 39.9686 139.508C39.8254 140.172 39.5488 140.818 39.1376 141.445C38.7264 142.073 38.2144 142.666 37.6003 143.223L39.2841 145.149L38.3294 145.982L36.6142 144.019C35.679 144.726 34.6885 145.284 33.6416 145.69C32.5947 146.096 31.5163 146.332 30.4064 146.395L29.8043 143.816C30.0669 143.845 30.4021 143.833 30.8089 143.78C31.2158 143.727 31.6595 143.631 32.1412 143.491C32.6229 143.351 33.1219 143.163 33.6394 142.928C34.1569 142.693 34.657 142.408 35.1398 142.072L31.8211 138.274C31.7267 138.314 31.6313 138.358 31.5358 138.409C31.4403 138.46 31.3449 138.506 31.2505 138.545C30.452 138.939 29.7284 139.254 29.0785 139.486C28.4287 139.718 27.8276 139.838 27.2744 139.847C26.7211 139.855 26.2036 139.751 25.723 139.534C25.2424 139.318 24.778 138.952 24.3289 138.439C23.8049 137.839 23.4447 137.217 23.2462 136.57C23.0476 135.924 22.9923 135.267 23.078 134.599C23.1637 133.932 23.3774 133.282 23.7203 132.649C24.0631 132.017 24.5187 131.409 25.0883 130.826L23.4696 128.973L24.4244 128.14L26.043 129.993C26.8816 129.348 27.755 128.867 28.663 128.548C29.5711 128.23 30.4487 128.036 31.2939 127.967L31.8309 130.473ZM26.1873 136.236C26.6364 136.75 27.1528 136.977 27.7387 136.919C28.3245 136.86 29.0698 136.609 29.9757 136.165L26.8176 132.551C26.1027 133.239 25.7045 133.894 25.6221 134.515C25.5396 135.136 25.7284 135.71 26.1873 136.236ZM36.817 137.698C36.3473 137.161 35.7766 136.941 35.1083 137.039C34.439 137.138 33.6231 137.413 32.6597 137.866L35.8341 141.499C36.6066 140.804 37.0818 140.131 37.2586 139.48C37.4343 138.83 37.2868 138.237 36.817 137.698Z" fill="#F8C681"/>
<path d="M39.5748 156.487C48.8159 152.611 54.4899 142.748 52.6846 132.469C50.8794 122.19 42.184 114.846 32.1737 114.345L39.5748 156.487Z" fill="#F8F8F8"/>
<path d="M29.4595 158.147L22.0974 116.223C23.7117 115.503 25.441 114.969 27.2615 114.65C27.6944 114.575 28.1262 114.512 28.5569 114.463L36.1337 157.606C35.7117 157.706 35.2843 157.795 34.8514 157.871C33.0309 158.19 31.2235 158.275 29.4595 158.147Z" fill="#F8F8F8"/>
<path d="M33.2825 114.033C33.2825 114.033 33.3009 114.345 33.2423 114.486C33.2423 114.486 33.1165 114.735 33.0373 114.916C33.0123 114.973 32.9917 115.024 32.9819 115.059C32.9407 115.202 32.8941 115.527 32.6999 115.842C32.5057 116.158 31.3188 117.302 31.3188 117.302L30.5171 116.837L29.7045 116.509C29.7045 116.509 29.7251 114.241 29.8727 113.927C29.8868 113.897 29.903 113.866 29.9193 113.839C30.069 113.584 30.2882 113.459 30.3826 113.334C30.4173 113.289 30.7937 112.859 30.9641 112.864C31.2006 112.87 31.3622 112.971 31.4479 113.109C31.4479 113.109 31.9112 113.141 32.1379 113.357C32.1379 113.357 32.5664 113.373 32.7726 113.721C32.7747 113.72 33.2065 113.786 33.2825 114.033Z" fill="#EEA886"/>
<path d="M8.19666 166.973C8.19666 166.973 7.97968 168.482 7.95147 168.708C7.92435 168.935 5.53215 168.575 5.53215 168.575L5.33795 166.779C5.33795 166.778 7.89723 166.759 8.19666 166.973Z" fill="#424773"/>
<path d="M7.97751 168.515C7.97751 168.515 8.73584 169.424 9.46814 169.82C10.2015 170.217 11.3537 170.373 11.7866 170.784C12.099 171.08 12.9268 172.355 9.88149 172.329C6.8362 172.303 5.36835 172.509 5.04288 172.02C4.71633 171.531 5.51481 168.414 5.51481 168.414C5.51481 168.414 6.23626 168.673 7.97751 168.515Z" fill="#292C47"/>
<path d="M25.3379 166.973C25.3379 166.973 25.1209 168.482 25.0927 168.708C25.0656 168.935 22.6734 168.575 22.6734 168.575L22.4792 166.779C22.4803 166.778 25.0385 166.759 25.3379 166.973Z" fill="#424773"/>
<path d="M25.1188 168.515C25.1188 168.515 25.8771 169.424 26.6094 169.82C27.3428 170.217 30.0399 170.542 30.4738 170.952C30.7863 171.248 31.307 172.439 27.0228 172.329C23.9786 172.25 22.5096 172.509 22.1842 172.02C21.8576 171.531 22.6561 168.414 22.6561 168.414C22.6561 168.414 23.3352 168.69 25.1188 168.515Z" fill="#292C47"/>
<path d="M10.1777 128.215C10.1777 128.215 7.92977 131.783 8.09792 135.009C8.26608 138.235 7.28317 141.757 6.94468 145.125C6.56823 148.882 5.02768 157.775 4.97126 159.784C4.91485 161.794 5.20994 168.21 5.20994 168.21L8.29429 168.28C8.29429 168.28 10.8839 152.733 11.5555 151.147C12.2259 149.561 15.5533 138.251 15.665 136.982C15.7768 135.713 10.1777 128.215 10.1777 128.215Z" fill="#292C47"/>
<path d="M22.0104 128.699C22.0104 128.699 22.9586 132.993 23.1821 134.967C23.4056 136.941 24.3006 149.067 24.4124 150.301C24.5241 151.535 25.1577 166.447 25.7544 168.28H21.8119C21.8119 168.28 18.785 157.44 18.785 152.311C18.785 147.182 16.4471 141.16 14.938 137.776C13.4289 134.392 9.97354 134.312 9.04596 128.033C9.04596 128.032 20.7541 126.706 22.0104 128.699Z" fill="#292C47"/>
<path d="M13.9281 98.2147C13.9281 98.2147 16.9452 97.0885 18.3372 99.3832C19.728 101.678 19.5945 106.271 18.0735 106.836C16.5525 107.401 14.2677 107.106 13.4898 105.67C12.7109 104.234 12.0079 102.158 12.0415 100.771C12.0751 99.3853 13.1362 98.6157 13.9281 98.2147Z" fill="#EEA886"/>
<path d="M17.7458 106.942C17.7458 106.942 17.62 107.756 17.8283 108.157C18.0355 108.558 13.9194 108.568 13.9194 108.568C13.9194 108.568 13.5853 106.387 12.9517 104.544C12.317 102.701 17.7458 106.942 17.7458 106.942Z" fill="#EEA886"/>
<path d="M12.9507 104.544C12.9507 104.544 13.2349 105.012 14.3947 104.83C15.5544 104.648 16.9691 103.107 17.453 102.938C17.9368 102.769 17.9423 102.485 17.9423 102.485L18.2449 102.927L18.7592 102.96C18.7592 102.96 18.2905 101.581 18.9979 101.018C19.7052 100.456 18.2634 96.5547 14.5444 97.8532C14.5444 97.8532 11.6878 98.6401 11.792 100.263C11.8961 101.888 12.3117 103.737 12.9507 104.544Z" fill="#3A3F47"/>
<path d="M18.0724 108.108C18.0724 108.108 18.0594 107.342 17.7123 107.268C17.3651 107.194 13.8761 106.859 13.4497 107.027V107.919C13.4486 107.92 14.271 108.425 18.0724 108.108Z" fill="#E2D2CA"/>
<path d="M17.8652 101.895C17.8002 101.623 17.1069 100.845 16.8422 101.678C16.5764 102.512 17.2436 103.631 17.6146 103.536C17.9868 103.44 18.0302 102.585 17.8652 101.895Z" fill="#EEA886"/>
<path d="M31.9179 117.16C31.9168 117.159 31.9146 117.159 31.9125 117.16C31.9353 117.17 31.9396 117.171 31.9179 117.16Z" fill="#323657"/>
<path d="M8.08815 134.673C8.08815 134.673 9.98129 135.851 13.1361 136.199C16.291 136.547 23.1323 135.338 23.1811 134.966C23.231 134.594 21.9661 125.361 22.0648 124.666C22.1646 123.971 21.9183 118.944 21.9183 118.944C21.9574 119.622 23.0217 122.824 23.857 124.336C24.1586 124.883 25.1708 126.593 25.659 126.204C28.0208 124.32 31.5185 117.62 31.7507 117.561C31.5554 117.476 29.851 115.627 29.6352 115.555C29.4464 115.492 28.0675 118.036 27.0358 119.152C26.5758 119.651 26.2481 120.012 26.2481 120.012C25.9498 119.342 24.6056 115.305 24.2161 113.857C23.2744 110.355 23.0195 110.139 23.0195 110.139C22.8025 109.304 18.0713 108.108 18.0713 108.108L13.4475 107.919C13.4475 107.919 9.2045 108.853 7.53377 109.607C7.37538 109.679 7.3743 113.389 6.93925 114.362L8.32466 117.282C8.32466 117.282 8.50584 122.973 8.67182 125.545C8.74885 126.727 8.08815 134.673 8.08815 134.673Z" fill="#384C9E"/>
<path d="M6.38481 120.139C6.51934 120.572 6.85891 121.435 7.2549 121.595C7.50877 121.698 8.23564 121.728 8.5622 121.712L8.88875 121.655L12.3441 120.62C12.3441 120.62 13.1166 111.736 7.52395 109.607C7.37532 109.656 5.1502 116.161 6.38481 120.139Z" fill="#384C9E"/>
<path d="M26.2492 120.012L26.643 122.421C26.643 122.421 27.0564 120.006 27.0358 119.152C26.5769 119.65 26.2492 120.012 26.2492 120.012Z" fill="#1C264F"/>
<path d="M13.0688 98.4857C13.0688 98.4857 9.4941 99.2521 13.0015 104.629L13.0688 98.4857Z" fill="#3A3F47"/>
<path d="M103.941 40.9032H97.674V28.8359H99.0888V39.6241H103.941V40.9032Z" fill="url(#paint4_linear_269_534)"/>
<path d="M109.213 41.1056C107.938 41.1056 106.92 40.7034 106.16 39.8981C105.399 39.0927 105.019 38.0261 105.019 36.6962C105.019 35.2491 105.415 34.1186 106.207 33.3046C106.999 32.4917 108.068 32.0841 109.416 32.0841C110.701 32.0841 111.705 32.4797 112.426 33.271C113.148 34.0623 113.509 35.1592 113.509 36.5618C113.509 37.9362 113.121 39.0374 112.343 39.8645C111.564 40.6915 110.521 41.1056 109.213 41.1056ZM109.314 33.245C108.426 33.245 107.724 33.5463 107.208 34.1501C106.692 34.7527 106.433 35.5852 106.433 36.6452C106.433 37.6663 106.695 38.4716 107.217 39.0602C107.738 39.6488 108.438 39.9436 109.314 39.9436C110.207 39.9436 110.893 39.6542 111.373 39.0765C111.852 38.4987 112.093 37.6771 112.093 36.6105C112.093 35.5331 111.853 34.7029 111.373 34.1197C110.893 33.5376 110.207 33.245 109.314 33.245Z" fill="url(#paint5_linear_269_534)"/>
<path d="M121.662 40.9032H120.281V39.557H120.247C119.646 40.5889 118.762 41.1059 117.594 41.1059C116.734 41.1059 116.062 40.8783 115.577 40.4241C115.091 39.97 114.848 39.3662 114.848 38.6151C114.848 37.0054 115.797 36.0678 117.695 35.8044L120.28 35.4424C120.28 33.978 119.688 33.2464 118.503 33.2464C117.464 33.2464 116.526 33.5998 115.69 34.3065V32.893C116.537 32.3543 117.515 32.0855 118.621 32.0855C120.648 32.0855 121.662 33.1575 121.662 35.3004V40.9032V40.9032ZM120.281 36.5448L118.2 36.8309C117.56 36.9209 117.077 37.0791 116.752 37.3068C116.426 37.5344 116.264 37.9365 116.264 38.5143C116.264 38.9348 116.413 39.2784 116.714 39.5451C117.014 39.8117 117.415 39.945 117.914 39.945C118.598 39.945 119.165 39.7055 119.611 39.2253C120.058 38.7451 120.28 38.1381 120.28 37.4032V36.5448H120.281Z" fill="url(#paint6_linear_269_534)"/>
<path d="M131.424 40.9029H130.043V35.9884C130.043 34.1598 129.375 33.245 128.038 33.245C127.347 33.245 126.776 33.504 126.324 34.0232C125.871 34.5424 125.646 35.1971 125.646 35.9884V40.9029H124.265V32.2857H125.646V33.7165H125.679C126.33 32.6282 127.274 32.0841 128.51 32.0841C129.454 32.0841 130.175 32.3887 130.674 32.9968C131.174 33.6059 131.424 34.485 131.424 35.635V40.9029Z" fill="url(#paint7_linear_269_534)"/>
<path d="M181.384 33.3535C181.311 33.1399 181.244 32.8625 181.187 32.521C181.129 32.1796 181.1 31.8414 181.1 31.5032C181.1 30.9775 181.205 30.5028 181.415 30.079C181.624 29.6551 181.886 29.2584 182.198 28.8888C182.51 28.5192 182.852 28.1637 183.222 27.8222C183.592 27.4808 183.934 27.1361 184.246 26.786C184.559 26.437 184.82 26.0706 185.03 25.688C185.239 25.3054 185.344 24.8848 185.344 24.4241C185.344 24.0296 185.268 23.6806 185.116 23.376C184.964 23.0714 184.756 22.8167 184.493 22.6118C184.229 22.4059 183.925 22.252 183.579 22.149C183.233 22.046 182.867 21.9951 182.481 21.9951C181.09 21.9951 179.885 22.5414 178.865 23.6351V21.465C180.124 20.676 181.428 20.2814 182.777 20.2814C183.402 20.2814 183.991 20.3638 184.542 20.5285C185.094 20.6933 185.577 20.9372 185.993 21.2624C186.408 21.5875 186.735 21.9918 186.974 22.4774C187.212 22.963 187.332 23.5256 187.332 24.1673C187.332 24.7753 187.224 25.3184 187.011 25.7953C186.797 26.2722 186.527 26.7101 186.202 27.109C185.877 27.5079 185.525 27.8797 185.147 28.2255C184.768 28.5712 184.417 28.9137 184.091 29.2552C183.766 29.5966 183.497 29.9521 183.283 30.3218C183.069 30.6914 182.962 31.0989 182.962 31.5422C182.962 31.9205 183.007 32.2641 183.097 32.572C183.187 32.8798 183.279 33.141 183.369 33.3546H181.384V33.3535ZM182.494 38.4837C182.132 38.4837 181.811 38.3525 181.532 38.0891C181.261 37.8257 181.125 37.506 181.125 37.1277C181.125 36.7418 181.261 36.421 181.532 36.1663C181.803 35.8953 182.124 35.7598 182.494 35.7598C182.864 35.7598 183.185 35.8953 183.458 36.1663C183.729 36.421 183.864 36.7418 183.864 37.1277C183.864 37.506 183.729 37.8268 183.458 38.0891C183.178 38.3525 182.857 38.4837 182.494 38.4837Z" fill="#FFCE55"/>
<path d="M108.763 91.4474C108.689 91.2338 108.623 90.9563 108.565 90.6149C108.508 90.2735 108.478 89.9353 108.478 89.5971C108.478 89.0714 108.584 88.5966 108.793 88.1728C109.002 87.749 109.264 87.3523 109.576 86.9827C109.889 86.6131 110.231 86.2576 110.601 85.9161C110.97 85.5747 111.312 85.23 111.625 84.8799C111.937 84.5309 112.199 84.1645 112.408 83.7819C112.617 83.3993 112.723 82.9787 112.723 82.518C112.723 82.1235 112.647 81.7745 112.495 81.4699C112.343 81.1653 112.135 80.9106 111.871 80.7057C111.607 80.4998 111.304 80.3459 110.957 80.2429C110.611 80.1399 110.246 80.089 109.86 80.089C108.469 80.089 107.263 80.6353 106.244 81.7289V79.5589C107.502 78.7698 108.806 78.3753 110.156 78.3753C110.781 78.3753 111.37 78.4577 111.921 78.6224C112.472 78.7872 112.956 79.0311 113.371 79.3562C113.787 79.6814 114.113 80.0857 114.352 80.5713C114.591 81.0569 114.71 81.6195 114.71 82.2612C114.71 82.8692 114.603 83.4123 114.389 83.8892C114.175 84.3661 113.905 84.804 113.581 85.2029C113.255 85.6018 112.904 85.9736 112.525 86.3193C112.146 86.6651 111.795 87.0076 111.47 87.3491C111.144 87.6905 110.875 88.046 110.661 88.4156C110.448 88.7852 110.34 89.1928 110.34 89.6361C110.34 90.0144 110.386 90.358 110.476 90.6658C110.566 90.9737 110.657 91.2349 110.747 91.4484H108.763V91.4474ZM109.874 96.5764C109.511 96.5764 109.19 96.4453 108.911 96.1819C108.64 95.9185 108.505 95.5988 108.505 95.2205C108.505 94.8346 108.64 94.5138 108.911 94.259C109.183 93.9881 109.504 93.8526 109.874 93.8526C110.244 93.8526 110.565 93.9881 110.837 94.259C111.108 94.5138 111.244 94.8346 111.244 95.2205C111.244 95.5988 111.108 95.9196 110.837 96.1819C110.557 96.4453 110.236 96.5764 109.874 96.5764Z" fill="#FFCE55"/>
<defs>
<linearGradient id="paint0_linear_269_534" x1="58.6729" y1="1.70619" x2="182.887" y2="223.454" gradientUnits="userSpaceOnUse">
<stop stop-color="#FF9F55"/>
<stop offset="1" stop-color="#FFD255"/>
</linearGradient>
<linearGradient id="paint1_linear_269_534" x1="122.757" y1="-9.50116" x2="122.757" y2="34.096" gradientUnits="userSpaceOnUse">
<stop stop-color="#DFEAF0"/>
<stop offset="1" stop-color="#FFF9F5"/>
</linearGradient>
<linearGradient id="paint2_linear_269_534" x1="129.441" y1="131.071" x2="144.648" y2="131.071" gradientUnits="userSpaceOnUse">
<stop stop-color="#FF9F55"/>
<stop offset="1" stop-color="#FFD255"/>
</linearGradient>
<linearGradient id="paint3_linear_269_534" x1="145.42" y1="133.515" x2="124.64" y2="112.003" gradientUnits="userSpaceOnUse">
<stop stop-color="#FF9F55"/>
<stop offset="1" stop-color="#FFD255"/>
</linearGradient>
<linearGradient id="paint4_linear_269_534" x1="97.6739" y1="34.8699" x2="103.941" y2="34.8699" gradientUnits="userSpaceOnUse">
<stop stop-color="#FF9F55"/>
<stop offset="1" stop-color="#FFD255"/>
</linearGradient>
<linearGradient id="paint5_linear_269_534" x1="105.018" y1="36.5947" x2="113.509" y2="36.5947" gradientUnits="userSpaceOnUse">
<stop stop-color="#FF9F55"/>
<stop offset="1" stop-color="#FFD255"/>
</linearGradient>
<linearGradient id="paint6_linear_269_534" x1="114.848" y1="36.595" x2="121.662" y2="36.595" gradientUnits="userSpaceOnUse">
<stop stop-color="#FF9F55"/>
<stop offset="1" stop-color="#FFD255"/>
</linearGradient>
<linearGradient id="paint7_linear_269_534" x1="124.264" y1="36.4937" x2="131.424" y2="36.4937" gradientUnits="userSpaceOnUse">
<stop stop-color="#FF9F55"/>
<stop offset="1" stop-color="#FFD255"/>
</linearGradient>
</defs>
</svg>
