<svg width="22" height="22" viewBox="0 0 22 22" fill="none" xmlns="http://www.w3.org/2000/svg">
<g clip-path="url(#clip0_271_19)">
<path d="M19.0569 6.04945L8.34046 15.2345L8.32949 15.2437L7.81229 15.3385C7.12751 15.4639 6.47081 15.0112 6.34535 14.3265L5.1811 7.98096C5.05519 7.29618 5.50835 6.63948 6.19313 6.51357L6.50591 6.45611L17.4808 4.44257C18.1651 4.31667 18.8222 4.76982 18.9477 5.4546L19.0569 6.04945Z" fill="white" stroke="#79B0B0"/>
<path d="M8.54094 15.0628L8.34047 15.2343L8.3295 15.2435L7.8123 15.3383C7.12752 15.4637 6.47081 15.011 6.34535 14.3262L5.1811 7.98073C5.05519 7.29595 5.50835 6.63925 6.19313 6.51335L6.50591 6.45588L7.31922 6.30673C6.72876 6.49975 6.35763 7.10381 6.47301 7.73156L7.63726 14.0757C7.72719 14.5666 8.09042 14.9382 8.54094 15.0628Z" fill="#489494"/>
<path d="M20.8312 14.7323L9.86895 16.744C9.09451 16.8862 8.35143 16.3736 8.2093 15.5991L7.10448 9.57885C6.96235 8.8044 7.47495 8.06133 8.24943 7.91919L19.2116 5.90746C19.9861 5.76533 20.7292 6.27792 20.8713 7.05241L21.9761 13.0727C22.1182 13.8471 21.6056 14.5902 20.8312 14.7323Z" fill="white" stroke="#79B0B0"/>
<path d="M14.6166 13.9358C16.0406 13.9358 17.1949 12.7815 17.1949 11.3575C17.1949 9.9335 16.0406 8.77914 14.6166 8.77914C13.1926 8.77914 12.0383 9.9335 12.0383 11.3575C12.0383 12.7815 13.1926 13.9358 14.6166 13.9358Z" fill="white"/>
<path d="M10.3673 16.653L9.86941 16.7442C9.0947 16.8863 8.35158 16.3735 8.20945 15.5993L7.10485 9.57882C6.96272 8.80455 7.4751 8.06143 8.24981 7.9193L8.47617 7.87762C8.30026 8.16584 8.22612 8.51722 8.29192 8.87518L9.52549 15.5993C9.61498 16.0871 9.94311 16.4709 10.3673 16.653Z" fill="#489494"/>
<path d="M0.328775 13.4113C0.180677 13.4113 0.0461785 13.3106 0.00941722 13.1603C-0.0337049 12.9839 0.0743855 12.8058 0.25091 12.7626L2.23497 12.2776C2.41145 12.2347 2.58955 12.3426 2.63267 12.5191C2.67579 12.6957 2.5677 12.8737 2.39118 12.9168L0.407167 13.4018C0.380934 13.4082 0.354613 13.4113 0.328775 13.4113Z" fill="white" stroke="#79B0B0"/>
<path d="M2.90049 16.9532C2.75239 16.9532 2.61789 16.8525 2.58113 16.7022C2.53801 16.5257 2.6461 16.3476 2.82263 16.3045L4.80668 15.8195C4.98321 15.7765 5.16127 15.8845 5.20439 16.061C5.24751 16.2375 5.13942 16.4156 4.9629 16.4587L2.97884 16.9437C2.95265 16.9501 2.92637 16.9532 2.90049 16.9532Z" fill="white" stroke="#79B0B0"/>
<path d="M0.858143 15.263C0.71158 15.263 0.577915 15.1644 0.53975 15.0159C0.494478 14.8399 0.600463 14.6606 0.77646 14.6153L3.86274 13.8217C4.03869 13.7764 4.21807 13.8824 4.2633 14.0584C4.30853 14.2344 4.20259 14.4138 4.02659 14.459L0.940307 15.2526C0.912846 15.2597 0.885253 15.263 0.858143 15.263Z" fill="white" stroke="#79B0B0"/>
<path d="M3.90001 12.5737C3.75095 12.5737 3.61593 12.4717 3.58013 12.3203C3.53832 12.1435 3.64777 11.9663 3.8246 11.9244L4.24157 11.8258C4.41827 11.784 4.59563 11.8935 4.63748 12.0703C4.67928 12.2471 4.56983 12.4243 4.393 12.4662L3.97604 12.5648C3.95055 12.5708 3.92506 12.5737 3.90001 12.5737Z" fill="white" stroke="#79B0B0"/>
<path d="M0.556823 17.5782C0.407629 17.5782 0.272516 17.476 0.236851 17.3244C0.19522 17.1475 0.30489 16.9704 0.481765 16.9288L1.23129 16.7524C1.4083 16.7109 1.58526 16.8204 1.62694 16.9973C1.66857 17.1742 1.5589 17.3513 1.38202 17.3929L0.632495 17.5693C0.607096 17.5753 0.581784 17.5782 0.556823 17.5782Z" fill="white" stroke="#79B0B0"/>
</g>
<defs>
<clipPath id="clip0_271_19">
<rect width="22" height="22" fill="white"/>
</clipPath>
</defs>
</svg>
