<svg width="22" height="22" viewBox="0 0 22 22" fill="none" xmlns="http://www.w3.org/2000/svg">
<g clip-path="url(#clip0_269_2123)">
<path d="M21.9712 13.1766L21.438 10.2425C21.4061 10.0669 21.2377 9.95062 21.0625 9.9824C20.887 10.0143 20.7705 10.1824 20.8024 10.3579L21.3357 13.2926C21.3876 13.5754 21.3262 13.8614 21.1629 14.0982C20.9995 14.3349 20.7538 14.4939 20.4699 14.546L18.3907 14.9353C18.2153 14.9682 18.0998 15.1369 18.1326 15.3122C18.1617 15.4675 18.2973 15.5758 18.4497 15.5758C18.4695 15.5758 20.5877 15.1811 20.5877 15.1811C21.0402 15.098 21.4333 14.8437 21.6946 14.465C21.9559 14.0863 22.0541 13.6285 21.9712 13.1766V13.1766Z" fill="#79B0B0"/>
<path d="M16.8673 15.2073L9.70932 16.5208C9.12522 16.628 8.56282 16.2401 8.45567 15.6562L7.37127 9.74626C7.26408 9.16216 7.65197 8.59976 8.2359 8.49261L18.9977 6.5176C19.2803 6.46575 19.5665 6.52703 19.8033 6.69042C20.04 6.85377 20.199 7.09947 20.2509 7.38219L20.5257 8.88003C20.5578 9.05553 20.726 9.17155 20.9016 9.13946C21.0771 9.10725 21.1932 8.93895 21.161 8.7635L20.8863 7.26561C20.8032 6.81316 20.5488 6.42006 20.1701 6.15869C19.7913 5.89736 19.3336 5.79913 18.8811 5.8822L18.8505 5.8878L18.8016 5.62161C18.7264 5.21162 18.496 4.85555 18.1529 4.61895C17.8099 4.38238 17.3952 4.29354 16.9853 4.36873L5.90396 6.40205C5.05789 6.55726 4.49583 7.37207 4.65109 8.21837L5.79414 14.4482C5.932 15.1995 6.58992 15.7268 7.32816 15.7268C7.42127 15.7268 7.51571 15.7184 7.6105 15.701L7.80064 15.6661L7.82023 15.7728C7.97247 16.6024 8.69891 17.1846 9.51411 17.1846C9.6169 17.1846 9.72121 17.1754 9.82586 17.1562L16.9838 15.8427C17.1593 15.8104 17.2754 15.6421 17.2432 15.4667C17.211 15.2912 17.0424 15.175 16.8673 15.2073V15.2073ZM7.49392 15.0657C6.99797 15.1567 6.5205 14.8273 6.42958 14.3316L5.28652 8.10183C5.19557 7.60588 5.52485 7.12841 6.02059 7.03749L17.1019 5.00417C17.3421 4.96003 17.5853 5.01214 17.7862 5.15077C17.9872 5.2894 18.1222 5.49801 18.1663 5.73828L18.2151 6.00447L8.11928 7.85726C7.18501 8.02866 6.56442 8.9284 6.73583 9.86289L7.68406 15.0308L7.49392 15.0657Z" fill="#79B0B0"/>
<path d="M11.4991 11.5193C11.4991 13.0931 12.7795 14.3735 14.3533 14.3735C15.9272 14.3735 17.2075 13.0931 17.2075 11.5193C17.2075 9.9455 15.9272 8.6651 14.3533 8.6651C12.7795 8.6651 11.4991 9.9455 11.4991 11.5193ZM16.5615 11.5193C16.5615 12.7369 15.5709 13.7275 14.3533 13.7275C13.1357 13.7275 12.1451 12.7369 12.1451 11.5193C12.1451 10.3017 13.1357 9.31109 14.3533 9.31109C15.5709 9.31109 16.5615 10.3017 16.5615 11.5193Z" fill="#79B0B0"/>
<path d="M0.399724 13.5573L2.34752 13.0811C2.52081 13.0387 2.62693 12.8639 2.58459 12.6907C2.54226 12.5174 2.36741 12.4115 2.19416 12.4536L0.246323 12.9297C0.0730248 12.9721 -0.03309 13.1469 0.00924398 13.3202C0.0452903 13.4677 0.177374 13.5666 0.322765 13.5666C0.348131 13.5666 0.373971 13.5635 0.399724 13.5573V13.5573Z" fill="#79B0B0"/>
<path d="M4.71901 15.9308L2.77122 16.407C2.59793 16.4493 2.49181 16.6242 2.53415 16.7974C2.57019 16.945 2.70228 17.0438 2.84767 17.0438C2.87303 17.0438 2.89887 17.0408 2.92463 17.0345L4.87242 16.5583C5.04571 16.516 5.15183 16.3412 5.10949 16.1679C5.06716 15.9947 4.89231 15.8886 4.71901 15.9308V15.9308Z" fill="#79B0B0"/>
<path d="M3.79187 13.9695L0.761994 14.7486C0.589213 14.7931 0.485166 14.9691 0.52961 15.1419C0.56712 15.2876 0.6983 15.3845 0.842183 15.3845C0.868798 15.3845 0.895887 15.3812 0.922846 15.3742L3.95272 14.5951C4.1255 14.5507 4.22955 14.3746 4.1851 14.2019C4.14066 14.0291 3.96452 13.925 3.79187 13.9695V13.9695Z" fill="#79B0B0"/>
<path d="M3.82874 12.7442C3.85337 12.7442 3.87835 12.7414 3.90333 12.7355L4.31267 12.6386C4.48627 12.5976 4.59372 12.4236 4.55268 12.25C4.5116 12.0764 4.33752 11.9689 4.16401 12.01L3.75467 12.1068C3.58107 12.1479 3.47362 12.3218 3.51466 12.4954C3.54984 12.6441 3.6824 12.7442 3.82874 12.7442V12.7442Z" fill="#79B0B0"/>
<path d="M1.20868 16.8467L0.472855 17.0198C0.299213 17.0607 0.191548 17.2346 0.232417 17.4083C0.26743 17.557 0.400074 17.6574 0.546541 17.6574C0.571046 17.6574 0.595895 17.6546 0.620787 17.6487L1.35661 17.4755C1.53026 17.4347 1.63792 17.2608 1.59705 17.0871C1.55618 16.9135 1.38232 16.806 1.20868 16.8467V16.8467Z" fill="#79B0B0"/>
</g>
<defs>
<clipPath id="clip0_269_2123">
<rect width="22" height="22" fill="white"/>
</clipPath>
</defs>
</svg>
